<svg width="96" height="96" viewBox="0 0 96 96" fill="none" xmlns="http://www.w3.org/2000/svg">
<path d="M29.2926 43.5822C31.7052 43.7481 33.8726 44.3703 35.7945 45.4489C37.7574 46.5274 39.2909 48.0415 40.395 49.9911C41.54 51.9407 42.1125 54.2429 42.1125 56.8978C42.1125 59.6355 41.4787 62.0207 40.211 64.0533C38.9433 66.0859 37.144 67.6622 34.8131 68.7822C32.4822 69.8607 29.7424 70.4 26.5936 70.4C23.6084 70.4 20.9095 69.8815 18.4968 68.8444C16.0841 67.8074 14.1622 66.314 12.7309 64.3644C11.2997 62.3733 10.5227 60.0296 10.4 57.3333H18.0675C18.3537 59.2415 19.2533 60.7348 20.7664 61.8133C22.3203 62.8918 24.2014 63.4311 26.4096 63.4311C28.945 63.4311 30.9078 62.8296 32.2982 61.6266C33.7294 60.4237 34.4451 58.7437 34.4451 56.5866C34.4451 54.4296 33.7294 52.7496 32.2982 51.5466C30.8669 50.3022 28.9041 49.68 26.4096 49.68H19.969V43.8933L31.5621 33.1911H12.3015V26.2222H40.8857V32.8178L29.2926 43.5822Z" fill="#243946"/>
<path d="M66.8941 46.9422H86.4V69.7778H80.4501V64.1155C79.0597 66.0652 77.2196 67.6 74.9296 68.72C72.6395 69.84 70.1451 70.4 67.4461 70.4C63.4795 70.4 59.9832 69.5289 56.9571 67.7866C53.9719 66.0444 51.6615 63.4933 50.0258 60.1333C48.39 56.7733 47.5722 52.7289 47.5722 48C47.5722 43.2711 48.39 39.2266 50.0258 35.8666C51.6615 32.5066 53.9719 29.9555 56.9571 28.2133C59.9832 26.4711 63.4795 25.6 67.4461 25.6C72.2306 25.6 76.1359 26.7822 79.162 29.1466C82.2289 31.5111 84.3963 34.8296 85.664 39.1022H77.6898C76.7493 36.9452 75.4407 35.3274 73.7641 34.2489C72.1284 33.1289 70.0224 32.5689 67.4461 32.5689C63.7658 32.5689 60.801 33.917 58.5519 36.6133C56.3437 39.2681 55.2396 43.0637 55.2396 48C55.2396 52.9363 56.3642 56.7526 58.6133 59.4489C60.8624 62.1037 63.868 63.4311 67.6302 63.4311C70.738 63.4311 73.2938 62.5185 75.2976 60.6933C77.3422 58.8266 78.5281 56.3585 78.8553 53.2889H66.8941V46.9422Z" fill="#243946"/>
</svg>
