<svg width="96" height="96" viewBox="0 0 96 96" fill="none" xmlns="http://www.w3.org/2000/svg">
<path d="M25.2812 22.1713C21.6158 25.3952 18.6781 29.3623 16.6641 33.809C14.6501 38.2555 13.6063 43.0799 13.6006 47.9613C13.5949 52.8428 14.6272 57.6701 16.6309 62.1215C18.6344 66.5727 21.5629 70.5463 25.2207 73.7787L20.9824 78.5746C16.6442 74.7408 13.1712 70.0277 10.7949 64.7484C8.41859 59.469 7.19349 53.744 7.2002 47.9545C7.20695 42.1648 8.4453 36.4423 10.834 31.1683C13.2227 25.8944 16.7073 21.1893 21.0547 17.3656L25.2812 22.1713ZM74.9453 17.3656C79.2926 21.1893 82.7764 25.8945 85.165 31.1683C87.5537 36.4423 88.7921 42.1648 88.7988 47.9545C88.8055 53.744 87.5804 59.469 85.2041 64.7484C82.8278 70.0278 79.3549 74.7408 75.0166 78.5746L70.7783 73.7787C74.4362 70.5463 77.3646 66.5727 79.3682 62.1215C81.3718 57.6701 82.4051 52.8428 82.3994 47.9613C82.3937 43.0799 81.3489 38.2555 79.335 33.809C77.321 29.3624 74.3841 25.3951 70.7188 22.1713L74.9453 17.3656ZM48 20.0004C63.464 20.0004 76 32.5364 76 48.0004C75.9998 63.4642 63.4639 76.0004 48 76.0004C32.5362 76.0003 20.0002 63.4642 20 48.0004C20 32.5364 32.5361 20.0004 48 20.0004ZM48 26.3998C36.0707 26.3998 26.4004 36.071 26.4004 48.0004C26.4006 59.9296 36.0708 69.5999 48 69.6C59.9293 69.6 69.5994 59.9296 69.5996 48.0004C69.5996 36.071 59.9294 26.3998 48 26.3998ZM59.7207 40.8002C61.17 40.8002 62.2985 41.1801 63.1064 41.9398C63.9144 42.6864 64.3906 43.6732 64.5332 44.8998H61.8594C61.7643 44.4332 61.538 44.0668 61.1816 43.8002C60.8371 43.5336 60.3798 43.3998 59.8096 43.3998C59.1798 43.3998 58.6922 43.5469 58.3477 43.8402C58.0153 44.1201 57.8487 44.4734 57.8486 44.8998C57.8486 45.2864 57.9618 45.6002 58.1875 45.8402C58.4251 46.0669 58.7169 46.2469 59.0615 46.3802C59.418 46.5002 59.9172 46.6402 60.5586 46.8002C61.4377 47.0135 62.1622 47.2471 62.7324 47.5004C63.3028 47.7404 63.7904 48.1334 64.1943 48.6801C64.5982 49.2133 64.7998 49.9533 64.7998 50.8998C64.7998 51.7131 64.604 52.4467 64.2119 53.1C63.8198 53.7533 63.2372 54.2667 62.4648 54.64C61.7045 55.0132 60.7899 55.1996 59.7207 55.1996C58.2949 55.1996 57.1239 54.8199 56.209 54.0599C55.2943 53.3 54.7713 52.2133 54.6406 50.8002H57.3145C57.4095 51.3601 57.6652 51.8005 58.0811 52.1205C58.5088 52.4403 59.0555 52.6 59.7207 52.6C61.2652 52.5999 62.0371 52.0331 62.0371 50.8998C62.037 50.5401 61.9247 50.2536 61.6992 50.0404C61.4853 49.8137 61.2116 49.6471 60.8789 49.5404C60.5462 49.4337 60.071 49.3072 59.4531 49.1605C58.5503 48.9606 57.8078 48.7403 57.2256 48.5004C56.6434 48.2604 56.1377 47.853 55.71 47.2797C55.2943 46.7064 55.0869 45.9129 55.0869 44.8998C55.087 44.0333 55.2885 43.2933 55.6924 42.6801C56.0963 42.0535 56.6487 41.5863 57.3496 41.2797C58.0507 40.9597 58.8414 40.8002 59.7207 40.8002ZM43.4092 55.0004H40.6465L39.8447 52.3998H34.7109L33.9092 55.0004H31.2002L35.6562 41.0004H38.9531L43.4092 55.0004ZM50.0889 41.0004C51.3246 41.0004 52.2693 41.3471 52.9229 42.0404C53.5881 42.7337 53.9208 43.6867 53.9209 44.8998C53.9209 45.5662 53.7667 46.1664 53.458 46.6996C53.161 47.2328 52.7806 47.6331 52.3174 47.8998C52.8401 48.1664 53.2679 48.5801 53.6006 49.14C53.9332 49.6866 54.0996 50.3401 54.0996 51.1C54.0996 52.3133 53.7669 53.267 53.1016 53.9603C52.4481 54.6536 51.5032 55.0003 50.2676 55.0004H44.207V41.0004H50.0889ZM46.8809 52.3998H49.9111C50.3982 52.3997 50.7728 52.2598 51.0342 51.9799C51.2954 51.6999 51.4258 51.3066 51.4258 50.8002C51.4258 50.2938 51.2953 49.9005 51.0342 49.6205C50.7728 49.3405 50.3982 49.1996 49.9111 49.1996H46.8809V52.3998ZM35.5137 49.8002H39.0244L37.3135 44.3002H37.2246L35.5137 49.8002ZM46.8809 46.8002H49.7324C50.2195 46.8002 50.5941 46.6602 50.8555 46.3802C51.1169 46.1003 51.248 45.7063 51.248 45.1996C51.248 44.6932 51.1168 44.2998 50.8555 44.0199C50.5941 43.74 50.2195 43.6 49.7324 43.6H46.8809V46.8002Z" fill="#243946"/>
</svg>
