<svg width="96" height="96" viewBox="0 0 96 96" fill="none" xmlns="http://www.w3.org/2000/svg">
<path d="M39.1522 72H46.6359L61.6032 24H54.1195L39.1522 72Z" fill="#243946"/>
<path d="M77.8584 65.8672C74.4177 65.8672 71.407 65.1446 68.8265 63.6994C66.2803 62.2199 64.3019 60.0865 62.8912 57.2994C61.5149 54.5123 60.8267 51.1747 60.8267 47.2865C60.8267 43.3984 61.5149 40.0607 62.8912 37.2736C64.3019 34.4865 66.2803 32.3704 68.8265 30.9252C71.407 29.4457 74.4177 28.7059 77.8584 28.7059C82.1938 28.7059 85.6518 29.7725 88.2323 31.9059C90.8473 34.0048 92.6365 36.8951 93.5999 40.5769H85.6001C84.8776 38.9941 83.9142 37.7898 82.7099 36.9639C81.54 36.1037 79.9229 35.6736 77.8584 35.6736C75.037 35.6736 72.7833 36.6715 71.0974 38.6672C69.4114 40.6629 68.5684 43.536 68.5684 47.2865C68.5684 51.0371 69.4114 53.9102 71.0974 55.9059C72.7833 57.9016 75.037 58.8994 77.8584 58.8994C79.9229 58.8994 81.54 58.4865 82.7099 57.6607C83.9142 56.8005 84.8776 55.579 85.6001 53.9962H93.5999C92.6365 57.6779 90.8473 60.5855 88.2323 62.7188C85.6518 64.8177 82.1938 65.8672 77.8584 65.8672Z" fill="#243946"/>
<path fill-rule="evenodd" clip-rule="evenodd" d="M37.7537 65.7761H29.7539L27.4314 59.0664H12.5673L10.2448 65.7761H2.3999L15.3027 29.6471H24.8508L37.7537 65.7761ZM19.8445 38.1632L14.8898 52.3567H25.0573L20.1026 38.1632H19.8445Z" fill="#243946"/>
</svg>
