<svg width="96" height="96" viewBox="0 0 96 96" fill="none" xmlns="http://www.w3.org/2000/svg">
<path fill-rule="evenodd" clip-rule="evenodd" d="M28.6519 48.1369C28.206 47.4121 27.9971 46.8823 28 46C27.9998 45.2823 28.4003 44.8 28.9888 44.8056L32.6094 44.8C32.6094 44.8 33.9512 41.0391 35.0551 38.7144C35.6509 37.4595 37.2858 37.6052 38.1253 37.6052L48 37.605L57.8747 37.6052C58.7142 37.6052 60.3491 37.4595 60.9449 38.7144C62.0488 41.0391 63.3906 44.8 63.3906 44.8L67.0112 44.8056C67.5997 44.8 68.0002 45.2823 68 46C68.0029 46.8823 67.794 47.4121 67.3481 48.1369C67.0166 48.6756 66.1016 48.7523 65.1997 48.8C65.1997 48.8 66.3997 52.382 66.3997 54.0659C66.3997 55.6057 66.4047 57.1144 66.4096 58.6128C66.4194 61.5793 66.4291 64.5056 66.3997 67.5539C66.3913 68.2443 65.833 68.8 65.1404 68.8H57.259C56.5622 68.8 55.9997 68.2359 55.9997 67.5371V64.8008H40.0003V67.5371C40.0003 68.2359 39.4378 68.8 38.741 68.8H30.8596C30.167 68.8 29.6087 68.2443 29.6003 67.5539C29.5709 64.5056 29.5806 61.5793 29.5904 58.6128C29.5953 57.1144 29.6003 55.6057 29.6003 54.0659C29.6003 52.382 30.8003 48.8 30.8003 48.8C29.8984 48.7523 28.9834 48.6756 28.6519 48.1369ZM37.8298 41.151C37.8298 41.151 38.071 40.8075 38.2782 40.8049H57.7218C57.929 40.8075 58.1702 41.151 58.1702 41.151L60.7997 48.8H35.2003L37.8298 41.151Z" fill="#243946"/>
<path d="M23.2 28H31.2L27.68 35.2H19.36L23.2 28Z" fill="#243946"/>
<path d="M16.8 40H25.3333L21.8133 47.2H12.96L16.8 40Z" fill="#243946"/>
<path d="M10.4 52L4 64H13.6L19.4667 52H10.4Z" fill="#243946"/>
<path d="M72.8 28H64.8L68.32 35.2H76.64L72.8 28Z" fill="#243946"/>
<path d="M79.2 40H70.6667L74.1867 47.2H83.04L79.2 40Z" fill="#243946"/>
<path d="M85.6 52L92 64H82.4L76.5333 52H85.6Z" fill="#243946"/>
</svg>
