<svg width="96" height="96" viewBox="0 0 96 96" fill="none" xmlns="http://www.w3.org/2000/svg">
<path d="M68.2676 73.0682C73.0451 68.2907 76 61.6907 76 54.4005C76 39.8202 64.1803 28.0005 49.6 28.0005C35.0197 28.0005 23.2 39.8202 23.2 54.4005C23.2 61.6907 26.1549 68.2907 30.9324 73.0682L25.2755 78.725C19.0503 72.4998 15.2 63.8998 15.2 54.4005C15.2 35.4019 30.6014 20.0005 49.6 20.0005C68.5986 20.0005 84 35.4019 84 54.4005C84 63.8998 80.1497 72.4998 73.9245 78.725L68.2676 73.0682Z" fill="#243946"/>
<path d="M36.2954 38.8359L52.3972 49.4119C53.969 50.5153 55.0346 52.3419 55.0863 54.3894C55.1672 57.6172 52.6797 60.1473 49.5375 60.043C47.5869 59.9787 45.846 58.9133 44.7879 57.342L44.7819 57.3335C44.7521 57.2912 44.7233 57.2418 44.6936 57.1995L34.3837 40.8093C33.5298 39.4608 34.9913 37.9611 36.3024 38.8373L36.2954 38.8359Z" fill="#243946"/>
<path d="M17.232 17.8159L10.712 11.2959L6.30396 15.7039L12.888 22.2879L8.81596 26.3599C8.44796 26.7279 8.70395 27.3679 9.23196 27.3679L22.368 27.1685V14.2079C22.368 13.6879 21.744 13.4239 21.368 13.7839L17.224 17.8239L17.232 17.8159Z" fill="#243946"/>
</svg>
