<svg width="96" height="96" viewBox="0 0 96 96" fill="none" xmlns="http://www.w3.org/2000/svg">
<path d="M35.4414 48.7998C42.8394 48.7998 48.8367 54.5305 48.8369 61.5996V71.2002C48.8368 78.2693 42.8394 84 35.4414 84H25.3955C17.9975 84 12.0001 78.2693 12 71.2002V61.5996C12.0002 54.5305 17.9975 48.7998 25.3955 48.7998H35.4414ZM70.6045 12C78.0025 12 83.9999 17.7307 84 24.7998V34.4004C83.9998 41.4694 78.0024 47.2002 70.6045 47.2002H60.5586C53.1606 47.2002 47.1633 41.4694 47.1631 34.4004V24.7998C47.1632 17.7307 53.1606 12 60.5586 12H70.6045Z" fill="#243946"/>
</svg>
