<svg width="96" height="96" viewBox="0 0 96 96" fill="none" xmlns="http://www.w3.org/2000/svg">
<path d="M24.4639 72.2057C20.076 72.2057 16.2367 71.2817 12.9458 69.4337C9.69884 67.5417 7.17584 64.8137 5.37683 61.2497C3.62171 57.6857 2.74414 53.4177 2.74414 48.4457C2.74414 43.4737 3.62171 39.2057 5.37683 35.6417C7.17584 32.0777 9.69884 29.3717 12.9458 27.5237C16.2367 25.6317 20.076 24.6857 24.4639 24.6857C28.8517 24.6857 32.6691 25.6317 35.9161 27.5237C39.207 29.3717 41.73 32.0777 43.4851 35.6417C45.2841 39.2057 46.1836 43.4737 46.1836 48.4457C46.1836 53.4177 45.2841 57.6857 43.4851 61.2497C41.73 64.8137 39.207 67.5417 35.9161 69.4337C32.6691 71.2817 28.8517 72.2057 24.4639 72.2057ZM24.4639 63.2957C28.0619 63.2957 30.9359 62.0197 33.0859 59.4677C35.236 56.9157 36.311 53.2417 36.311 48.4457C36.311 43.6497 35.236 39.9757 33.0859 37.4237C30.9359 34.8717 28.0619 33.5957 24.4639 33.5957C20.8659 33.5957 17.9918 34.8717 15.8418 37.4237C13.6918 39.9757 12.6167 43.6497 12.6167 48.4457C12.6167 53.2417 13.6918 56.9157 15.8418 59.4677C17.9918 62.0197 20.8659 63.2957 24.4639 63.2957Z" fill="#243946"/>
<path d="M93.2584 71.5457H81.9378L69.8933 52.4057H63.3115V71.5457H53.4389V25.3457H63.3115V43.8257H69.8933L81.3455 25.3457H92.2712L77.9888 47.7857L93.2584 71.5457Z" fill="#243946"/>
</svg>
