<svg width="96" height="96" viewBox="0 0 96 96" fill="none" xmlns="http://www.w3.org/2000/svg">
<path fill-rule="evenodd" clip-rule="evenodd" d="M10.3816 27.628C9.8465 26.7732 9.65966 25.7714 9.60311 25.0106C9.55101 24.3094 10.0863 23.7459 10.7858 23.6738C11.3804 23.6125 15.1305 23.6671 15.1305 23.6671C15.1305 23.6671 16.7407 19.2564 18.0653 16.5144C18.7171 15.1652 20.4049 15.1886 21.4614 15.2033C21.5639 15.2047 21.6605 15.206 21.7496 15.206C29.6367 15.2057 37.5473 15.2057 45.4344 15.206C45.5248 15.206 45.6211 15.2047 45.7219 15.2032C46.7435 15.1885 48.2308 15.1672 48.8816 16.5144C50.2106 19.2653 52.0712 23.6738 52.0712 23.6738C52.0712 23.6738 55.8299 23.6136 56.4134 23.6738C57.1129 23.7459 57.6482 24.3094 57.5961 25.0106C57.5396 25.7714 57.3527 26.7732 56.8176 27.628C56.4198 28.2635 54.6819 28.7437 53.5996 28.8C53.5996 28.8 55.038 32.6351 55.038 34.6212C55.038 35.6821 55.04 36.7304 55.0429 37.7711C53.77 37.6575 52.4878 37.5999 51.1996 37.5999C39.7423 37.6 28.7542 42.1514 20.6526 50.2529C20.0842 50.8213 19.5333 51.404 19.0001 52H13.3447C12.5136 52 11.8436 51.3445 11.8336 50.5302C11.7983 46.9348 11.8099 43.4832 11.8217 39.9843C11.8276 38.217 11.8336 36.4375 11.8336 34.6212C11.8336 32.6351 12.7996 28.8 12.7996 28.8C11.7173 28.7437 10.7794 28.2635 10.3816 27.628ZM18.3996 28.8L21.395 19.6081C21.395 19.6081 21.6845 19.203 21.9331 19.2H45.0138C45.2625 19.203 45.5519 19.6081 45.5519 19.6081L48.7996 28.8H18.3996Z" fill="#243946"/>
<path d="M87.3772 44.206L82.4733 40.6718L87.9997 32.7892L82.6744 29.0538L77.0905 37.0131L72.1675 33.5554C71.7173 33.2394 71.1139 33.6225 71.2097 34.1684L73.6233 47.6732L87.1186 45.3075C87.6549 45.2117 87.8178 44.5221 87.3772 44.1965V44.206Z" fill="#243946"/>
<path d="M38.4076 66.9137L53.124 76.3497C54.5605 77.3342 55.5344 78.9639 55.5817 80.7907C55.6557 83.6706 53.3822 85.928 50.5103 85.835C48.7276 85.7776 47.1364 84.827 46.1693 83.425L46.1639 83.4175C46.1367 83.3797 46.1103 83.3357 46.0831 83.2979L36.6603 68.6743C35.8799 67.4712 37.2156 66.1331 38.4139 66.9149L38.4076 66.9137Z" fill="#243946"/>
<path fill-rule="evenodd" clip-rule="evenodd" d="M31.9663 61.5666C26.8653 66.6676 23.9996 73.586 23.9996 80.7999H15.9996C15.9996 71.4643 19.7081 62.511 26.3094 55.9098C32.9107 49.3085 41.8639 45.5999 51.1996 45.5999C60.5352 45.5999 69.4884 49.3085 76.0897 55.9098C82.691 62.511 86.3996 71.4643 86.3996 80.7999L78.3996 80.7999C78.3996 73.586 75.5338 66.6676 70.4329 61.5666C65.3319 56.4656 58.4134 53.5999 51.1996 53.5999C43.9857 53.5999 37.0672 56.4656 31.9663 61.5666Z" fill="#243946"/>
</svg>
