<svg width="96" height="96" viewBox="0 0 96 96" fill="none" xmlns="http://www.w3.org/2000/svg">
<path fill-rule="evenodd" clip-rule="evenodd" d="M8.6671 45.7907L21.7875 40.525C23.6826 39.7692 25.4554 38.6812 27.0295 37.3108L35.374 30.0601C38.698 27.1697 42.8168 25.6 47.073 25.6H82.0174C83.1866 25.6 84.0118 26.8458 83.645 28.0501L83.347 29.0219C83.1484 29.6697 83.1942 30.3757 83.4693 30.9903L88.803 40.1347C89.8423 41.9204 90.4001 43.9884 90.4001 46.1063V59.6776C90.4001 61.9699 88.696 63.822 86.587 63.822H85.9451C84.562 67.6675 81.1157 70.4 77.081 70.4C73.0463 70.4 69.6077 67.6758 68.2169 63.822H30.7738C29.3907 67.6675 25.9444 70.4 21.9097 70.4C17.8751 70.4 14.4364 67.6758 13.0457 63.822H8.43021C7.44447 63.822 6.73381 62.7921 7.0089 61.7623L7.23051 60.9566C7.39862 60.3254 7.42154 59.661 7.29164 59.0131C6.86372 56.9534 5.88561 52.1943 5.64108 50.5083C5.32778 48.3405 6.85607 46.5133 8.67474 45.7824L8.6671 45.7907ZM41.0551 37.1159C42.6635 35.801 44.7492 35.2 46.8562 35.2H52.4241V40H46.8562C45.6191 40 44.6768 40.355 44.0932 40.8321C43.5597 41.2682 43.2001 41.8978 43.2001 42.856C43.2001 43.8029 43.5485 44.3736 44.0513 44.7662C44.6222 45.212 45.5718 45.5516 46.8562 45.5516H60.3626V40.4794C60.3626 39.9894 60.955 39.744 61.3015 40.0905L69.1626 47.9516L61.3015 55.8127C60.955 56.1591 60.3626 55.9137 60.3626 55.4237V50.3516H46.8562C44.7965 50.3516 42.7181 49.8153 41.097 48.5494C39.4077 47.2302 38.4001 45.2532 38.4001 42.856C38.4001 40.4703 39.3966 38.4718 41.0551 37.1159Z" fill="#243946"/>
</svg>
