<svg width="96" height="96" viewBox="0 0 96 96" fill="none" xmlns="http://www.w3.org/2000/svg">
<path fill-rule="evenodd" clip-rule="evenodd" d="M30.4943 34.3001L17.2973 21.1031L13.9032 24.4972L26.8614 37.4554C25.3296 38.7579 23.6154 39.796 21.7875 40.525L8.6671 45.7907L8.67474 45.7824C6.85607 46.5133 5.32778 48.3405 5.64108 50.5083C5.88561 52.1943 6.86372 56.9534 7.29164 59.0131C7.42154 59.661 7.39862 60.3254 7.23051 60.9566L7.0089 61.7623C6.73381 62.7921 7.44447 63.822 8.43021 63.822H13.0457C14.4364 67.6758 17.8751 70.4 21.9097 70.4C25.9444 70.4 29.3907 67.6675 30.7738 63.822H68.2169C69.6077 67.6758 73.0463 70.4 77.081 70.4C81.1157 70.4 84.562 67.6675 85.9451 63.822H86.587C88.696 63.822 90.4001 61.9699 90.4001 59.6776V46.1063C90.4001 43.9884 89.8423 41.9204 88.803 40.1347L83.4693 30.9903C83.1942 30.3757 83.1484 29.6697 83.347 29.0219L83.645 28.0501C84.0118 26.8458 83.1866 25.6 82.0174 25.6H47.073C42.8168 25.6 38.698 27.1697 35.374 30.0601L30.4943 34.3001ZM40.1542 43.96L30.4973 34.3031L27.1032 37.6972L36.7601 47.3541C38.7105 49.3045 41.3557 50.4002 44.114 50.4002H60.3628V55.4238C60.3628 55.9138 60.9552 56.1592 61.3017 55.8127L69.1628 47.9516L61.3017 40.0905C60.9552 39.744 60.3628 39.9894 60.3628 40.4794V45.6002H44.114C42.6288 45.6002 41.2044 45.0102 40.1542 43.96Z" fill="#243946"/>
</svg>
