<svg width="96" height="96" viewBox="0 0 96 96" fill="none" xmlns="http://www.w3.org/2000/svg">
<path d="M37.0352 14.8286C43.5505 13.6337 50.2765 14.9603 55.8496 18.5405C60.5818 21.5806 64.1816 26.0522 66.1533 31.2642C68.5158 31.002 70.9102 31.0917 73.2568 31.5347C76.5893 32.1637 79.7508 33.4913 82.5332 35.4302C85.3156 37.3691 87.6563 39.8751 89.4004 42.7837C91.1444 45.6923 92.2528 48.9374 92.6523 52.3052C93.0519 55.673 92.7338 59.0878 91.7188 62.3237C90.7037 65.5596 89.0142 68.5435 86.7627 71.0796C84.5112 73.6158 81.7481 75.6463 78.6553 77.0376C75.5624 78.4289 72.2098 79.1496 68.8184 79.1519H68.8125L22.4062 79.0933C17.4702 79.0801 13.4244 77.292 9.87988 74.147C6.25933 70.9344 3.9364 66.51 3.34766 61.7056C2.75903 56.9014 3.94509 52.0477 6.68262 48.0562C8.90781 44.8118 12.0336 42.3178 15.6465 40.8638C15.5668 35.1751 17.3501 29.5884 20.7627 24.9761C24.7026 19.6512 30.5198 16.0235 37.0352 14.8286ZM52.3906 23.9253C48.1842 21.223 43.1071 20.2216 38.1895 21.1235C33.2719 22.0255 28.8809 24.7636 25.9072 28.7827C22.947 32.7838 21.6119 37.7564 22.168 42.7007C22.1972 42.9141 22.2037 43.1267 22.1904 43.3354C22.1026 44.7657 21.06 45.9843 19.6318 46.272C16.5114 47.0943 13.7881 49.0114 11.9609 51.6753C10.1054 54.3807 9.30122 57.671 9.7002 60.9272C10.0992 64.1836 11.674 67.1825 14.1279 69.3599C16.6571 71.6039 19.2375 72.6848 22.4209 72.6938H22.4238L68.8145 72.7524H68.8164C71.3031 72.7504 73.7614 72.2218 76.0293 71.2017C78.298 70.1811 80.325 68.6909 81.9766 66.8306C83.6281 64.9702 84.8668 62.7813 85.6113 60.4077C86.3559 58.0341 86.59 55.5295 86.2969 53.0591C86.0038 50.5888 85.1904 48.2082 83.9111 46.0747C82.6319 43.9414 80.9149 42.1033 78.874 40.6812C76.8331 39.2589 74.5138 38.2851 72.0693 37.8237C69.6334 37.364 67.128 37.4228 64.7168 37.9976C63.4566 38.3108 62.1838 37.8299 61.4287 36.8706C61.1595 36.5285 60.9563 36.1247 60.8428 35.6753C60.8418 35.6713 60.8399 35.6676 60.8389 35.6636C59.6126 30.8215 56.5933 26.6252 52.3906 23.9253ZM71.9873 55.1997C73.2357 55.1997 74.2173 55.5264 74.9307 56.1782C75.6437 56.83 76 57.689 76 58.7554C76 59.4072 75.8415 60.0004 75.5244 60.5337C75.2272 61.0669 74.7619 61.6202 74.1279 62.1929L71.3037 64.6812H76V67.1997H67.6777V64.6812L71.9873 60.9185C72.7799 60.2073 73.1768 59.4862 73.1768 58.7554C73.1767 58.4396 73.0578 58.1929 72.8203 58.0151C72.6023 57.8176 72.2748 57.7183 71.8389 57.7183C71.403 57.7183 71.0659 57.8272 70.8281 58.0444C70.6103 58.242 70.502 58.5286 70.502 58.9038H67.6777C67.757 57.778 68.1435 56.8791 68.8369 56.2075C69.5304 55.536 70.5806 55.1998 71.9873 55.1997ZM35.4092 43.1997C37.9055 43.1998 39.8968 43.8122 41.3828 45.0366C42.8888 46.2416 43.9198 47.9016 44.4746 50.0151H39.8672C39.4511 49.1066 38.8965 48.415 38.2031 47.9409C37.5295 47.4471 36.5979 47.1998 35.4092 47.1997C33.7845 47.1997 32.4865 47.773 31.5156 48.9185C30.5447 50.0641 30.0586 51.7136 30.0586 53.8667C30.0586 56.0198 30.5447 57.6693 31.5156 58.8149C32.4865 59.9604 33.7845 60.5337 35.4092 60.5337C36.5979 60.5336 37.5295 60.2958 38.2031 59.8218C38.8965 59.328 39.4512 58.6267 39.8672 57.7183H44.4746C43.9198 59.8318 42.8888 61.5014 41.3828 62.7261C39.8968 63.9308 37.9056 64.5336 35.4092 64.5337C33.4277 64.5337 31.6932 64.1182 30.207 63.2886C28.7409 62.4392 27.6014 61.2146 26.7891 59.6147C25.9965 58.0148 25.6006 56.0987 25.6006 53.8667C25.6006 51.6347 25.9965 49.7186 26.7891 48.1187C27.6014 46.5187 28.7408 45.3037 30.207 44.4741C31.6932 43.6247 33.4277 43.1997 35.4092 43.1997ZM55.9307 43.1997C57.9121 43.1997 59.6363 43.6248 61.1025 44.4741C62.5885 45.3037 63.7279 46.5188 64.5205 48.1187C65.3329 49.7186 65.7393 51.6347 65.7393 53.8667C65.7393 56.0987 65.3329 58.0148 64.5205 59.6147C63.728 61.2146 62.5885 62.4392 61.1025 63.2886C59.6363 64.1182 57.9121 64.5337 55.9307 64.5337C53.9491 64.5337 52.2147 64.1182 50.7285 63.2886C49.2624 62.4392 48.1229 61.2146 47.3105 59.6147C46.518 58.0148 46.1221 56.0987 46.1221 53.8667C46.1221 51.6347 46.518 49.7186 47.3105 48.1187C48.1229 46.5188 49.2623 45.3037 50.7285 44.4741C52.2147 43.6247 53.9491 43.1997 55.9307 43.1997ZM55.9307 47.1997C54.3059 47.1997 53.008 47.7729 52.0371 48.9185C51.0662 50.0641 50.5801 51.7136 50.5801 53.8667C50.5801 56.0198 51.0662 57.6693 52.0371 58.8149C53.008 59.9604 54.3059 60.5337 55.9307 60.5337C57.5554 60.5336 58.8533 59.9606 59.8242 58.8149C60.7952 57.6693 61.2803 56.0198 61.2803 53.8667C61.2803 51.7136 60.7952 50.0641 59.8242 48.9185C58.8533 47.7728 57.5554 47.1998 55.9307 47.1997Z" fill="#243946"/>
</svg>
