<svg width="96" height="96" viewBox="0 0 96 96" fill="none" xmlns="http://www.w3.org/2000/svg">
<path d="M56.3594 90.0088L56.9121 91.6494H51.8623L39.4629 58.4893L43.959 56.8096L56.3594 90.0088ZM80.1094 57.5205C87.885 57.5206 91.821 61.6476 91.8213 67.4072C91.8213 70.2872 90.3812 73.0238 87.4053 75.7598L76.2686 86.2236H92.3008V91.5996H68.2529V86.2236L83.085 72.3525C84.5728 71.0087 85.6775 69.568 85.6777 67.6963C85.6777 64.6244 83.8532 62.8956 80.1094 62.8955C76.9414 62.8955 74.733 64.8157 74.2529 67.5996H68.2529C69.117 61.3597 73.3415 57.5205 80.1094 57.5205ZM21.999 60.6045C23.2556 59.07 25.3363 58.4616 27.2305 59.0928L34.9795 60.1055L35.4883 61.5615C35.5053 61.6104 35.5229 61.6595 35.541 61.708L40.2988 74.4482C35.1428 73.2614 30.8764 70.7427 27.4668 69.291L12.3447 89.3369C10.7482 91.4532 7.73837 91.8747 5.62207 90.2783C3.50624 88.6818 3.08441 85.6718 4.68066 83.5557L21.8809 60.7559L21.999 60.6045ZM57.1494 42.1523C58.8174 41.1949 62.2609 39.8622 65.7129 42.4463C70.5002 46.0301 68.5304 50.4081 68.5127 50.4473C68.4951 50.4836 61.495 64.9698 54.6152 71.623L49.0586 56.7451L48.2695 54.4844L55.4141 43.8838C55.8773 43.1964 56.4306 42.565 57.1494 42.1523ZM24.7998 2.7998C29.5403 2.7998 33.9365 4.27443 37.5566 6.78711L41.1719 3.17188L46.8281 8.82812L43.2129 12.4434C45.7258 16.0636 47.2002 20.4595 47.2002 25.2002C47.2001 29.9407 45.7256 34.336 43.2129 37.9561L46.8281 41.5713L41.1719 47.2275L37.5566 43.6123C33.9364 46.1251 29.5405 47.5996 24.7998 47.5996C20.059 47.5996 15.6632 46.1253 12.043 43.6123L8.42773 47.2275L2.77148 41.5713L6.38672 37.9561C3.87411 34.336 2.40045 29.9406 2.40039 25.2002C2.40039 20.4596 3.87394 16.0635 6.38672 12.4434L2.77148 8.82812L8.42773 3.17188L12.043 6.78711C15.6632 4.27425 20.0591 2.79985 24.7998 2.7998ZM86.5059 36.501L73.3496 44.501L70.8623 40.3965L84.0625 32.3965L86.5059 30.8496V36.501ZM15.5068 40.1484C18.2038 41.8286 21.3883 42.7998 24.7998 42.7998C28.211 42.7998 31.395 41.8283 34.0918 40.1484L24.7998 30.8564L15.5068 40.1484ZM63.7129 20.7998C68.131 20.8 71.7128 24.3817 71.7129 28.7998C71.7129 33.218 68.131 36.7996 63.7129 36.7998C59.2946 36.7998 55.7129 33.2181 55.7129 28.7998C55.713 24.3816 59.2946 20.7998 63.7129 20.7998ZM9.85059 15.9072C8.17062 18.6041 7.2002 21.7889 7.2002 25.2002C7.20025 28.6112 8.17078 31.7954 9.85059 34.4922L19.1436 25.2002L9.85059 15.9072ZM30.4561 25.2002L39.748 34.4922C41.428 31.7954 42.4003 28.6114 42.4004 25.2002C42.4004 21.7887 41.4283 18.6042 39.748 15.9072L30.4561 25.2002ZM24.7998 7.59961C21.3885 7.59965 18.2037 8.57095 15.5068 10.251L24.7998 19.5439L34.0918 10.251C31.395 8.5712 28.2109 7.59961 24.7998 7.59961Z" fill="#243946"/>
</svg>
