<svg width="96" height="96" viewBox="0 0 96 96" fill="none" xmlns="http://www.w3.org/2000/svg">
<path d="M59.0469 83.1602L59.6006 84.7998H54.5508L42.1504 51.6396L46.6475 49.96L59.0469 83.1602ZM24.6875 53.7578C25.944 52.2234 28.0239 51.6151 29.918 52.2461L37.6699 53.2588L38.1787 54.7139C38.1957 54.7626 38.2124 54.812 38.2305 54.8604L42.9893 67.6025C37.832 66.4159 33.5645 63.8962 30.1543 62.4443L15.0322 82.4902C13.4357 84.6065 10.4259 85.028 8.30957 83.4316C6.19388 81.8351 5.77197 78.8251 7.36816 76.709L24.5684 53.9092L24.6875 53.7578ZM58.8008 36C58.8455 35.9628 63.6142 32.017 68.4004 35.5996C73.2059 39.1971 71.203 43.5944 71.2002 43.6006C71.1703 43.6625 64.1777 58.1262 57.3047 64.7744L51.749 49.8975L50.959 47.6348L58.8008 36ZM35.2002 11.2002C44.4786 11.2002 52 18.7216 52 28C52 37.2783 44.4785 44.7998 35.2002 44.7998C25.9219 44.7997 18.4004 37.2783 18.4004 28C18.4004 18.7217 25.9219 11.2003 35.2002 11.2002ZM89.2002 29.6523L76.0439 37.6523L73.5566 33.5479L86.7568 25.5479L89.2002 24V29.6523ZM66.4004 13.5996C70.8185 13.5997 74.4002 17.1815 74.4004 21.5996C74.4004 26.0178 70.8186 29.5996 66.4004 29.5996C61.9821 29.5996 58.4004 26.0179 58.4004 21.5996C58.4006 17.1815 61.9822 13.5996 66.4004 13.5996Z" fill="#243946"/>
</svg>
