<svg width="96" height="96" viewBox="0 0 96 96" fill="none" xmlns="http://www.w3.org/2000/svg">
<path d="M44.8002 7.20001H51.2002V20H44.8002V7.20001Z" fill="#243946"/>
<path d="M44.8002 88.8V76H51.2002V88.8H44.8002Z" fill="#243946"/>
<path d="M20.0002 44.8V51.2H7.2002V44.8H20.0002Z" fill="#243946"/>
<path d="M79.1768 74.6516L74.6513 79.1771L65.6003 70.1261L70.1258 65.6006L79.1768 74.6516Z" fill="#243946"/>
<path d="M79.1768 21.325L74.6513 16.7995L65.6003 25.8505L70.1258 30.376L79.1768 21.325Z" fill="#243946"/>
<path d="M16.8002 74.6516L21.3257 79.1771L30.3766 70.1261L25.8512 65.6006L16.8002 74.6516Z" fill="#243946"/>
<path d="M16.8002 21.325L21.3257 16.7995L30.3766 25.8505L25.8512 30.376L16.8002 21.325Z" fill="#243946"/>
<path d="M88.8002 44.8V51.2H76.0002V44.8H88.8002Z" fill="#243946"/>
<path fill-rule="evenodd" clip-rule="evenodd" d="M69.6002 48C69.6002 59.9294 59.9295 69.6 48.0002 69.6C36.0708 69.6 26.4002 59.9294 26.4002 48C26.4002 36.0707 36.0708 26.4 48.0002 26.4C59.9295 26.4 69.6002 36.0707 69.6002 48ZM36.0002 50.9733L51.3872 33.6995C51.5823 33.4805 51.952 33.6517 51.8969 33.9355L50.0528 43.4236C49.9177 44.1187 50.4704 44.7612 51.2035 44.7612H60.0002L44.3372 62.3008C44.1407 62.5208 43.7694 62.3458 43.8284 62.0611L45.8469 52.3243C45.9918 51.6254 45.4377 50.9733 44.6989 50.9733H36.0002Z" fill="#243946"/>
</svg>
