<svg width="96" height="96" viewBox="0 0 96 96" fill="none" xmlns="http://www.w3.org/2000/svg">
<path d="M41.1611 83.2002H35.6396V72.1572H41.1611V83.2002ZM23.1953 67.0889L15.3867 74.8975L11.4824 70.9932L19.291 63.1846L23.1953 67.0889ZM65.2979 70.9932L61.3936 74.8975L53.584 67.0889L57.4883 63.1846L65.2979 70.9932ZM90.4004 62.6514V71.2002H81.5996V62.6514H90.4004ZM38.4004 29.3643C48.6922 29.3645 57.0352 37.7081 57.0352 48C57.0352 58.2919 48.6922 66.6355 38.4004 66.6357C28.1084 66.6357 19.7647 58.292 19.7646 48C19.7646 37.708 28.1084 29.3643 38.4004 29.3643ZM41.7617 35.8662C41.8093 35.6214 41.4906 35.4734 41.3223 35.6621L28.0469 50.5654H35.5518C36.1891 50.5654 36.6668 51.1276 36.542 51.7305L34.8008 60.1309C34.7499 60.3765 35.0707 60.5277 35.2402 60.3379L48.7529 45.2061H41.1641C40.5316 45.2061 40.0544 44.6514 40.1709 44.0518L41.7617 35.8662ZM90.1064 25.875L89.2266 55.9346H82.7734L81.8936 25.875V21.5996H90.1064V25.875ZM14.2432 50.7607H3.2002V45.2393H14.2432V50.7607ZM73.5996 50.7607H62.5566V45.2393H73.5996V50.7607ZM23.1953 28.8906L19.291 32.7949L11.4824 24.9863L15.3867 21.082L23.1953 28.8906ZM65.2979 24.9863L57.4883 32.7949L53.584 28.8906L61.3936 21.082L65.2979 24.9863ZM41.1611 23.8428H35.6396V12.7998H41.1611V23.8428Z" fill="#243946"/>
</svg>
