<svg width="96" height="96" viewBox="0 0 96 96" fill="none" xmlns="http://www.w3.org/2000/svg">
<path d="M65.5 53C74.0604 53 81 59.9396 81 68.5C81 77.0604 74.0604 84 65.5 84H30.5C21.9396 84 15 77.0604 15 68.5C15 59.9396 21.9396 53 30.5 53H65.5ZM30.5 59C25.2533 59 21 63.2533 21 68.5C21 73.7467 25.2533 78 30.5 78C35.7467 78 40 73.7467 40 68.5C40 63.2533 35.7467 59 30.5 59ZM65.5 12C74.0604 12 81 18.9396 81 27.5C81 36.0604 74.0604 43 65.5 43H30.5C21.9396 43 15 36.0604 15 27.5C15 18.9396 21.9396 12 30.5 12H65.5ZM66.5 18C61.2533 18 57 22.2533 57 27.5C57 32.7467 61.2533 37 66.5 37C71.7467 37 76 32.7467 76 27.5C76 22.2533 71.7467 18 66.5 18Z" fill="#243946"/>
</svg>
