<svg width="96" height="96" viewBox="0 0 96 96" fill="none" xmlns="http://www.w3.org/2000/svg">
<path fill-rule="evenodd" clip-rule="evenodd" d="M47.9999 81.6C66.5567 81.6 81.5999 66.5568 81.5999 48C81.5999 29.4433 66.5567 14.4 47.9999 14.4C29.4431 14.4 14.3999 29.4433 14.3999 48C14.3999 66.5568 29.4431 81.6 47.9999 81.6ZM55.5022 37.7162C58.9238 42.4291 62.3121 47.5383 65.2325 52.2577H65.2311C66.1904 53.8079 67.4363 57.0082 64.9118 58.6083C64.2526 59.025 63.6445 59.2 63.0675 59.2C61.673 59.2 60.4658 58.1805 59.197 57.1089C59.1581 57.0761 59.1192 57.0432 59.0802 57.0103C58.8845 56.8453 58.6911 56.6818 58.4997 56.52C54.5375 53.1715 51.4679 50.5773 48.031 50.5773H47.9688C44.5319 50.5773 41.4622 53.1715 37.5 56.5201C37.3086 56.6818 37.1152 56.8453 36.9195 57.0103C36.8805 57.0432 36.8416 57.0761 36.8027 57.1089C35.5339 58.1805 34.3267 59.2 32.9323 59.2C32.3553 59.2 31.7472 59.025 31.0881 58.6083C28.5635 57.0082 29.8095 53.8079 30.7687 52.2577C33.6891 47.5383 37.0774 42.4291 40.499 37.7162L40.6051 37.5701C43.2692 33.9005 44.649 32 47.9688 32H48.0325C51.3532 32 52.7335 33.9017 55.3985 37.5734L55.5022 37.7162Z" fill="#243946"/>
</svg>
