<svg width="96" height="96" viewBox="0 0 96 96" fill="none" xmlns="http://www.w3.org/2000/svg">
<path d="M25.2207 73.7788C21.5629 70.5464 18.6348 66.5724 16.6312 62.1211C14.6276 57.6698 13.5943 52.8429 13.6 47.9615C13.6057 43.08 14.6502 38.2556 16.6642 33.8089C18.6782 29.3623 21.6155 25.3952 25.2809 22.1712L21.0541 17.3656C16.7068 21.1893 13.223 25.8945 10.8343 31.1684C8.44561 36.4424 7.20673 42.1643 7.19998 47.954C7.19322 53.7437 8.41876 59.4685 10.7951 64.748C13.1715 70.0275 16.6443 74.7408 20.9828 78.5746L25.2207 73.7788Z" fill="#243946"/>
<path d="M70.7784 73.7788C74.4363 70.5464 77.3643 66.5724 79.3679 62.1211C81.3715 57.6698 82.4048 52.8429 82.3992 47.9615C82.3935 43.08 81.3489 38.2556 79.3349 33.8089C77.3209 29.3623 74.3836 25.3952 70.7182 22.1712L74.945 17.3656C79.2924 21.1893 82.7761 25.8945 85.1648 31.1684C87.5535 36.4424 88.7924 42.1643 88.7991 47.954C88.8059 53.7437 87.5804 59.4685 85.204 64.748C82.8276 70.0275 79.3548 74.7408 75.0164 78.5746L70.7784 73.7788Z" fill="#243946"/>
<path d="M47.8549 38.1623L43.9033 50.0525H52.0241L48.0362 38.1623H47.8549Z" fill="#243946"/>
<path fill-rule="evenodd" clip-rule="evenodd" d="M75.9999 48C75.9999 63.464 63.4639 76 48 76C32.536 76 20 63.464 20 48C20 32.536 32.536 20 48 20C63.4639 20 75.9999 32.536 75.9999 48ZM59.9999 60H55.3595L53.438 54.288H42.4894L40.5679 60H35.9999L45.2809 32.8H50.719L59.9999 60Z" fill="#243946"/>
</svg>
