<svg width="96" height="96" viewBox="0 0 96 96" fill="none" xmlns="http://www.w3.org/2000/svg">
<path d="M87.2002 77.5999L63.2002 77.5999V72.8L87.2002 72.8V77.5999ZM67.2002 40.8C67.2002 44.372 66.4968 47.9092 65.1299 51.2092C63.763 54.5093 61.7591 57.5077 59.2334 60.0334C56.7077 62.5592 53.7092 64.563 50.4092 65.9299C47.1091 67.2969 43.572 68.0002 40 68.0002V61.5999C42.7315 61.5999 45.4364 61.0621 47.96 60.0168C50.4835 58.9716 52.7766 57.4395 54.708 55.5081C56.6394 53.5766 58.1715 51.2836 59.2168 48.76C60.2621 46.2364 60.7998 43.5315 60.7998 40.8L67.2002 40.8ZM85.7588 65.927C86.0774 66.9564 85.3071 68.0002 84.2295 68.0002L66.2705 68.0002C65.1641 68.0002 64.3915 66.9036 64.7637 65.8616L76 34.4006L85.7588 65.927ZM28.2334 17.5999C31.4186 17.5999 34.1944 18.286 36.5605 19.6575C38.9264 20.9831 40.7465 22.8343 42.0205 25.2112C43.34 27.5425 43.9999 30.1714 44 33.0969C44 36.0684 43.3401 38.7432 42.0205 41.1204C40.7465 43.4516 38.9265 45.28 36.5605 46.6057C34.1944 47.9314 31.4186 48.594 28.2334 48.594H16.7666V65.5999H9.59961L9.59961 17.5999L28.2334 17.5999ZM54.4004 40.8C54.4004 42.7666 54.0386 44.7186 53.332 46.5461C52.6254 48.3739 51.5845 50.0486 50.2588 51.469C48.9327 52.8898 47.3463 54.0297 45.584 54.8118C43.821 55.5942 41.9228 56.0002 40 56.0002L40 49.5999C41.0187 49.5999 42.0336 49.3858 42.9883 48.9622C43.9436 48.5382 44.8262 47.9095 45.5801 47.1018C46.3344 46.2936 46.9432 45.3225 47.3623 44.2385C47.7815 43.1543 48 41.9852 48 40.8H54.4004ZM16.7666 42.217H27.6875C30.5086 42.217 32.7379 41.394 34.376 39.7483C36.014 38.0569 36.833 35.8397 36.833 33.0969C36.8329 30.3543 36.0139 28.1605 34.376 26.5149C32.7379 24.8235 30.5086 23.9778 27.6875 23.9778L16.7666 23.9778L16.7666 42.217Z" fill="#243946"/>
</svg>
