<svg width="96" height="96" viewBox="0 0 96 96" fill="none" xmlns="http://www.w3.org/2000/svg">
<path d="M24.9065 62.0222H19.2707L17.6345 57.1111H7.16289L5.5267 62.0222H0L9.08997 35.5778H15.8165L24.9065 62.0222ZM12.2896 41.8111L8.79909 52.2H15.962L12.4714 41.8111H12.2896Z" fill="#243946"/>
<path d="M37.4563 62.4C35.3232 62.4 33.4568 61.9341 31.8569 61.0022C30.2813 60.0704 29.0572 58.7356 28.1846 56.9978C27.3362 55.2348 26.912 53.1319 26.912 50.6889V35.5778H32.366V50.6889C32.366 52.8045 32.8265 54.4415 33.7476 55.6C34.693 56.7333 35.9292 57.3 37.4563 57.3C38.9835 57.3 40.2076 56.7333 41.1287 55.6C42.0741 54.4415 42.5467 52.8045 42.5467 50.6889V35.5778H48.0007V50.6889C48.0007 53.1319 47.5644 55.2348 46.6918 56.9978C45.8434 58.7356 44.6192 60.0704 43.0194 61.0022C41.4438 61.9341 39.5895 62.4 37.4563 62.4Z" fill="#243946"/>
<path d="M63.8286 62.0222H58.3746V40.6778H50.7391V35.5778H71.4642V40.6778H63.8286V62.0222Z" fill="#243946"/>
<path d="M84.0012 62.4C81.5772 62.4 79.4563 61.8711 77.6383 60.8133C75.8445 59.7304 74.4507 58.1689 73.4569 56.1289C72.4873 54.0889 72.0025 51.6459 72.0025 48.8C72.0025 45.9541 72.4873 43.5111 73.4569 41.4711C74.4507 39.4311 75.8445 37.8822 77.6383 36.8245C79.4563 35.7415 81.5772 35.2 84.0012 35.2C86.4252 35.2 88.5341 35.7415 90.3279 36.8245C92.1459 37.8822 93.5396 39.4311 94.5092 41.4711C95.5031 43.5111 96 45.9541 96 48.8C96 51.6459 95.5031 54.0889 94.5092 56.1289C93.5396 58.1689 92.1459 59.7304 90.3279 60.8133C88.5341 61.8711 86.4252 62.4 84.0012 62.4ZM84.0012 57.3C85.9889 57.3 87.5766 56.5696 88.7644 55.1089C89.9521 53.6482 90.546 51.5452 90.546 48.8C90.546 46.0548 89.9521 43.9519 88.7644 42.4911C87.5766 41.0304 85.9889 40.3 84.0012 40.3C82.0136 40.3 80.4258 41.0304 79.2381 42.4911C78.0503 43.9519 77.4565 46.0548 77.4565 48.8C77.4565 51.5452 78.0503 53.6482 79.2381 55.1089C80.4258 56.5696 82.0136 57.3 84.0012 57.3Z" fill="#243946"/>
</svg>
