<svg width="96" height="96" viewBox="0 0 96 96" fill="none" xmlns="http://www.w3.org/2000/svg">
<path d="M82.0181 25.5996C83.1868 25.6 84.0115 26.8458 83.645 28.0498L83.3472 29.0215C83.1486 29.6692 83.1943 30.3757 83.4692 30.9902L88.8032 40.1348C89.8423 41.9203 90.3999 43.9887 90.3999 46.1064V59.6777C90.3997 61.9698 88.6962 63.8221 86.5874 63.8223H85.9448C84.5617 67.6674 81.1159 70.4002 77.0815 70.4004C73.047 70.4004 69.6081 67.6758 68.2173 63.8223H30.7739C29.3908 67.6675 25.9441 70.4003 21.9097 70.4004C17.8753 70.4002 14.4372 67.6757 13.0464 63.8223H8.43018C7.44462 63.8222 6.73445 62.7924 7.00928 61.7627L7.22998 60.9561C7.39794 60.3252 7.42221 59.6612 7.29248 59.0137C6.8646 56.9541 5.88576 52.1953 5.64111 50.5088C5.32782 48.3411 6.85667 46.5141 8.67529 45.7832L8.66748 45.791L21.7876 40.5254C23.6826 39.7696 25.4557 38.6809 27.0298 37.3105L35.3745 30.0605C38.6985 27.1703 42.8175 25.5996 47.0737 25.5996H82.0181ZM65.0571 37.7998C62.9502 37.7998 60.8647 38.401 59.2563 39.7158C57.5978 41.0717 56.6011 43.0703 56.6011 45.4561C56.6011 47.8531 57.6091 49.8303 59.2983 51.1494C60.9194 52.4152 62.9976 52.9512 65.0571 52.9512H74.0015V58.0234C74.0015 58.5134 74.5935 58.7586 74.9399 58.4121L82.8013 50.5518L74.9399 42.6904C74.5935 42.344 74.0015 42.5892 74.0015 43.0791V48.1514H65.0571C63.773 48.1514 62.8234 47.8119 62.2524 47.3662C61.7497 46.9736 61.4009 46.4028 61.4009 45.4561C61.4009 44.4978 61.7609 43.8678 62.2944 43.4316C62.8781 42.9546 63.8203 42.5996 65.0571 42.5996H70.6255V37.7998H65.0571ZM33.9731 55.5605H38.3511L39.647 51.8154H47.9409L49.2368 55.5605H53.7007L46.5015 35.4004H41.1733L33.9731 55.5605ZM46.6167 48.0723H40.9429L43.7075 40.1523H43.8521L46.6167 48.0723Z" fill="#243946"/>
</svg>
