<svg width="96" height="96" viewBox="0 0 96 96" fill="none" xmlns="http://www.w3.org/2000/svg">
<path d="M52.7725 20.8002C55.9358 20.8002 59.2249 20.8921 62.5234 21.2797L60.667 27.5189C58.1144 27.2748 55.4747 27.1996 52.7725 27.1996H50.6621C50.5167 27.1996 50.4142 27.2392 50.3594 27.2729C50.3126 27.3016 50.2977 27.326 50.2881 27.348C48.9239 30.4924 46.4016 37.6998 46.4004 48.0004C46.3993 58.3016 48.9234 65.5092 50.2881 68.6527C50.2977 68.6746 50.3121 68.6984 50.3584 68.727C50.4132 68.7606 50.5157 68.8002 50.6611 68.8002H52.7725C59.7844 68.8002 66.374 68.302 72.1191 65.6244C79.3078 62.274 86.4002 56.722 86.4004 48.0004C86.4004 46.2793 86.1226 44.6813 85.624 43.1996H92.2764C92.6136 44.7033 92.7998 46.3022 92.7998 48.0004C92.7996 60.7618 82.3968 67.8963 74.8232 71.4262C67.7273 74.7333 59.9279 75.1996 52.7725 75.1996H50.6611C48.1161 75.1995 45.5524 73.8159 44.417 71.2006C42.7813 67.433 39.9989 59.3559 40 48.0004C40.0013 36.6462 42.7822 28.569 44.417 24.8012C45.5521 22.1851 48.1164 20.8003 50.6621 20.8002H52.7725ZM37.2891 68.0004C37.8776 69.9135 38.481 71.5203 39.0137 72.8002H7.2002V68.0004H37.2891ZM34.9307 56.8002C35.1387 58.5006 35.3983 60.102 35.6914 61.6H7.2002V56.8002H34.9307ZM34.4404 45.6C34.4151 46.3844 34.4005 47.1844 34.4004 47.9994C34.4003 48.8148 34.4152 49.615 34.4404 50.3998H7.2002V45.6H34.4404ZM35.6934 34.3998C35.4002 35.8977 35.1408 37.4993 34.9326 39.1996H7.2002V34.3998H35.6934ZM90.4004 38.3998H83.8838L81.9912 33.0512H69.8828L67.9912 38.3998H61.6006L72.1113 9.6H79.8896L90.4004 38.3998ZM39.0146 23.1996C38.4822 24.4794 37.8796 26.0869 37.291 28.0004H7.2002V23.1996H39.0146ZM71.7744 27.7035H80.0576L76.0215 16.3881H75.8115L71.7744 27.7035Z" fill="#243946"/>
</svg>
