<svg width="96" height="96" viewBox="0 0 96 96" fill="none" xmlns="http://www.w3.org/2000/svg">
<path d="M16.6314 62.1211C18.635 66.5724 21.5631 70.5464 25.221 73.7788L20.983 78.5746C16.6446 74.7408 13.1718 70.0275 10.7954 64.748C8.41901 59.4685 7.19347 53.7437 7.20022 47.954C7.20697 42.1643 8.44586 36.4424 10.8345 31.1684C13.2232 25.8945 16.707 21.1893 21.0544 17.3656L25.2812 22.1712C21.6157 25.3952 18.6784 29.3623 16.6644 33.8089C14.6505 38.2556 13.6059 43.08 13.6002 47.9615C13.5945 52.8429 14.6278 57.6698 16.6314 62.1211Z" fill="#243946"/>
<path d="M79.3682 62.1211C77.3646 66.5724 74.4365 70.5464 70.7786 73.7788L75.0166 78.5746C79.355 74.7408 82.8279 70.0275 85.2042 64.748C87.5806 59.4685 88.8061 53.7437 88.7994 47.954C88.7926 42.1643 87.5538 36.4424 85.1651 31.1684C82.7764 25.8945 79.2926 21.1893 74.9452 17.3656L70.7184 22.1712C74.3839 25.3952 77.3212 29.3623 79.3352 33.8089C81.3492 38.2556 82.3937 43.08 82.3994 47.9615C82.4051 52.8429 81.3718 57.6698 79.3682 62.1211Z" fill="#243946"/>
<path fill-rule="evenodd" clip-rule="evenodd" d="M55.3597 60H60.0002L50.7192 32.8H45.2812L36.0002 60H40.5682L42.4896 54.288H53.4383L55.3597 60ZM43.9035 50.0525L47.8552 38.1623H48.0364L52.0244 50.0525H43.9035Z" fill="#243946"/>
<path fill-rule="evenodd" clip-rule="evenodd" d="M48.0002 76C63.4642 76 76.0002 63.464 76.0002 48C76.0002 32.536 63.4642 20 48.0002 20C32.5362 20 20.0002 32.536 20.0002 48C20.0002 63.464 32.5362 76 48.0002 76ZM48.0002 69.6C59.9295 69.6 69.6002 59.9293 69.6002 48C69.6002 36.0706 59.9295 26.4 48.0002 26.4C36.0708 26.4 26.4002 36.0706 26.4002 48C26.4002 59.9293 36.0708 69.6 48.0002 69.6Z" fill="#243946"/>
</svg>
