<svg width="96" height="96" viewBox="0 0 96 96" fill="none" xmlns="http://www.w3.org/2000/svg">
<path d="M26.5745 44.6954H21.4664L19.9834 40.362H10.4922L9.00922 44.6954H4L12.2389 21.362H18.3356L26.5745 44.6954ZM15.1389 26.862L11.9752 36.0287H18.4674L15.3037 26.862H15.1389Z" fill="#243946"/>
<path d="M38.2788 45.0287C36.3454 45.0287 34.6537 44.6176 33.2037 43.7954C31.7756 42.9731 30.6661 41.7954 29.8752 40.262C29.1062 38.7065 28.7217 36.8509 28.7217 34.6954V21.362H33.665V34.6954C33.665 36.562 34.0825 38.0065 34.9173 39.0287C35.7742 40.0287 36.8947 40.5287 38.2788 40.5287C39.6629 40.5287 40.7724 40.0287 41.6073 39.0287C42.4641 38.0065 42.8926 36.562 42.8926 34.6954V21.362H47.8359V34.6954C47.8359 36.8509 47.4404 38.7065 46.6495 40.262C45.8805 41.7954 44.771 42.9731 43.321 43.7954C41.8929 44.6176 40.2122 45.0287 38.2788 45.0287Z" fill="#243946"/>
<path d="M62.5113 44.6954H57.568V25.862H50.6474V21.362H69.432V25.862H62.5113V44.6954Z" fill="#243946"/>
<path d="M81.1247 45.0287C78.9277 45.0287 77.0053 44.562 75.3575 43.6287C73.7317 42.6731 72.4684 41.2954 71.5676 39.4954C70.6888 37.6954 70.2494 35.5398 70.2494 33.0287C70.2494 30.5176 70.6888 28.362 71.5676 26.562C72.4684 24.762 73.7317 23.3954 75.3575 22.462C77.0053 21.5065 78.9277 21.0287 81.1247 21.0287C83.3217 21.0287 85.2331 21.5065 86.8589 22.462C88.5067 23.3954 89.77 24.762 90.6488 26.562C91.5496 28.362 92 30.5176 92 33.0287C92 35.5398 91.5496 37.6954 90.6488 39.4954C89.77 41.2954 88.5067 42.6731 86.8589 43.6287C85.2331 44.562 83.3217 45.0287 81.1247 45.0287ZM81.1247 40.5287C82.9263 40.5287 84.3653 39.8842 85.4419 38.5954C86.5184 37.3065 87.0567 35.4509 87.0567 33.0287C87.0567 30.6065 86.5184 28.7509 85.4419 27.462C84.3653 26.1731 82.9263 25.5287 81.1247 25.5287C79.3231 25.5287 77.8841 26.1731 76.8075 27.462C75.731 28.7509 75.1927 30.6065 75.1927 33.0287C75.1927 35.4509 75.731 37.3065 76.8075 38.5954C77.8841 39.8842 79.3231 40.5287 81.1247 40.5287Z" fill="#243946"/>
<path d="M18.1748 61.0954V51.762H23.1195V75.0954H18.1748V65.5953H8.94469V75.0954H4V51.762H8.94469V61.0954H18.1748Z" fill="#243946"/>
<path d="M38.2742 75.4287C36.0765 75.4287 34.1536 74.962 32.5054 74.0287C30.8791 73.0731 29.6155 71.6954 28.7144 69.8954C27.8354 68.0954 27.3958 65.9398 27.3958 63.4287C27.3958 60.9176 27.8354 58.762 28.7144 56.962C29.6155 55.162 30.8791 53.7953 32.5054 52.862C34.1536 51.9065 36.0765 51.4287 38.2742 51.4287C40.4718 51.4287 42.3837 51.9065 44.01 52.862C45.6582 53.7953 46.9219 55.162 47.8009 56.962C48.702 58.762 49.1525 60.9176 49.1525 63.4287C49.1525 65.9398 48.702 68.0954 47.8009 69.8954C46.9219 71.6954 45.6582 73.0731 44.01 74.0287C42.3837 74.962 40.4718 75.4287 38.2742 75.4287ZM38.2742 70.9287C40.0762 70.9287 41.5157 70.2842 42.5925 68.9954C43.6694 67.7065 44.2078 65.8509 44.2078 63.4287C44.2078 61.0065 43.6694 59.1509 42.5925 57.862C41.5157 56.5731 40.0762 55.9287 38.2742 55.9287C36.4721 55.9287 35.0326 56.5731 33.9558 57.862C32.879 59.1509 32.3405 61.0065 32.3405 63.4287C32.3405 65.8509 32.879 67.7065 33.9558 68.9954C35.0326 70.2842 36.4721 70.9287 38.2742 70.9287Z" fill="#243946"/>
<path d="M68.939 75.0954H53.4456V51.762H58.3903V70.5954H68.939V75.0954Z" fill="#243946"/>
<path d="M72.5509 75.0954V51.762H81.4513C83.583 51.762 85.44 52.2287 87.0223 53.162C88.6266 54.0731 89.8573 55.4065 90.7144 57.162C91.5715 58.9176 92 61.0065 92 63.4287C92 65.8509 91.5715 67.9398 90.7144 69.6954C89.8573 71.4509 88.6266 72.7953 87.0223 73.7287C85.44 74.6398 83.583 75.0954 81.4513 75.0954H72.5509ZM81.2865 70.5954C82.3633 70.5954 83.3303 70.3287 84.1874 69.7954C85.0664 69.262 85.7587 68.462 86.2642 67.3954C86.7916 66.3065 87.0553 64.9842 87.0553 63.4287C87.0553 61.8731 86.7916 60.562 86.2642 59.4953C85.7587 58.4065 85.0664 57.5954 84.1874 57.062C83.3303 56.5287 82.3633 56.262 81.2865 56.262H77.4956V70.5954H81.2865Z" fill="#243946"/>
</svg>
