<svg width="96" height="96" viewBox="0 0 96 96" fill="none" xmlns="http://www.w3.org/2000/svg">
<path d="M37.0508 67.1998C37.5636 68.9543 38.0952 70.4748 38.5898 71.7467L8.31152 81.0934L6.89551 76.5074L37.0508 67.1998ZM52.7734 20.8004C55.937 20.8004 59.2266 20.8922 62.5254 21.2799L60.668 27.5191C58.1153 27.275 55.4757 27.1998 52.7734 27.1998H50.6631C50.5179 27.1999 50.4162 27.2394 50.3613 27.273C50.3143 27.302 50.2987 27.3261 50.2891 27.3482C48.9248 30.4926 46.4026 37.7 46.4014 48.0006C46.4003 58.3018 48.9243 65.5094 50.2891 68.6529C50.2987 68.6749 50.3137 68.6984 50.3604 68.7271C50.4151 68.7608 50.5176 68.8004 50.6631 68.8004H52.7734C59.7853 68.8004 66.3749 68.3021 72.1201 65.6246C79.3088 62.2742 86.4012 56.7222 86.4014 48.0006C86.4014 46.2795 86.1246 44.6814 85.626 43.1998H92.2783C92.6156 44.7035 92.8018 46.3024 92.8018 48.0006C92.8015 60.7621 82.3978 67.8966 74.8242 71.4264C67.7282 74.7335 59.9288 75.1998 52.7734 75.1998H50.6631C48.118 75.1997 45.5534 73.8161 44.418 71.2008C42.7823 67.4331 40.0008 59.3558 40.002 48.0006C40.0032 36.6467 42.7832 28.5693 44.418 24.8014C45.553 22.1854 48.1175 20.8006 50.6631 20.8004H52.7734ZM34.9629 57.0436C35.1764 58.7393 35.4399 60.336 35.7373 61.8277L8.31152 70.2936L6.89551 65.7076L34.9629 57.0436ZM34.4209 46.4107C34.4097 46.9336 34.4014 47.4636 34.4014 47.9996C34.4012 49.1698 34.4285 50.3088 34.4795 51.4156L8.31152 59.4928L6.89551 54.9068L34.4209 46.4107ZM35.5303 35.2682C35.2324 36.905 34.9756 38.6581 34.7832 40.5221L8.31152 48.693L6.89551 44.107L35.5303 35.2682ZM90.4014 38.4H83.8857L81.9932 33.0514H69.8848L67.9922 38.4H61.6016L72.1123 9.6002H79.8906L90.4014 38.4ZM38.9229 23.4215C38.3182 24.8962 37.6335 26.7807 36.9824 29.0436L8.31152 37.8932L6.89551 33.3072L38.9229 23.4215ZM71.7764 27.7037H80.0586L76.0225 16.3883H75.8125L71.7764 27.7037Z" fill="#243946"/>
</svg>
