<svg width="96" height="96" viewBox="0 0 96 96" fill="none" xmlns="http://www.w3.org/2000/svg">
<path d="M58.4004 11.2083C62.8187 11.2083 66.4004 14.79 66.4004 19.2083V33.6086H70.4004C74.8187 33.6086 78.4004 37.1904 78.4004 41.6086V68.8079C78.4004 73.2261 74.8187 76.8079 70.4004 76.8079H25.6006C21.1823 76.8079 17.6006 73.2261 17.6006 68.8079V41.6086C17.6006 37.1904 21.1823 33.6086 25.6006 33.6086H29.6006V19.2083C29.6006 14.79 33.1823 11.2083 37.6006 11.2083H58.4004ZM40.3652 40.0081C40.1338 40.0081 39.9136 40.1088 39.7617 40.2834L32.001 49.2083L34.001 52.0081L40.8008 48.0081V68.8079H46.4004L47.1475 58.3508C47.1775 57.9325 47.5259 57.6088 47.9453 57.6086H48.0557C48.4751 57.6088 48.8234 57.9325 48.8535 58.3508L49.6006 68.8079H55.2002V48.0081L62.001 52.0081L64.001 49.2083L56.2393 40.2834C56.0873 40.1088 55.8672 40.0081 55.6357 40.0081H52.8018C51.4647 41.0126 49.8021 41.6085 48.001 41.6086C46.1998 41.6086 44.5373 41.0126 43.2002 40.0081H40.3652ZM48.001 28.0081C44.9082 28.0081 42.4004 30.5158 42.4004 33.6086C42.4006 36.7012 44.9083 39.2083 48.001 39.2083C51.0934 39.208 53.6003 36.7011 53.6006 33.6086C53.6006 30.516 51.0936 28.0083 48.001 28.0081ZM37.6006 33.6086H40.001C40.001 29.1904 43.5827 25.6086 48.001 25.6086C52.4191 25.6089 56.001 29.1905 56.001 33.6086H58.4004V19.2083H37.6006V33.6086Z" fill="#243946"/>
</svg>
