<svg width="96" height="96" viewBox="0 0 96 96" fill="none" xmlns="http://www.w3.org/2000/svg">
<path fill-rule="evenodd" clip-rule="evenodd" d="M11.1998 32.8C11.1998 27.496 15.4958 23.2 20.7998 23.2H68.7998C74.1038 23.2 78.3998 27.496 78.3998 32.8V34.4H82.3998C84.6078 34.4 86.3998 36.192 86.3998 38.4V57.6C86.3998 59.808 84.6078 61.6 82.3998 61.6H78.3998V63.2C78.3998 68.504 74.1038 72.8 68.7998 72.8H20.7998C15.4958 72.8 11.1998 68.504 11.1998 63.2V32.8ZM22.4 31.2C20.6327 31.2 19.2 32.6327 19.2 34.4V61.6C19.2 63.3673 20.6327 64.8 22.4 64.8H32V31.2H22.4ZM38.4 31.2H51.2V64.8H38.4V31.2ZM67.2 31.2H57.6V64.8H67.2C68.9673 64.8 70.4 63.3673 70.4 61.6V34.4C70.4 32.6327 68.9673 31.2 67.2 31.2Z" fill="#243946"/>
</svg>
