<svg width="96" height="96" viewBox="0 0 96 96" fill="none" xmlns="http://www.w3.org/2000/svg">
<path d="M38.4006 36.8079H43.2006L44.0006 10.4079V6.40796H37.6006V10.4079L38.4006 36.8079Z" fill="#243946"/>
<path d="M37.6006 48.0078H44.0006V41.6079H37.6006V48.0078Z" fill="#243946"/>
<path d="M52.8006 19.2079H65.6006V24.0079H72.0006V57.6078C72.0006 62.0261 68.4189 65.6078 64.0006 65.6078H17.6006C13.1823 65.6078 9.60059 62.0261 9.60059 57.6078V24.0079H15.2006V19.2079H28.0006V24.0079H32.8006V30.4079H16.0006V57.6078C16.0006 58.4915 16.7169 59.2078 17.6006 59.2078H64.0006C64.8842 59.2078 65.6006 58.4915 65.6006 57.6078V30.4079H48.8006V24.0079H52.8006V19.2079Z" fill="#243946"/>
<path d="M57.6006 42.4078V38.4079H52.8006V42.4078H48.8006V47.2078H52.8006V51.2078H57.6006V47.2078H61.6006V42.4078H57.6006Z" fill="#243946"/>
<path d="M20.0006 42.4078H32.8006V47.2078H20.0006V42.4078Z" fill="#243946"/>
<path d="M76.0006 37.6082V59.2081C76.0006 64.9519 71.3444 69.6081 65.6006 69.6081H22.4006V74.4081H65.6006C73.9953 74.4081 80.8006 67.6028 80.8006 59.2081V37.6082H76.0006Z" fill="#243946"/>
<path d="M84.8008 46.4078V60.0078C84.8008 70.1698 76.5628 78.4077 66.4007 78.4077H31.2007V83.2077H66.4007C79.2138 83.2077 89.6008 72.8208 89.6008 60.0078V46.4078H84.8008Z" fill="#243946"/>
</svg>
