<svg width="96" height="96" viewBox="0 0 96 96" fill="none" xmlns="http://www.w3.org/2000/svg">
<path d="M26.4004 28.8047H21.5996C18.9518 28.805 16.7998 30.9567 16.7998 33.6046V64.0049C16.8 66.6526 18.9519 68.8045 21.5996 68.8047H69.5996C72.2475 68.8047 74.4002 66.6528 74.4004 64.0049V33.6046C74.4004 30.9566 72.2476 28.8047 69.5996 28.8047H64.7998V24.0049H69.5996C74.9036 24.0049 79.2002 28.3006 79.2002 33.6046V35.2042H83.2002C85.408 35.2043 87.2 36.9964 87.2002 39.2042V58.4044C87.2002 60.6123 85.4081 62.4043 83.2002 62.4044H79.2002V64.0049C79.2 69.3088 74.9035 73.6046 69.5996 73.6046H21.5996C16.2959 73.6043 12.0002 69.3086 12 64.0049V33.6046C12 28.3007 16.2958 24.0052 21.5996 24.0049H26.4004V28.8047ZM39.2773 11.2042C48.7617 12.8016 55.084 23.9828 52.7129 31.9688C52.7129 31.9688 57.4554 30.3708 56.665 25.5792C62.988 31.968 64.5693 39.9545 64.5693 44.7462C64.5693 55.9267 56.0769 62.3155 45.5996 62.3155C35.1225 62.3153 26.6309 55.9266 26.6309 44.7462C26.6309 39.0888 29.0022 33.5656 32.9541 30.3712C40.8577 23.9823 40.406 17.593 39.2773 11.2042ZM48.5859 34.3887C44.1072 35.1297 41.1216 40.3167 42.2412 44.0215C42.2412 44.0215 40.0018 43.2806 40.375 41.0577C37.3893 44.0215 36.6426 47.7263 36.6426 49.9493C36.6426 55.136 40.6522 58.1005 45.5996 58.1006C50.5472 58.1006 54.5576 55.1361 54.5576 49.9493C54.5575 47.3248 53.4374 44.7622 51.5713 43.2803C47.8394 40.3165 48.053 37.3525 48.5859 34.3887Z" fill="#243946"/>
</svg>
