<svg width="96" height="96" viewBox="0 0 96 96" fill="none" xmlns="http://www.w3.org/2000/svg">
<path d="M41.0995 14.282L37.748 9.01541C38.1242 8.90982 38.5186 8.80214 38.9272 8.69452C41.9174 7.907 45.3842 7.20005 47.9998 7.20005C50.6154 7.20005 54.0823 7.907 57.0724 8.69452C57.481 8.80214 57.8754 8.90982 58.2516 9.01541L54.9001 14.282L60.2995 17.718L68.0631 5.51816L64.2614 4.18126L63.1998 7.20005C64.2614 4.18126 64.2618 4.1814 64.2614 4.18126L64.2498 4.17719L64.225 4.16854L64.137 4.13812C64.0616 4.1122 63.9533 4.07524 63.815 4.02882C63.5384 3.93602 63.1414 3.8052 62.6477 3.64904C61.662 3.33725 60.2826 2.92178 58.7024 2.50558C55.6175 1.6931 51.4843 0.800049 47.9998 0.800049C44.5153 0.800049 40.3821 1.6931 37.2972 2.50558C35.717 2.92178 34.3376 3.33725 33.3519 3.64904C32.8582 3.8052 32.4612 3.93602 32.1846 4.02882C32.0463 4.07524 31.938 4.1122 31.8626 4.13812L31.7746 4.16854L31.7499 4.17719L31.7424 4.17981L31.739 4.18101C31.7386 4.18114 31.7382 4.18126 32.7998 7.20005L31.739 4.18101L27.9365 5.51816L35.7001 17.718L41.0995 14.282Z" fill="#243946"/>
<path d="M25.498 60.448L14.8912 67.1089C14.512 65.871 14.0816 64.3981 13.6516 62.7868C12.3843 58.0384 11.1998 52.3758 11.1998 48C11.1998 43.6243 12.3843 37.9617 13.6516 33.2132C14.0816 31.602 14.512 30.1291 14.8912 28.8911L25.498 35.5521L28.9016 30.1322L11.4442 19.1691L10.1055 22.9259L13.1198 24C10.1055 22.9259 10.1053 22.9263 10.1052 22.9267L10.1 22.9414L10.0872 22.9776C10.0762 23.0086 10.0606 23.0531 10.0406 23.1105C10.0006 23.2254 9.94292 23.3921 9.87019 23.606C9.72477 24.0336 9.51881 24.6504 9.27252 25.4188C8.78046 26.954 8.12462 29.1027 7.46802 31.5629C6.17532 36.4065 4.7998 42.7439 4.7998 48C4.7998 53.2562 6.17532 59.5935 7.46802 64.4371C8.12462 66.8973 8.78046 69.0461 9.27252 70.5813C9.51882 71.3497 9.72477 71.9665 9.87019 72.3941C9.94292 72.608 10.0006 72.7747 10.0406 72.8896C10.0606 72.947 10.0762 72.9915 10.0872 73.0225L10.1 73.0587L10.1052 73.0734C10.1053 73.0738 10.1055 73.0742 13.1198 72L10.1055 73.0742L11.4442 76.831L28.9016 65.8679L25.498 60.448Z" fill="#243946"/>
<path d="M81.1084 67.1089L70.5016 60.448L67.098 65.8679L84.5554 76.831L85.8941 73.0742L82.8798 72C85.8941 73.0742 85.8943 73.0738 85.8944 73.0734L85.896 73.0691L85.8996 73.0587L85.9124 73.0225L85.9272 72.9804L85.959 72.8896C85.999 72.7747 86.0567 72.608 86.1294 72.3941C86.2748 71.9665 86.4808 71.3497 86.7271 70.5813C87.2191 69.0461 87.875 66.8973 88.5316 64.4371C89.8243 59.5935 91.1998 53.2562 91.1998 48C91.1998 42.7439 89.8243 36.4065 88.5316 31.5629C87.875 29.1027 87.2191 26.954 86.7271 25.4188C86.4808 24.6504 86.2748 24.0336 86.1294 23.606C86.0567 23.3921 85.999 23.2254 85.959 23.1105C85.939 23.0531 85.9234 23.0086 85.9124 22.9776L85.8996 22.9414L85.8948 22.9278L85.8944 22.9267C85.8943 22.9263 85.8941 22.9259 82.8798 24L85.8941 22.9259L84.5554 19.1691L67.098 30.1322L70.5016 35.5521L81.1084 28.8911C81.4876 30.1291 81.918 31.602 82.348 33.2132C83.6153 37.9617 84.7998 43.6243 84.7998 48C84.7998 52.3758 83.6153 58.0384 82.348 62.7868C81.918 64.3981 81.4876 65.871 81.1084 67.1089Z" fill="#243946"/>
<path d="M40.034 37.5814C39.8936 36.6793 40.5335 35.8446 41.4426 35.7613C43.2122 35.5992 46.0367 35.375 48.124 35.375C50.2114 35.375 53.0358 35.5992 54.8055 35.7613C55.7146 35.8446 56.3544 36.6793 56.214 37.5814L55.4271 42.6362C55.2938 43.4927 54.5033 44.0887 53.6414 43.9966C52.139 43.836 49.8393 43.625 48.124 43.625C46.4087 43.625 44.1091 43.836 42.6066 43.9966C41.7447 44.0887 40.9543 43.4927 40.8209 42.6362L40.034 37.5814Z" fill="#243946"/>
<path d="M53.6608 67.6932C54.6071 67.625 55.2722 66.7443 55.0926 65.8126L54.563 63.0646C54.406 62.25 53.6536 61.6897 52.827 61.7604C51.4894 61.8749 49.4951 62.0204 47.9998 62.0204C46.5045 62.0204 44.5102 61.8749 43.1726 61.7604C42.346 61.6897 41.5936 62.25 41.4366 63.0646L40.907 65.8126C40.7274 66.7443 41.3925 67.625 42.3388 67.6932C43.9198 67.8072 46.2506 67.95 47.9998 67.95C49.749 67.95 52.0798 67.8072 53.6608 67.6932Z" fill="#243946"/>
<path fill-rule="evenodd" clip-rule="evenodd" d="M41.2708 20.8C37.2693 20.8 33.8864 23.7546 33.4445 27.7316C32.7927 33.5971 31.9998 42.0394 31.9998 48.4C31.9998 54.7607 32.7927 63.203 33.4445 69.0685C33.8864 73.0455 37.2693 76 41.2708 76H55.0598C59.1638 76 62.599 72.8991 62.9375 68.809C63.4222 62.9538 63.9998 54.662 63.9998 48.4C63.9998 42.1381 63.4222 33.8463 62.9375 27.9911C62.599 23.901 59.1638 20.8 55.0598 20.8H41.2708ZM55.0598 25.6H41.2708C39.6522 25.6 38.3801 26.7776 38.2151 28.2618C37.5648 34.1136 36.7998 42.3271 36.7998 48.4C36.7998 54.473 37.5648 62.6865 38.2151 68.5383C38.3801 70.0224 39.6522 71.2 41.2708 71.2H55.0598C56.7181 71.2 58.0256 69.963 58.1539 68.4131C58.6376 62.5696 59.1998 54.4481 59.1998 48.4C59.1998 42.352 58.6376 34.2305 58.1539 28.387C58.0256 26.8371 56.7181 25.6 55.0598 25.6Z" fill="#243946"/>
<path d="M58.2516 87.7847L54.9001 82.518L60.2995 79.082L68.0631 91.2819L64.2614 92.6188L63.1998 89.6C64.2614 92.6188 64.2618 92.6187 64.2614 92.6188L64.2498 92.6229L64.225 92.6315L64.137 92.662C64.0616 92.6879 63.9533 92.7248 63.815 92.7713C63.5384 92.8641 63.1414 92.9949 62.6477 93.151C61.662 93.4628 60.2826 93.8783 58.7024 94.2945C55.6175 95.107 51.4843 96 47.9998 96C44.5153 96 40.3821 95.107 37.2972 94.2945C35.717 93.8783 34.3376 93.4628 33.3519 93.151C32.8582 92.9949 32.4612 92.8641 32.1846 92.7713C32.0463 92.7248 31.938 92.6879 31.8626 92.662L31.7746 92.6315L31.7499 92.6229L31.7399 92.6194L31.739 92.6191C31.7386 92.6189 31.7382 92.6188 32.7998 89.6L31.739 92.6191L27.9365 91.2819L35.7001 79.082L41.0995 82.518L37.748 87.7847C38.1242 87.8903 38.5186 87.9979 38.9272 88.1056C41.9174 88.8931 45.3842 89.6 47.9998 89.6C50.6154 89.6 54.0823 88.8931 57.0724 88.1056C57.481 87.9979 57.8754 87.8903 58.2516 87.7847Z" fill="#243946"/>
</svg>
