<svg width="96" height="96" viewBox="0 0 96 96" fill="none" xmlns="http://www.w3.org/2000/svg">
<path fill-rule="evenodd" clip-rule="evenodd" d="M45.5277 13.7601C45.5277 10.3983 49.3654 8.479 52.0552 10.4957L56.1041 13.5314V23.5303L53.5277 21.5986V39.7315L56.1041 37.7305V47.8564H56.1088L56.1059 47.8586L74.3511 61.8452C76.4778 63.4756 76.4823 66.679 74.3592 68.3151L52.0981 85.4693C49.4154 87.5365 45.5277 85.6241 45.5277 82.2375V56.0745L28.0537 69.6463L23.1465 63.3281L43.0106 47.9L23.1665 32.6876L28.0337 26.3385L45.5277 39.7493V13.7601ZM53.5277 55.9623L65.4362 65.0913L53.5277 74.2679V55.9623Z" fill="#243946"/>
<path d="M72.796 23.4233L80.2229 16L84.8 20.5786L77.3749 28L84.8 35.4214L80.2229 40L72.796 32.5767L65.3771 39.9919L60.8 35.4133L68.217 28L60.8 20.5867L65.3771 16.0081L72.796 23.4233Z" fill="#243946"/>
</svg>
