<svg width="96" height="96" viewBox="0 0 96 96" fill="none" xmlns="http://www.w3.org/2000/svg">
<path fill-rule="evenodd" clip-rule="evenodd" d="M43.1276 13.7601C43.1276 10.3983 46.9653 8.479 49.6551 10.4957L71.9156 27.1858C74.0692 28.8005 74.0966 32.0214 71.9708 33.6725L53.7058 47.8586L71.951 61.8452C74.0777 63.4756 74.0822 66.679 71.9591 68.3151L49.698 85.4693C47.0153 87.5365 43.1276 85.6241 43.1276 82.2375V56.0745L25.6536 69.6463L20.7464 63.3281L40.6105 47.9L20.7664 32.6876L25.6336 26.3385L43.1276 39.7493V13.7601ZM51.1276 55.9623L63.0361 65.0913L51.1276 74.2679V55.9623ZM51.1276 39.7315V21.5986L63.0068 30.5052L51.1276 39.7315Z" fill="#243946"/>
<path d="M65.6 44H78.4V52H65.6V44Z" fill="#243946"/>
<path d="M28.8 44H16V52H28.8V44Z" fill="#243946"/>
</svg>
