<svg width="96" height="96" viewBox="0 0 96 96" fill="none" xmlns="http://www.w3.org/2000/svg">
<path fill-rule="evenodd" clip-rule="evenodd" d="M43.1277 13.7601C43.1277 10.3983 46.9654 8.47898 49.6552 10.4957L71.9158 27.1858C74.0693 28.8005 74.0968 32.0214 71.9709 33.6725L53.706 47.8586L71.9511 61.8452C74.0778 63.4755 74.0823 66.679 71.9592 68.315L49.6981 85.4692C47.0155 87.5364 43.1277 85.6241 43.1277 82.2374V56.0745L25.6537 69.6463L20.7465 63.3281L40.6106 47.9L20.7665 32.6876L25.6337 26.3385L43.1277 39.7493V13.7601ZM51.1277 55.9623L63.0362 65.0913L51.1277 74.2679V55.9623ZM51.1277 39.7315V21.5986L63.0069 30.5052L51.1277 39.7315Z" fill="#243946"/>
</svg>
