<svg width="96" height="96" viewBox="0 0 96 96" fill="none" xmlns="http://www.w3.org/2000/svg">
<path fill-rule="evenodd" clip-rule="evenodd" d="M42.3276 13.7608C42.3276 10.3991 46.1653 8.47976 48.8551 10.4965L71.1157 27.1866C73.2692 28.8013 73.2966 32.0222 71.1708 33.6732L54.6888 46.4746L42.3276 35.0647V13.7608ZM50.3276 39.7323V21.5994L62.2068 30.5059L50.3276 39.7323Z" fill="#243946"/>
<path fill-rule="evenodd" clip-rule="evenodd" d="M64.1542 73.7137L72.769 81.666L78.1953 75.7876L18.8109 20.9701L13.3846 26.8484L37.8447 49.4275L19.9464 63.3289L24.8536 69.647L42.3276 56.0753V82.2382C42.3276 85.6249 46.2154 87.5372 48.898 85.47L64.1542 73.7137ZM58.1911 68.2092L50.3276 60.9504V74.2687L58.1911 68.2092Z" fill="#243946"/>
</svg>
