<svg width="96" height="96" viewBox="0 0 96 96" fill="none" xmlns="http://www.w3.org/2000/svg">
<path d="M93.4482 18.3732C93.7283 18.3868 94.024 18.542 94.1943 18.7648C94.3997 19.0336 94.3994 19.4577 94.3994 20.3048V21.8966C94.3994 22.795 94.3999 23.2444 94.2891 23.6407C94.187 24.0055 94.0376 24.3107 93.8125 24.6154C93.5679 24.9464 93.1925 25.2392 92.4424 25.8234C90.2825 27.5055 87.9912 29.4414 86.4541 30.7872C84.1395 33.1565 82.6368 36.3919 82.2549 37.049C81.6306 38.1228 80.4756 39.7984 79.6133 40.4991C79.7009 40.7399 79.8149 40.9812 79.96 41.2189C80.2993 41.775 80.8 42.6016 81.3652 43.5558C81.4995 43.7825 81.5665 43.8965 81.6396 44.0001C81.7056 44.0935 81.7742 44.18 81.8496 44.2657C81.9333 44.3609 82.0262 44.4501 82.2109 44.629L83.7891 46.1583C84.524 46.87 84.7749 47.9496 84.4297 48.9152C84.2622 49.3839 84.232 49.89 84.3398 50.3761C85.1392 53.9781 86.4364 60.4433 86.4658 63.8478C86.472 64.5686 86.2716 65.267 85.9834 65.9259C85.1757 67.7725 83.6397 69.1897 81.751 69.8302L81.6475 69.8654C81.0574 70.0656 80.5626 70.5002 80.3252 71.0792C78.587 75.3179 74.465 78.298 69.6572 78.298C66.0846 78.298 62.8909 76.6523 60.7725 74.0675C59.6649 72.7161 59.111 72.0404 58.7686 71.796C58.3659 71.5088 58.2431 71.4502 57.7666 71.3204C57.3614 71.2102 56.81 71.2101 55.708 71.2101H32.4072C31.2945 71.2101 30.7381 71.2104 30.3301 71.3224C29.8499 71.4542 29.7269 71.5124 29.3223 71.8038C28.9784 72.0516 28.4233 72.7383 27.3135 74.1105C25.1955 76.7291 21.9805 78.4005 18.3809 78.4005C14.2825 78.4005 10.6826 76.2345 8.63281 72.9698C7.99505 71.9541 6.94647 71.2101 5.75195 71.2101C5.46584 71.1808 5.16291 71.128 4.85449 71.0597C3.84283 70.8356 3.33637 70.7243 2.76074 70.2599C2.32655 69.9096 1.85931 69.2058 1.7041 68.6681C1.49846 67.9554 1.61982 67.2754 1.86133 65.9161L1.92969 65.5294C1.98458 65.2205 2.01219 65.0655 2.02441 64.9122C2.03549 64.7732 2.03803 64.6424 2.03125 64.5031C2.02376 64.3496 1.99961 64.1868 1.95215 63.8615C1.57815 61.2979 1.3529 58.7766 2.29883 56.381C2.4518 56.0162 2.76381 55.1002 2.79004 54.3507C2.82184 53.4411 3.9419 47.006 21.0518 46.6271C21.6845 46.6131 22.0014 46.6054 22.2754 46.5499C22.5291 46.4985 22.7456 46.428 22.9805 46.3185C23.234 46.2002 23.4784 46.0275 23.9668 45.6837C26.8938 43.623 31.3773 40.5111 32.9531 39.5861C33.2262 39.4258 33.529 39.2319 33.8682 39.0148C36.383 37.4049 40.8991 34.5148 50.1221 34.5148C58.123 34.5148 67.2393 34.807 74.5508 35.2618L74.6592 35.2677C74.9275 35.2845 75.1938 35.3022 75.457 35.3195H75.46C75.7347 35.3374 76.0065 35.3557 76.2754 35.3741C76.6678 35.0818 77.03 34.6934 77.3184 34.1974C77.6063 33.702 78.019 32.9974 78.502 32.1876C78.7167 31.8275 78.8244 31.6475 78.9121 31.4698C78.9916 31.3087 79.059 31.1531 79.1211 30.9845C79.1895 30.7987 79.2441 30.6036 79.3535 30.214L79.9062 28.2443C79.946 28.1026 79.9665 28.0319 79.9893 27.9679C80.2207 27.3169 80.7713 26.8312 81.4463 26.6837C81.5126 26.6692 81.5859 26.6584 81.7314 26.6368C81.8379 26.6211 81.8915 26.6125 81.9404 26.6036C82.4394 26.5127 82.8836 26.3105 83.2793 25.9933C83.3181 25.9622 83.3631 25.9242 83.4521 25.8478C85.6595 23.9546 89.252 21.0184 92.1152 19.0431C92.7784 18.5856 93.1104 18.3568 93.4482 18.3732ZM50.1221 40.2745C42.5312 40.2745 39.0615 42.5004 37.0273 43.8048L36.8564 43.9132C36.5501 44.1093 36.1663 44.3555 35.7969 44.5724C34.2247 45.4953 28.6835 49.3635 25.9111 51.3302L25.7549 51.4415C25.2687 51.7864 25.0249 51.9589 24.7598 52.0812C24.5246 52.1896 24.2768 52.2688 24.0225 52.3165C23.7357 52.3703 23.4377 52.3702 22.8428 52.3702H22.6572C13.8781 52.3702 10.2339 53.9956 8.93945 54.8898C8.56778 55.1466 8.38113 55.5777 8.29883 56.0236C8.09198 57.1442 7.7478 58.0879 7.55762 58.5538C7.18756 59.5186 7.22154 60.7658 7.68848 63.8126L7.82227 64.6837C7.83075 64.7391 7.83007 64.7956 7.82031 64.8507C7.76486 65.1628 8.00411 65.4493 8.31934 65.4493H10.1445C10.9666 65.4494 11.708 65.9477 12.0234 66.7111L12.9619 68.9835C13.8537 71.1414 15.9516 72.6397 18.3809 72.6398C20.8101 72.6398 22.908 71.1414 23.7998 68.9835L23.9658 68.5802C24.4332 67.4491 24.6673 66.8835 25.0498 66.4679C25.3879 66.1007 25.8075 65.8187 26.2744 65.6456C26.8029 65.4498 27.4127 65.4493 28.6309 65.4493H59.4463C60.6526 65.4493 61.2557 65.45 61.7803 65.6427C62.2439 65.813 62.6613 66.0903 62.999 66.4523C63.3812 66.8619 63.6183 67.4203 64.0918 68.5363L64.2607 68.9327C65.1649 71.0634 67.2477 72.5372 69.6572 72.5372C72.2724 72.5372 74.5021 70.7985 75.2559 68.3839L75.376 68.0001C75.7057 66.9436 75.8705 66.4151 76.1738 65.9952C76.4421 65.6238 76.7872 65.3152 77.1855 65.0909C77.6358 64.8374 78.1768 64.7346 79.2588 64.5294L79.626 64.4601C79.7009 64.4459 79.7753 64.426 79.8477 64.4015L79.9512 64.3663C80.0548 64.3312 80.0975 64.3153 80.0996 64.3146C80.0826 64.315 79.0956 64.6202 79.4551 64.3292C79.637 64.182 80.4681 62.8948 80.5283 62.6671C80.6309 62.2769 80.6879 62.4588 80.7041 62.5109C80.7105 62.5315 80.7102 62.5314 80.7041 62.4659C80.3997 59.2094 79.333 53.9712 78.6406 50.9288L78.29 49.3898C78.2723 49.3118 78.2769 49.2298 78.3037 49.1544C78.3593 48.999 78.3195 48.8247 78.2012 48.7101L77.4365 47.9698C77.3028 47.8404 77.1872 47.6931 77.0928 47.5323L76.8379 47.0997C76.1512 45.9313 75.5276 44.8997 75.1318 44.2511C74.2493 42.8048 73.8081 42.0807 73.584 41.8419C73.0282 41.2497 72.8713 41.1567 72.0879 40.9503C71.7721 40.8671 71.3071 40.8438 70.3779 40.797C63.9828 40.4746 56.6758 40.2745 50.1221 40.2745Z" fill="#243946"/>
</svg>
