<svg width="96" height="96" viewBox="0 0 96 96" fill="none" xmlns="http://www.w3.org/2000/svg">
<path d="M16.6314 62.116C18.6351 66.5673 21.5631 70.5413 25.221 73.7738L20.983 78.5695C16.6446 74.7357 13.1718 70.0224 10.7954 64.7429C8.41901 59.4634 7.19347 53.7386 7.20022 47.9489C7.20697 42.1592 8.44586 36.4373 10.8345 31.1633C13.2232 25.8894 16.707 21.1842 21.0544 17.3605L25.2812 22.1661C21.6157 25.3901 18.6784 29.3572 16.6645 33.8038C14.6505 38.2505 13.6059 43.0749 13.6002 47.9564C13.5945 52.8378 14.6278 57.6647 16.6314 62.116Z" fill="#243946"/>
<path d="M79.3682 62.116C77.3646 66.5673 74.4365 70.5413 70.7786 73.7738L75.0166 78.5695C79.3551 74.7357 82.8279 70.0224 85.2042 64.7429C87.5806 59.4634 88.8062 53.7386 88.7994 47.9489C88.7927 42.1592 87.5538 36.4373 85.1651 31.1633C82.7764 25.8894 79.2926 21.1842 74.9452 17.3605L70.7185 22.1661C74.3839 25.3901 77.3212 29.3572 79.3352 33.8038C81.3492 38.2505 82.3937 43.0749 82.3994 47.9564C82.4051 52.8378 81.3718 57.6647 79.3682 62.116Z" fill="#243946"/>
<path d="M50.9559 35.6177L50.2231 53.7275H45.7773L45.0445 35.6177V32.7949H50.9559V35.6177Z" fill="#243946"/>
<path d="M51.2002 57.5057V63.1949H44.8002V57.5057H51.2002Z" fill="#243946"/>
<path fill-rule="evenodd" clip-rule="evenodd" d="M76.0002 47.9949C76.0002 63.4589 63.4642 75.9949 48.0002 75.9949C32.5362 75.9949 20.0002 63.4589 20.0002 47.9949C20.0002 32.5309 32.5362 19.9949 48.0002 19.9949C63.4642 19.9949 76.0002 32.5309 76.0002 47.9949ZM69.6002 47.9949C69.6002 59.9242 59.9296 69.5949 48.0002 69.5949C36.0708 69.5949 26.4002 59.9242 26.4002 47.9949C26.4002 36.0655 36.0708 26.3949 48.0002 26.3949C59.9296 26.3949 69.6002 36.0655 69.6002 47.9949Z" fill="#243946"/>
</svg>
