<svg width="96" height="96" viewBox="0 0 96 96" fill="none" xmlns="http://www.w3.org/2000/svg">
<path d="M76.8 67.8628C76.8 67.4384 76.6314 67.0315 76.3313 66.7314L70.8686 61.2687C70.5685 60.9686 70.4 60.5617 70.4 60.1373V41.6C70.4 31.68 63.904 22.944 54.4 20.128V19.2C54.4 17.5027 53.7257 15.8748 52.5254 14.6746C51.3252 13.4743 49.6973 12.8 48 12.8C46.3026 12.8 44.6747 13.4743 43.4745 14.6746C42.2742 15.8748 41.6 17.5027 41.6 19.2V20.128C32.096 22.944 25.6 31.68 25.6 41.6V60.1373C25.6 60.5617 25.4314 60.9686 25.1313 61.2687L19.6686 66.7314C19.3685 67.0315 19.2 67.4384 19.2 67.8628V68.8C19.2 69.6837 19.9163 70.4 20.8 70.4H75.2C76.0836 70.4 76.8 69.6837 76.8 68.8V67.8628Z" fill="#243946"/>
<path d="M53.6568 80.8569C55.1571 79.3566 56 77.3218 56 75.2H40C40 77.3218 40.8428 79.3566 42.3431 80.8569C43.8434 82.3572 45.8782 83.2 48 83.2C50.1217 83.2 52.1565 82.3572 53.6568 80.8569Z" fill="#243946"/>
</svg>
