<svg width="96" height="96" viewBox="0 0 96 96" fill="none" xmlns="http://www.w3.org/2000/svg">
<path d="M83.2334 80.7754L77.5762 86.4316L63.1445 72H20.7998C19.9164 71.9999 19.2004 71.2838 19.2002 70.4004V69.4629C19.2003 69.0386 19.3689 68.6311 19.6689 68.3311L25.1309 62.8691C25.4309 62.5691 25.5995 62.1616 25.5996 61.7373V43.2002C25.5996 40.6007 26.0456 38.0821 26.875 35.7305L9.69336 18.5498L15.3506 12.8926L83.2334 80.7754ZM56 76.7998C56 78.9215 55.1575 80.9567 53.6572 82.457C52.1569 83.9573 50.1217 84.7998 48 84.7998C45.8783 84.7998 43.8431 83.9573 42.3428 82.457C40.8425 80.9567 40 78.9215 40 76.7998H56ZM48 14.4004C49.6973 14.4004 51.3252 15.0742 52.5254 16.2744C53.7256 17.4746 54.4003 19.1025 54.4004 20.7998V21.7285C63.9041 24.5447 70.4004 33.2804 70.4004 43.2002V61.0996L34.5615 25.2617C36.6364 23.7074 39.0057 22.4971 41.5996 21.7285V20.7998C41.5997 19.1025 42.2744 17.4746 43.4746 16.2744C44.6748 15.0742 46.3027 14.4004 48 14.4004Z" fill="#243946"/>
</svg>
