<svg width="96" height="96" viewBox="0 0 96 96" fill="none" xmlns="http://www.w3.org/2000/svg">
<path d="M80.2812 16.3844C83.5771 16.3845 86.249 19.0563 86.249 22.3522V72.6481C86.249 76.8881 82.8091 80.3199 78.5771 80.3199H17.1934C12.9534 80.3199 9.52051 76.8801 9.52051 72.6481V51.3522C9.52054 47.8723 10.7371 44.5046 12.9609 41.8326L21.2168 31.9127C29.4008 22.0727 41.5369 16.3844 54.3369 16.3844H80.2812ZM60.6719 53.6002C59.738 53.6004 58.851 54.0084 58.2432 54.7174L54.4004 59.1998H48.001L44.8008 63.2662L41.6006 59.1998H35.2002L32.001 63.2662L28.8008 59.1998H22.4004L18.4004 63.6002L22.4004 67.9996H54.4004L58.2432 72.4821C58.851 73.1912 59.7379 73.6001 60.6719 73.6002H76.8008C78.568 73.6001 80.0009 72.1672 80.001 70.4V56.8004C80.001 55.0332 78.568 53.6003 76.8008 53.6002H60.6719ZM75.2002 68.8004H68.8008V58.4H75.2002V68.8004ZM54.3369 22.776C43.4009 22.776 33.1209 27.6006 26.1289 36.0006L18.1035 45.6002H80.001V22.776H54.3369Z" fill="#243946"/>
</svg>
