<svg width="96" height="96" viewBox="0 0 96 96" fill="none" xmlns="http://www.w3.org/2000/svg">
<path d="M53.873 9.59961C56.3194 9.59974 58.6313 10.7196 60.1484 12.6387L76.3506 33.1357C78.5214 35.882 78.6549 39.7212 76.6797 42.6113L74.832 45.3145C74.7804 45.39 74.7278 45.4647 74.6738 45.5381C74.8402 45.7556 74.9957 45.9833 75.1406 46.2197L77.6416 50.2998C78.2695 51.3243 78.6457 52.4521 78.7725 53.5996H72.1582L69.6846 49.5635C69.3937 49.089 68.8768 48.7998 68.3203 48.7998H32.4258C31.9193 48.7999 31.4424 49.0396 31.1406 49.4463L25.915 56.4902C25.7105 56.7659 25.5997 57.1001 25.5996 57.4434V78.4004C25.5998 79.2839 26.3167 80 27.2002 80H48V86.4004H27.2002C22.782 86.4004 19.2004 82.8185 19.2002 78.4004V57.4434C19.2003 55.7267 19.7525 54.0554 20.7754 52.6768L25.8682 45.8125L21.0361 39.9717C19.8495 38.5373 19.2002 36.7337 19.2002 34.8721V17.5996C19.2004 13.1815 22.782 9.59961 27.2002 9.59961H53.873ZM76.6201 70.8867C77.0159 71.3048 76.7166 71.9902 76.1387 71.9902H70.4072V84.7627C70.4072 85.667 69.6686 86.4004 68.7578 86.4004H60.8418C59.931 86.4004 59.1924 85.667 59.1924 84.7627V71.9902H53.4609C52.8831 71.9902 52.5847 71.3048 52.9805 70.8867L64.7998 58.4004L76.6201 70.8867Z" fill="#243946"/>
</svg>
