<svg width="96" height="96" viewBox="0 0 96 96" fill="none" xmlns="http://www.w3.org/2000/svg">
<path d="M52.0039 11.2005C56.4222 11.2005 60.0039 14.7822 60.0039 19.2005V33.5999H64.0039C68.4221 33.5999 72.0038 37.1817 72.0039 41.5999V68.8001C72.0039 73.2183 68.4222 76.8001 64.0039 76.8001H19.2041C14.7858 76.8001 11.2041 73.2183 11.2041 68.8001V41.5999C11.2042 37.1817 14.7859 33.5999 19.2041 33.5999H23.2041V19.2005C23.2041 14.7822 26.7858 11.2005 31.2041 11.2005H52.0039ZM88.0039 76.8001H78.4043V66.7083H88.0039V76.8001ZM33.9688 40.0003C33.7374 40.0003 33.5171 40.1002 33.3652 40.2747L25.6045 49.2005L27.6045 52.0003L34.4043 48.0003V68.8001H40.0039L40.751 58.343C40.7809 57.9245 41.1293 57.6001 41.5488 57.5999H41.6592C42.0787 57.6001 42.4271 57.9245 42.457 58.343L43.2041 68.8001H48.8037V48.0003L55.6045 52.0003L57.6045 49.2005L49.8428 40.2747C49.6909 40.1002 49.4706 40.0003 49.2393 40.0003H46.4053C45.0682 41.0048 43.4056 41.5998 41.6045 41.5999C39.8034 41.5999 38.1408 41.0047 36.8037 40.0003H33.9688ZM88.0039 17.5081L86.8037 59.138H79.6045L78.4043 17.5081V11.2005H88.0039V17.5081ZM41.6045 28.0003C38.5117 28.0003 36.004 30.5071 36.0039 33.5999C36.0039 36.6927 38.5117 39.2005 41.6045 39.2005C44.6971 39.2002 47.2041 36.6925 47.2041 33.5999C47.204 30.5073 44.697 28.0005 41.6045 28.0003ZM31.2041 33.5999H33.6045C33.6046 29.1817 37.1863 25.5999 41.6045 25.5999C46.0225 25.6001 49.6044 29.1818 49.6045 33.5999H52.0039V19.2005H31.2041V33.5999Z" fill="#243946"/>
</svg>
