<svg width="96" height="96" viewBox="0 0 96 96" fill="none" xmlns="http://www.w3.org/2000/svg">
<path d="M28.8002 22.4H35.2002V49.6H28.8002V22.4Z" fill="#243946"/>
<path d="M7.67673 44.4772C8.63364 39.7501 10.9956 35.408 14.464 32L18.9894 36.4468C16.4162 38.9753 14.6637 42.1969 13.9538 45.7041C13.2438 49.2113 13.6082 52.8465 15.0008 56.1502C16.3935 59.4539 18.7518 62.2776 21.7777 64.2643C24.8036 66.2509 28.361 67.3113 32.0002 67.3113C35.6394 67.3113 39.1968 66.2509 42.2227 64.2643C45.2485 62.2776 47.6069 59.4539 48.9996 56.1502C50.3922 52.8465 50.7566 49.2113 50.0466 45.7041C49.3367 42.1969 47.5842 38.9753 45.011 36.4468L49.5364 32C53.0048 35.408 55.3667 39.7501 56.3237 44.4772C57.2806 49.2043 56.7895 54.104 54.9124 58.5568C53.0353 63.0096 49.8567 66.8155 45.7783 69.4932C41.7 72.1708 36.9052 73.6 32.0002 73.6C27.0952 73.6 22.3004 72.1708 18.2221 69.4931C14.1437 66.8155 10.965 63.0096 9.08799 58.5568C7.21094 54.104 6.71982 49.2043 7.67673 44.4772Z" fill="#243946"/>
<path fill-rule="evenodd" clip-rule="evenodd" d="M67.4669 29.9294C67.4669 25.7711 71.0486 22.4 75.4669 22.4H76.5335C80.9518 22.4 84.5335 25.7711 84.5335 29.9294V52.5735C87.1522 54.7794 88.8002 57.985 88.8002 61.553C88.8002 68.2064 83.0694 73.6 76.0002 73.6C68.931 73.6 63.2002 68.2064 63.2002 61.553C63.2002 57.985 64.8482 54.7794 67.4669 52.5735V29.9294ZM75.4669 27.4196H76.5335C78.0063 27.4196 79.2002 28.5433 79.2002 29.9294V42.7294H72.8002V29.9294C72.8002 28.5433 73.9941 27.4196 75.4669 27.4196Z" fill="#243946"/>
</svg>
