<svg width="96" height="96" viewBox="0 0 96 96" fill="none" xmlns="http://www.w3.org/2000/svg">
<path d="M39.2822 78.6602C39.2823 80.0281 39.6302 81.0963 40.3262 81.8643C41.0461 82.6321 41.9941 83.0155 43.1699 83.0156C44.3939 83.0156 45.3902 82.6079 46.1582 81.792C46.9502 80.952 47.3466 79.9081 47.3467 78.6602V67.4639H51.4863V86.4004H47.9941L47.5264 84.0957H47.3467C46.7467 84.9837 45.9901 85.6563 45.0781 86.1123C44.1662 86.5442 43.194 86.7598 42.1621 86.7598C40.7943 86.7597 39.5823 86.4603 38.5264 85.8604C37.4704 85.2364 36.642 84.3483 36.042 83.1963C35.442 82.0203 35.1426 80.6518 35.1426 79.0918V67.4639H39.2822V78.6602ZM77.7324 67.1045C80.5164 67.1045 82.7245 67.9683 84.3564 69.6963C85.9882 71.4242 86.8046 73.8359 86.8047 76.9316C86.8047 80.0276 85.9884 82.44 84.3564 84.168C82.7245 85.8959 80.5164 86.7597 77.7324 86.7598C74.9484 86.7598 72.7404 85.896 71.1084 84.168C69.4764 82.44 68.6602 80.0276 68.6602 76.9316C68.6602 73.8359 69.4765 71.4242 71.1084 69.6963C72.7404 67.9683 74.9484 67.1045 77.7324 67.1045ZM33.3965 86.4004H28.7881L26.8799 81.1084H16.0078L14.0996 86.4004H9.56445L18.7803 61.2002H24.1797L33.3965 86.4004ZM61.7119 67.4639H66.3555V71.3164H61.7119V80.6045C61.712 81.1803 61.8921 81.6479 62.252 82.0078C62.6119 82.3677 63.0794 82.5478 63.6553 82.5479H66.3555V86.4004H63.0439C61.3161 86.4004 59.9717 85.9441 59.0117 85.0322C58.0517 84.0962 57.5713 82.8117 57.5713 81.1797V71.3164H54.583V67.4639H57.5713L58.1475 62.4238H61.7119V67.4639ZM77.7324 70.8477C76.2924 70.8477 75.104 71.3645 74.168 72.3965C73.2563 73.4284 72.8008 74.9401 72.8008 76.9316C72.8008 78.9234 73.2561 80.4358 74.168 81.4678C75.104 82.4998 76.2924 83.0156 77.7324 83.0156C79.1963 83.0156 80.3839 82.4997 81.2959 81.4678C82.2079 80.4358 82.6641 78.9236 82.6641 76.9316C82.664 74.9399 82.2078 73.4284 81.2959 72.3965C80.3839 71.3645 79.1964 70.8477 77.7324 70.8477ZM17.4121 77.1836H25.4756L21.5156 66.168H21.3359L17.4121 77.1836ZM25.8818 9.59961C29.6863 9.59979 32.7705 12.55 32.7705 16.1885V36.002C35.0253 37.932 36.4442 40.7367 36.4443 43.8584C36.4443 49.6801 31.5093 54.4004 25.4219 54.4004C19.3346 54.4002 14.4004 49.68 14.4004 43.8584C14.4005 40.7366 15.8194 37.932 18.0742 36.002V16.1885C18.0742 12.5499 21.1583 9.59965 24.9629 9.59961H25.8818ZM58.1855 9.59961C58.9802 9.59961 59.7752 9.82651 60.4639 10.2744C61.6726 11.0594 62.4052 12.4029 62.4053 13.8428V25.5605L67.4326 18.6592C68.8871 16.6653 71.2088 15.4854 73.6699 15.4854H73.7852C76.4293 15.5239 78.8717 16.916 80.2539 19.1748L84.1836 25.5947C85.0263 26.972 85.0023 28.7102 84.126 30.0635C83.341 31.2722 81.9975 32.0047 80.5576 32.0049H68.8389L75.7412 37.0332C77.7687 38.5118 78.9487 40.8815 78.9102 43.3857C78.8715 46.0345 77.4794 48.4713 75.2207 49.8535L68.8057 53.7832C68.1314 54.1926 67.3752 54.4004 66.6143 54.4004C65.8533 54.4004 65.0247 54.1735 64.3359 53.7256C63.1273 52.9406 62.3956 51.5971 62.3955 50.1572V38.4395L57.3672 45.3408C55.9127 47.3347 53.591 48.5146 51.1299 48.5146H51.0146C48.3705 48.4761 45.9282 47.084 44.5459 44.8252L40.6162 38.4053C39.7736 37.028 39.7976 35.2898 40.6738 33.9365C41.4589 32.7277 42.8031 31.9951 44.2432 31.9951H55.9609L49.0596 26.9668C47.0319 25.4882 45.8511 23.1187 45.8896 20.6143C45.9283 17.9703 47.3204 15.5287 49.5791 14.1465L55.999 10.2168C56.6684 9.80747 57.4295 9.59966 58.1855 9.59961ZM24.9629 13.9922C23.6947 13.9922 22.667 14.9756 22.667 16.1885V27.3887H28.1777V16.1885C28.1777 14.9757 27.1499 13.9924 25.8818 13.9922H24.9629Z" fill="#243946"/>
</svg>
