<svg width="96" height="96" viewBox="0 0 96 96" fill="none" xmlns="http://www.w3.org/2000/svg">
<path fill-rule="evenodd" clip-rule="evenodd" d="M21.2166 28.728C29.4006 18.888 41.5365 13.2 54.3365 13.2H80.2807C83.5767 13.2 86.2486 15.872 86.2486 19.168V69.4641C86.2486 73.7041 82.8088 77.1361 78.5768 77.1361H17.1928C12.9528 77.1361 9.52051 73.6961 9.52051 69.4641V48.168C9.52051 44.688 10.7367 41.3201 12.9607 38.6481L21.2166 28.728ZM61.7375 43.0784L66.2629 38.5529L77.011 49.3009C78.5731 50.863 78.5731 53.3957 77.011 54.9578L66.2629 65.7058L61.7375 61.1803L67.7021 55.2156H50.6512C48.1051 55.2156 45.6633 54.2042 43.8629 52.4039L27.3375 35.8784L31.8629 31.3529L48.3884 47.8784C48.9885 48.4785 49.8025 48.8156 50.6512 48.8156H67.4747L61.7375 43.0784Z" fill="#243946"/>
</svg>
