<svg width="96" height="96" viewBox="0 0 96 96" fill="none" xmlns="http://www.w3.org/2000/svg">
<path d="M81.8623 67.8633L74.5225 75.2002L81.8623 82.5371L77.3379 87.0635L69.9951 79.7246L62.6621 87.0557L58.1377 82.5293L65.4688 75.2002L58.1377 67.8711L62.6621 63.3447L69.9951 70.6748L77.3379 63.3369L81.8623 67.8633ZM76.2803 10.7842C79.5761 10.7842 82.2478 13.4561 82.248 16.752V56.7998H60L52 64.7998V74.7207H13.1934C8.95349 74.7207 5.52072 71.2807 5.52051 67.0488V45.752C5.5206 42.2721 6.73704 38.9043 8.96094 36.2324L17.2168 26.3125C25.4008 16.4726 37.537 10.7842 50.3369 10.7842H76.2803ZM50.3369 17.1768C39.401 17.1768 29.1209 22.0005 22.1289 30.4004L14.1035 40H76V17.1768H50.3369Z" fill="#243946"/>
</svg>
