<svg width="96" height="96" viewBox="0 0 96 96" fill="none" xmlns="http://www.w3.org/2000/svg">
<path d="M80.7525 9.59998L86.3995 15.247L71.2171 30.4294H80.7696V38.4155H62.3683C59.722 38.4155 57.5767 36.2702 57.5767 33.6238V15.2225H65.5628V24.7897L80.7525 9.59998Z" fill="#243946"/>
<path d="M15.2669 65.5027H24.8502L9.59998 80.753L15.247 86.4L30.4737 71.1733L30.4737 80.7096H38.4598V62.3083C38.4598 59.6619 36.3145 57.5166 33.6682 57.5166H15.2669V65.5027Z" fill="#243946"/>
<path d="M65.5628 71.2097V80.6768H57.5767V62.2755C57.5767 59.6292 59.722 57.4839 62.3683 57.4839H80.7696V65.47H71.1171L86.4 80.7528L80.753 86.3999L65.5628 71.2097Z" fill="#243946"/>
<path d="M9.59998 15.247L15.247 9.59998L30.4738 24.8268L30.4738 15.1909L38.4599 15.1909L38.4599 33.5921C38.4599 36.2385 36.3146 38.3838 33.6683 38.3838H15.267L15.267 30.3977H24.7507L9.59998 15.247Z" fill="#243946"/>
</svg>
