<svg width="96" height="96" viewBox="0 0 96 96" fill="none" xmlns="http://www.w3.org/2000/svg">
<path d="M20.6531 34.2758C22.1406 30.6845 24.3209 27.4215 27.0695 24.6728L21.4127 19.016C17.9212 22.5075 15.1516 26.6525 13.262 31.2143C11.3725 35.7762 10.3999 40.6655 10.3999 45.6032C10.3999 50.5409 11.3725 55.4303 13.262 59.9921C15.1516 64.554 17.9212 68.6989 21.4127 72.1904L27.0695 66.5336C24.3209 63.785 22.1406 60.5219 20.6531 56.9306C19.1655 53.3394 18.3999 49.4903 18.3999 45.6032C18.3999 41.7161 19.1655 37.867 20.6531 34.2758Z" fill="#243946"/>
<path d="M82.7378 31.2143C80.8482 26.6525 78.0786 22.5075 74.5871 19.016L68.9303 24.6728C71.6789 27.4215 73.8592 30.6845 75.3467 34.2758C76.8343 37.867 77.5999 41.7161 77.5999 45.6032C77.5999 49.4903 76.8343 53.3394 75.3467 56.9306C73.8592 60.5219 71.6789 63.785 68.9303 66.5336L74.5871 72.1904C78.0786 68.6989 80.8482 64.554 82.7378 59.9921C84.6273 55.4303 85.5999 50.5409 85.5999 45.6032C85.5999 40.6655 84.6273 35.7762 82.7378 31.2143Z" fill="#243946"/>
<path d="M63.2734 30.3301C65.2792 32.3358 66.8702 34.717 67.9557 37.3376C69.0412 39.9582 69.5999 42.767 69.5999 45.6036C69.5999 48.4401 69.0412 51.2489 67.9557 53.8695C66.8702 56.4902 65.2792 58.8713 63.2734 60.8771L57.6166 55.2202C58.8795 53.9573 59.8812 52.4581 60.5647 50.8081C61.2482 49.158 61.5999 47.3895 61.5999 45.6036C61.5999 43.8176 61.2482 42.0491 60.5647 40.3991C59.8812 38.749 58.8795 37.2498 57.6166 35.9869L63.2734 30.3301Z" fill="#243946"/>
<path d="M51.1999 50.2C52.6507 49.1881 53.5999 47.5068 53.5999 45.6038C53.5999 42.511 51.0927 40.0038 47.9999 40.0038C44.9071 40.0038 42.3999 42.511 42.3999 45.6038C42.3999 47.5068 43.3491 49.1881 44.7999 50.2V76.8034H51.1999V50.2Z" fill="#243946"/>
<path d="M38.3833 35.9869C37.1204 37.2498 36.1186 38.749 35.4351 40.3991C34.7517 42.0491 34.3999 43.8176 34.3999 45.6036C34.3999 47.3895 34.7517 49.158 35.4351 50.8081C36.1186 52.4581 37.1204 53.9573 38.3832 55.2202L32.7264 60.8771C30.7206 58.8713 29.1296 56.4902 28.0441 53.8695C26.9586 51.2489 26.3999 48.4401 26.3999 45.6036C26.3999 42.767 26.9586 39.9582 28.0441 37.3376C29.1296 34.717 30.7206 32.3358 32.7264 30.3301L38.3833 35.9869Z" fill="#243946"/>
</svg>
