<svg width="96" height="96" viewBox="0 0 96 96" fill="none" xmlns="http://www.w3.org/2000/svg">
<path d="M75.2002 8C79.6184 8.00011 83.2002 11.5818 83.2002 16V80C83.2002 84.4182 79.6184 87.9999 75.2002 88H25.5996C21.1815 87.9998 17.5996 84.4181 17.5996 80V75.999H25.5996V80H75.2002V16H25.5996V20H17.5996V16C17.5996 11.5819 21.1815 8.00021 25.5996 8H75.2002ZM30.4004 69.5996H12.7998V63.2002H30.4004V69.5996ZM46.2988 32.7998C47.2084 32.8 48.0293 33.3249 48.3672 34.1279L50.7734 39.832C51.1781 40.7972 50.788 41.8957 49.8525 42.4277L46.8594 43.8232C46.8648 43.8332 48.823 47.4071 50.7129 49.2002C52.5959 50.9866 56.343 52.8378 56.3809 52.8564L57.8516 50.0166C58.4123 49.1292 59.5707 48.7589 60.5879 49.1426L66.5996 51.4258C67.4463 51.7464 68 52.5255 68 53.3887V58.9199C67.9998 59.8426 67.6135 60.7302 66.9268 61.3818C66.2361 62.0334 65.3038 62.4004 64.3311 62.4004C57.1719 61.9882 50.4212 59.1025 45.3525 54.2939C40.2838 49.4851 37.2343 43.0726 36.7998 36.2803C36.7999 35.3576 37.1864 34.4735 37.873 33.8184C38.56 33.1667 39.496 32.7998 40.4688 32.7998H46.2988ZM25.5996 56.7988H17.5996V39.2002H25.5996V56.7988ZM30.4004 32.7998H12.7998V26.4004H30.4004V32.7998Z" fill="#243946"/>
</svg>
