<svg width="96" height="96" viewBox="0 0 96 96" fill="none" xmlns="http://www.w3.org/2000/svg">
<path d="M65.6352 79.7517C69.6159 65.4231 79.4641 29.3586 79.1857 24.2526C78.837 17.8579 75.1744 9.59999 71.1997 9.59998C67.3627 9.59996 63.0241 13.5608 63.5036 17.4688C63.6167 17.8145 63.772 18.2273 63.9478 18.6943C64.7115 20.7231 65.8603 23.7752 65.5996 26.8C65.1295 32.2536 60.7365 38.788 60.7365 38.788C60.7365 38.788 56.4412 45.454 54.7359 50.1868C52.7291 55.7563 51.8571 64.0496 51.9863 65.0945C44.4214 62.4561 36.2028 60.2797 32.7632 60.2797C26.1184 60.2797 21.2222 62.3985 20.173 66.2831C19.1238 70.1677 22.9708 82.8809 28.2167 84.6466C31.5691 85.775 47.5026 85.6791 57.6126 85.6182L57.9078 85.6164C61.5097 85.5947 64.6711 83.2222 65.6352 79.7517Z" fill="#243946"/>
<path d="M38.4868 19.694L36.8329 16.8L34.6901 18.0246C33.9628 18.4398 33.3267 18.9729 32.8013 19.592C32.276 18.9729 31.6396 18.4397 30.9124 18.0244L28.7697 16.8L27.1159 19.694L29.2594 20.9189C30.3811 21.5593 31.0817 22.7177 31.1332 23.9764V29.931L28.768 28.5805L28.7691 28.5785L26.0292 27.0142L26.0092 27.0029C24.8544 26.3355 24.1534 25.1181 24.1534 23.8083V21.3622H20.8202V23.8083C20.8202 24.6323 20.965 25.4349 21.2366 26.186C20.4413 26.3267 19.6648 26.603 18.9433 27.0149L16.7998 28.2399L18.4537 31.1339L20.5966 29.9092C21.7293 29.2629 23.1226 29.2432 24.2747 29.8531L29.4389 32.8019L24.2524 35.7635C23.1052 36.3597 21.7241 36.3357 20.5997 35.694L18.4568 34.4694L16.8029 37.3634L18.9458 38.588C19.6664 38.9994 20.4425 39.2759 21.2368 39.4168C20.9651 40.168 20.8202 40.9708 20.8202 41.7949V44.241H24.1534V41.7949C24.1534 40.5068 24.8313 39.3081 25.9522 38.634C25.9789 38.6192 26.0056 38.6042 26.0323 38.589L26.0334 38.5884L28.7722 37.0247L28.7706 37.0219L31.1332 35.6728V41.6235C31.0817 42.8823 30.3811 44.0406 29.2594 44.681L27.1159 45.906L28.7697 48.8L30.912 47.5758C31.6392 47.1605 32.276 46.6271 32.8013 46.0079C33.3267 46.6271 33.9628 47.1601 34.6901 47.5754L36.8329 48.8L38.4868 45.906L36.3439 44.6814C35.2138 44.0362 34.5105 42.8649 34.4685 41.5953C34.4691 41.5551 34.4695 41.5147 34.4695 41.4744V38.3473H34.4664V35.6728L36.8313 37.0232L36.8305 37.0247L39.5693 38.5884L39.5704 38.589C39.5966 38.6039 39.6228 38.6186 39.649 38.6332C40.7707 39.3071 41.4492 40.5063 41.4492 41.7949V44.241H44.7824V41.7949C44.7824 40.9708 44.6375 40.168 44.3658 39.4168C45.1601 39.2759 45.9356 38.9998 46.6563 38.5884L48.7998 37.3634L47.1459 34.4694L45.003 35.694C43.8656 36.3431 42.4654 36.3602 41.3105 35.7426L41.2641 35.7161L41.2243 35.6932L36.1608 32.8019L41.3255 29.8528C42.4775 29.2433 43.8705 29.263 45.003 29.9092L47.1459 31.1339L48.7998 28.2399L46.6569 27.0153C45.9363 26.6038 45.1601 26.3274 44.3658 26.1865C44.6375 25.4353 44.7824 24.6325 44.7824 23.8083V21.3622H41.4492V23.8083C41.4492 25.097 40.7707 26.2962 39.6491 26.9701C39.6228 26.9846 39.5966 26.9993 39.5704 27.0142L36.8305 28.5786L36.8316 28.5805L34.4664 29.931V27.2527H34.4695V24.1256C34.4695 24.0852 34.4691 24.0449 34.4684 24.0046C34.5105 22.735 35.2132 21.5641 36.3433 20.9189L38.4868 19.694Z" fill="#243946"/>
</svg>
