<svg width="96" height="96" viewBox="0 0 96 96" fill="none" xmlns="http://www.w3.org/2000/svg">
<path d="M67.2007 37.5994C68.0006 34.8783 68.8007 32.7995 72.0005 33.5994L80.2524 34.6882C83.6003 35.2004 84 37.5995 83.6001 39.5994L79.688 58.0593C76.7148 66.4498 69.485 71.7491 60.7056 70.2888L50.0845 68.0173L31.2026 86.9011C30.1087 87.9951 28.6666 88.5476 27.2251 88.5476C25.7837 88.5475 24.3526 87.995 23.2485 86.9011C21.0506 84.7029 21.0506 81.1452 23.2485 78.947L41.5376 60.657C43.9314 58.0516 46.4589 55.6654 53.0806 57.0916C60.8274 58.7601 62.2203 53.7547 63.4009 49.5115C63.4677 49.2714 63.5335 49.0335 63.6001 48.7996C63.9364 47.618 64.499 45.9367 65.1196 44.0789C65.8179 41.9887 66.5905 39.6748 67.2007 37.5994ZM40.9663 14.7449L38.3403 16.2458C36.9561 17.0362 36.096 18.4709 36.0444 20.0261C36.0453 20.0752 36.0454 20.1244 36.0454 20.1736V24.0046H36.0415V27.2859L38.939 25.6306L38.937 25.6287L42.2935 23.7126C42.3255 23.6944 42.3579 23.6758 42.3901 23.658C43.7641 22.8324 44.5952 21.3634 44.5952 19.7849V16.7888H48.6782V19.7849C48.6782 20.7943 48.5012 21.7779 48.1685 22.698C49.1415 22.8706 50.0914 23.2096 50.9741 23.7136L53.6001 25.2136L51.5737 28.7585L48.9487 27.2585C47.5615 26.467 45.855 26.4427 44.4438 27.1892L38.1167 30.8025L44.3198 34.3445C44.336 34.3537 44.3525 34.3625 44.3687 34.3718L44.4253 34.405C45.84 35.1616 47.5554 35.1405 48.9487 34.3455L51.5737 32.8455L53.6001 36.3904L50.9741 37.8904C50.0914 38.3944 49.1415 38.7334 48.1685 38.906C48.5012 39.8261 48.6782 40.8097 48.6782 41.8191V44.8152H44.5952V41.8191C44.5952 40.2406 43.7641 38.7716 42.3901 37.946C42.358 37.9282 42.3255 37.9096 42.2935 37.8914L42.2925 37.8904L38.937 35.9753L38.939 35.9734L36.0415 34.3191V37.5955H36.0454V41.4265C36.0454 41.4757 36.0453 41.5249 36.0444 41.574C36.096 43.1292 36.9561 44.5639 38.3403 45.3542H38.3413L40.9663 46.8552L38.9409 50.4001L36.3159 48.9001C35.425 48.3914 34.6451 47.7377 34.0015 46.9792C33.3579 47.7377 32.5789 48.3914 31.688 48.9001H31.687L29.063 50.4001L27.0366 46.8552L29.6626 45.3542L29.9146 45.2C31.1412 44.3921 31.8993 43.0546 31.9585 41.6091V34.3191L29.064 35.9714L29.0659 35.9753L25.7114 37.8904L25.7095 37.8914C25.6769 37.9099 25.6446 37.9289 25.6118 37.947C24.2388 38.7728 23.4077 40.2412 23.4077 41.8191V44.8152H19.3247V41.8191C19.3247 40.8097 19.5027 39.8261 19.8354 38.906C18.8625 38.7334 17.9125 38.3943 17.0298 37.8904H17.0288L14.4038 36.3904L16.4302 32.8455L19.0552 34.3455C20.4325 35.1312 22.1246 35.1607 23.5298 34.4304L29.8823 30.8025L23.5571 27.1902C22.1458 26.4432 20.4388 26.4669 19.0513 27.2585L16.4263 28.7585L14.3999 25.2136L17.0259 23.7136C17.9097 23.209 18.8612 22.8704 19.8354 22.698C19.5027 21.7779 19.3247 20.7942 19.3247 19.7849V16.7888H23.4077V19.7849C23.4077 21.3894 24.2665 22.8815 25.6812 23.699L25.7056 23.7126L29.062 25.6287L29.061 25.6306L31.9585 27.2859V19.991C31.8954 18.449 31.0367 17.0303 29.6626 16.2458L27.0366 14.7449L29.063 11.2L31.688 12.7C32.5787 13.2086 33.358 13.8616 34.0015 14.6199C34.645 13.8615 35.425 13.2087 36.3159 12.7L38.9409 11.2L40.9663 14.7449ZM76.4937 11.9998C81.7956 11.9998 86.0933 16.2984 86.0933 21.6003C86.093 26.9021 81.7955 31.1999 76.4937 31.2C71.1918 31.2 66.8943 26.9021 66.894 21.6003C66.894 16.2984 71.1917 11.9998 76.4937 11.9998Z" fill="#243946"/>
</svg>
