<svg width="96" height="96" viewBox="0 0 96 96" fill="none" xmlns="http://www.w3.org/2000/svg">
<path fill-rule="evenodd" clip-rule="evenodd" d="M51.2 18.5961L60.0695 13.4758L63.2695 19.018L54.5218 24.068L65.6 30.4586V20.8H72V30.4563L85.6 22.6055L88.8 28.1477L75.0265 36.0992L83.9117 41.2289L80.7117 46.7711L72 41.7406V54.2586L79.7539 49.782L82.9539 55.3242L74.6273 60.1313L88.8 68.3141L85.6 73.8563L72 66.0039V75.2H65.6V65.5399L54.521 71.9313L62.3117 76.4289L59.1117 81.9711L51.2 77.4031V92.8H44.8V77.3524L35.8421 82.5242L32.6421 76.982L41.4335 71.9055L30.4 65.5399V75.2H24V65.5414L10.4 73.3945L7.19995 67.8524L20.9281 59.9258L12 54.7711L15.2 49.2289L24 54.3094V41.6899L16.1578 46.218L12.9578 40.6758L20.9281 36.0735L7.19995 28.1477L10.4 22.6055L24 30.457V20.8H30.4V30.4578L41.432 24.093L33.6 19.5711L36.8 14.0289L44.8 18.6477V3.20001H51.2V18.5961ZM30.4 37.9945V58.0039L47.9546 68.1399L65.6 57.9531V38.0461L47.9554 27.8594L30.4 37.9945Z" fill="#243946"/>
</svg>
