<svg width="96" height="96" viewBox="0 0 96 96" fill="none" xmlns="http://www.w3.org/2000/svg">
<path fill-rule="evenodd" clip-rule="evenodd" d="M53.5996 16.0045H82.3996V24.0045H77.5601C77.5862 24.2676 77.5996 24.5345 77.5996 24.8045V27.6553C77.5996 28.3181 78.1369 28.8553 78.7996 28.8553C82.997 28.8553 86.3996 32.2579 86.3996 36.4553V73.6045C86.3996 78.0228 82.8179 81.6045 78.3996 81.6045H17.5996C13.1813 81.6045 9.59961 78.0228 9.59961 73.6045V36.8553C9.59961 32.437 13.1813 28.8553 17.5996 28.8553H56.7996C57.6833 28.8553 58.3996 28.139 58.3996 27.2553V24.8045C58.3996 24.5345 58.413 24.2676 58.4391 24.0045H53.5996V16.0045ZM70.9856 24.0045H65.0137C64.8775 24.2399 64.7996 24.5131 64.7996 24.8045V27.2553C64.7996 31.6736 61.2179 35.2553 56.7996 35.2553H17.5996C16.716 35.2553 15.9996 35.9717 15.9996 36.8553V58.8248C17.0133 59.1532 18.0459 59.3864 18.7798 59.3864C19.5686 59.3864 20.6942 59.1088 21.787 58.7496C22.2964 58.5782 22.7483 58.4068 23.0687 58.2761C23.1218 58.2539 23.1711 58.2336 23.2166 58.2149C23.3049 58.1785 23.3788 58.148 23.4384 58.121C23.4795 58.1047 23.5124 58.0884 23.5288 58.0802L23.5617 58.0802L23.6028 58.0639C23.6028 58.0639 23.6767 58.0312 23.7342 58.0068C23.841 57.9578 23.9972 57.8925 24.1943 57.819C24.5805 57.6639 25.1146 57.4598 25.739 57.2475C26.9139 56.8557 28.6311 56.374 30.1922 56.374C31.7533 56.374 33.4705 56.8557 34.6455 57.2475C35.2699 57.4516 35.804 57.6639 36.1901 57.819C36.3791 57.9006 36.5352 57.9659 36.6502 58.0068L36.693 58.0248C36.7291 58.04 36.7576 58.052 36.7817 58.0639L36.8228 58.0802L36.8224 58.0812C36.8394 58.0896 36.8713 58.1053 36.9109 58.121C36.9447 58.1345 36.9856 58.1521 37.0335 58.1728C37.1015 58.2022 37.1843 58.2379 37.2806 58.2761C37.601 58.4068 38.0447 58.5782 38.5623 58.7496C39.6469 59.117 40.7807 59.3864 41.5695 59.3864C42.3583 59.3864 43.4839 59.1088 44.5767 58.7496C45.0861 58.5782 45.538 58.4068 45.8584 58.2761C45.9115 58.2539 45.9608 58.2336 46.0063 58.2148C46.0944 58.1785 46.1686 58.148 46.2281 58.121C46.2692 58.1047 46.302 58.0884 46.3185 58.0802L46.3349 58.0802H46.3514L46.3925 58.0639C46.3925 58.0639 46.4664 58.0312 46.5239 58.0068C46.6307 57.9578 46.7868 57.8925 46.984 57.819C47.3702 57.6639 47.9043 57.4598 48.5287 57.2475C49.7036 56.8557 51.4208 56.374 52.9819 56.374C54.543 56.374 56.2602 56.8557 57.4352 57.2475C58.0596 57.4516 58.5936 57.6639 58.9798 57.819C59.1688 57.9006 59.3249 57.9659 59.4399 58.0068L59.4827 58.0248C59.5188 58.04 59.5473 58.0519 59.5714 58.0639L59.6125 58.0802L59.6119 58.0815C59.6291 58.0901 59.6606 58.1056 59.6996 58.121C59.7335 58.1345 59.7743 58.1521 59.8221 58.1727C59.8901 58.2021 59.9731 58.2379 60.0693 58.2761C60.3898 58.4068 60.8335 58.5782 61.3511 58.7496C62.4356 59.117 63.5695 59.3864 64.3582 59.3864C65.147 59.3864 66.2726 59.1088 67.3654 58.7496C67.8748 58.5782 68.3267 58.4068 68.6472 58.2761C68.7002 58.2539 68.7495 58.2336 68.795 58.2149C68.8833 58.1785 68.9572 58.148 69.0169 58.121C69.058 58.1047 69.0908 58.0884 69.1073 58.0802H69.1401L69.1812 58.0639C69.1812 58.0639 69.2552 58.0312 69.3127 58.0068C69.4195 57.9578 69.5756 57.8925 69.7728 57.819C70.1589 57.6639 70.693 57.4598 71.3175 57.2475C72.4924 56.8557 74.2096 56.374 75.7707 56.374C77.2351 56.374 78.8369 56.7979 79.9996 57.1739V36.4553C79.9996 35.7926 79.4624 35.2553 78.7996 35.2553C74.6022 35.2553 71.1996 31.8527 71.1996 27.6553V24.8045C71.1996 24.5131 71.1217 24.2399 70.9856 24.0045Z" fill="#243946"/>
</svg>
