<svg width="96" height="96" viewBox="0 0 96 96" fill="none" xmlns="http://www.w3.org/2000/svg">
<path d="M68.2674 73.068C73.0448 68.2906 75.9998 61.6906 75.9998 54.4004C75.9998 39.8201 64.1801 28.0004 49.5998 28.0004C35.0194 28.0004 23.1998 39.8201 23.1998 54.4004C23.1998 61.6906 26.1547 68.2906 30.9321 73.068L25.2753 78.7249C19.0501 72.4997 15.1998 63.8997 15.1998 54.4004C15.1998 35.4018 30.6012 20.0004 49.5998 20.0004C68.5984 20.0004 83.9998 35.4018 83.9998 54.4004C83.9998 63.8997 80.1494 72.4997 73.9242 78.7249L68.2674 73.068Z" fill="#243946"/>
<path d="M36.2952 38.8358L52.397 49.4117C53.9687 50.5151 55.0343 52.3417 55.0861 54.3893C55.167 57.6171 52.6795 60.1472 49.5373 60.0429C47.5867 59.9786 45.8458 58.9132 44.7876 57.3419L44.7817 57.3334C44.7519 57.2911 44.7231 57.2417 44.6933 57.1994L34.3834 40.8092C33.5296 39.4607 34.9911 37.961 36.3021 38.8372L36.2952 38.8358Z" fill="#243946"/>
<path d="M17.2317 17.8158L10.7117 11.2958L6.30371 15.7038L12.8877 22.2878L8.81571 26.3598C8.44771 26.7278 8.70371 27.3678 9.23171 27.3678L22.3677 27.1684V14.2078C22.3677 13.6878 21.7437 13.4238 21.3677 13.7838L17.2237 17.8238L17.2317 17.8158Z" fill="#243946"/>
</svg>
