<svg width="96" height="96" viewBox="0 0 96 96" fill="none" xmlns="http://www.w3.org/2000/svg">
<path fill-rule="evenodd" clip-rule="evenodd" d="M31.2469 20C30.2134 20 29.2436 20.4991 28.6429 21.34L9.6001 48L28.6429 74.66C29.2436 75.5009 30.2134 76 31.2469 76H74.4001C77.9347 76 80.8001 73.1346 80.8001 69.6V26.4C80.8001 22.8654 77.9347 20 74.4001 20H31.2469ZM50.3952 42.508L59.3076 33.6L64.8001 39.0943L55.89 48L64.8001 56.9057L59.3076 62.4L50.3952 53.4921L41.4926 62.3903L36.0001 56.8959L44.9005 48L36.0001 39.1041L41.4926 33.6097L50.3952 42.508Z" fill="#243946"/>
</svg>
