<svg width="96" height="96" viewBox="0 0 96 96" fill="none" xmlns="http://www.w3.org/2000/svg">
<path d="M80.3699 20.8095C84.1742 21.0022 87.1999 24.1477 87.2 27.9999V60.7997C87.2 64.652 84.1742 67.7974 80.3699 67.9902L79.9998 67.9999H66.0955C66.1017 68.0165 66.1087 68.0331 66.115 68.0497C66.7375 69.7019 67.4714 72.0412 67.4714 74.1103C67.4713 76.1792 66.7375 78.5179 66.115 80.1699C65.7902 81.0317 65.4671 81.7812 65.2244 82.3154C65.1027 82.5831 65.0005 82.7998 64.9275 82.9511C64.8912 83.0263 64.8614 83.0858 64.8406 83.1279C64.8303 83.1486 64.8212 83.1656 64.8152 83.1777L64.8044 83.1992C64.8024 83.1985 64.7427 83.1702 62.8738 82.2236L60.9431 81.246L60.9626 81.2089C60.9774 81.1791 61.0001 81.1313 61.03 81.0693C61.09 80.945 61.1776 80.7592 61.2839 80.5253C61.4975 80.0554 61.7827 79.3958 62.0662 78.6435C62.6604 77.0665 63.1441 75.3488 63.1443 74.1103C63.1443 72.8717 62.6605 71.1534 62.0662 69.5761C61.8396 68.975 61.6119 68.4331 61.4207 67.9999H51.4978C51.5041 68.0166 51.511 68.033 51.5173 68.0497C52.1399 69.7019 52.8728 72.0413 52.8728 74.1103C52.8726 76.1792 52.1398 78.5179 51.5173 80.1699C51.1925 81.0319 50.8685 81.7811 50.6257 82.3154C50.5041 82.5832 50.4019 82.7998 50.3289 82.9511C50.2925 83.0264 50.2628 83.0858 50.2419 83.1279C50.2316 83.1487 50.2226 83.1656 50.2166 83.1777L50.2058 83.1992C50.2014 83.1974 50.1125 83.1542 48.2751 82.2236L46.3455 81.246L46.364 81.2089C46.3788 81.1791 46.4014 81.1313 46.4314 81.0693C46.4914 80.945 46.579 80.7593 46.6853 80.5253C46.8989 80.0553 47.184 79.3959 47.4675 78.6435C48.0618 77.0665 48.5455 75.3488 48.5457 74.1103C48.5457 72.8717 48.0618 71.1534 47.4675 69.5761C47.241 68.975 47.0133 68.4331 46.822 67.9999H36.8933C36.8996 68.0165 36.9065 68.033 36.9128 68.0497C37.5354 69.7019 38.2693 72.0413 38.2693 74.1103C38.2691 76.1792 37.5353 78.5179 36.9128 80.1699C36.588 81.0319 36.264 81.7812 36.0212 82.3154C35.8996 82.5831 35.7974 82.7998 35.7244 82.9511C35.6881 83.0262 35.6592 83.0859 35.6384 83.1279C35.6282 83.1486 35.6191 83.1656 35.613 83.1777L35.6023 83.1992C35.602 83.1994 35.5868 83.1936 33.6716 82.2236L31.741 81.246L31.7595 81.2089C31.7743 81.1791 31.7979 81.1313 31.8279 81.0693C31.8879 80.945 31.9755 80.7592 32.0818 80.5253C32.2953 80.0553 32.5805 79.3958 32.864 78.6435C33.4582 77.0665 33.9419 75.3488 33.9421 74.1103C33.9421 72.8718 33.4583 71.1533 32.864 69.5761C32.6375 68.975 32.4097 68.4331 32.2185 67.9999H15.9998C12.0233 67.9999 8.79956 64.7762 8.79956 60.7997V27.9999C8.79957 24.0235 12.0233 20.7998 15.9998 20.7997H79.9998L80.3699 20.8095ZM15.9998 27.2001C15.5856 27.2002 15.2449 27.5146 15.2039 27.9179L15.2 27.9999V60.7997C15.2 61.2415 15.558 61.5995 15.9998 61.5995H29.7097C29.3788 60.4138 29.1178 59.1383 29.0759 57.9599C28.9931 55.6243 29.7448 52.9371 30.4089 51.0107C30.5984 50.4612 30.7897 49.9504 30.9666 49.499H28.5281L33.3962 37.5995L38.2634 49.499H35.658C35.65 49.5165 35.6407 49.5363 35.6316 49.5566C35.5651 49.7043 35.4689 49.9239 35.3523 50.2001C35.1179 50.7556 34.8067 51.5343 34.5007 52.4218C33.863 54.2717 33.3474 56.3179 33.4001 57.8066C33.4381 58.8728 33.7903 60.2582 34.239 61.5995H44.3142C43.9832 60.4137 43.7213 59.1383 43.6794 57.9599C43.5966 55.6243 44.3493 52.9371 45.0134 51.0107C45.2029 50.4612 45.3932 49.9504 45.5701 49.499H43.1316L47.9998 37.5995L52.8679 49.499H50.2615C50.2535 49.5165 50.2452 49.5362 50.2361 49.5566C50.1696 49.7043 50.0724 49.9238 49.9558 50.2001C49.7214 50.7556 49.4102 51.5343 49.1042 52.4218C48.4665 54.2717 47.9509 56.3179 48.0037 57.8066C48.0416 58.8727 48.3938 60.2583 48.8425 61.5995H58.9119C58.5809 60.4138 58.3199 59.1382 58.2781 57.9599C58.1952 55.6244 58.9469 52.9371 59.6111 51.0107C59.8006 50.4611 59.9928 49.9505 60.1697 49.499H57.7361L62.6033 37.5995L67.4714 49.499H64.8601C64.8521 49.5165 64.8429 49.5363 64.8337 49.5566C64.7672 49.7043 64.6709 49.924 64.5544 50.2001C64.32 50.7556 64.0089 51.5343 63.7029 52.4218C63.0651 54.2717 62.5496 56.3179 62.6023 57.8066C62.6403 58.8728 62.9924 60.2582 63.4412 61.5995H79.9998C80.4416 61.5995 80.7996 61.2416 80.7996 60.7997V27.9999C80.7996 27.5581 80.4416 27.2001 79.9998 27.2001H15.9998Z" fill="#243946"/>
</svg>
