<svg width="96" height="96" viewBox="0 0 96 96" fill="none" xmlns="http://www.w3.org/2000/svg">
<path d="M47.9998 19.2002C70.9785 19.2 84.7795 28.0044 88.8484 31.0371C90.929 32.5879 91.2147 35.3509 89.9724 37.3105L70.1775 68.5293C69.3047 69.9055 67.8498 70.6881 66.3318 70.7627C66.4233 71.3512 66.4792 71.9397 66.4792 72.5098C66.4791 74.6242 65.7322 76.9972 65.1082 78.6533C64.781 79.5214 64.455 80.2757 64.2107 80.8135C64.0882 81.0831 63.9846 81.3013 63.9109 81.4541C63.8742 81.5302 63.8451 81.5911 63.824 81.6338C63.8135 81.655 63.8038 81.6722 63.7976 81.6846C63.7948 81.6903 63.7926 81.6955 63.7908 81.6992C63.7898 81.7011 63.7885 81.7038 63.7878 81.7051L63.7869 81.7061C63.7813 81.7036 63.6755 81.6514 61.6453 80.623C59.5815 79.5777 59.5064 79.5402 59.5037 79.5391L59.5222 79.5029C59.5367 79.4738 59.5592 79.4271 59.5886 79.3662C59.6479 79.2434 59.7352 79.06 59.8406 78.8281C60.0525 78.3617 60.3357 77.7072 60.6169 76.9609C61.2097 75.3879 61.6793 73.703 61.6794 72.5098C61.6794 71.5771 61.3906 70.3447 60.9822 69.0996C59.755 68.64 58.3498 68.149 56.8689 67.6963C55.2236 67.1934 53.5536 66.7603 51.9714 66.4629C52.5878 68.1139 53.3073 70.4361 53.3074 72.5098C53.3072 74.6242 52.5603 76.9972 51.9363 78.6533C51.6091 79.5215 51.2832 80.2757 51.0388 80.8135C50.9163 81.0831 50.8128 81.3013 50.739 81.4541C50.7023 81.5302 50.6732 81.5911 50.6521 81.6338C50.6416 81.655 50.6319 81.6722 50.6257 81.6846C50.6229 81.6904 50.6208 81.6955 50.6189 81.6992C50.6179 81.7011 50.6166 81.7038 50.616 81.7051L50.615 81.7061C50.6095 81.7037 50.505 81.6521 48.4734 80.623C46.4579 79.6022 46.3388 79.5423 46.3318 79.5391L46.3503 79.5029C46.3648 79.4737 46.3873 79.4272 46.4167 79.3662C46.476 79.2434 46.5633 79.06 46.6687 78.8281C46.8806 78.3617 47.1638 77.7073 47.4451 76.9609C48.0378 75.3879 48.5074 73.703 48.5076 72.5098C48.5075 71.3167 48.0377 69.6325 47.4451 68.0596C47.1639 67.3134 46.8806 66.6588 46.6687 66.1924C46.6541 66.1604 46.6386 66.1298 46.6248 66.0996C44.3809 66.2881 41.7712 66.8932 39.2166 67.6699C39.6975 69.1472 40.1296 70.9031 40.1296 72.5098C40.1295 74.6242 39.3826 76.9972 38.7585 78.6533C38.4314 79.5214 38.1054 80.2757 37.8611 80.8135C37.7386 81.0831 37.636 81.3013 37.5623 81.4541C37.5255 81.5303 37.4955 81.5911 37.4744 81.6338C37.4639 81.6549 37.4552 81.6722 37.449 81.6846C37.446 81.6904 37.4431 81.6955 37.4412 81.6992C37.4402 81.7011 37.4389 81.7038 37.4382 81.7051L37.4373 81.7061C37.4285 81.702 37.2969 81.6362 35.2966 80.623C33.2862 79.6047 33.1626 79.5426 33.155 79.5391L33.1726 79.5029C33.1871 79.4738 33.2095 79.4273 33.239 79.3662C33.2983 79.2434 33.3865 79.0601 33.4919 78.8281C33.7039 78.3617 33.9861 77.7072 34.2673 76.9609C34.8601 75.3878 35.3297 73.7031 35.3298 72.5098C35.3298 71.6096 35.0613 70.43 34.6755 69.2295C33.5095 69.6724 32.5216 70.0781 31.8083 70.3818C29.6557 71.2984 27.1083 70.5559 25.823 68.5293L6.02808 37.3105C4.78583 35.3509 5.07164 32.5879 7.1521 31.0371L7.56226 30.7363C12.0927 27.4628 25.7396 19.2005 47.9998 19.2002ZM47.9998 25.5996C28.9487 25.5999 16.9381 32.128 12.2927 35.2402L30.5212 63.9863C31.0285 63.78 31.599 63.5547 32.2195 63.3174C32.1068 63.0333 31.9887 62.7286 31.8708 62.4082C31.263 60.755 30.5368 58.4251 30.4636 56.3691C30.3791 53.9873 31.1447 51.2646 31.8103 49.334C31.9889 48.8159 32.1685 48.332 32.3367 47.8994H30.1521L35.0203 36L39.8884 47.8994H37.5427C37.5264 47.9346 37.5023 47.9864 37.4724 48.0527C37.4066 48.199 37.31 48.4176 37.1941 48.6924C36.9613 49.2442 36.6522 50.0173 36.3484 50.8984C35.712 52.7442 35.2094 54.7558 35.2605 56.1982C35.3049 57.4478 35.7961 59.1754 36.3757 60.752C36.5047 61.1026 36.6335 61.4329 36.7546 61.7334C36.9221 61.6808 37.0909 61.628 37.2605 61.5762C39.4205 60.9159 41.8508 60.2924 44.2498 59.9385C43.9315 58.7753 43.6816 57.5286 43.6404 56.3691C43.5559 53.9873 44.3224 51.2646 44.988 49.334C45.1667 48.8159 45.3462 48.332 45.5144 47.8994H43.3298L48.198 36L53.0662 47.8994H50.7195C50.7031 47.9347 50.679 47.9864 50.6492 48.0527C50.5833 48.199 50.4868 48.4176 50.3708 48.6924C50.138 49.2442 49.8299 50.0174 49.5261 50.8984C48.8898 52.7443 48.3861 54.7558 48.4373 56.1982C48.4717 57.1669 48.7758 58.4228 49.1804 59.6729C52.0413 59.8293 55.1107 60.5169 57.8376 61.3076C57.3424 59.8058 56.8703 58.0015 56.8123 56.3691C56.7277 53.9874 57.4943 51.2646 58.1599 49.334C58.3385 48.8159 58.5181 48.332 58.6863 47.8994H56.5076L61.3748 36L66.2429 47.8994H63.8914C63.875 47.9347 63.8509 47.9865 63.821 48.0527C63.7552 48.199 63.6586 48.4177 63.5427 48.6924C63.3099 49.2441 63.0017 50.0175 62.698 50.8984C62.0617 52.7442 61.558 54.7558 61.6091 56.1982C61.6536 57.4478 62.1457 59.1754 62.7253 60.752C63.0022 61.5048 63.2763 62.1647 63.4812 62.6348C63.5832 62.8688 63.668 63.0544 63.7253 63.1787C63.7539 63.2407 63.7757 63.2885 63.7898 63.3184C63.7903 63.3193 63.7913 63.3204 63.7917 63.3213C64.4078 63.5571 64.9741 63.7812 65.4783 63.9863L83.7068 35.2402C79.0609 32.1277 67.0503 25.5995 47.9998 25.5996Z" fill="#243946"/>
</svg>
