<svg width="96" height="96" viewBox="0 0 96 96" fill="none" xmlns="http://www.w3.org/2000/svg">
<path d="M44.8809 72.5819C47.2016 72.3225 49.5982 72.3226 51.9189 72.5819C53.858 72.7986 55.432 74.3242 55.6621 76.2919C55.9399 78.6672 55.9399 81.0669 55.6621 83.4423C55.4319 85.4099 53.8579 86.9355 51.9189 87.1522C49.5982 87.4116 47.2016 87.4116 44.8809 87.1522C42.9421 86.9354 41.3688 85.4097 41.1387 83.4423C40.8609 81.0669 40.8609 78.6672 41.1387 76.2919C41.3688 74.3243 42.942 72.7988 44.8809 72.5819ZM21.8809 51.4979C24.2016 51.2385 26.5982 51.2386 28.9189 51.4979C30.858 51.7146 32.432 53.2412 32.6621 55.2089C32.9399 57.5841 32.9399 59.984 32.6621 62.3593C32.4318 64.3267 30.8578 65.8525 28.9189 66.0692C26.5982 66.3285 24.2016 66.3286 21.8809 66.0692C19.9421 65.8524 18.369 64.3266 18.1387 62.3593C17.8609 59.984 17.8609 57.5841 18.1387 55.2089C18.3688 53.2413 19.942 51.7148 21.8809 51.4979ZM44.8809 51.4979C47.2016 51.2385 49.5982 51.2386 51.9189 51.4979C53.858 51.7146 55.432 53.2412 55.6621 55.2089C55.9399 57.5841 55.9399 59.984 55.6621 62.3593C55.4318 64.3267 53.8578 65.8525 51.9189 66.0692C49.5982 66.3285 47.2016 66.3286 44.8809 66.0692C42.9421 65.8524 41.369 64.3266 41.1387 62.3593C40.8609 59.984 40.8609 57.5841 41.1387 55.2089C41.3688 53.2413 42.942 51.7148 44.8809 51.4979ZM67.8809 51.4979C70.2016 51.2385 72.5982 51.2386 74.9189 51.4979C76.858 51.7146 78.432 53.2412 78.6621 55.2089C78.9399 57.5841 78.9399 59.984 78.6621 62.3593C78.4318 64.3267 76.8578 65.8525 74.9189 66.0692C72.5982 66.3285 70.2016 66.3286 67.8809 66.0692C65.9421 65.8524 64.369 64.3266 64.1387 62.3593C63.8609 59.984 63.8609 57.5841 64.1387 55.2089C64.3688 53.2413 65.942 51.7148 67.8809 51.4979ZM21.8809 30.4149C24.2016 30.1555 26.5982 30.1556 28.9189 30.4149C30.8579 30.6316 32.4319 32.1573 32.6621 34.1249C32.9399 36.5002 32.9399 38.9 32.6621 41.2753C32.432 43.2429 30.858 44.7685 28.9189 44.9852C26.5982 45.2446 24.2016 45.2446 21.8809 44.9852C19.942 44.7684 18.3688 43.2428 18.1387 41.2753C17.8609 38.9 17.8609 36.5002 18.1387 34.1249C18.3689 32.1574 19.9421 30.6318 21.8809 30.4149ZM44.8809 30.4149C47.2016 30.1555 49.5982 30.1556 51.9189 30.4149C53.8579 30.6316 55.4319 32.1573 55.6621 34.1249C55.9399 36.5002 55.9399 38.9 55.6621 41.2753C55.432 43.2429 53.858 44.7685 51.9189 44.9852C49.5982 45.2446 47.2016 45.2446 44.8809 44.9852C42.942 44.7684 41.3688 43.2428 41.1387 41.2753C40.8609 38.9 40.8609 36.5002 41.1387 34.1249C41.3689 32.1574 42.9421 30.6318 44.8809 30.4149ZM67.8809 30.4149C70.2016 30.1555 72.5982 30.1556 74.9189 30.4149C76.8579 30.6316 78.4319 32.1573 78.6621 34.1249C78.9399 36.5002 78.9399 38.9 78.6621 41.2753C78.432 43.2429 76.858 44.7685 74.9189 44.9852C72.5982 45.2446 70.2016 45.2446 67.8809 44.9852C65.942 44.7684 64.3688 43.2428 64.1387 41.2753C63.8609 38.9 63.8609 36.5002 64.1387 34.1249C64.3689 32.1574 65.9421 30.6318 67.8809 30.4149ZM21.8809 9.33191C24.2016 9.07253 26.5982 9.07257 28.9189 9.33191C30.858 9.54862 32.432 11.0742 32.6621 13.0419C32.9399 15.4172 32.9399 17.8169 32.6621 20.1923C32.4319 22.1599 30.8579 23.6855 28.9189 23.9022C26.5982 24.1616 24.2016 24.1616 21.8809 23.9022C19.9421 23.6854 18.3689 22.1597 18.1387 20.1923C17.8609 17.8169 17.8609 15.4172 18.1387 13.0419C18.3688 11.0743 19.942 9.54878 21.8809 9.33191ZM44.8809 9.33191C47.2016 9.07253 49.5982 9.07257 51.9189 9.33191C53.858 9.54862 55.432 11.0742 55.6621 13.0419C55.9399 15.4172 55.9399 17.8169 55.6621 20.1923C55.4319 22.1599 53.8579 23.6855 51.9189 23.9022C49.5982 24.1616 47.2016 24.1616 44.8809 23.9022C42.9421 23.6854 41.3689 22.1597 41.1387 20.1923C40.8609 17.8169 40.8609 15.4172 41.1387 13.0419C41.3688 11.0743 42.942 9.54878 44.8809 9.33191ZM67.8809 9.33191C70.2016 9.07253 72.5982 9.07257 74.9189 9.33191C76.858 9.54862 78.432 11.0742 78.6621 13.0419C78.9399 15.4172 78.9399 17.8169 78.6621 20.1923C78.4319 22.1599 76.8579 23.6855 74.9189 23.9022C72.5982 24.1616 70.2016 24.1616 67.8809 23.9022C65.942 23.6854 64.3688 22.1597 64.1387 20.1923C63.8609 17.8169 63.8609 15.4172 64.1387 13.0419C64.3688 11.0743 65.942 9.54878 67.8809 9.33191Z" fill="#243946"/>
</svg>
