<svg width="96" height="96" viewBox="0 0 96 96" fill="none" xmlns="http://www.w3.org/2000/svg">
<path d="M48.001 21.5997C49.3666 21.5997 50.7003 21.6314 52.001 21.6905V28.0987C50.7043 28.0349 49.3706 28.0001 48.001 28.0001C40.9756 28.0002 34.9076 28.8882 29.8135 30.1651L44.5186 62.2989C45.7015 62.1343 46.8745 62.0372 48.001 62.0372C51.4942 62.0372 55.4342 62.9648 58.7412 63.9756C61.3836 64.7834 63.7826 65.6965 65.4795 66.3868L69.5293 60.0001H77.1084L70.1787 70.9288C68.8934 72.9556 66.3452 73.6992 64.1924 72.7823C62.6805 72.1384 59.9385 71.0337 56.8701 70.0958C53.7464 69.1409 50.5328 68.4376 48.001 68.4376C47.7839 68.4376 47.5616 68.4441 47.335 68.4542L49.4219 73.0137C51.3793 73.6192 52.8016 75.4434 52.8018 77.5997C52.8018 80.2506 50.6519 82.4005 48.001 82.4005C45.3504 82.4 43.2012 80.2504 43.2012 77.5997C43.2012 76.9164 43.3452 76.2661 43.6025 75.6778L40.8242 69.6075C40.2608 69.7604 39.695 69.9239 39.1328 70.0958C36.0642 71.0338 33.3212 72.1385 31.8096 72.7823C29.6568 73.6987 27.1094 72.9555 25.8242 70.9288L6.0293 39.711C4.78692 37.7514 5.07293 34.9884 7.15332 33.4376L7.56348 33.1368C12.0938 29.8634 25.7407 21.6001 48.001 21.5997ZM23.6338 32.0411C18.2612 33.9756 14.4694 36.1832 12.2939 37.6407L30.5225 66.3868C32.2193 65.6965 34.6189 64.7835 37.2617 63.9756C37.546 63.8887 37.836 63.803 38.1289 63.7178L23.6338 32.0411ZM76.4346 27.0255C76.4771 27.4011 76.7381 27.7148 77.0928 27.8458C77.2045 27.887 77.314 27.928 77.4199 27.9708C77.5118 28.0065 77.6017 28.0443 77.6895 28.0821C78.0317 28.2293 78.4309 28.2042 78.7295 27.9815L81.9219 25.5997L86.4014 30.2403L84.04 33.2911C83.828 33.565 83.7795 33.932 83.9121 34.252C83.9498 34.3431 83.9884 34.4358 84.0273 34.5303C84.0759 34.6384 84.1235 34.7501 84.1689 34.8643C84.3061 35.2091 84.6095 35.4668 84.9775 35.5137L88.8018 36.0001V42.4005L84.9248 42.9717C84.5677 43.0245 84.2725 43.2746 84.1426 43.6114C84.1054 43.7077 84.067 43.8041 84.0273 43.9005C83.992 43.9949 83.9549 44.0894 83.916 44.1827C83.7746 44.5219 83.8056 44.9147 84.0283 45.2071L86.4014 48.3204L81.9219 52.7999L78.7012 50.4532C78.4167 50.2459 78.0425 50.2139 77.7178 50.3497C77.6153 50.3925 77.51 50.4342 77.4033 50.4756C77.2953 50.5177 77.1866 50.559 77.0771 50.5997C76.7296 50.7287 76.4777 51.039 76.4355 51.4073L76.001 55.2003H69.6016L68.8662 51.3516C68.8014 51.0129 68.5589 50.7366 68.2354 50.6172C68.1103 50.5712 67.9865 50.5236 67.8633 50.4756C67.7715 50.4399 67.6806 50.404 67.5918 50.3672C67.2442 50.2234 66.8425 50.2725 66.5547 50.5147L63.8408 52.7999L59.2012 48.3204L61.3018 45.1778C61.488 44.8991 61.5138 44.5441 61.3809 44.2364C61.3329 44.1256 61.2855 44.0129 61.2393 43.9005C61.2022 43.8103 61.1667 43.7201 61.1328 43.6299C61.0032 43.2846 60.708 43.0209 60.3438 42.963L56.8018 42.4005V36.0001L60.293 35.5215C60.6673 35.4699 60.972 35.2007 61.1016 34.8458C61.1408 34.7381 61.1816 34.6325 61.2236 34.5303C61.2721 34.4223 61.3189 34.3164 61.3643 34.213C61.4948 33.9155 61.4606 33.5717 61.2783 33.3028L59.2012 30.2403L63.6807 25.5997L66.5244 27.9307C66.8204 28.1731 67.2308 28.213 67.583 28.0635C67.6696 28.0268 67.7581 27.99 67.8477 27.9551C67.9772 27.9021 68.1068 27.8511 68.2363 27.8018C68.5589 27.679 68.8016 27.4026 68.8662 27.0635L69.6016 23.2003H76.001L76.4346 27.0255ZM72.8018 32.7999C69.2672 32.7999 66.4014 35.6656 66.4014 39.2003C66.4015 42.7348 69.2672 45.5997 72.8018 45.5997C76.3361 45.5994 79.2011 42.7346 79.2012 39.2003C79.2012 35.6658 76.3362 32.8001 72.8018 32.7999Z" fill="#243946"/>
</svg>
