<svg width="96" height="96" viewBox="0 0 96 96" fill="none" xmlns="http://www.w3.org/2000/svg">
<path fill-rule="evenodd" clip-rule="evenodd" d="M7.98082 44.3773C11.5226 38.7709 22.9384 24.7992 48.0039 24.7992C73.0694 24.7992 84.4851 38.7709 88.027 44.3773C89.4337 46.604 89.4337 49.3944 88.027 51.6212C84.4851 57.2276 73.0694 71.1992 48.0039 71.1992C22.9384 71.1992 11.5226 57.2276 7.98082 51.6212C6.5741 49.3945 6.5741 46.604 7.98082 44.3773ZM48.0039 31.1992C29.5928 31.1992 19.8244 39.5891 15.4415 44.9616C16.8709 44.6695 18.5017 44.3576 20.3065 44.0459C27.3805 42.8243 37.1692 41.5992 48.0039 41.5992C58.8386 41.5992 68.6273 42.8243 75.7014 44.0459C77.5061 44.3576 79.1369 44.6695 80.5663 44.9616C76.1834 39.5891 66.4149 31.1992 48.0039 31.1992ZM48.0039 64.7992C30.0367 64.7992 20.3003 56.8089 15.7679 51.4305C17.3469 51.0966 19.2401 50.7248 21.3956 50.3526C24.5436 49.8089 28.2423 49.2661 32.3321 48.8389C32.5356 49.8237 32.832 50.7894 33.2187 51.723C34.0228 53.6642 35.2014 55.428 36.6871 56.9137C38.1728 58.3995 39.9366 59.578 41.8779 60.3821C43.8191 61.1862 45.8996 61.6 48.0008 61.6C50.1019 61.6 52.1825 61.1862 54.1237 60.3821C56.0649 59.578 57.8288 58.3995 59.3145 56.9137C60.8002 55.428 61.9788 53.6642 62.7829 51.723C63.1696 50.7892 63.4661 49.8233 63.6697 48.8383C67.7618 49.2655 71.4626 49.8087 74.6123 50.3526C76.7677 50.7248 78.6609 51.0966 80.2399 51.4305C75.7075 56.8089 65.9711 64.7992 48.0039 64.7992ZM48.468 48C52.0687 48.0121 55.5499 48.1645 58.8432 48.4077C58.713 48.9103 58.5478 49.4043 58.3482 49.8861C57.7854 51.2449 56.9604 52.4796 55.9204 53.5196C54.8804 54.5596 53.6457 55.3846 52.2868 55.9475C50.928 56.5103 49.4716 56.8 48.0008 56.8C46.53 56.8 45.0736 56.5103 43.7147 55.9475C42.3559 55.3846 41.1212 54.5596 40.0812 53.5196C39.0412 52.4796 38.2162 51.2449 37.6533 49.8861C37.4539 49.4045 37.2887 48.9106 37.1586 48.4082C40.4536 48.1647 43.9369 48.0121 47.5399 48L48.468 48Z" fill="#243946"/>
</svg>
