<svg width="96" height="96" viewBox="0 0 96 96" fill="none" xmlns="http://www.w3.org/2000/svg">
<path d="M41.0332 73.667H34.9668V58.5H41.0332V73.667ZM90.4004 62.6514V71.2002H81.5996V62.6514H90.4004ZM27.7354 55.1143L20.1523 68.249L14.8984 65.2158L22.4814 52.0811L27.7354 55.1143ZM63.1328 62.6602L58.8428 66.9492L48.1182 56.2246L52.4082 51.9355L63.1328 62.6602ZM90.1064 25.875L89.2266 55.9346H82.7734L81.8936 25.875V21.5996H90.1064V25.875ZM74.4004 40.2998H50.1338C50.1338 47.0009 44.7011 52.4336 38 52.4336C31.2989 52.4336 25.8662 47.0009 25.8662 40.2998H1.59961V31.2002H74.4004V40.2998Z" fill="#243946"/>
</svg>
