<svg width="96" height="96" viewBox="0 0 96 96" fill="none" xmlns="http://www.w3.org/2000/svg">
<path d="M39.7838 16H64.7832C65.6197 16 66.2369 16.6146 66.3007 17.3433C67.0105 25.4495 68.0044 38.5324 68.0044 48C68.0044 57.4676 67.0105 70.5505 66.3007 78.6567C66.2369 79.3853 65.6197 80 64.7832 80H39.7838C38.9676 80 38.3755 79.4162 38.2951 78.7311C37.8706 75.1134 37.3669 70.4729 36.94 65.6H30.5159C30.9627 70.7932 31.4981 75.7218 31.9387 79.4768C32.4046 83.4485 35.7848 86.4 39.7838 86.4H64.7832C68.8853 86.4 72.3185 83.3014 72.6763 79.2149C73.3863 71.1066 74.4044 57.7755 74.4044 48C74.4044 38.2244 73.3863 24.8934 72.6763 16.785C72.3185 12.6985 68.8853 9.59998 64.7832 9.59998H39.7838C35.7848 9.59998 32.4046 12.5514 31.9387 16.5231C31.3191 21.8037 30.512 29.4054 30.0273 36.8H36.4412C36.9155 29.7398 37.6868 22.4538 38.2951 17.2689C38.3755 16.5837 38.9676 16 39.7838 16Z" fill="#243946"/>
<path d="M44.003 30.1277C42.6784 30.2664 41.7476 31.4749 41.9236 32.7951L42.882 39.9829C43.0592 41.3115 44.2899 42.2401 45.6208 42.0804C47.4772 41.8575 50.0463 41.6 52.0043 41.6C53.9622 41.6 56.5314 41.8575 58.3878 42.0804C59.7187 42.2401 60.9494 41.3115 61.1266 39.9829L62.0849 32.7951C62.261 31.4749 61.3302 30.2664 60.0056 30.1277C57.7915 29.8958 54.4813 29.6 52.0043 29.6C49.5273 29.6 46.2171 29.8958 44.003 30.1277Z" fill="#243946"/>
<path d="M59.7481 74.8556C61.1694 74.755 62.168 73.4317 61.8967 72.0329L61.2222 68.555C60.9856 67.335 59.8572 66.4963 58.6188 66.6005C56.7492 66.7577 54.0448 66.95 52.0043 66.95C49.9637 66.95 47.2593 66.7577 45.3897 66.6005C44.1514 66.4963 43.0229 67.335 42.7863 68.555L42.1118 72.0329C41.8405 73.4317 42.8392 74.755 44.2605 74.8556C46.4679 75.0118 49.6215 75.2 52.0043 75.2C54.387 75.2 57.5406 75.0118 59.7481 74.8556Z" fill="#243946"/>
<path d="M34.518 44.4118L29.9926 39.8863L11.8906 57.9882L16.4161 62.5137L34.518 44.4118Z" fill="#243946"/>
</svg>
