<svg width="96" height="96" viewBox="0 0 96 96" fill="none" xmlns="http://www.w3.org/2000/svg">
<path fill-rule="evenodd" clip-rule="evenodd" d="M19.5044 34.7039L17.9845 34.6719C17.7365 32.7439 16.6805 31.7039 14.5685 31.7039C10.2725 31.7039 8.5845 32.6479 10.2085 35.2799C11.4405 37.2799 13.4564 37.3839 15.7284 37.3839H18.4403C18.4403 37.3839 13.6005 48.1519 13.6005 51.3519C13.6005 54.2799 13.5925 57.1439 13.5845 59.9919C13.5605 65.6319 13.5445 71.1919 13.6005 76.9839C13.6165 78.2959 14.6805 79.3519 16.0005 79.3519H25.6005C26.9285 79.3519 28.0005 78.2799 28.0005 76.9519V72.1519H68.0005V76.9519C68.0005 78.2799 69.0725 79.3519 70.4005 79.3519H80.0005C81.3205 79.3519 82.3845 78.2959 82.4005 76.9839C82.4565 71.1919 82.4403 65.6319 82.4163 59.9919C82.4083 57.1359 82.4005 54.2719 82.4005 51.3519C82.4005 48.1519 77.5604 37.3839 77.5604 37.3839H80.2723C82.5443 37.3839 84.5605 37.2799 85.7924 35.2799C87.4165 32.6479 85.7283 31.7039 81.4323 31.7039C79.3203 31.7039 78.2643 32.7439 78.0163 34.6719L76.4964 34.7039C76.4964 34.7039 73.4165 26.5439 70.4005 21.3519C69.0725 19.0639 67.2005 18.5519 65.6005 18.5519H30.4005C28.8005 18.5519 26.9285 19.0639 25.6005 21.3519C22.5845 26.5439 19.5044 34.7039 19.5044 34.7039ZM48.0005 23.3519L30.5765 23.3759C29.8725 23.3759 29.2405 23.6319 29.0005 24.2959L24.8005 35.3519H71.2005L67.0005 24.2959C66.7605 23.6319 66.1283 23.3759 65.4243 23.3759L48.0005 23.3519ZM34.8804 47.3919C30.0804 47.3919 26.9285 46.8159 24.6005 46.3919C23.2325 46.1439 22.1445 45.9439 21.1685 45.9439C21.0805 45.9439 20.9844 45.9519 20.8964 45.9679C19.3044 46.2239 19.1604 48.5039 20.6644 49.0879C20.8484 49.1599 21.0484 49.2399 21.2724 49.3279C24.2244 50.4879 30.5765 52.1999 36.7845 52.1999H59.2163C65.4243 52.1999 71.7764 50.4879 74.7284 49.3279C74.9524 49.2399 75.1524 49.1599 75.3364 49.0879C76.8404 48.5039 76.6964 46.2239 75.1044 45.9679C75.0164 45.9519 74.9203 45.9439 74.8323 45.9439C73.8563 45.9439 72.7685 46.1439 71.4005 46.3919C69.0725 46.8159 65.9204 47.3919 61.1204 47.3919H34.8804ZM18.4005 63.4399V54.7839C18.4005 54.2639 18.8885 53.8799 19.3925 54.0079L25.8563 55.6239C26.9123 55.8879 27.4003 57.1119 26.8243 58.0319L22.8724 64.3039C22.5764 64.7679 22.0644 65.0479 21.5204 65.0479H20.0005C19.1205 65.0399 18.4005 64.3199 18.4005 63.4399ZM77.6005 63.4399V54.7839C77.6005 54.2639 77.1125 53.8799 76.6085 54.0079L70.1444 55.6239C69.0884 55.8879 68.6004 57.1119 69.1764 58.0319L73.1284 64.3039C73.4244 64.7679 73.9363 65.0479 74.4803 65.0479H76.0005C76.8805 65.0399 77.6005 64.3199 77.6005 63.4399Z" fill="#243946"/>
</svg>
