<svg width="96" height="96" viewBox="0 0 96 96" fill="none" xmlns="http://www.w3.org/2000/svg">
<path d="M70.4004 9.59961C74.3749 9.60025 78.0371 17.8584 78.3857 24.2529C78.6637 29.3601 68.8156 65.4236 64.835 79.752C63.8708 83.2221 60.71 85.5944 57.1084 85.6162L56.8125 85.6182C46.7025 85.679 30.7694 85.7748 27.417 84.6465C22.1711 82.8808 18.3239 70.1679 19.373 66.2832C20.4222 62.3987 25.3183 60.2794 31.9629 60.2793C35.4025 60.2793 43.6216 62.4563 51.1865 65.0947C51.0574 64.0499 51.9297 55.756 53.9365 50.1865C55.6378 45.4654 59.9156 38.8206 59.9365 38.7881C59.9365 38.7881 64.3297 32.2534 64.7998 26.7998C65.0605 23.7752 63.9121 20.7231 63.1484 18.6943C62.9727 18.2273 62.8172 17.8145 62.7041 17.4688C62.2246 13.5607 66.5633 9.59959 70.4004 9.59961ZM38.0537 22.0537C38.3056 22.3056 38.1276 22.737 37.7715 22.7373H34.5264V28.6738C34.5264 29.1155 34.8845 29.4736 35.3262 29.4736H41.2627V26.2285C41.263 25.8724 41.6944 25.6944 41.9463 25.9463L48 32L41.9463 38.0537C41.6944 38.3056 41.263 38.1276 41.2627 37.7715V34.5264H35.3262C34.8845 34.5264 34.5264 34.8845 34.5264 35.3262V41.2627H37.7715C38.1276 41.263 38.3056 41.6944 38.0537 41.9463L32 48L25.9463 41.9463C25.6944 41.6944 25.8724 41.263 26.2285 41.2627H29.4736V35.3262C29.4736 34.8845 29.1155 34.5264 28.6738 34.5264H22.7373V37.7715C22.737 38.1276 22.3056 38.3056 22.0537 38.0537L16 32L22.0537 25.9463C22.3056 25.6944 22.737 25.8724 22.7373 26.2285V29.4736H28.6738C29.1155 29.4736 29.4736 29.1155 29.4736 28.6738V22.7373H26.2285C25.8724 22.737 25.6944 22.3056 25.9463 22.0537L32 16L38.0537 22.0537Z" fill="#243946"/>
</svg>
