<svg width="96" height="96" viewBox="0 0 96 96" fill="none" xmlns="http://www.w3.org/2000/svg">
<path d="M23.0127 81.92V13.6H47.0223C53.2036 13.6 58.6042 14.9339 63.2239 17.6016C67.9087 20.2043 71.5199 24.0757 74.0575 29.216C76.6602 34.3563 77.9615 40.5376 77.9615 47.76C77.9615 54.9824 76.6602 61.1637 74.0575 66.304C71.5199 71.4443 67.9087 75.3483 63.2239 78.016C58.6042 80.6187 53.2036 81.92 47.0223 81.92H23.0127ZM46.9247 72.8432C50.9588 72.8432 54.5375 71.8997 57.6607 70.0128C60.7839 68.0608 63.2239 65.1979 64.9807 61.424C66.8026 57.6501 67.7135 53.0955 67.7135 47.76C67.7135 42.4245 66.8026 37.8699 64.9807 34.096C63.2239 30.3221 60.7839 27.4917 57.6607 25.6048C54.5375 23.6528 50.9588 22.6768 46.9247 22.6768H33.2607V72.8432H46.9247Z" fill="#243946"/>
</svg>
