<svg width="96" height="96" viewBox="0 0 96 96" fill="none" xmlns="http://www.w3.org/2000/svg">
<path d="M75.1858 24.2526C75.4643 29.3586 65.6161 65.4231 61.6354 79.7517C60.6713 83.2222 57.5099 85.5948 53.908 85.6164C43.816 85.6771 27.6021 85.7861 24.2169 84.6467C18.971 82.881 15.124 70.1677 16.1732 66.2831C17.2224 62.3986 22.1186 60.2797 28.7634 60.2797C32.203 60.2797 40.4216 62.4561 47.9865 65.0945C47.8573 64.0497 48.7293 55.7563 50.7361 50.1869C52.4414 45.4541 56.7367 38.788 56.7367 38.788C56.7367 38.788 61.1297 32.2536 61.5998 26.8C61.9205 23.0789 60.1081 19.3164 59.5038 17.4688C59.0243 13.5608 63.3629 9.59998 67.1999 9.6C71.1746 9.60001 74.8372 17.8579 75.1858 24.2526Z" fill="#243946"/>
</svg>
