<svg width="96" height="96" viewBox="0 0 96 96" fill="none" xmlns="http://www.w3.org/2000/svg">
<path d="M79.1861 23.4527C79.4645 28.5587 69.6163 64.6231 65.6356 78.9518C64.6715 82.4222 61.5101 84.7948 57.9082 84.8165L57.613 84.8182C47.503 84.8791 31.5695 84.9751 28.2171 83.8467C22.9712 82.081 19.1242 69.3678 20.1734 65.4832C21.2226 61.5986 26.1187 59.4797 32.7636 59.4797C36.2032 59.4797 44.4218 61.6561 51.9867 64.2945C51.8575 63.2497 52.7295 54.9564 54.7363 49.3869C56.4416 44.6541 60.7369 37.9881 60.7369 37.9881C60.7369 37.9881 65.1299 31.4537 65.6 26C65.8607 22.9753 64.7119 19.9231 63.9482 17.8944C63.7725 17.4274 63.6171 17.0145 63.504 16.6688C63.0245 12.7608 67.3631 8.80003 71.2001 8.80005C75.1748 8.80006 78.8374 17.0579 79.1861 23.4527Z" fill="#243946"/>
<path d="M7.2002 36L21.2471 30.7778C22.0434 30.4817 22.9322 30.8596 23.2715 31.6384L24.3091 34.0201L25.7261 32.6131C25.9133 32.4273 26.0699 32.2131 26.1902 31.9784C26.5782 31.2215 26.5555 30.3195 26.1299 29.5831L22.8095 23.8379C22.8095 23.8379 21.8311 21.8011 23.8355 20.6438C25.8399 19.4866 26.9665 21.4379 26.9665 21.4379L38.9665 42.2225C38.9665 42.2225 39.8399 43.7353 37.8355 44.8925C35.8311 46.0498 34.8095 44.6225 34.8095 44.6225L31.5882 39.0429C31.2253 38.4144 30.5798 38.0012 29.8571 37.9348C29.4336 37.8959 29.0078 37.9786 28.6297 38.1732L26.5785 39.2291L29.2615 45.3876C29.7604 46.5327 28.8134 47.7824 27.5761 47.6117L7.2002 44.8012V36Z" fill="#243946"/>
</svg>
