<svg width="96" height="96" viewBox="0 0 96 96" fill="none" xmlns="http://www.w3.org/2000/svg">
<path d="M88.4688 40.7998C90.2157 40.7999 91.6095 41.2302 92.6494 42.0898C93.7031 42.9357 94.4243 44.1004 94.8125 45.584H91.5879C91.2967 44.9463 90.909 44.4607 90.4238 44.1279C89.9524 43.7813 89.3005 43.6085 88.4688 43.6084C87.3317 43.6084 86.4226 44.0102 85.7432 44.8145C85.0638 45.6187 84.7246 46.7767 84.7246 48.2881C84.7246 49.7995 85.0638 50.9575 85.7432 51.7617C86.4226 52.566 87.3317 52.9678 88.4688 52.9678C89.3005 52.9677 89.9524 52.8015 90.4238 52.4688C90.909 52.1221 91.2968 51.6298 91.5879 50.9922H94.8125C94.4243 52.4757 93.703 53.6472 92.6494 54.5068C91.6095 55.3526 90.2157 55.7763 88.4688 55.7764C87.0821 55.7764 85.8681 55.4847 84.8281 54.9023C83.8021 54.3061 83.005 53.4463 82.4365 52.3232C81.8819 51.2001 81.6045 49.855 81.6045 48.2881C81.6045 46.7212 81.8819 45.3761 82.4365 44.2529C83.005 43.1298 83.802 42.2767 84.8281 41.6943C85.8681 41.0981 87.0821 40.7998 88.4688 40.7998ZM6.41113 41.0078C7.7562 41.0078 8.92836 41.2994 9.92676 41.8818C10.9389 42.4504 11.7151 43.2825 12.2559 44.3779C12.7966 45.4734 13.0674 46.7767 13.0674 48.2881C13.0674 49.7995 12.7966 51.1028 12.2559 52.1982C11.7151 53.2936 10.9389 54.1325 9.92676 54.7148C8.92836 55.2834 7.7562 55.5684 6.41113 55.5684H0.795898V41.0078H6.41113ZM19.5967 47.4355H19.7012L23.0078 41.0078H26.2734L21.1777 50.5762V55.5684H18.0576V50.5762L12.9619 41.0078H16.29L19.5967 47.4355ZM36.9932 51.0957H37.0967V41.0078H40.2168V55.5684H36.1611L30.6494 45.4805H30.5449V55.5684H27.4248V41.0078H31.4814L36.9932 51.0957ZM55.8145 55.5684H52.5908L51.6543 52.8643H45.6641L44.7285 55.5684H41.5664L46.7666 41.0078H50.6143L55.8145 55.5684ZM65.1914 51.1582H65.3164L68.7695 41.0078H73.2822V55.5684H70.1631V45.2725H70.0586L66.5225 55.5684H63.9229L60.3867 45.2725H60.2822V55.5684H57.1631V41.0078H61.7383L65.1914 51.1582ZM79.3154 55.5684H76.1953V41.0078H79.3154V55.5684ZM3.91504 52.7598H6.30762C6.98698 52.7597 7.59696 52.5935 8.1377 52.2607C8.69225 51.928 9.12932 51.4291 9.44824 50.7637C9.78103 50.0842 9.94726 49.2587 9.94727 48.2881C9.94727 47.3176 9.78095 46.4995 9.44824 45.834C9.12931 45.1545 8.69236 44.6482 8.1377 44.3154C7.59694 43.9827 6.98701 43.8164 6.30762 43.8164H3.91504V52.7598ZM46.6006 50.1602H50.6982L48.7012 44.4404H48.5967L46.6006 50.1602Z" fill="#243946"/>
</svg>
