<svg width="96" height="96" viewBox="0 0 96 96" fill="none" xmlns="http://www.w3.org/2000/svg">
<path d="M80.3604 13.2002C83.6563 13.2003 86.3281 15.872 86.3281 19.168V69.4639C86.3281 73.7039 82.8883 77.1357 78.6562 77.1357H17.2725C13.0326 77.1356 9.59961 73.6958 9.59961 69.4639V48.168C9.59961 44.688 10.817 41.3204 13.041 38.6484L21.2959 28.7285C29.4798 18.8886 41.6162 13.2003 54.416 13.2002H80.3604ZM70.8535 19.6924C68.2866 19.6926 65.3845 22.3482 65.7051 24.9688C65.7807 25.2004 65.8845 25.4782 66.002 25.791C66.5128 27.1515 67.2818 29.1986 67.1074 31.2266C66.7943 34.8662 63.8814 39.224 63.8535 39.2656C63.8292 39.3035 60.9749 43.7498 59.8389 46.9102C58.4965 50.6448 57.9127 56.206 57.999 56.9072C52.9384 55.1381 47.44 53.6779 45.1387 53.6777C40.6935 53.6778 37.4178 55.0993 36.7158 57.7041C36.0141 60.3092 38.5874 68.8338 42.0967 70.0186C44.3396 70.7752 55 70.7108 61.7637 70.6699H61.9609C64.3704 70.6553 66.4857 69.0634 67.1309 66.7363C69.794 57.1273 76.3824 32.9421 76.1963 29.5176C75.9628 25.2295 73.5124 19.693 70.8535 19.6924ZM38.9131 23.4004C38.2367 23.4006 37.6333 23.8257 37.4062 24.4629L29.625 46.332C29.4398 46.8527 29.8253 47.4001 30.3779 47.4004H33.2959C33.9783 47.4004 34.5859 46.9672 34.8086 46.3223L35.9746 42.9434H45.8125L46.9785 46.3223C47.2012 46.967 47.8081 47.4002 48.4902 47.4004H51.5107C52.0634 47.4002 52.4489 46.8528 52.2637 46.332L44.4824 24.4629C44.2553 23.8257 43.652 23.4005 42.9756 23.4004H38.9131ZM44.2412 38.4863H37.5117L40.791 29.0566H40.9619L44.2412 38.4863Z" fill="#243946"/>
</svg>
