<svg width="96" height="96" viewBox="0 0 96 96" fill="none" xmlns="http://www.w3.org/2000/svg">
<path d="M44 28.0002V34.3997H34.4004V68.8H69.6006V34.3997H60V28.0002H71.9629C72.406 28.0003 72.8444 28.0916 73.25 28.2698L84.3311 33.1389C86.0744 33.9049 87.2001 35.6293 87.2002 37.5334V65.6663C87.2 67.5704 86.0743 69.2948 84.3311 70.0608L73.25 74.929C72.8443 75.1072 72.406 75.1994 71.9629 75.1995H32.0381C31.595 75.1995 31.1567 75.1072 30.751 74.929L19.6689 70.0608C17.9258 69.2948 16.8 67.5703 16.7998 65.6663V63.1995H11.2002C8.10747 63.1994 5.60064 60.6926 5.60059 57.5999V46.3997C5.60065 43.3069 8.10747 40.8001 11.2002 40.8H16.7998V37.5334C16.7999 35.6294 17.9258 33.905 19.6689 33.1389L30.751 28.2698C31.1566 28.0916 31.5951 28.0002 32.0381 28.0002H44ZM23.2002 38.5784V64.6213L28 66.7307V36.469L23.2002 38.5784ZM76 66.7307L80.7998 64.6213V38.5784L76 36.469V66.7307ZM12 56.8H16.7998V47.1995H12V56.8ZM55.2002 54.3997H48.7998V48.0002H55.2002V54.3997ZM55.2002 16.8L54.4004 43.1995H49.6006L48.7998 16.8V12.8H55.2002V16.8Z" fill="#243946"/>
</svg>
