<svg width="96" height="96" viewBox="0 0 96 96" fill="none" xmlns="http://www.w3.org/2000/svg">
<path d="M60.3711 63.3643C61.7577 63.3643 62.9641 63.6625 63.9902 64.2588C65.0302 64.8412 65.8281 65.6942 66.3828 66.8174C66.9512 67.9405 67.2354 69.2858 67.2354 70.8525C67.2353 72.4193 66.9513 73.7646 66.3828 74.8877C65.8281 76.0108 65.0302 76.8706 63.9902 77.4668C62.9642 78.0491 61.7576 78.3398 60.3711 78.3398C58.9846 78.3398 57.7714 78.0491 56.7314 77.4668C55.7053 76.8706 54.9074 76.0108 54.3389 74.8877C53.7842 73.7646 53.5069 72.4193 53.5068 70.8525C53.5068 69.2858 53.7844 67.9405 54.3389 66.8174C54.9074 65.6942 55.7053 64.8412 56.7314 64.2588C57.7714 63.6626 58.9845 63.3643 60.3711 63.3643ZM24.2803 66.3799H17.5195V69.5H23.8643V72.1006H17.5195V75.3242H24.4883V78.1318H14.4004V63.5723H24.2803V66.3799ZM33.1123 63.5723C34.0828 63.5723 34.9351 63.7737 35.6699 64.1758C36.4049 64.564 36.9738 65.1188 37.376 65.8398C37.7918 66.5608 38 67.3998 38 68.3564C38 69.3825 37.7501 70.2698 37.251 71.0186C36.7657 71.7535 36.1482 72.294 35.3994 72.6406L38.5195 78.1318H35.1709L32.3633 73.0361H29.9922V78.1318H26.8721V63.5723H33.1123ZM46.7412 63.5723C47.7119 63.5723 48.5649 63.7736 49.2998 64.1758C50.0347 64.564 50.6037 65.1188 51.0059 65.8398C51.4217 66.5608 51.6299 67.3999 51.6299 68.3564C51.6298 69.3824 51.38 70.2698 50.8809 71.0186C50.3955 71.7535 49.7781 72.294 49.0293 72.6406L52.1494 78.1318H48.8008L45.9932 73.0361H43.6211V78.1318H40.502V63.5723H46.7412ZM75.7686 63.5723C76.739 63.5723 77.5914 63.7737 78.3262 64.1758C79.0611 64.564 79.6301 65.1188 80.0322 65.8398C80.4481 66.5608 80.6562 67.3998 80.6562 68.3564C80.6562 69.3825 80.4064 70.2698 79.9072 71.0186C79.4219 71.7535 78.8045 72.294 78.0557 72.6406L81.1758 78.1318H77.8271L75.0195 73.0361H72.6484V78.1318H69.5283V63.5723H75.7686ZM60.3711 66.1719C59.2341 66.1719 58.3259 66.5747 57.6465 67.3789C56.9671 68.1832 56.627 69.3412 56.627 70.8525C56.627 72.3638 56.9671 73.522 57.6465 74.3262C58.3259 75.1302 59.2342 75.5322 60.3711 75.5322C61.508 75.5322 62.4163 75.1302 63.0957 74.3262C63.7751 73.522 64.1152 72.3638 64.1152 70.8525C64.1152 69.3411 63.7752 68.1832 63.0957 67.3789C62.4162 66.5746 61.5082 66.1719 60.3711 66.1719ZM29.9922 70.332H32.9043C33.4864 70.3319 33.9579 70.159 34.3184 69.8125C34.6927 69.452 34.8798 68.9664 34.8799 68.3564C34.8799 67.7463 34.6928 67.2676 34.3184 66.9209C33.9579 66.5605 33.4865 66.38 32.9043 66.3799H29.9922V70.332ZM43.6211 70.332H46.5332C47.1156 70.332 47.5877 70.1591 47.9482 69.8125C48.3226 69.452 48.5097 68.9664 48.5098 68.3564C48.5098 67.7464 48.3226 67.2676 47.9482 66.9209C47.5877 66.5604 47.1156 66.3799 46.5332 66.3799H43.6211V70.332ZM72.6484 66.3799V70.332H75.5605C76.1427 70.3319 76.6142 70.159 76.9746 69.8125C77.349 69.452 77.5361 68.9664 77.5361 68.3564C77.5361 67.7463 77.349 67.2676 76.9746 66.9209C76.6142 66.5605 76.1428 66.38 75.5605 66.3799H72.6484ZM6.86426 40.3877C8.61134 40.3877 10.005 40.818 11.0449 41.6777C12.0987 42.5236 12.8197 43.6883 13.208 45.1719H9.98438C9.69318 44.534 9.30465 44.0486 8.81934 43.7158C8.34792 43.3692 7.6961 43.1963 6.86426 43.1963C5.72735 43.1963 4.81908 43.5983 4.13965 44.4023C3.46021 45.2066 3.12014 46.3646 3.12012 47.876C3.12012 49.4012 3.46692 50.5659 4.16016 51.3701C4.85345 52.1605 5.78921 52.5556 6.96777 52.5557C7.88297 52.5557 8.63908 52.3135 9.23535 51.8281C9.84533 51.3429 10.2197 50.6843 10.3584 49.8525H6.55176V47.3564H13.416V55.1562H11.0244V53.5342C10.553 54.1303 9.95628 54.5873 9.23535 54.9062C8.52822 55.2113 7.73776 55.3642 6.86426 55.3643C5.47759 55.3643 4.26363 55.0726 3.22363 54.4902C2.19769 53.894 1.40049 53.0342 0.832031 51.9111C0.277414 50.788 0 49.4428 0 47.876C1.87769e-05 46.3091 0.277383 44.964 0.832031 43.8408C1.40053 42.7177 2.1976 41.8646 3.22363 41.2822C4.26363 40.686 5.47759 40.3877 6.86426 40.3877ZM32.9658 40.3877C34.3524 40.3877 35.5589 40.686 36.585 41.2822C37.6249 41.8646 38.4219 42.7177 38.9766 43.8408C39.5451 44.964 39.8291 46.3091 39.8291 47.876C39.8291 49.4429 39.5451 50.7879 38.9766 51.9111C38.4219 53.0342 37.6248 53.894 36.585 54.4902C35.5589 55.0726 34.3524 55.3642 32.9658 55.3643C31.5792 55.3643 30.3652 55.0726 29.3252 54.4902C28.2993 53.894 27.5021 53.0342 26.9336 51.9111C26.379 50.788 26.1016 49.4428 26.1016 47.876C26.1016 46.3091 26.3789 44.964 26.9336 43.8408C27.5021 42.7177 28.2992 41.8646 29.3252 41.2822C30.3652 40.686 31.5792 40.3877 32.9658 40.3877ZM76.5469 40.3877C78.2386 40.3877 79.5561 40.7838 80.499 41.5742C81.4419 42.3507 81.9967 43.3767 82.1631 44.6523H79.043C78.932 44.167 78.6689 43.7851 78.2529 43.5078C77.8508 43.2305 77.3169 43.0918 76.6514 43.0918C75.9164 43.0918 75.3475 43.2447 74.9453 43.5498C74.5572 43.841 74.3633 44.2087 74.3633 44.6523C74.3633 45.0544 74.4954 45.3803 74.7588 45.6299C75.036 45.8655 75.3755 46.0528 75.7773 46.1914C76.1933 46.3162 76.7758 46.4616 77.5244 46.6279C78.5506 46.8498 79.3969 47.093 80.0625 47.3564C80.7279 47.606 81.2962 48.0147 81.7676 48.583C82.239 49.1377 82.4756 49.908 82.4756 50.8926C82.4755 51.7381 82.2464 52.5004 81.7891 53.1797C81.3315 53.8592 80.6513 54.393 79.75 54.7812C78.8626 55.1695 77.7948 55.3643 76.5469 55.3643C74.883 55.3642 73.5169 54.9691 72.4492 54.1787C71.3816 53.3883 70.7717 52.2579 70.6191 50.7881H73.7393C73.8502 51.3705 74.1485 51.8283 74.6338 52.1611C75.1329 52.4938 75.7706 52.6601 76.5469 52.6602C78.3493 52.6602 79.2507 52.071 79.251 50.8926C79.251 50.5184 79.1197 50.2199 78.8564 49.998C78.6069 49.7623 78.2876 49.5885 77.8994 49.4775C77.5112 49.3666 76.9563 49.2355 76.2354 49.083C75.1815 48.875 74.3142 48.6461 73.6348 48.3965C72.9554 48.1469 72.3663 47.7231 71.8672 47.127C71.382 46.5307 71.1397 45.706 71.1396 44.6523C71.1396 43.7511 71.3753 42.9816 71.8467 42.3438C72.3181 41.692 72.9631 41.2066 73.7812 40.8877C74.5992 40.555 75.521 40.3877 76.5469 40.3877ZM89.5469 40.3877C91.2386 40.3877 92.5561 40.7838 93.499 41.5742C94.4419 42.3507 94.9967 43.3767 95.1631 44.6523H92.043C91.932 44.167 91.6689 43.7851 91.2529 43.5078C90.8508 43.2305 90.3169 43.0918 89.6514 43.0918C88.9164 43.0918 88.3475 43.2447 87.9453 43.5498C87.5572 43.841 87.3633 44.2087 87.3633 44.6523C87.3633 45.0544 87.4954 45.3803 87.7588 45.6299C88.036 45.8655 88.3755 46.0528 88.7773 46.1914C89.1933 46.3162 89.7758 46.4616 90.5244 46.6279C91.5506 46.8498 92.3969 47.093 93.0625 47.3564C93.7279 47.606 94.2962 48.0147 94.7676 48.583C95.239 49.1377 95.4756 49.908 95.4756 50.8926C95.4755 51.7381 95.2464 52.5004 94.7891 53.1797C94.3315 53.8592 93.6513 54.393 92.75 54.7812C91.8626 55.1695 90.7948 55.3643 89.5469 55.3643C87.883 55.3642 86.5169 54.9691 85.4492 54.1787C84.3816 53.3883 83.7717 52.2579 83.6191 50.7881H86.7393C86.8502 51.3705 87.1485 51.8283 87.6338 52.1611C88.1329 52.4938 88.7706 52.6601 89.5469 52.6602C91.3493 52.6602 92.2507 52.071 92.251 50.8926C92.251 50.5184 92.1197 50.2199 91.8564 49.998C91.6069 49.7623 91.2876 49.5885 90.8994 49.4775C90.5112 49.3666 89.9563 49.2355 89.2354 49.083C88.1815 48.875 87.3142 48.6461 86.6348 48.3965C85.9554 48.1469 85.3663 47.7231 84.8672 47.127C84.382 46.5307 84.1397 45.706 84.1396 44.6523C84.1396 43.7511 84.3753 42.9816 84.8467 42.3438C85.3181 41.692 85.9631 41.2066 86.7812 40.8877C87.5992 40.555 88.521 40.3877 89.5469 40.3877ZM19.2422 52.3477H25.8984V55.1562H16.1221V40.5957H19.2422V52.3477ZM51.6904 50.6846H51.7949V40.5957H54.9141V55.1562H50.8584L45.3467 45.0684H45.2422V55.1562H42.1221V40.5957H46.1787L51.6904 50.6846ZM70.5117 55.1562H67.2881L66.3516 52.4521H60.3613L59.4258 55.1562H56.2637L61.4639 40.5957H65.3115L70.5117 55.1562ZM32.9658 43.1963C31.8289 43.1963 30.9206 43.5983 30.2412 44.4023C29.5618 45.2066 29.2217 46.3646 29.2217 47.876C29.2217 49.3874 29.5617 50.5453 30.2412 51.3496C30.9207 52.1538 31.8288 52.5557 32.9658 52.5557C34.1028 52.5556 35.011 52.1538 35.6904 51.3496C36.3698 50.5453 36.71 49.3874 36.71 47.876C36.7099 46.3646 36.3699 45.2066 35.6904 44.4023C35.011 43.5982 34.1027 43.1964 32.9658 43.1963ZM61.2979 49.748H65.3955L63.3984 44.0283H63.2939L61.2979 49.748ZM38.6797 20.6357H31.9199V23.7559H38.2637V26.3564H31.9199V29.5801H38.8877V32.3877H28.7998V17.8281H38.6797V20.6357ZM47.5117 17.8281C48.4824 17.8281 49.3354 18.0295 50.0703 18.4316C50.8052 18.8199 51.3743 19.3747 51.7764 20.0957C52.1922 20.8167 52.3994 21.6557 52.3994 22.6123C52.3994 23.6383 52.1504 24.5257 51.6514 25.2744C51.1661 26.0093 50.5486 26.5498 49.7998 26.8965L52.9199 32.3877H49.5713L46.7627 27.292H44.3916V32.3877H41.2715V17.8281H47.5117ZM67.2852 32.3877H64.0605L63.125 29.6846H57.1348L56.1982 32.3877H53.0371L58.2373 17.8281H62.085L67.2852 32.3877ZM58.0703 26.9805H62.168L60.1709 21.2598H60.0674L58.0703 26.9805ZM44.3916 24.5879H47.3037C47.8861 24.5879 48.3582 24.415 48.7188 24.0684C49.093 23.7079 49.2802 23.2223 49.2803 22.6123C49.2803 22.0023 49.093 21.5234 48.7188 21.1768C48.3582 20.8162 47.8861 20.6357 47.3037 20.6357H44.3916V24.5879Z" fill="#243946"/>
</svg>
