<svg width="96" height="96" viewBox="0 0 96 96" fill="none" xmlns="http://www.w3.org/2000/svg">
<path d="M48 17.5999C61.4681 17.5999 80.0984 20.8465 89.707 22.7151C93.3938 23.432 95.9999 26.6751 96 30.4309V65.5686C96 69.3245 93.3939 72.5684 89.707 73.2854C80.0984 75.154 61.4681 78.3997 48 78.3997C34.5319 78.3997 15.9016 75.154 6.29297 73.2854C2.60614 72.5684 0 69.3245 0 65.5686V30.4309C0.000105418 26.6751 2.60622 23.432 6.29297 22.7151C15.9016 20.8465 34.5319 17.5999 48 17.5999ZM48 24.0002C39.0985 24.0002 27.5308 25.5239 17.957 27.1135C13.3839 27.8729 9.34896 28.6324 6.40039 29.2151V66.7844C9.34896 67.3671 13.3838 68.1266 17.957 68.886C27.5308 70.4756 39.0985 72.0002 48 72.0002C56.9015 72.0002 68.4692 70.4756 78.043 68.886C82.6161 68.1266 86.651 67.3671 89.5996 66.7844V29.2151C86.651 28.6324 82.6161 27.8729 78.043 27.1135C68.4692 25.5239 56.9015 24.0002 48 24.0002ZM22.1436 34.3997C25.2668 34.3997 27.6996 35.1299 29.4404 36.5891C31.1809 38.0226 32.2045 39.9168 32.5117 42.2717H26.752C26.5472 41.3759 26.0607 40.6723 25.293 40.1604C24.5506 39.6484 23.5647 39.3918 22.3359 39.3918C20.9793 39.3919 19.9299 39.6735 19.1875 40.2366C18.4708 40.7741 18.1124 41.4526 18.1123 42.2717C18.1123 43.0141 18.3554 43.6156 18.8418 44.0764C19.3538 44.5116 19.9812 44.8575 20.7236 45.1135C21.4916 45.3439 22.567 45.613 23.9492 45.9202C25.8434 46.3297 27.4051 46.7776 28.6338 47.2639C29.8625 47.7247 30.9119 48.48 31.7822 49.5295C32.6526 50.5535 33.0879 51.9746 33.0879 53.7922C33.0878 55.3536 32.6659 56.7616 31.8213 58.0159C30.9765 59.2703 29.7216 60.2561 28.0576 60.9729C26.4192 61.6897 24.4475 62.0481 22.1436 62.0481C19.0718 62.048 16.5502 61.3178 14.5791 59.8586C12.6081 58.3995 11.4818 56.3133 11.2002 53.5999H16.96C17.1648 54.675 17.7154 55.5196 18.6113 56.134C19.5328 56.7484 20.7102 57.0558 22.1436 57.0559C25.4714 57.0559 27.1356 55.968 27.1357 53.7922C27.1357 53.101 26.8926 52.5505 26.4062 52.1409C25.9454 51.7057 25.3564 51.3857 24.6396 51.1809C23.9229 50.9761 22.8992 50.7329 21.5684 50.4514C19.6228 50.0674 18.022 49.6446 16.7676 49.1838C15.5134 48.723 14.4254 47.9417 13.5039 46.8411C12.6081 45.7403 12.1602 44.2171 12.1602 42.2717C12.1602 40.6078 12.5955 39.1866 13.4658 38.009C14.3362 36.806 15.5269 35.9103 17.0371 35.3215C18.5473 34.7072 20.2494 34.3997 22.1436 34.3997ZM47.8857 34.3997C50.4457 34.3997 52.673 34.9503 54.5674 36.051C56.4873 37.1262 57.9594 38.7011 58.9834 40.7747C60.0329 42.8482 60.5576 45.3313 60.5576 48.2239C60.5576 51.1165 60.0328 53.5996 58.9834 55.6731C57.9594 57.7466 56.4872 59.334 54.5674 60.4348C52.673 61.51 50.4457 62.0481 47.8857 62.0481C45.3257 62.0481 43.085 61.51 41.165 60.4348C39.2709 59.334 37.7995 57.7465 36.75 55.6731C35.7261 53.5995 35.2139 51.1166 35.2139 48.2239C35.2139 45.3311 35.726 42.8482 36.75 40.7747C37.7995 38.7012 39.2708 37.1262 41.165 36.051C43.085 34.9502 45.3257 34.3997 47.8857 34.3997ZM73.4443 34.3997C76.5674 34.3997 78.9995 35.13 80.7402 36.5891C82.4808 38.0227 83.5053 39.9167 83.8125 42.2717H78.0518C77.8469 41.3759 77.3606 40.6723 76.5928 40.1604C75.8504 39.6484 74.8645 39.3918 73.6357 39.3918C72.2792 39.3919 71.2296 39.6735 70.4873 40.2366C69.7706 40.7741 69.4122 41.4526 69.4121 42.2717C69.4121 43.014 69.6553 43.6156 70.1416 44.0764C70.6536 44.5116 71.281 44.8575 72.0234 45.1135C72.7914 45.3439 73.8667 45.613 75.249 45.9202C77.1433 46.3298 78.7048 46.7775 79.9336 47.2639C81.1623 47.7247 82.2117 48.48 83.082 49.5295C83.9524 50.5535 84.3877 51.9746 84.3877 53.7922C84.3876 55.3536 83.9658 56.7616 83.1211 58.0159C82.2763 59.2703 81.0214 60.2561 79.3574 60.9729C77.7191 61.6896 75.7481 62.0481 73.4443 62.0481C70.3723 62.0481 67.8501 61.3178 65.8789 59.8586C63.908 58.3995 62.7816 56.3133 62.5 53.5999H68.2598C68.4645 54.675 69.0152 55.5196 69.9111 56.134C70.8327 56.7484 72.0107 57.0559 73.4443 57.0559C76.772 57.0558 78.4354 55.968 78.4355 53.7922C78.4355 53.101 78.1925 52.5505 77.7061 52.1409C77.2454 51.7058 76.657 51.3857 75.9404 51.1809C75.2237 50.9761 74.1993 50.733 72.8682 50.4514C70.9227 50.0674 69.3227 49.6446 68.0684 49.1838C66.814 48.723 65.7253 47.9419 64.8037 46.8411C63.9079 45.7403 63.46 44.2171 63.46 42.2717C63.46 40.6078 63.8953 39.1866 64.7656 38.009C65.636 36.806 66.8266 35.9103 68.3369 35.3215C69.8473 34.7072 71.55 34.3997 73.4443 34.3997ZM47.8857 39.5842C45.7867 39.5842 44.1098 40.3262 42.8555 41.8108C41.6011 43.2956 40.9736 45.4335 40.9736 48.2239C40.9736 51.0143 41.6011 53.1522 42.8555 54.637C44.1098 56.1216 45.7867 56.8635 47.8857 56.8635C49.9848 56.8635 51.6617 56.1216 52.916 54.637C54.1704 53.1522 54.7979 51.0143 54.7979 48.2239C54.7978 45.4335 54.1704 43.2956 52.916 41.8108C51.6617 40.3261 49.9848 39.5843 47.8857 39.5842Z" fill="#243946"/>
</svg>
