<svg width="96" height="96" viewBox="0 0 96 96" fill="none" xmlns="http://www.w3.org/2000/svg">
<path d="M17.5982 32.8231V23.1328L34.0251 39.5562L39.6807 33.9018L23.3718 17.5965H32.8281V9.59998H14.3989C11.7485 9.59998 9.59998 11.7481 9.59998 14.3979V32.8231H17.5982Z" fill="#243946"/>
<path d="M56.3898 33.9895L62.0453 39.6439L78.4015 23.2913V32.8564L86.3997 32.8564V14.4312C86.3997 11.7814 84.2511 9.63327 81.6008 9.63327L63.1716 9.63327V17.6297L72.753 17.6297L56.3898 33.9895Z" fill="#243946"/>
<path d="M62.3031 56.5193L56.6475 62.1736L72.8808 78.4035H63.1719V86.4L81.6011 86.4C84.2514 86.4 86.4 84.2519 86.4 81.6021V63.1769H78.4018V72.6145L62.3031 56.5193Z" fill="#243946"/>
<path d="M39.423 62.2613L33.7674 56.607L17.5985 72.7724V63.1436H9.60026L9.60026 81.5688C9.60026 84.2186 11.7488 86.3667 14.3992 86.3667H32.8284V78.3702H23.3106L39.423 62.2613Z" fill="#243946"/>
</svg>
