<svg width="96" height="96" viewBox="0 0 96 96" fill="none" xmlns="http://www.w3.org/2000/svg">
<path d="M72 24.0049H92.7998V30.4043H72V43.2041H92.7998V49.6045H72V57.6045H40C35.5817 57.6045 32 54.0228 32 49.6045V40.0049H20.7578C17.2168 40.0049 14.8952 43.708 16.4375 46.8955L29.3232 73.5264C32.9219 80.9638 27.5036 89.6045 19.2412 89.6045H3.19922V83.2041H19.2412C22.7823 83.2041 25.1048 79.501 23.5625 76.3135L10.6758 49.6826C7.07724 42.2452 12.4955 33.6045 20.7578 33.6045H32V24.0049C32 19.5866 35.5817 16.0049 40 16.0049H72V24.0049Z" fill="#243946"/>
</svg>
