<svg width="96" height="96" viewBox="0 0 96 96" fill="none" xmlns="http://www.w3.org/2000/svg">
<path d="M51.2 93.5998H44.8V80.7998H51.2V93.5998Z" fill="#243946"/>
<path d="M28.1984 73.9256L19.1477 82.9764L14.6219 78.4506L23.6727 69.3998L28.1984 73.9256Z" fill="#243946"/>
<path d="M81.3781 78.4506L76.8531 82.9764L67.8016 73.9256L72.3273 69.3998L81.3781 78.4506Z" fill="#243946"/>
<path fill-rule="evenodd" clip-rule="evenodd" d="M56 8.7998C59.5346 8.7998 62.4 11.6652 62.4 15.1998V29.4068C68.6957 33.9045 72.8 41.2727 72.8 49.5998C72.8 63.2965 61.6967 74.3998 48 74.3998C34.3033 74.3998 23.2 63.2965 23.2 49.5998C23.2 41.2727 27.3043 33.9045 33.6 29.4068V15.1998C33.6 11.6652 36.4654 8.7998 40 8.7998H56ZM48 31.1998C37.838 31.1998 29.6 39.4378 29.6 49.5998C29.6 59.7618 37.838 67.9998 48 67.9998C58.162 67.9998 66.4 59.7618 66.4 49.5998C66.4 39.4378 58.162 31.1998 48 31.1998ZM40 26.1186C42.5099 25.2637 45.2008 24.7998 48 24.7998C50.7992 24.7998 53.4901 25.2637 56 26.1186V15.1998H40V26.1186Z" fill="#243946"/>
<path d="M16.8 52.7998H4V46.3998H16.8V52.7998Z" fill="#243946"/>
<path d="M92 52.7998H79.2V46.3998H92V52.7998Z" fill="#243946"/>
<path d="M28.2039 25.2764L23.6789 29.8021L14.6273 20.7514L19.1531 16.2256L28.2039 25.2764Z" fill="#243946"/>
<path d="M81.3727 20.7514L72.3219 29.8021L67.7961 25.2764L76.8469 16.2256L81.3727 20.7514Z" fill="#243946"/>
</svg>
