<svg width="96" height="96" viewBox="0 0 96 96" fill="none" xmlns="http://www.w3.org/2000/svg">
<path fill-rule="evenodd" clip-rule="evenodd" d="M15.351 12.8959L9.69412 18.5527L21.9014 30.76C17.5894 34.808 13.6391 39.9843 10.0597 46.2652C9.75843 46.7939 9.59998 47.3923 9.59998 48.0012C9.59998 48.6101 9.75843 49.2084 10.0597 49.7372C19.943 67.0797 32.6542 76.0012 48.0012 76.0012L49.0939 75.9872C54.2498 75.8426 59.1034 74.6755 63.6468 72.5054L77.5764 86.435L83.2332 80.7781L15.351 12.8959ZM48.7162 57.5749L38.4263 47.2849C38.4088 47.5214 38.4 47.7602 38.4 48.0012C38.4 53.3031 42.698 57.6012 48 57.6012C48.2409 57.6012 48.4798 57.5923 48.7162 57.5749Z" fill="#243946"/>
<path d="M57.6 48.0012C57.6 48.1007 57.5985 48.1998 57.5955 48.2986L74.3259 65.029C78.5503 61.0137 82.4255 55.9101 85.9426 49.7407L85.9985 49.6357L86.1242 49.3732L86.2603 48.9952C86.2979 48.8687 86.3282 48.7401 86.3511 48.6102L86.4 48.2217V47.8367L86.3616 47.4867L86.3127 47.1997L86.2638 47.0072L86.1591 46.7167L86.002 46.3667L85.2339 45.0402C75.4518 28.5027 62.9781 20.0012 48.0012 20.0012C42.5496 20.0012 37.4306 21.1269 32.6528 23.3559L47.7026 38.4057C47.8013 38.4027 47.9005 38.4012 48 38.4012C53.3019 38.4012 57.6 42.6992 57.6 48.0012Z" fill="#243946"/>
</svg>
