<svg width="96" height="96" viewBox="0 0 96 96" fill="none" xmlns="http://www.w3.org/2000/svg">
<path fill-rule="evenodd" clip-rule="evenodd" d="M85.2339 45.039C75.4518 28.5015 62.9781 20 48.0012 20C32.6542 20 19.943 28.9215 10.0597 46.264C9.75843 46.7927 9.59998 47.3911 9.59998 48C9.59998 48.6089 9.75843 49.2073 10.0597 49.736C19.943 67.0785 32.6542 76 48.0012 76L49.0939 75.986C63.9486 75.5695 76.2932 66.6655 85.9426 49.7395L85.9985 49.6345L86.1242 49.372L86.2603 48.994C86.2979 48.8675 86.3282 48.739 86.3511 48.609L86.4 48.2205V47.8355L86.3616 47.4855L86.3127 47.1985L86.2638 47.006L86.1591 46.7155L86.002 46.3655L85.2339 45.039ZM48 57.6C53.3019 57.6 57.6 53.3019 57.6 48C57.6 42.6981 53.3019 38.4 48 38.4C42.698 38.4 38.4 42.6981 38.4 48C38.4 53.3019 42.698 57.6 48 57.6Z" fill="#243946"/>
</svg>
