<svg width="96" height="96" viewBox="0 0 96 96" fill="none" xmlns="http://www.w3.org/2000/svg">
<path d="M32.8001 32.8V24.8L45.6001 24.8L45.6001 17.9314C45.6001 17.2186 46.4618 16.8617 46.9658 17.3657L58.4001 28.8L46.9658 40.2343C46.4618 40.7383 45.6001 40.3813 45.6001 39.6686V32.8H32.8001Z" fill="#243946"/>
<path d="M76.4938 31.2C81.7958 31.2 86.0938 26.9019 86.0938 21.6C86.0938 16.2981 81.7958 12 76.4938 12C71.1919 12 66.8938 16.2981 66.8938 21.6C66.8938 26.9019 71.1919 31.2 76.4938 31.2Z" fill="#243946"/>
<path d="M27.2257 88.5477C25.7841 88.5477 24.3528 87.9955 23.2487 86.9015C21.0506 84.7032 21.0506 81.1451 23.2487 78.9468L41.5374 60.6566C43.9312 58.0511 46.4592 55.6654 53.0811 57.0916C60.8279 58.7602 62.2204 53.7552 63.401 49.512C63.4679 49.2717 63.5341 49.0339 63.6007 48.7998C63.937 47.6182 64.4988 45.9366 65.1195 44.0786C65.8177 41.9885 66.5905 39.6753 67.2007 37.5998C68.0007 34.8785 68.8007 32.7998 72.0007 33.5998L80.2522 34.6878C83.6007 35.1998 84.0007 37.5998 83.6007 39.5998L79.6885 58.0596C76.7153 66.4501 69.485 71.7497 60.7055 70.2893L50.0848 68.0178L31.2027 86.9015C30.1087 87.9955 28.6672 88.5477 27.2257 88.5477Z" fill="#243946"/>
</svg>
