<svg width="96" height="96" viewBox="0 0 96 96" fill="none" xmlns="http://www.w3.org/2000/svg">
<path d="M37.4098 43.0785C38.0498 43.4369 38.7964 43.6161 39.6498 43.6161C40.725 43.6161 41.5826 43.3559 42.2226 42.8353C42.8711 42.3063 43.3148 41.5852 43.5538 40.6721H41.5698C41.3906 41.0647 41.1516 41.3676 40.853 41.5809C40.5628 41.7857 40.1618 41.8881 39.6498 41.8881C38.95 41.8881 38.3911 41.6407 37.973 41.1457C37.5548 40.6508 37.3458 39.9383 37.3458 39.0081C37.3458 38.078 37.5548 37.3655 37.973 36.8705C38.3911 36.3756 38.95 36.1281 39.6498 36.1281C40.1618 36.1281 40.5628 36.2348 40.853 36.4481C41.1516 36.6529 41.3906 36.9516 41.5698 37.3441H43.5538C43.3148 36.4311 42.8711 35.7143 42.2226 35.1937C41.5826 34.6647 40.725 34.4001 39.6498 34.4001C38.7964 34.4001 38.0498 34.5836 37.4098 34.9505C36.7783 35.3089 36.2876 35.8337 35.9378 36.5249C35.5964 37.2161 35.4258 38.0439 35.4258 39.0081C35.4258 39.9724 35.5964 40.8001 35.9378 41.4913C36.2876 42.1825 36.7783 42.7116 37.4098 43.0785Z" fill="#243946"/>
<path d="M26.6523 34.5281V36.2561H22.4923V38.3681H26.3323V40.0961H22.4923V43.4881H20.5723V34.5281H26.6523Z" fill="#243946"/>
<path fill-rule="evenodd" clip-rule="evenodd" d="M35.1678 43.4881H33.1838L32.6078 41.8241H28.9214L28.3454 43.4881H26.3998L29.5998 34.5281H31.9678L35.1678 43.4881ZM30.7262 36.6401L29.4974 40.1601H32.019L30.7902 36.6401H30.7262Z" fill="#243946"/>
<path d="M48.3513 43.4881H46.4313V36.2561H43.7433V34.5281H51.0393V36.2561H48.3513V43.4881Z" fill="#243946"/>
<path fill-rule="evenodd" clip-rule="evenodd" d="M53.0848 43.0785C53.7248 43.4369 54.4714 43.6161 55.3248 43.6161C56.1781 43.6161 56.9205 43.4369 57.552 43.0785C58.192 42.7116 58.6826 42.1825 59.024 41.4913C59.3738 40.8001 59.5488 39.9724 59.5488 39.0081C59.5488 38.0439 59.3738 37.2161 59.024 36.5249C58.6826 35.8337 58.192 35.3089 57.552 34.9505C56.9205 34.5836 56.1781 34.4001 55.3248 34.4001C54.4714 34.4001 53.7248 34.5836 53.0848 34.9505C52.4533 35.3089 51.9626 35.8337 51.6128 36.5249C51.2714 37.2161 51.1008 38.0439 51.1008 39.0081C51.1008 39.9724 51.2714 40.8001 51.6128 41.4913C51.9626 42.1825 52.4533 42.7116 53.0848 43.0785ZM57.0016 41.1457C56.5834 41.6407 56.0245 41.8881 55.3248 41.8881C54.625 41.8881 54.0661 41.6407 53.648 41.1457C53.2298 40.6508 53.0208 39.9383 53.0208 39.0081C53.0208 38.078 53.2298 37.3655 53.648 36.8705C54.0661 36.3756 54.625 36.1281 55.3248 36.1281C56.0245 36.1281 56.5834 36.3756 57.0016 36.8705C57.4197 37.3655 57.6288 38.078 57.6288 39.0081C57.6288 39.9383 57.4197 40.6508 57.0016 41.1457Z" fill="#243946"/>
<path fill-rule="evenodd" clip-rule="evenodd" d="M68.1278 43.4881H66.067L64.339 40.3521H62.8798V43.4881H60.9598V34.5281H64.7998C65.3971 34.5281 65.9219 34.6519 66.3742 34.8993C66.8264 35.1383 67.1763 35.4796 67.4238 35.9233C67.6798 36.3671 67.8078 36.8833 67.8078 37.4721C67.8078 38.1036 67.6542 38.6497 67.347 39.1105C67.0483 39.5628 66.6686 39.8956 66.2078 40.1089L68.1278 43.4881ZM62.8798 36.2561V38.6881H64.6718C65.0302 38.6881 65.3203 38.5815 65.5422 38.3681C65.7726 38.1463 65.8878 37.8476 65.8878 37.4721C65.8878 37.0967 65.7726 36.8023 65.5422 36.5889C65.3203 36.3671 65.0302 36.2561 64.6718 36.2561H62.8798Z" fill="#243946"/>
<path d="M71.0078 43.4881H72.9278V40.4161L76.0638 34.5281H74.0542L72.019 38.4833H71.955L69.9198 34.5281H67.8718L71.0078 40.4161V43.4881Z" fill="#243946"/>
<path fill-rule="evenodd" clip-rule="evenodd" d="M43.4848 60.2946C44.1248 60.653 44.8714 60.8322 45.7248 60.8322C46.5781 60.8322 47.3205 60.653 47.952 60.2946C48.592 59.9276 49.0826 59.3986 49.424 58.7074C49.7738 58.0162 49.9488 57.1884 49.9488 56.2242C49.9488 55.2599 49.7738 54.4322 49.424 53.741C49.0826 53.0498 48.592 52.525 47.952 52.1666C47.3205 51.7996 46.5781 51.6162 45.7248 51.6162C44.8714 51.6162 44.1248 51.7996 43.4848 52.1666C42.8533 52.525 42.3626 53.0498 42.0128 53.741C41.6714 54.4322 41.5008 55.2599 41.5008 56.2242C41.5008 57.1884 41.6714 58.0162 42.0128 58.7074C42.3626 59.3986 42.8533 59.9276 43.4848 60.2946ZM47.4016 58.3618C46.9834 58.8567 46.4245 59.1042 45.7248 59.1042C45.025 59.1042 44.4661 58.8567 44.048 58.3618C43.6298 57.8668 43.4208 57.1543 43.4208 56.2242C43.4208 55.294 43.6298 54.5815 44.048 54.0866C44.4661 53.5916 45.025 53.3442 45.7248 53.3442C46.4245 53.3442 46.9834 53.5916 47.4016 54.0866C47.8197 54.5815 48.0288 55.294 48.0288 56.2242C48.0288 57.1543 47.8197 57.8668 47.4016 58.3618Z" fill="#243946"/>
<path d="M30.1723 60.7042H32.0923V54.3682H32.1563L34.3323 60.7042H35.9323L38.1083 54.3682H38.1723V60.7042H40.0923V51.7442H37.3147L35.1899 57.9906H35.1131L32.9883 51.7442H30.1723V60.7042Z" fill="#243946"/>
<path fill-rule="evenodd" clip-rule="evenodd" d="M51.3598 51.7442H54.8158C55.6435 51.7442 56.3646 51.9234 56.979 52.2818C57.6019 52.6316 58.0798 53.1436 58.4126 53.8178C58.7454 54.4919 58.9118 55.294 58.9118 56.2242C58.9118 57.1543 58.7454 57.9564 58.4126 58.6306C58.0798 59.3047 57.6019 59.821 56.979 60.1794C56.3646 60.5292 55.6435 60.7042 54.8158 60.7042H51.3598V51.7442ZM54.7518 58.9762C55.1699 58.9762 55.5454 58.8738 55.8782 58.669C56.2195 58.4642 56.4883 58.157 56.6846 57.7474C56.8894 57.3292 56.9918 56.8215 56.9918 56.2242C56.9918 55.6268 56.8894 55.1234 56.6846 54.7138C56.4883 54.2956 56.2195 53.9842 55.8782 53.7794C55.5454 53.5746 55.1699 53.4722 54.7518 53.4722H53.2798V58.9762H54.7518Z" fill="#243946"/>
<path d="M62.2423 58.9762V56.9922H66.1463V55.3922H62.2423V53.4722H66.4023V51.7442H60.3223V60.7042H66.5303V58.9762H62.2423Z" fill="#243946"/>
</svg>
