<svg width="96" height="96" viewBox="0 0 96 96" fill="none" xmlns="http://www.w3.org/2000/svg">
<path d="M35.6594 8.0376C36.1954 7.98145 36.8932 8.00317 37.2227 8.01494C37.4546 8.02323 37.6673 8.03341 37.8211 8.04151C37.8986 8.04559 37.9626 8.04981 38.0079 8.05244C38.0302 8.05375 38.0481 8.05479 38.061 8.05557C38.0674 8.05596 38.0728 8.05612 38.0766 8.05635L38.0836 8.05635L38.2485 8.06729L38.4102 8.09385C38.7618 8.15247 40.4284 8.3527 41.5883 8.59698L41.6039 8.6001L41.6188 8.60323C45.2686 9.40866 48.3154 11.2306 50.0289 14.2329C51.7361 17.2243 51.7729 20.7812 50.6735 24.347L50.6727 24.3493C50.2716 25.6465 49.7665 27.0585 49.3563 28.2595C50.8451 25.0746 52.9419 22.1821 55.6696 19.6329C58.649 16.8438 62.0762 15.1108 65.7969 14.7821C69.5233 14.453 73.1994 15.5633 76.6141 17.8454C82.3027 21.6392 86.4793 26.9013 87.7172 34.0751L87.8274 34.7751L87.829 34.7829L87.8297 34.7899C88.3415 38.4832 87.6724 42.0696 86.1141 45.329L86.1102 45.3384L86.1063 45.347C84.7255 48.1909 82.4579 50.1803 79.5516 51.0384C76.7349 51.8699 73.631 51.5508 70.575 50.4579C69.74 50.1615 68.9223 49.8769 68.1188 49.6103C71.4721 51.2307 74.4887 53.5361 77.0922 56.5915L77.5274 57.1157C79.648 59.7593 80.9752 62.7091 81.2579 65.8782C81.5601 69.2677 80.6396 72.613 78.6969 75.7587C74.358 82.7956 68.0084 87.8595 58.7688 88.0001L58.7204 88.0001C56.9873 88.0001 55.286 87.6578 53.8836 87.3071L53.8805 87.3063C50.3875 86.4283 47.4746 84.6146 45.8313 81.697C44.1904 78.7836 44.1422 75.3508 45.1774 71.9048C45.6304 70.3896 46.2364 68.7764 46.6789 67.4829C45.214 70.7238 43.1273 73.6725 40.3758 76.261L40.375 76.2603C37.3222 79.1554 33.8181 80.9391 30.0047 81.2485C26.1861 81.5583 22.4331 80.36 18.9446 77.9759L18.9383 77.972L18.9321 77.9673C13.296 74.0766 8.99171 68.6504 8.10942 61.1657L8.10786 61.1548C7.81246 58.5691 8.15255 55.9587 8.71723 53.6657C9.53434 50.2968 11.3443 47.5145 14.1493 45.9087C16.9469 44.3072 20.2665 44.1438 23.586 45.079C25.1287 45.5131 26.6313 46.0415 28.0047 46.5165C28.1781 46.5765 28.3503 46.6347 28.5204 46.6931C24.7123 44.9978 21.2883 42.4693 18.4313 38.9017L18.4258 38.8954L18.4211 38.8892C16.2275 36.1199 14.8716 33.0714 14.6469 29.797C14.4218 26.5156 15.3529 23.3097 17.2149 20.2696C21.2839 13.6185 27.1906 8.87278 35.6594 8.03604L35.6594 8.0376ZM36.3164 14.4024L36.3297 14.4009L36.2883 14.4048C30.2504 15.0014 25.9477 18.2585 22.6735 23.611L22.6727 23.6126C21.3708 25.7382 20.9141 27.6385 21.0321 29.3587C21.1506 31.0861 21.87 32.9361 23.4375 34.9149C27.1454 39.5378 32.1378 41.961 38.2188 42.8032C38.5818 42.8424 39.6959 42.9365 40.6829 43.4212C42.0719 44.1034 42.9933 45.3663 43.2532 47.0001L43.2555 47.011L43.2571 47.0212C43.4901 48.553 43.1132 49.9643 42.2368 51.0931C41.4694 52.0813 40.4684 52.6548 39.7938 52.9923L39.7782 53.0001C36.7902 54.4752 33.5546 54.7939 30.3946 53.9743L30.3907 53.9735C28.822 53.5649 27.3103 53.0481 25.9133 52.5649C24.4809 52.0695 23.176 51.6121 21.8532 51.2399C19.7707 50.6529 18.2992 50.9079 17.3289 51.4634C16.369 52.0129 15.4331 53.1222 14.9352 55.1821L14.9321 55.1962C14.483 57.0196 14.2857 58.8245 14.4657 60.4165L14.5297 60.8985C15.2602 65.8395 18.1383 69.6421 22.568 72.7001C25.1046 74.4307 27.4215 75.0373 29.4875 74.8696C31.5578 74.7016 33.7515 73.7252 35.9797 71.6095L35.9899 71.5993C39.9065 67.9148 42.1 63.3137 42.736 57.8532L42.7391 57.8235L42.743 57.7946C42.7908 57.4408 42.9102 56.213 43.4336 55.1743C43.741 54.5644 44.2642 53.8386 45.1391 53.322C45.9196 52.8611 46.7537 52.6996 47.5329 52.7173L47.8633 52.736L47.9149 52.7407C48.989 52.8519 50.0123 53.3115 50.761 53.7946C51.3488 54.174 52.4707 55.015 52.9649 56.3915L53.0555 56.6735L53.0571 56.6798C53.6135 58.6838 54.4808 61.6952 54.0321 64.6142L54.0329 64.6149C53.7651 66.3826 53.2499 68.0487 52.7407 69.5384C52.1991 71.1226 51.7193 72.3674 51.3086 73.7415L51.3071 73.7462C50.611 76.0635 50.8623 77.5877 51.4079 78.5563C51.9511 79.5207 53.113 80.5142 55.4407 81.0993C56.6524 81.4022 57.7465 81.5957 58.693 81.5993C65.1433 81.4938 69.7124 78.1375 73.25 72.4001L73.2516 72.3978C74.5913 70.229 75.0439 68.245 74.8836 66.447C74.7224 64.6389 73.9142 62.7228 72.2282 60.7509L72.2243 60.7462C68.4973 56.3706 63.709 53.9687 57.8969 53.2485C57.5032 53.2081 56.3691 53.1199 55.361 52.6454C53.9636 51.9876 52.968 50.7392 52.6719 49.036C52.4091 47.5242 52.746 46.0549 53.6258 44.8813C54.453 43.778 55.6032 43.1379 56.6961 42.8376L58.0954 42.4423C58.6129 42.3004 59.166 42.1587 59.7071 42.047C60.7472 41.8323 62.0051 41.6668 63.3258 41.8251L63.5907 41.861L63.5969 41.8618C66.4263 42.2995 69.1786 43.1874 71.6664 44.0571L72.7157 44.4274L72.7243 44.4306C74.9192 45.2165 76.5882 45.2398 77.7391 44.9001C78.8028 44.5861 79.6995 43.8881 80.3485 42.5517C81.4109 40.3219 81.8139 38.0015 81.4907 35.6688C80.7172 30.3091 77.7548 26.2979 73.0641 23.1696L73.061 23.1681C70.6261 21.54 68.3779 20.9788 66.3594 21.1571C64.3351 21.3361 62.1956 22.2892 60.0415 24.3063L60.0391 24.3087C56.0805 28.0083 53.841 32.5895 53.1805 38.0337L53.1782 38.0493L53.1766 38.0657C53.1453 38.3036 53.0521 39.5766 52.575 40.6134C52.2828 41.2485 51.8099 41.9301 51.0579 42.4712C50.313 43.0071 49.4817 43.2701 48.6758 43.3649L48.675 43.3634C47.119 43.5499 45.6283 43.1328 44.4719 42.1282C43.3905 41.1887 42.847 39.9543 42.6094 38.872L42.6063 38.8556L42.6024 38.8399C42.4409 38.0666 42.1119 36.7384 41.9274 35.6548C41.7267 34.4758 41.5825 33.0447 41.8336 31.5603L41.8352 31.5524C42.1303 29.8335 42.6239 28.2034 43.1219 26.7126C43.6526 25.1242 44.1192 23.8799 44.5586 22.4587C45.3089 20.0238 45.0466 18.4153 44.4704 17.4056C43.901 16.4079 42.682 15.3936 40.2485 14.8548C39.2199 14.6395 38.5235 14.5897 37.5547 14.4368C37.5335 14.4357 37.5098 14.4342 37.4844 14.4329C37.3548 14.4261 37.1795 14.4177 36.9938 14.411C36.8046 14.4043 36.6221 14.4001 36.4735 14.4001C36.3797 14.4001 36.3306 14.402 36.3164 14.4024Z" fill="#243946"/>
</svg>
