<svg width="96" height="96" viewBox="0 0 96 96" fill="none" xmlns="http://www.w3.org/2000/svg">
<path fill-rule="evenodd" clip-rule="evenodd" d="M54.0531 25.6C38.4262 25.6 9.6001 28.2442 9.6001 37.2186C9.6001 44.911 13.9248 70.4 28.997 70.4H58.0884L79.8004 70.3362C81.007 70.3362 82.0792 69.5693 82.4657 68.43L86.2518 57.268C86.5422 56.412 86.401 55.469 85.8725 54.7348C85.3441 54.0006 84.4931 53.5652 83.5866 53.5652H73.8781C75.277 48.4565 75.7571 43.4816 75.7571 40.7683C75.7571 29.4301 68.7073 25.608 54.0531 25.608V25.6ZM33.1178 50.7347C34.8754 52.5603 37.272 53.6 39.794 53.6H53.6001V58.9653C53.6001 59.3309 54.0501 59.5049 54.2961 59.2344L61.6001 51.2L54.2961 43.1656C54.0501 42.895 53.6001 43.069 53.6001 43.4346V48.8H39.794C38.6056 48.8 37.4487 48.3124 36.5757 47.4055C35.707 46.5033 35.2001 45.2501 35.2001 43.9273V38.4H30.4001V43.9273C30.4001 46.4589 31.3656 48.9148 33.1178 50.7347Z" fill="#243946"/>
</svg>
