<svg width="96" height="96" viewBox="0 0 96 96" fill="none" xmlns="http://www.w3.org/2000/svg">
<path d="M15.9998 41.6H23.9998V54.4H30.8685C31.5812 54.4 31.9381 55.2617 31.4341 55.7657L19.9998 67.2L8.56551 55.7657C8.06154 55.2617 8.41847 54.4 9.1312 54.4H15.9998V41.6Z" fill="#243946"/>
<path d="M76.4936 31.2C81.7955 31.2 86.0936 26.9019 86.0936 21.6C86.0936 16.2981 81.7955 12 76.4936 12C71.1916 12 66.8936 16.2981 66.8936 21.6C66.8936 26.9019 71.1916 31.2 76.4936 31.2Z" fill="#243946"/>
<path d="M27.2254 88.5477C25.7839 88.5477 24.3525 87.9955 23.2484 86.9015C21.0503 84.7032 21.0503 81.1451 23.2484 78.9468L41.5371 60.6566C43.9309 58.0511 46.4589 55.6654 53.0808 57.0916C60.8276 58.7602 62.2201 53.7552 63.4008 49.512C63.4676 49.2717 63.5338 49.0339 63.6004 48.7998C63.9367 47.6182 64.4985 45.9366 65.1192 44.0786C65.8175 41.9885 66.5903 39.6753 67.2004 37.5998C68.0004 34.8785 68.8004 32.7998 72.0004 33.5998L80.2519 34.6878C83.6004 35.1998 84.0004 37.5998 83.6004 39.5998L79.6882 58.0596C76.715 66.4501 69.4848 71.7497 60.7053 70.2893L50.0845 68.0178L31.2024 86.9015C30.1085 87.9955 28.6669 88.5477 27.2254 88.5477Z" fill="#243946"/>
</svg>
