<svg width="96" height="96" viewBox="0 0 96 96" fill="none" xmlns="http://www.w3.org/2000/svg">
<path d="M67.2007 37.5996C68.0007 34.8784 68.8006 32.7996 72.0005 33.5996L80.2515 34.6875C83.5999 35.1995 84 37.5996 83.6001 39.5996L79.688 58.0596C76.7148 66.45 69.4849 71.7493 60.7056 70.2891L50.0845 68.0176L31.2026 86.9014C30.1087 87.9954 28.6666 88.5479 27.2251 88.5479C25.7837 88.5478 24.3526 87.9953 23.2485 86.9014C21.0505 84.7031 21.0506 81.1455 23.2485 78.9473L41.5366 60.6562C43.9304 58.0508 46.4588 55.6656 53.0806 57.0918C60.8274 58.7603 62.2203 53.755 63.4009 49.5117C63.4677 49.2716 63.5335 49.0337 63.6001 48.7998C63.9364 47.6182 64.499 45.9369 65.1196 44.0791C65.8179 41.989 66.5905 39.6751 67.2007 37.5996ZM23.9995 54.4004H30.8687C31.5812 54.4006 31.938 55.2617 31.4341 55.7656L19.9995 67.2002L8.56592 55.7656C8.06195 55.2617 8.41862 54.4004 9.13135 54.4004H15.9995V41.5996H23.9995V54.4004ZM45.6001 17.9316C45.6001 17.2191 46.4613 16.8617 46.9653 17.3652L58.3999 28.7998L46.9653 40.2344C46.4614 40.7381 45.6004 40.3814 45.6001 39.6689V32.7998H32.7993V24.7998H45.6001V17.9316ZM76.4937 12C81.7954 12.0001 86.093 16.2979 86.0933 21.5996C86.0933 26.9015 81.7955 31.2001 76.4937 31.2002C71.1917 31.2002 66.8931 26.9015 66.8931 21.5996C66.8933 16.2979 71.1919 12 76.4937 12Z" fill="#243946"/>
</svg>
