<svg width="96" height="96" viewBox="0 0 96 96" fill="none" xmlns="http://www.w3.org/2000/svg">
<path d="M28.4774 15.4447L33.3163 18.9932C33.4784 19.112 33.7034 19.0922 33.8422 18.9468L40.9555 11.4948C41.239 11.1978 41.7324 11.4697 41.6329 11.868L38.8728 22.9082C38.8295 23.0815 38.9063 23.2625 39.061 23.3517L47.9822 28.4986C48.331 28.6998 48.1973 29.2323 47.7948 29.2448L36.6086 29.5944C36.4777 29.5985 36.3571 29.6664 36.2857 29.7762L31.8728 36.5653C31.6614 36.8905 31.1573 36.7547 31.1379 36.3672L30.8151 29.9103C30.806 29.7282 30.6749 29.5753 30.4962 29.5385L18.7814 27.1266C18.3726 27.0424 18.3497 26.467 18.7505 26.3507L29.2338 23.3072C29.4387 23.2477 29.5608 23.0379 29.5114 22.8304L27.8517 15.8599C27.7655 15.4978 28.1773 15.2245 28.4774 15.4447Z" fill="#243946"/>
<path d="M84.0368 36.801C84.1779 36.801 84.319 36.8749 84.398 36.9888C84.4713 37.0912 84.4996 37.2335 84.4713 37.3587L84.0707 39.1914L87.8685 45.2356C88.478 46.2032 88.7997 47.3187 88.7997 48.4627V56.6185C88.7997 57.5177 88.1845 58.1381 87.5751 58.3487L86.1756 58.8324L85.3291 60.0561C84.3472 61.479 82.5809 62.401 80.8316 62.401C79.0822 62.401 77.5078 61.6156 76.4694 60.2382L75.1151 58.4454H50.8157L49.4613 60.2439C48.4286 61.6099 46.8429 62.3953 45.1048 62.3953C43.3667 62.3953 41.781 61.6099 40.7371 60.2325L39.3827 58.4398H36.3693C36.279 58.4398 36.1774 58.3885 36.1266 58.3145C36.0814 58.2519 36.0589 58.1495 36.0815 58.0698V58.047L36.4539 56.8803L36.1887 55.6851L36.1761 55.6276C35.961 54.6515 35.3618 51.9327 35.2181 51.0124C35.0826 50.1416 35.7034 49.2879 36.7643 48.8952L45.2572 45.7308C46.5551 45.2527 47.7627 44.564 48.8406 43.6933L54.2468 39.3336C56.267 37.7002 58.812 36.801 61.4135 36.801H84.0368Z" fill="#243946"/>
<path d="M25.6366 36.801C25.7776 36.801 25.9187 36.8749 25.9977 36.9888C26.0711 37.0912 26.0993 37.2335 26.0711 37.3587L25.6705 39.1914L29.4683 45.2356C30.0777 46.2032 30.3994 47.3187 30.3994 48.4627V56.6185C30.3994 57.5177 29.7843 58.1381 29.1748 58.3487L27.7753 58.8324L26.9289 60.0561C25.947 61.479 24.1807 62.401 22.4313 62.401C20.6819 62.401 19.1075 61.6156 18.0692 60.2382L16.7148 58.4454H9.59961V36.801H25.6366Z" fill="#243946"/>
<path d="M42.7749 71.201H63.9996V76.001H42.7749V79.6005C42.7749 79.9573 42.359 80.1356 42.1116 79.8816C41.1787 78.9236 34.3996 73.6053 34.3996 73.6053L42.1221 67.3182C42.3643 67.0695 42.7696 67.2425 42.7749 67.5939V71.5024V71.201Z" fill="#243946"/>
</svg>
