<svg width="96" height="96" viewBox="0 0 96 96" fill="none" xmlns="http://www.w3.org/2000/svg">
<path d="M44.7998 9.59961C48.9607 9.59962 55.4017 10.5298 55.4521 10.5371C55.4521 10.5371 58.6913 11.195 60.2949 12.4092C62.8068 14.3115 63.2002 17.5609 63.2002 20.8389V30.9014L80.7998 48.502L76.2744 53.0273L63.2002 39.9902V72.8896C63.2001 76.8248 62.4515 81.071 59.3262 83.5908C55.8408 86.4003 44.7998 86.4004 44.7998 86.4004C44.7391 86.4004 33.7489 86.3927 30.2734 83.5908C27.148 81.071 26.4005 76.7546 26.4004 72.8193V20.8389C26.4004 17.5609 26.7936 14.3115 29.3057 12.4092C30.9006 11.2017 34.1125 10.5442 34.1475 10.5371C34.192 10.5307 40.637 9.59965 44.7998 9.59961ZM44.7998 27.3955C35.5189 27.3956 31.6184 29.9972 30.5762 30.8643C30.3733 31.0331 30.289 31.2874 30.3154 31.5449L31.1543 39.6641C31.2039 40.1428 31.6217 40.5068 32.1191 40.5068H57.4814C57.9789 40.5068 58.3958 40.1427 58.4453 39.6641L59.2842 31.5449C59.3106 31.2874 59.2272 31.0331 59.0244 30.8643C57.9824 29.9973 54.0813 27.3955 44.7998 27.3955Z" fill="#243946"/>
</svg>
