<svg width="96" height="96" viewBox="0 0 96 96" fill="none" xmlns="http://www.w3.org/2000/svg">
<path d="M27.7832 8.9949L26.6318 11.5125C24.6042 15.948 24.6043 21.0466 26.6318 25.4822L27.542 27.4744L37.9561 21.1463L39.2002 20.3738V26.0066L29.5049 31.8972C31.0983 36.1349 31.3137 40.7498 30.1504 45.0896L37.9561 40.3465L39.2002 39.574V45.2068L27.0557 52.5857L26.6318 53.5125C24.6042 57.948 24.6043 63.0466 26.6318 67.4822L27.3994 69.1619L37.9561 62.7469L39.2002 61.9744V67.6072L29.3809 73.5721C31.5294 79.0183 31.3813 85.1238 28.9336 90.4783L27.7832 92.9949L23.417 90.9998L24.5684 88.4822C26.3561 84.5712 26.5661 80.145 25.2012 76.1121L8.84863 86.0486L8.7998 85.9685V80.4627L23.2686 71.6707L22.2666 69.4783C20.3867 65.366 19.8622 60.8103 20.6934 56.451L8.84863 63.6482L8.7998 63.5681V58.0623L23.3027 49.2508L24.5684 46.4822C26.3068 42.6791 26.5523 38.3891 25.3096 34.4471L8.84863 44.448L8.7998 44.3689V38.8621L23.4121 29.9842L22.2666 27.4783C19.6595 21.7753 19.6596 15.2204 22.2666 9.51736L23.417 6.99979L27.7832 8.9949ZM50.5527 8.24588C52.0188 7.28422 53.8153 6.96621 55.5225 7.366L54.0635 13.5974C55.5228 7.36719 55.5262 7.36721 55.5293 7.36795C55.5305 7.36821 55.5342 7.36847 55.5361 7.36893C55.5408 7.37004 55.5463 7.37153 55.5518 7.37283C55.5628 7.37546 55.5756 7.37816 55.5898 7.38162C55.6189 7.38867 55.6551 7.39742 55.6973 7.40799C55.7822 7.42927 55.894 7.45863 56.0293 7.4949C56.3001 7.56749 56.6698 7.67132 57.123 7.81033C58.0287 8.08812 59.2791 8.5099 60.7598 9.10721C63.7045 10.2951 67.6578 12.2184 71.6445 15.1756C79.7437 21.183 88 31.5325 88 47.9978C87.9999 64.4629 79.7436 74.8117 71.6445 80.8191C67.6578 83.7762 63.7045 85.7006 60.7598 86.8885C59.2792 87.4857 58.0286 87.9066 57.123 88.1844C56.6698 88.3234 56.3001 88.4272 56.0293 88.4998C55.8939 88.5361 55.7822 88.5654 55.6973 88.5867C55.6551 88.5973 55.6189 88.606 55.5898 88.6131C55.5756 88.6165 55.5628 88.6192 55.5518 88.6219C55.5463 88.6232 55.5408 88.6247 55.5361 88.6258C55.5342 88.6262 55.5306 88.6265 55.5293 88.6267C55.5277 88.6271 55.5253 88.6277 55.3418 87.8494L54.0635 82.3972L55.5225 88.6287C53.8153 89.0285 52.0188 88.7106 50.5527 87.7488C49.0867 86.787 48.0788 85.2659 47.7656 83.5408L54.0635 82.3972L47.7656 83.5388V83.5369L47.7646 83.533C47.764 83.5296 47.7637 83.5249 47.7627 83.5193C47.7606 83.5075 47.7568 83.4909 47.7529 83.4695C47.7452 83.4267 47.7349 83.364 47.7207 83.284C47.6923 83.1239 47.6513 82.8907 47.5996 82.5916C47.4961 81.9927 47.3493 81.127 47.1738 80.0467C46.8232 77.8872 46.356 74.8597 45.8887 71.3777C44.9632 64.4817 44 55.5414 44 47.9978C44 40.4541 44.9631 31.5131 45.8887 24.617C46.356 21.135 46.8232 18.1074 47.1738 15.948C47.3493 14.8677 47.4961 14.002 47.5996 13.4031C47.6513 13.1039 47.6923 12.8708 47.7207 12.7107C47.7349 12.6307 47.7452 12.568 47.7529 12.5252C47.7567 12.5039 47.7606 12.4871 47.7627 12.4754C47.7637 12.4697 47.764 12.4651 47.7646 12.4617L47.7656 12.4578V12.4558C47.7656 12.4558 47.7899 12.4591 54.0635 13.5974L47.7656 12.4549C48.0788 10.7296 49.0866 9.20771 50.5527 8.24588ZM54.0635 13.5974C54.0635 13.5974 50.4004 33.7862 50.4004 47.9978C50.4005 62.1837 54.0503 82.3244 54.0635 82.3972C54.182 82.3693 81.5994 75.8871 81.5996 47.9978C81.5996 20.103 54.1717 13.6229 54.0635 13.5974ZM52.585 76.1697C52.5811 76.1706 52.5774 76.1723 52.5762 76.1726C52.5775 76.1724 52.5822 76.1709 52.5869 76.1697L52.5898 76.1687C52.5881 76.1691 52.5851 76.1697 52.585 76.1697ZM52.585 19.825C52.5868 19.8254 52.5895 19.8254 52.5918 19.826C52.5904 19.8256 52.5877 19.8251 52.5869 19.825C52.5821 19.8238 52.5774 19.8223 52.5762 19.8221C52.5773 19.8223 52.5811 19.8241 52.585 19.825Z" fill="#243946"/>
</svg>
