<svg width="96" height="96" viewBox="0 0 96 96" fill="none" xmlns="http://www.w3.org/2000/svg">
<path d="M17.8267 24.4156C16.6206 27.3274 15.9998 30.4483 15.9998 33.6H22.3998C22.3998 31.2887 22.855 29.0001 23.7395 26.8647C24.624 24.7294 25.9204 22.7892 27.5547 21.1549C29.189 19.5206 31.1292 18.2242 33.2646 17.3397C35.3999 16.4552 37.6885 16 39.9998 16L39.9998 9.59998C36.8481 9.59998 33.7272 10.2208 30.8154 11.4269C27.9036 12.633 25.2579 14.4008 23.0292 16.6294C20.8006 18.858 19.0328 21.5038 17.8267 24.4156Z" fill="#243946"/>
<path d="M36.9383 26.2089C37.9089 25.8069 38.9492 25.6 39.9998 25.6V20.8C38.3189 20.8 36.6544 21.1311 35.1015 21.7743C33.5485 22.4176 32.1374 23.3604 30.9488 24.549C29.7603 25.7376 28.8174 27.1487 28.1741 28.7016C27.5309 30.2546 27.1998 31.9191 27.1998 33.6H31.9998C31.9998 32.5494 32.2067 31.5091 32.6088 30.5385C33.0108 29.5679 33.6001 28.686 34.343 27.9431C35.0858 27.2003 35.9677 26.611 36.9383 26.2089Z" fill="#243946"/>
<path d="M4.7998 9.59998H11.1998V86.4H4.7998V9.59998Z" fill="#243946"/>
<path d="M54.2929 16H79.2924C80.1289 16 80.7461 16.6146 80.8099 17.3433C81.5197 25.4495 82.5135 38.5324 82.5135 48C82.5135 57.4676 81.5197 70.5505 80.8099 78.6567C80.7461 79.3853 80.1289 80 79.2924 80H54.2929C53.4767 80 52.8846 79.4162 52.8042 78.7311C52.3798 75.1134 51.876 70.4729 51.4492 65.6H45.025C45.4719 70.7932 46.0073 75.7218 46.4478 79.4768C46.9138 83.4485 50.294 86.4 54.2929 86.4H79.2924C83.3945 86.4 86.8276 83.3014 87.1855 79.2149C87.8955 71.1066 88.9135 57.7755 88.9135 48C88.9135 38.2244 87.8955 24.8934 87.1855 16.785C86.8276 12.6985 83.3945 9.59998 79.2924 9.59998H54.2929C50.294 9.59998 46.9138 12.5514 46.4478 16.5231C45.8283 21.8037 45.0212 29.4054 44.5365 36.8H50.9503C51.4247 29.7399 52.1959 22.4538 52.8042 17.2689C52.8846 16.5837 53.4767 16 54.2929 16Z" fill="#243946"/>
<path d="M58.5121 30.1277C57.1876 30.2664 56.2568 31.4749 56.4328 32.7951L57.3912 39.9829C57.5683 41.3115 58.7991 42.2401 60.1299 42.0804C61.9864 41.8575 64.5555 41.6 66.5135 41.6C68.4714 41.6 71.0406 41.8575 72.897 42.0804C74.2278 42.2401 75.4586 41.3115 75.6357 39.9829L76.5941 32.7951C76.7701 31.4749 75.8394 30.2664 74.5148 30.1277C72.3007 29.8958 68.9905 29.6 66.5135 29.6C64.0364 29.6 60.7263 29.8958 58.5121 30.1277Z" fill="#243946"/>
<path d="M74.2572 74.8556C75.6785 74.755 76.6772 73.4317 76.4059 72.0329L75.7314 68.555C75.4948 67.335 74.3664 66.4963 73.128 66.6005C71.2584 66.7577 68.554 66.95 66.5135 66.95C64.4729 66.95 61.7685 66.7577 59.8989 66.6005C58.6606 66.4963 57.5321 67.335 57.2955 68.555L56.621 72.0329C56.3497 73.4317 57.3484 74.755 58.7697 74.8556C60.9771 75.0118 64.1307 75.2 66.5135 75.2C68.8962 75.2 72.0498 75.0118 74.2572 74.8556Z" fill="#243946"/>
<path d="M49.0272 44.4118L44.5017 39.8863L26.3998 57.9882L30.9253 62.5137L49.0272 44.4118Z" fill="#243946"/>
</svg>
