<svg width="96" height="96" viewBox="0 0 96 96" fill="none" xmlns="http://www.w3.org/2000/svg">
<path d="M80.2812 16.3844C83.5771 16.3845 86.249 19.0563 86.249 22.3522V72.6481C86.249 76.8881 82.8091 80.3199 78.5771 80.3199H17.1934C12.9534 80.3199 9.52051 76.8801 9.52051 72.6481V51.3522C9.52054 47.8723 10.7371 44.5046 12.9609 41.8326L21.2168 31.9127C29.4008 22.0727 41.5369 16.3844 54.3369 16.3844H80.2812ZM69.4355 57.6002V65.1041H65.9971C65.6504 65.1042 65.4716 65.6129 65.709 65.9235L72.8008 75.1998L79.8926 65.9235C80.1297 65.6128 79.9501 65.1041 79.6035 65.1041H76.165V57.6002H69.4355ZM65.709 45.276C65.4715 45.5866 65.6504 46.0963 65.9971 46.0963H69.4355V52.8004H76.165V46.0963H79.6035C79.9502 46.0963 80.13 45.5866 79.8926 45.276L72.8008 35.9996L65.709 45.276ZM54.3369 22.776C43.4009 22.776 33.1209 27.6006 26.1289 36.0006L18.1035 45.6002H30.4004L35.5615 39.3766C40.0575 33.9686 46.721 30.8483 53.7529 30.8483H80.001V22.776H54.3369Z" fill="#243946"/>
</svg>
