<svg width="96" height="96" viewBox="0 0 96 96" fill="none" xmlns="http://www.w3.org/2000/svg">
<path d="M48 21.5994C70.9793 21.5992 84.7801 30.4048 88.8486 33.4373C90.9291 34.9882 91.2142 37.7511 89.9717 39.7107L70.1768 70.9285C68.8915 72.9553 66.3442 73.6987 64.1914 72.782C62.6796 72.1381 59.9368 71.0335 56.8682 70.0955C53.7446 69.1407 50.5317 68.4373 48 68.4373C47.7827 68.4373 47.5599 68.4438 47.333 68.4539L49.4199 73.0134C51.3775 73.6188 52.7996 75.4429 52.7998 77.5994C52.7998 80.2503 50.6509 82.4 48 82.4001C45.3491 82.4 43.2002 80.2503 43.2002 77.5994C43.2003 76.9161 43.3432 76.2659 43.6006 75.6775L40.8223 69.6072C40.2587 69.7601 39.6931 69.9236 39.1309 70.0955C36.0622 71.0335 33.3203 72.1382 31.8086 72.782C29.6557 73.6987 27.1075 72.9554 25.8223 70.9285L6.02832 39.7107C4.78579 37.751 5.07077 34.9882 7.15137 33.4373L7.56152 33.1365C12.0916 29.8632 25.7389 21.5996 48 21.5994ZM23.6318 32.0408C18.2592 33.9752 14.4685 36.1829 12.293 37.6404L30.5205 66.3865C32.2174 65.6962 34.6169 64.7832 37.2598 63.9753C37.5442 63.8884 37.8339 63.8027 38.127 63.7175L23.6318 32.0408ZM48 27.9998C40.9742 27.9998 34.9059 28.8878 29.8115 30.1648L44.5166 62.2986C45.6998 62.134 46.8734 62.0369 48 62.0369C51.4931 62.0369 55.4323 62.9645 58.7393 63.9753C61.3816 64.7831 63.7806 65.6962 65.4775 66.3865L83.7061 37.6404C79.0602 34.5279 67.0504 27.9997 48 27.9998Z" fill="#243946"/>
</svg>
