<svg width="96" height="96" viewBox="0 0 96 96" fill="none" xmlns="http://www.w3.org/2000/svg">
<path d="M51.2002 9.59961C55.3624 9.59968 61.8063 10.5304 61.8525 10.5371C61.8984 10.5465 65.1022 11.2037 66.6943 12.4092C69.2064 14.3115 69.5996 17.5609 69.5996 20.8389V72.8193C69.5995 76.7545 68.8519 81.071 65.7266 83.5908C62.2544 86.3902 51.2812 86.4004 51.2002 86.4004C51.2002 86.4004 40.1593 86.4002 36.6738 83.5908C33.5485 81.071 32.7999 76.8248 32.7998 72.8896V39.9902L19.7256 53.0273L15.2002 48.502L32.7998 30.9014V20.8389C32.7998 17.5609 33.193 14.3115 35.7051 12.4092C37.3087 11.195 40.5479 10.5371 40.5479 10.5371C40.6126 10.5278 47.044 9.59963 51.2002 9.59961ZM51.2002 27.3955C41.9187 27.3955 38.0176 29.9973 36.9756 30.8643C36.7728 31.0331 36.6894 31.2874 36.7158 31.5449L37.5547 39.6641C37.6043 40.1428 38.0211 40.5068 38.5186 40.5068H63.8809C64.3783 40.5068 64.7951 40.1428 64.8447 39.6641L65.6846 31.5449C65.711 31.2874 65.6267 31.0331 65.4238 30.8643C64.3818 29.9973 60.4813 27.3956 51.2002 27.3955Z" fill="#243946"/>
</svg>
