<svg width="96" height="96" viewBox="0 0 96 96" fill="none" xmlns="http://www.w3.org/2000/svg">
<path d="M50.3999 86.4014H45.6001V81.6006H50.3999V86.4014ZM48.0005 30.4014C70.9791 30.4013 84.7794 39.2056 88.8481 42.2383C90.9288 43.7891 91.2146 46.552 89.9722 48.5117L70.1772 79.7295C68.892 81.7563 66.3447 82.4996 64.1919 81.583C62.6801 80.9392 59.9373 79.8355 56.8687 78.8975C53.7451 77.9426 50.5323 77.2384 48.0005 77.2383C45.4686 77.2383 42.2551 77.9426 39.1313 78.8975C36.0629 79.8355 33.3208 80.9392 31.8091 81.583C29.6562 82.4998 27.108 81.7564 25.8228 79.7295L6.02783 48.5117C4.78547 46.5521 5.07134 43.7891 7.15186 42.2383L7.56201 41.9375C12.0923 38.6641 25.7398 30.4016 48.0005 30.4014ZM48.0005 36.8008C28.9498 36.801 16.9391 43.329 12.2935 46.4414L30.521 75.1875C32.2179 74.4972 34.6174 73.5843 37.2603 72.7764C40.5673 71.7655 44.5072 70.8389 48.0005 70.8389C51.4936 70.839 55.4328 71.7655 58.7397 72.7764C61.3822 73.5841 63.7811 74.4972 65.478 75.1875L83.7065 46.4414C79.0607 43.3289 67.0507 36.8007 48.0005 36.8008ZM50.3999 65.6006H45.6001V60.8008H50.3999V65.6006ZM50.3999 56.001H45.6001V51.2012H50.3999V56.001ZM50.3999 46.4014H45.6001V41.6006H50.3999V46.4014ZM25.2114 21.0146C25.036 21.3696 24.8743 21.7329 24.7251 22.1016C23.9739 23.9576 23.5867 25.8477 23.3911 27.2969C23.2942 28.015 23.2467 28.61 23.2231 29.0176C23.2114 29.2206 23.2053 29.3765 23.2026 29.4766C23.2013 29.5263 23.2 29.5629 23.1997 29.584V29.6025C23.1911 29.6018 23.0518 29.6006 20.8003 29.6006C18.403 29.6006 18.3999 29.5986 18.3999 29.5986V29.5732C18.4 29.56 18.4006 29.5425 18.4009 29.5215C18.4014 29.479 18.4018 29.4204 18.4038 29.3477C18.4077 29.2018 18.4154 28.9967 18.4302 28.7412C18.4597 28.2302 18.5187 27.5117 18.6343 26.6553C18.8637 24.9546 19.3263 22.6435 20.2749 20.2998C20.5009 19.7414 20.7579 19.1752 21.0483 18.6104L25.2114 21.0146ZM74.8013 18.3271C75.154 18.9856 75.4612 19.6479 75.7251 20.2998C76.6737 22.6435 77.1362 24.9546 77.3657 26.6553C77.4813 27.5117 77.5403 28.2302 77.5698 28.7412C77.5846 28.9967 77.5923 29.2018 77.5962 29.3477C77.5982 29.4204 77.5986 29.479 77.5991 29.5215C77.5994 29.5425 77.6 29.56 77.6001 29.5732V29.5986C77.5957 29.5997 77.4941 29.6006 75.1997 29.6006C72.9217 29.6006 72.8061 29.6018 72.8003 29.6025V29.584C72.8 29.5629 72.7987 29.5263 72.7974 29.4766C72.7947 29.3765 72.7896 29.2206 72.7778 29.0176C72.7543 28.61 72.7067 28.015 72.6099 27.2969C72.4143 25.8476 72.0262 23.9577 71.2749 22.1016C71.2513 22.0433 71.2259 21.9857 71.2017 21.9277L74.8013 18.3271ZM52.0005 22.8008L50.8003 27.2012H45.1997L44.0005 22.8008L48.0005 20.8008L52.0005 22.8008ZM36.0005 10.4717C39.1882 10.759 41.7618 11.9042 43.7886 13.5732C44.7124 14.334 45.5004 15.1883 46.1763 16.0869L41.7417 18.2432C41.4302 17.898 41.0961 17.5742 40.7368 17.2783C39.5583 16.3079 38.0339 15.5587 36.0005 15.2998V10.4717ZM60.0005 15.2998C57.9669 15.5587 56.4418 16.3078 55.2632 17.2783C54.9039 17.5743 54.5698 17.8979 54.2583 18.2432L49.8228 16.0869C50.4987 15.1881 51.2875 14.3342 52.2114 13.5732C54.2383 11.9041 56.8126 10.759 60.0005 10.4717V15.2998ZM64.8003 10.6963C67.2623 11.1712 69.3127 12.193 70.9888 13.5732C71.3171 13.8437 71.6269 14.1284 71.9224 14.4199L68.5288 17.8125C68.3392 17.6265 68.1425 17.4475 67.937 17.2783C67.0903 16.5811 66.0645 15.9982 64.8003 15.6289V10.6963ZM31.1997 15.6289C29.9927 15.9815 29.0041 16.5298 28.1802 17.1855L23.8257 14.6709C24.1942 14.2889 24.5896 13.9213 25.0122 13.5732C26.6882 12.1931 28.738 11.1712 31.1997 10.6963V15.6289Z" fill="#243946"/>
</svg>
