<svg width="96" height="96" viewBox="0 0 96 96" fill="none" xmlns="http://www.w3.org/2000/svg">
<path d="M48 9.59961C52.1629 9.59961 58.6084 10.5308 58.6523 10.5371C58.6704 10.5408 61.8949 11.1986 63.4941 12.4092C66.0062 14.3115 66.4004 17.5609 66.4004 20.8389V30.9014L84 48.502L79.4746 53.0273L66.4004 39.9902V72.8193C66.4003 76.7546 65.6518 81.071 62.5264 83.5908C59.0448 86.3974 48.0232 86.4004 48 86.4004C47.9972 86.4004 36.9584 86.4 33.4736 83.5908C30.3483 81.071 29.5997 76.8248 29.5996 72.8896V39.9902L16.5254 53.0273L12 48.502L29.5996 30.9014V20.8389C29.5996 17.5609 29.9938 14.3115 32.5059 12.4092C34.1051 11.1986 37.3295 10.5408 37.3477 10.5371C37.3825 10.5321 43.834 9.59962 48 9.59961ZM48 27.3955C38.7185 27.3955 34.8174 29.9973 33.7754 30.8643C33.5728 31.0331 33.4892 31.2875 33.5156 31.5449L34.3545 39.6641C34.404 40.1427 34.821 40.5066 35.3184 40.5068H60.6816C61.179 40.5066 61.596 40.1427 61.6455 39.6641L62.4844 31.5449C62.5108 31.2875 62.4272 31.0331 62.2246 30.8643C61.1826 29.9973 57.2814 27.3955 48 27.3955Z" fill="#243946"/>
</svg>
