<svg width="96" height="96" viewBox="0 0 96 96" fill="none" xmlns="http://www.w3.org/2000/svg">
<path d="M48.001 30.3998C70.9797 30.3997 84.7799 39.205 88.8486 42.2377C90.9294 43.7886 91.2153 46.5514 89.9727 48.5111L70.1777 79.7289C68.8925 81.7555 66.3451 82.4989 64.1924 81.5824C62.6806 80.9385 59.9377 79.8339 56.8691 78.8959C53.9186 77.994 50.8883 77.3159 48.4277 77.2435L49.4209 79.4135C51.3785 80.019 52.8008 81.8438 52.8008 84.0004C52.8005 86.651 50.6516 88.7999 48.001 88.8002C45.3502 88.8001 43.2004 86.6511 43.2002 84.0004C43.2002 83.317 43.3442 82.6669 43.6016 82.0785L41.8057 78.1527C40.9193 78.3735 40.0215 78.6239 39.1318 78.8959C36.0633 79.8339 33.3213 80.9386 31.8096 81.5824C29.6568 82.499 27.1085 81.7557 25.8232 79.7289L6.02832 48.5111C4.7859 46.5515 5.07192 43.7886 7.15234 42.2377L7.5625 41.9369C12.0926 38.6636 25.7401 30.4001 48.001 30.3998ZM24.5791 40.5111C18.7037 42.5204 14.595 44.8992 12.2939 46.4408L30.5215 75.1869C32.2184 74.4966 34.6179 73.5836 37.2607 72.7758C37.8555 72.5939 38.4712 72.415 39.1006 72.2435L24.5791 40.5111ZM48.001 36.8002C41.4242 36.8003 35.686 37.5781 30.8008 38.725L45.5586 70.973C46.3872 70.8869 47.2058 70.8373 48.001 70.8373C51.4941 70.8374 55.4333 71.7649 58.7402 72.7758C61.3826 73.5835 63.7816 74.4966 65.4785 75.1869L83.707 46.4408C79.0611 43.3282 67.051 36.8001 48.001 36.8002ZM50.4004 65.6H45.6006V60.8002H50.4004V65.6ZM50.4004 56.0004H45.6006V51.1996H50.4004V56.0004ZM50.4004 46.3998H45.6006V41.6H50.4004V46.3998ZM25.2119 21.0131C25.0364 21.3682 24.8749 21.7321 24.7256 22.101C23.9744 23.957 23.5871 25.8471 23.3916 27.2963C23.2948 28.0141 23.2472 28.6084 23.2236 29.016C23.2119 29.2193 23.2058 29.3758 23.2031 29.476C23.2018 29.5253 23.2005 29.5613 23.2002 29.5824V29.6019C23.1896 29.6012 23.0357 29.6 20.8008 29.6C18.4163 29.6 18.4005 29.5981 18.4004 29.598V29.5726C18.4005 29.5593 18.4011 29.5412 18.4014 29.5199C18.4019 29.4775 18.4023 29.4195 18.4043 29.347C18.4082 29.2011 18.4159 28.9954 18.4307 28.7396C18.4602 28.2286 18.5192 27.5102 18.6348 26.6537C18.8642 24.9531 19.3268 22.6428 20.2754 20.2992C20.5014 19.7408 20.7584 19.1745 21.0488 18.6097L25.2119 21.0131ZM74.8018 18.3265C75.1545 18.985 75.4617 19.6472 75.7256 20.2992C76.6742 22.6428 77.1367 24.953 77.3662 26.6537C77.4818 27.5102 77.5408 28.2285 77.5703 28.7396C77.5851 28.9954 77.5927 29.2011 77.5967 29.347C77.5986 29.4195 77.5991 29.4775 77.5996 29.5199C77.5999 29.5412 77.6005 29.5593 77.6006 29.5726V29.598C77.5935 29.5991 77.4656 29.6 75.2002 29.6C72.9097 29.6 72.8055 29.6011 72.8008 29.6019V29.5824C72.8005 29.5613 72.7992 29.5253 72.7979 29.476C72.7952 29.3758 72.7901 29.2193 72.7783 29.016C72.7547 28.6084 72.7072 28.0141 72.6104 27.2963C72.4148 25.8471 72.0266 23.957 71.2754 22.101C71.2518 22.0426 71.2264 21.9842 71.2021 21.9261L74.8018 18.3265ZM52.001 22.8002L50.8008 27.1996H45.2002L44.001 22.8002L48.001 20.8002L52.001 22.8002ZM36.001 10.4711C39.1886 10.7584 41.7623 11.9036 43.7891 13.5726C44.7128 14.3334 45.5009 15.1877 46.1768 16.0863L41.7422 18.2426C41.4308 17.8975 41.0965 17.5735 40.7373 17.2777C39.5588 16.3073 38.0342 15.5581 36.001 15.2992V10.4711ZM60.001 15.2992C57.9675 15.5581 56.4422 16.3072 55.2637 17.2777C54.9044 17.5736 54.5703 17.8974 54.2588 18.2426L49.8232 16.0863C50.4991 15.1876 51.2881 14.3335 52.2119 13.5726C54.2387 11.9035 56.8132 10.7584 60.001 10.4711V15.2992ZM64.8008 10.6957C67.2627 11.1706 69.3132 12.1924 70.9893 13.5726C71.3175 13.843 71.6275 14.1269 71.9229 14.4183L68.5293 17.8119C68.3397 17.626 68.1429 17.4469 67.9375 17.2777C67.0908 16.5805 66.0649 15.9976 64.8008 15.6283V10.6957ZM31.2002 15.6283C29.9935 15.9809 29.0045 16.5284 28.1807 17.184L23.8262 14.6703C24.1947 14.2882 24.5901 13.9207 25.0127 13.5726C26.6887 12.1925 28.7385 11.1706 31.2002 10.6957V15.6283Z" fill="#243946"/>
</svg>
