<svg width="96" height="96" viewBox="0 0 96 96" fill="none" xmlns="http://www.w3.org/2000/svg">
<path d="M51.2004 41.9307C51.2004 40.5341 52.3105 39.4019 53.6799 39.4019H73.0203V30.6136C73.0203 29.7274 74.0582 29.2696 74.6913 29.8764L93.6004 48L74.6913 66.1236C74.0582 66.7304 73.0203 66.2726 73.0203 65.3865V56.5982H53.6799C52.3105 56.5982 51.2004 55.466 51.2004 54.0693V41.9307Z" fill="#243946"/>
<path d="M44.8004 54.0693C44.8004 55.466 43.6903 56.5982 42.3209 56.5982L22.9805 56.5982V65.3865C22.9805 66.2726 21.9426 66.7304 21.3095 66.1236L2.40039 48L21.3095 29.8764C21.9426 29.2696 22.9805 29.7274 22.9805 30.6136L22.9805 39.4019L42.3209 39.4019C43.6903 39.4019 44.8004 40.5341 44.8004 41.9307L44.8004 54.0693Z" fill="#243946"/>
</svg>
