<svg width="96" height="96" viewBox="0 0 96 96" fill="none" xmlns="http://www.w3.org/2000/svg">
<path d="M43.8594 14.2525C45.7143 11.0923 50.2836 11.0925 52.1387 14.2525L86.0176 71.9702C87.8371 75.0701 85.7284 78.9485 82.2217 79.188L81.8779 79.1997H14.1201C10.4102 79.1993 8.10363 75.1699 9.98145 71.9702L43.8594 14.2525ZM16.915 72.8003H79.084L47.999 19.8423L16.915 72.8003ZM46.6143 35.1997C47.2302 34.1336 48.7698 34.1336 49.3857 35.1997L66.0137 64.0005C66.629 65.0671 65.8584 66.3999 64.627 66.3999H31.373L31.2588 66.396C30.0945 66.317 29.3903 65.0338 29.9863 64.0005L46.6143 35.1997ZM39.6855 60.0005H56.3145L48 45.6001L39.6855 60.0005Z" fill="#243946"/>
</svg>
