<svg width="96" height="96" viewBox="0 0 96 96" fill="none" xmlns="http://www.w3.org/2000/svg">
<path d="M31.165 21.0878C34.1375 20.5787 37.1858 20.7467 40.0851 21.5792C42.9844 22.4117 45.7719 24.2285 48.0283 26.239C50.1817 24.3395 52.8408 22.5927 55.5819 21.7544C58.3229 20.9162 61.2103 20.6751 64.0514 21.0473L64.8776 21.1688C68.4588 21.7903 71.8061 23.3737 74.5651 25.7512C77.324 28.1287 79.3919 31.2119 80.5498 34.6743C81.7077 38.1367 81.9125 41.8494 81.1424 45.4192C80.3724 48.989 78.6562 52.2831 76.1756 54.9525L75.5711 55.577L75.4098 55.7154L48.0283 81.6L20.4985 55.5703C17.8325 52.9631 15.9366 49.6652 15.0206 46.0417C14.1046 42.4182 14.2043 38.6106 15.3086 35.0405C16.413 31.4705 18.4789 28.2773 21.2775 25.8147C24.0761 23.352 27.4983 21.716 31.165 21.0878Z" fill="#243946"/>
</svg>
