<svg width="96" height="96" viewBox="0 0 96 96" fill="none" xmlns="http://www.w3.org/2000/svg">
<path fill-rule="evenodd" clip-rule="evenodd" d="M48.0281 26.239C45.7718 24.2285 42.9843 22.4117 40.085 21.5792C37.1856 20.7467 34.1374 20.5787 31.1649 21.0878C27.4982 21.716 24.076 23.352 21.2774 25.8147C18.4787 28.2773 16.4128 31.4705 15.3085 35.0405C14.2042 38.6106 14.1045 42.4182 15.0205 46.0417C15.9365 49.6652 17.8324 52.9631 20.4983 55.5703L48.0281 81.6L75.4097 55.7154L75.5709 55.577L76.1755 54.9525C78.6561 52.2831 80.3723 48.989 81.1423 45.4192C81.9124 41.8494 81.7076 38.1367 80.5497 34.6743C79.3918 31.2119 77.3239 28.1287 74.5649 25.7512C71.806 23.3737 68.4587 21.7903 64.8775 21.1688L64.0513 21.0473C61.2102 20.6751 58.3228 20.9162 55.5818 21.7544C52.8407 22.5927 50.1816 24.3395 48.0281 26.239ZM62.9575 28.9725C61.2679 28.759 59.552 28.906 57.9212 29.4047C56.633 29.7987 54.9572 30.7946 53.3202 32.2386L48.0013 36.9302L42.706 32.2119C40.9973 30.6893 39.2451 29.6613 37.877 29.2685C36.1339 28.7679 34.3021 28.6671 32.5158 28.9729M62.9575 28.9725L63.5983 29.0667C65.7171 29.4508 67.7005 30.3964 69.3425 31.8114C71.0078 33.2465 72.2604 35.1114 72.9627 37.2116C73.6651 39.3119 73.7896 41.5655 73.3222 43.7323C72.8599 45.8755 71.8366 47.8505 70.3636 49.4543L70.0797 49.7476L70.0532 49.7703L48.0287 70.5908L26.0498 49.8095C24.4616 48.2412 23.3275 46.2606 22.7765 44.081C22.2206 41.8819 22.2812 39.5707 22.9512 37.4047C23.6212 35.2389 24.8728 33.3071 26.5622 31.8205C28.2511 30.3344 30.3125 29.3505 32.5158 28.9729" fill="#243946"/>
</svg>
