<svg width="96" height="96" viewBox="0 0 96 96" fill="none" xmlns="http://www.w3.org/2000/svg">
<path d="M48.0005 23.2002C70.9786 23.2001 84.779 32.0043 88.8481 35.0371C90.9288 36.5879 91.2145 39.3509 89.9722 41.3105L70.1772 72.5293C68.8919 74.5558 66.3446 75.2985 64.1919 74.3818C62.6801 73.738 59.9373 72.6343 56.8687 71.6963C53.7451 70.7415 50.5322 70.0372 48.0005 70.0371C45.4686 70.0372 42.255 70.7414 39.1313 71.6963C36.063 72.6343 33.3208 73.738 31.8091 74.3818C29.6563 75.2985 27.108 74.556 25.8228 72.5293L6.02783 41.3105C4.78572 39.3509 5.07154 36.5879 7.15186 35.0371L7.56201 34.7363C12.0923 31.4629 25.7399 23.2005 48.0005 23.2002ZM34.3599 51.3193C33.9785 52.4157 32.9425 53.2 31.7202 53.2002H21.145L30.521 67.9863C32.2179 67.2961 34.6175 66.3841 37.2603 65.5762C40.5673 64.5653 44.5072 63.6378 48.0005 63.6377C51.4937 63.6378 55.4328 64.5653 58.7397 65.5762C61.382 66.3839 63.7811 67.2961 65.478 67.9863L74.855 53.2002H64.2847C63.0929 53.2001 62.0317 52.445 61.6401 51.3193L60.4302 47.8447L56.1646 56.6162C55.0903 58.8239 51.8968 58.6782 51.0278 56.3818L47.9692 48.2998L44.9644 56.0293C44.0839 58.2924 40.9364 58.4385 39.8501 56.2666L35.5981 47.7617L34.3599 51.3193ZM48.0005 29.5996C28.9499 29.5999 16.9391 36.1279 12.2935 39.2402L18.1011 48.4004H30.2935L32.6216 41.707L32.7046 41.4941C33.6348 39.3573 36.6968 39.229 37.77 41.375L42.1255 50.084L45.3853 41.7012C46.2867 39.3847 49.4955 39.3274 50.521 41.5078L50.6138 41.7256L53.8755 50.3467L58.2202 41.416L58.3286 41.2129C59.4729 39.2546 62.393 39.4271 63.2993 41.5059L63.3833 41.7207L65.7065 48.4004H77.8989L83.7065 39.2402C79.0606 36.1277 67.0506 29.5995 48.0005 29.5996Z" fill="#243946"/>
</svg>
