<svg width="96" height="96" viewBox="0 0 96 96" fill="none" xmlns="http://www.w3.org/2000/svg">
<path fill-rule="evenodd" clip-rule="evenodd" d="M9.6001 44C9.6001 27.2105 23.2106 13.6 40.0001 13.6H56.0001C72.7896 13.6 86.4001 27.2106 86.4001 44V52C86.4001 68.7895 72.7896 82.4 56.0001 82.4H40.0001C23.2106 82.4 9.6001 68.7895 9.6001 52V44ZM40.0001 21.6H56.0001C65.9104 21.6 74.3176 28.0358 77.2701 36.956L77.2003 36.8C77.7984 38.7936 76.3056 40.8 74.2242 40.8H68.6647C67.5921 40.8 66.68 40.0175 66.5169 38.9574L65.8265 34.4701C65.4663 32.1285 63.4515 30.4 61.0823 30.4H34.9184C32.5492 30.4 30.5344 32.1285 30.1742 34.4701L29.4838 38.9573C29.3207 40.0175 28.4086 40.8 27.336 40.8H21.7765C19.6951 40.8 18.2023 38.7936 18.8003 36.8L18.7287 36.9602C21.68 28.0378 30.0882 21.6 40.0001 21.6ZM20.3864 62.8281C24.2037 69.728 31.5563 74.4 40.0001 74.4H56.0001C64.4389 74.4 71.7878 69.7335 75.6071 62.8402C75.6686 61.7852 74.8371 60.8 73.6783 60.8C73.6268 60.8 73.5759 60.8103 73.5285 60.8302L61.3782 65.9462C59.4128 66.7737 57.3018 67.2 55.1693 67.2H40.8314C38.6989 67.2 36.5879 66.7737 34.6225 65.9462L22.4896 60.8376C22.4307 60.8128 22.3674 60.8 22.3035 60.8C21.1517 60.8 20.3252 61.7794 20.3864 62.8281ZM50.1863 37.1804C50.1863 37.1804 50.186 37.181 48.0001 36.1902C45.8141 35.1994 45.8139 35.2 45.8139 35.2L45.8128 35.2023L45.8109 35.2065L45.8054 35.2188L45.7877 35.2585C45.7731 35.2915 45.7529 35.3376 45.7279 35.3955C45.6779 35.5113 45.6086 35.6751 45.5263 35.8777C45.3624 36.2814 45.1441 36.8472 44.9249 37.5C44.5095 38.7373 44.0001 40.5458 44.0001 42.1902C44.0001 43.8345 44.5095 45.643 44.9249 46.8803C45.1441 47.5332 45.3624 48.0989 45.5263 48.5027C45.6086 48.7053 45.6779 48.8691 45.7279 48.9848C45.7529 49.0428 45.7731 49.0888 45.7877 49.1219L45.8054 49.1616L45.8109 49.1738L45.8128 49.178L45.8136 49.1797C45.8136 49.1797 45.8141 49.181 48.0001 48.1902C45.8141 49.181 45.8139 49.1804 45.8139 49.1804L45.8146 49.182L45.8237 49.2024C45.8325 49.2222 45.8466 49.2544 45.8654 49.2979C45.9029 49.3848 45.9586 49.5161 46.0263 49.683C46.1624 50.0184 46.3441 50.4895 46.5249 51.0279C46.9095 52.1731 47.2001 53.3646 47.2001 54.1902C47.2001 55.0157 46.9095 56.2072 46.5249 57.3524C46.3441 57.8909 46.1624 58.362 46.0263 58.6974C45.9586 58.8643 45.9029 58.9956 45.8654 59.0825C45.8466 59.1259 45.8325 59.1581 45.8237 59.178L45.8146 59.1984L45.8139 59.1999C45.8139 59.1999 45.8141 59.1994 48.0001 60.1902C50.186 61.181 50.1863 61.1803 50.1863 61.1803L50.1874 61.178L50.1893 61.1738L50.1948 61.1615L50.2125 61.1219C50.2271 61.0888 50.2473 61.0428 50.2723 60.9848C50.3223 60.8691 50.3916 60.7053 50.4739 60.5027C50.6378 60.0989 50.8561 59.5332 51.0753 58.8803C51.4907 57.643 52.0001 55.8345 52.0001 54.1902C52.0001 52.5458 51.4907 50.7373 51.0753 49.5C50.8561 48.8472 50.6378 48.2814 50.4739 47.8777C50.3916 47.6751 50.3223 47.5113 50.2723 47.3955C50.2473 47.3376 50.2271 47.2915 50.2125 47.2585L50.1948 47.2188L50.1893 47.2065L50.1874 47.2023L50.1866 47.2007C50.1866 47.2007 50.186 47.1994 48.0001 48.1902C50.186 47.1994 50.1863 47.1999 50.1863 47.1999L50.1856 47.1984L50.1765 47.178L50.1645 47.1507C50.1565 47.1325 50.1466 47.1097 50.1348 47.0825C50.0973 46.9956 50.0416 46.8643 49.9739 46.6974C49.8378 46.362 49.6561 45.8909 49.4753 45.3524C49.0907 44.2072 48.8001 43.0157 48.8001 42.1902C48.8001 41.3646 49.0907 40.1731 49.4753 39.0279C49.6561 38.4895 49.8378 38.0184 49.9739 37.683C50.0416 37.5161 50.0973 37.3848 50.1348 37.2979C50.1536 37.2544 50.1677 37.2222 50.1765 37.2024L50.1856 37.182L50.1863 37.1804ZM41.3863 37.181C41.3863 37.181 41.386 37.1815 39.2001 36.1908C37.0141 35.2 37.0139 35.2006 37.0139 35.2006L37.0109 35.2071L37.0054 35.2194L36.9877 35.2591C36.9731 35.2921 36.9529 35.3382 36.9279 35.3961C36.8779 35.5119 36.8086 35.6757 36.7263 35.8783C36.5624 36.282 36.3441 36.8478 36.1249 37.5006C35.7095 38.7379 35.2001 40.5464 35.2001 42.1908C35.2001 43.8351 35.7095 45.6436 36.1249 46.8809C36.3441 47.5338 36.5624 48.0995 36.7263 48.5033C36.8086 48.7059 36.8779 48.8697 36.9279 48.9854C36.9529 49.0434 36.9731 49.0894 36.9877 49.1225L37.0054 49.1621L37.0109 49.1744L37.0128 49.1786L37.0136 49.1803C37.0136 49.1803 37.0141 49.1815 39.2001 48.1908C37.0141 49.1815 37.0139 49.181 37.0139 49.181L37.0237 49.2029C37.0325 49.2228 37.0466 49.255 37.0654 49.2985C37.1029 49.3854 37.1586 49.5167 37.2263 49.6836C37.3624 50.0189 37.5441 50.4901 37.7249 51.0285C38.1095 52.1737 38.4001 53.3652 38.4001 54.1908C38.4001 55.0163 38.1095 56.2078 37.7249 57.353C37.5441 57.8915 37.3624 58.3626 37.2263 58.6979C37.1586 58.8649 37.1029 58.9962 37.0654 59.0831C37.0466 59.1265 37.0325 59.1587 37.0237 59.1786L37.0139 59.2005C37.0139 59.2005 37.0141 59.2 39.2001 60.1908C41.386 61.1815 41.3863 61.1809 41.3863 61.1809L41.3893 61.1744L41.3948 61.1621L41.4125 61.1224C41.4271 61.0894 41.4473 61.0434 41.4723 60.9854C41.5223 60.8697 41.5916 60.7059 41.6739 60.5033C41.8378 60.0995 42.0561 59.5338 42.2753 58.8809C42.6907 57.6436 43.2001 55.8351 43.2001 54.1908C43.2001 52.5464 42.6907 50.7379 42.2753 49.5006C42.0561 48.8478 41.8378 48.282 41.6739 47.8783C41.5916 47.6757 41.5223 47.5119 41.4723 47.3961C41.4473 47.3382 41.4271 47.2921 41.4125 47.2591L41.3948 47.2194L41.3893 47.2071L41.3874 47.2029L41.3866 47.2013C41.3866 47.2013 41.386 47.2 39.2001 48.1908C41.386 47.2 41.3863 47.2005 41.3863 47.2005L41.3856 47.199L41.3765 47.1786C41.3677 47.1587 41.3536 47.1265 41.3348 47.0831C41.2973 46.9962 41.2416 46.8649 41.1739 46.6979C41.0378 46.3626 40.8561 45.8915 40.6753 45.353C40.2907 44.2078 40.0001 43.0163 40.0001 42.1908C40.0001 41.3652 40.2907 40.1737 40.6753 39.0285C40.8561 38.4901 41.0378 38.0189 41.1739 37.6836C41.2416 37.5167 41.2973 37.3854 41.3348 37.2985C41.3536 37.255 41.3677 37.2228 41.3765 37.2029L41.3856 37.1825L41.3863 37.181ZM56.8001 36.1902C58.986 37.181 58.9863 37.1804 58.9863 37.1804L58.9856 37.182L58.9765 37.2024C58.9677 37.2222 58.9536 37.2544 58.9348 37.2979C58.8973 37.3848 58.8416 37.5161 58.7739 37.683C58.6378 38.0184 58.4561 38.4895 58.2753 39.0279C57.8907 40.1731 57.6001 41.3646 57.6001 42.1902C57.6001 43.0157 57.8907 44.2072 58.2753 45.3524C58.4561 45.8909 58.6378 46.362 58.7739 46.6974C58.8416 46.8643 58.8973 46.9956 58.9348 47.0825C58.9536 47.1259 58.9677 47.1581 58.9765 47.178L58.9856 47.1984L58.9863 47.1999C58.9863 47.1999 58.986 47.1994 56.8001 48.1902C54.6141 49.181 54.6139 49.1803 54.6139 49.1803L54.6128 49.178L54.6109 49.1738L54.6054 49.1616L54.5877 49.1219C54.5731 49.0888 54.5529 49.0428 54.5279 48.9848C54.4779 48.8691 54.4086 48.7053 54.3263 48.5027C54.1624 48.0989 53.9441 47.5332 53.7249 46.8803C53.3095 45.643 52.8001 43.8345 52.8001 42.1902C52.8001 40.5458 53.3095 38.7373 53.7249 37.5C53.9441 36.8472 54.1624 36.2814 54.3263 35.8777C54.4086 35.6751 54.4779 35.5113 54.5279 35.3955C54.5415 35.364 54.5537 35.336 54.5643 35.3117C54.5732 35.2913 54.5811 35.2736 54.5877 35.2585L54.6054 35.2188L54.6109 35.2065L54.6128 35.2023L54.6136 35.2007C54.6136 35.2007 54.6141 35.1994 56.8001 36.1902ZM56.8001 48.1902C58.986 47.1994 58.9863 47.1999 58.9863 47.1999L58.9874 47.2023L58.9948 47.2188L59.0125 47.2585C59.0193 47.274 59.0274 47.2924 59.0367 47.3136C59.0472 47.3374 59.0591 47.3648 59.0723 47.3955C59.1223 47.5113 59.1916 47.6751 59.2739 47.8777C59.4378 48.2814 59.6561 48.8472 59.8753 49.5C60.2907 50.7373 60.8001 52.5458 60.8001 54.1902C60.8001 55.8345 60.2907 57.643 59.8753 58.8803C59.6561 59.5332 59.4378 60.0989 59.2739 60.5027C59.1916 60.7053 59.1223 60.8691 59.0723 60.9848C59.0547 61.0256 59.0395 61.0605 59.0269 61.0891C59.0216 61.1011 59.0168 61.1121 59.0125 61.1219L58.9948 61.1615L58.9874 61.178L58.9866 61.1797C58.9866 61.1797 58.986 61.181 56.8001 60.1902C54.6141 59.1994 54.6139 59.1999 54.6139 59.1999L54.6146 59.1984L54.6237 59.178C54.6325 59.1581 54.6466 59.1259 54.6654 59.0825C54.7029 58.9956 54.7586 58.8643 54.8263 58.6974C54.9624 58.362 55.1441 57.8909 55.3249 57.3524C55.7095 56.2072 56.0001 55.0157 56.0001 54.1902C56.0001 53.3646 55.7095 52.1731 55.3249 51.0279C55.1441 50.4895 54.9624 50.0184 54.8263 49.683C54.7586 49.5161 54.7029 49.3848 54.6654 49.2979C54.6466 49.2544 54.6325 49.2222 54.6237 49.2024L54.6146 49.182L54.6139 49.1803C54.6139 49.1803 54.6141 49.181 56.8001 48.1902Z" fill="#243946"/>
</svg>
