<svg width="96" height="96" viewBox="0 0 96 96" fill="none" xmlns="http://www.w3.org/2000/svg">
<path d="M73.4626 67.8604L53.6638 87.6602L53.3953 87.915C50.5689 90.4688 46.2051 90.3841 43.4812 87.6602L23.6833 67.8604L28.2078 63.3359L48.0076 83.1338C48.32 83.4462 48.826 83.4462 49.1384 83.1338L68.9373 63.3359L73.4626 67.8604ZM73.6003 18.9707C77.1348 18.9708 79.9996 21.1662 79.9998 23.874V44.4678C79.9997 47.1756 77.1348 49.371 73.6003 49.3711H22.4001C18.8656 49.3711 15.9998 47.1757 15.9998 44.4678V23.874C15.9999 21.1661 18.8656 18.9707 22.4001 18.9707H73.6003ZM22.4001 42.9707H28.8005V36.5713H22.4001V42.9707ZM33.6003 42.9707H62.4001V36.5713H33.6003V42.9707ZM67.2 42.9707H73.6003V36.5713H67.2V42.9707ZM22.4001 31.7705H28.8005V25.3711H22.4001V31.7705ZM33.6003 31.7705H39.9998V25.3711H33.6003V31.7705ZM44.8005 31.7705H51.2V25.3711H44.8005V31.7705ZM55.9998 31.7705H62.4001V25.3711H55.9998V31.7705ZM67.2 31.7705H73.6003V25.3711H67.2V31.7705Z" fill="#243946"/>
</svg>
