<svg width="96" height="96" viewBox="0 0 96 96" fill="none" xmlns="http://www.w3.org/2000/svg">
<path d="M22.1924 59.856H6.40039V36.336H11.4404V55.32H22.1924V59.856Z" fill="#243946"/>
<path d="M33.6085 60.192C31.3685 60.192 29.4085 59.7216 27.7285 58.7808C26.0709 57.8176 24.7829 56.4288 23.8645 54.6144C22.9685 52.8 22.5205 50.6272 22.5205 48.096C22.5205 45.5648 22.9685 43.392 23.8645 41.5776C24.7829 39.7632 26.0709 38.3856 27.7285 37.4448C29.4085 36.4816 31.3685 36 33.6085 36C35.8485 36 37.7973 36.4816 39.4549 37.4448C41.1349 38.3856 42.4229 39.7632 43.3189 41.5776C44.2373 43.392 44.6965 45.5648 44.6965 48.096C44.6965 50.6272 44.2373 52.8 43.3189 54.6144C42.4229 56.4288 41.1349 57.8176 39.4549 58.7808C37.7973 59.7216 35.8485 60.192 33.6085 60.192ZM33.6085 55.656C35.4453 55.656 36.9125 55.0064 38.0101 53.7072C39.1077 52.408 39.6565 50.5376 39.6565 48.096C39.6565 45.6544 39.1077 43.784 38.0101 42.4848C36.9125 41.1856 35.4453 40.536 33.6085 40.536C31.7717 40.536 30.3045 41.1856 29.2069 42.4848C28.1093 43.784 27.5605 45.6544 27.5605 48.096C27.5605 50.5376 28.1093 52.408 29.2069 53.7072C30.3045 55.0064 31.7717 55.656 33.6085 55.656Z" fill="#243946"/>
<path d="M58.4804 60.192C56.2404 60.192 54.2804 59.7216 52.6004 58.7808C50.9428 57.8176 49.6548 56.4288 48.7364 54.6144C47.8404 52.8 47.3924 50.6272 47.3924 48.096C47.3924 45.5648 47.8404 43.392 48.7364 41.5776C49.6548 39.7632 50.9428 38.3856 52.6004 37.4448C54.2804 36.4816 56.2404 36 58.4804 36C61.3028 36 63.554 36.6944 65.234 38.0832C66.9364 39.4496 68.1012 41.3312 68.7284 43.728H63.5204C63.05 42.6976 62.4228 41.9136 61.6388 41.376C60.8772 40.816 59.8244 40.536 58.4804 40.536C56.6436 40.536 55.1764 41.1856 54.0788 42.4848C52.9812 43.784 52.4324 45.6544 52.4324 48.096C52.4324 50.5376 52.9812 52.408 54.0788 53.7072C55.1764 55.0064 56.6436 55.656 58.4804 55.656C59.8244 55.656 60.8772 55.3872 61.6388 54.8496C62.4228 54.2896 63.05 53.4944 63.5204 52.464H68.7284C68.1012 54.8608 66.9364 56.7536 65.234 58.1424C63.554 59.5088 61.3028 60.192 58.4804 60.192Z" fill="#243946"/>
<path d="M92.419 59.856H86.6398L80.491 50.112H77.131V59.856H72.091V36.336H77.131V45.744H80.491L86.3374 36.336H91.915L84.6238 47.76L92.419 59.856Z" fill="#243946"/>
</svg>
