<svg width="96" height="96" viewBox="0 0 96 96" fill="none" xmlns="http://www.w3.org/2000/svg">
<path d="M46.1799 48.2104L50.7274 31.7319L46.8715 30.6678L39.9104 55.8923L49.5411 50.9874L47.3906 59.0132L45.0045 58.3739C44.7213 58.298 44.4401 58.7802 44.5588 59.1381L47.2519 67.2583L53.6442 61.5726C53.926 61.3219 53.9236 60.7637 53.6404 60.6879L51.2543 60.0485L55.7295 43.3467L46.1799 48.2104Z" fill="#243946"/>
<path fill-rule="evenodd" clip-rule="evenodd" d="M18.2635 78.4014C12.0161 78.4014 8.17955 71.5606 11.4373 66.2298L41.1728 17.5718C44.2923 12.4673 51.7059 12.4673 54.8253 17.5718L84.5609 66.2298C87.8186 71.5606 83.9821 78.4014 77.7346 78.4014H18.2635ZM46.6338 20.9091C47.2577 19.8882 48.7404 19.8882 49.3643 20.9091L79.0999 69.5671C79.7514 70.6333 78.9841 72.0014 77.7346 72.0014H18.2635C17.014 72.0014 16.2467 70.6333 16.8983 69.5671L46.6338 20.9091Z" fill="#243946"/>
</svg>
