<svg width="96" height="96" viewBox="0 0 96 96" fill="none" xmlns="http://www.w3.org/2000/svg">
<path d="M52.7725 20.8C59.9279 20.8 67.7273 21.2673 74.8232 24.5744C82.3969 28.1043 92.7998 35.2387 92.7998 48.0002C92.7997 60.7617 82.3968 67.8961 74.8232 71.426C67.7273 74.7331 59.9279 75.2004 52.7725 75.2004H50.6611C48.1161 75.2003 45.5524 73.8157 44.417 71.2004C42.7813 67.4327 39.9988 59.3556 40 48.0002C40.0013 36.6459 42.7822 28.5688 44.417 24.801C45.5521 22.1849 48.1164 20.8001 50.6621 20.8H52.7725ZM37.2891 68.0002C37.8777 69.9134 38.481 71.5201 39.0137 72.8H7.2002V68.0002H37.2891ZM50.6621 27.2004C50.5167 27.2004 50.4142 27.239 50.3594 27.2727C50.3122 27.3016 50.2977 27.3266 50.2881 27.3488C48.9238 30.4933 46.4016 37.6998 46.4004 48.0002C46.3993 58.3016 48.9234 65.509 50.2881 68.6525C50.2977 68.6745 50.3117 68.699 50.3584 68.7277C50.4132 68.7614 50.5157 68.8 50.6611 68.8H52.7725C59.7844 68.8 66.374 68.3018 72.1191 65.6242C79.3078 62.2738 86.4003 56.7218 86.4004 48.0002C86.4004 39.2785 79.3078 33.7267 72.1191 30.3762C66.374 27.6986 59.7844 27.2004 52.7725 27.2004H50.6621ZM34.9307 56.8C35.1387 58.5004 35.3983 60.1018 35.6914 61.5998H7.2002V56.8H34.9307ZM34.4404 45.5998C34.4151 46.3842 34.4005 47.1842 34.4004 47.9992C34.4003 48.8146 34.4152 49.6148 34.4404 50.3996H7.2002V45.5998H34.4404ZM35.6934 34.3996C35.4001 35.8976 35.1408 37.4999 34.9326 39.2004H7.2002V34.3996H35.6934ZM39.0146 23.2004C38.4823 24.4801 37.8796 26.0869 37.291 28.0002H7.2002V23.2004H39.0146Z" fill="#243946"/>
</svg>
