<svg width="96" height="96" viewBox="0 0 96 96" fill="none" xmlns="http://www.w3.org/2000/svg">
<path d="M65.5254 76.5087L62.3252 82.0516L2.74316 47.6512L5.94238 42.1093L65.5254 76.5087ZM93.1426 68.8036H86.7432V62.4042H93.1426V68.8036ZM45.4258 18.8417C49.4385 18.1257 53.6177 18.8269 57.1836 20.8856L78.5342 33.2128C80.2537 34.2056 81.2585 35.9526 81.3848 37.7313C81.4961 39.2765 80.9507 40.7377 79.9932 41.8036L79.873 41.9384L79.9873 47.995C80.0312 50.2058 79.4634 52.3673 78.3721 54.2577L73.7393 62.2821C72.0978 65.1251 69.0046 66.1764 66.3936 65.7479C63.1836 67.3357 59.1459 67.2835 55.9092 65.4149C52.7292 63.5789 50.7765 60.4249 50.417 56.9296L50.4141 56.8993L32.3125 46.4481L32.2705 46.4667C29.0674 47.8961 25.3536 47.7656 22.1953 45.9423C19.0295 44.1145 17.0676 40.9604 16.6992 37.4677L16.6953 37.4315L16.334 37.2225C14.7222 36.292 13.6808 34.6204 13.5576 32.8173C13.4804 31.7015 13.7593 30.5183 14.4297 29.5087L14.6436 29.1395L15.1426 28.6405L15.207 28.4423L15.2588 28.2841C15.6094 27.2088 16.6021 24.1645 17.0449 23.0389L17.0459 23.036C18.4928 19.366 22.2857 18.2503 25.209 18.705L35.0283 20.2206L35.0381 20.2216C35.9393 20.3642 36.8846 20.3567 37.8457 20.1854L45.4219 18.8417H45.4258ZM53.9834 26.4286C51.7476 25.1378 49.1038 24.6867 46.5518 25.1415L46.5391 25.1434L38.9629 26.4872C37.3206 26.7793 35.6596 26.8001 34.0391 26.5438L34.0371 26.5428L24.2256 25.0292C24.0837 25.0071 23.8948 25.0001 23.6924 25.0253C23.4924 25.0501 23.3345 25.0987 23.2275 25.1473C23.1268 25.1932 23.0878 25.2313 23.0791 25.2401C23.0753 25.2437 23.0427 25.2747 23 25.3827C22.6467 26.2807 21.7316 29.0759 21.3428 30.2684L20.7549 32.0809L20.5615 32.2733L22.7188 33.5194L23.0645 36.7968C23.2241 38.3096 24.0522 39.6237 25.3955 40.3993C26.741 41.1761 28.2925 41.2331 29.6621 40.6219L32.6855 39.2733L56.4463 52.9921L56.7842 56.2753C56.9393 57.7832 57.7559 59.0905 59.1094 59.8719C60.4461 60.6435 62.2155 60.6743 63.5557 60.0116L65.4004 59.0995L67.4297 59.4325C67.5456 59.4515 67.7284 59.4374 67.8887 59.368C67.957 59.3385 68.0096 59.3045 68.0508 59.2684C68.089 59.235 68.1399 59.1805 68.1963 59.0829L72.8291 51.0585C73.3452 50.1645 73.6093 49.1508 73.5889 48.1219L73.4268 39.5428L74.542 38.2977L53.9834 26.4286ZM93.1426 31.204L92.3428 57.6044H87.543L86.7432 31.204V27.204H93.1426V31.204Z" fill="#243946"/>
</svg>
