<svg width="96" height="96" viewBox="0 0 96 96" fill="none" xmlns="http://www.w3.org/2000/svg">
<path fill-rule="evenodd" clip-rule="evenodd" d="M31.6541 43.1353L31.6521 43.1382L27.2445 49.4454C26.686 50.2462 26.0231 50.9202 25.285 51.4566L25.2768 51.4625L17.2622 57.3343C14.8736 59.0799 12.9807 62.5508 14.5529 66.1691L14.5542 66.1721C15.037 67.2811 16.4875 70.1354 16.9999 71.1435L17.0753 71.292L17.1699 71.4776L17.1694 72.1835L17.2798 72.5954C17.5196 73.7835 18.159 74.8173 19.0026 75.5517C20.3648 76.7396 22.2829 77.1857 24.0806 76.704L24.4844 76.5958L24.5123 76.6183C27.2425 78.8277 30.8597 79.6711 34.3908 78.7249C37.9135 77.781 40.6321 75.2471 41.8863 71.9712L41.9025 71.9287L62.0926 66.5188L62.1164 66.5382C64.8422 68.7556 68.4523 69.6049 71.9991 68.6545C75.6092 67.6872 78.5014 64.8693 79.6486 61.4767C81.7978 59.9333 83.2419 57.0031 82.3922 53.8321L79.9941 44.8821C79.4291 42.7735 78.3023 40.8432 76.7079 39.3109L72.3438 35.1091L72.3339 34.9287C72.2573 33.4978 71.6098 32.079 70.4383 31.0651C69.0912 29.8965 67.1454 29.3724 65.2273 29.8863L41.4136 36.2672C37.4364 37.3329 33.9852 39.7916 31.6541 43.1353ZM29.0474 56.6338L29.049 56.6327L20.4224 63.6177C20.3753 63.5091 20.3768 63.4647 20.3769 63.461C20.3768 63.4486 20.378 63.395 20.4168 63.2913C20.4579 63.1812 20.5348 63.0348 20.6588 62.8756C20.7842 62.7147 20.9225 62.5862 21.0385 62.5015L29.0474 56.6338ZM29.049 56.6327L20.4224 63.6177C20.8075 64.5023 22.1371 67.1259 22.7054 68.2441L23.571 69.9422L23.5708 70.2149L25.9766 69.5703L28.5382 71.6432C29.7209 72.6002 31.236 72.9445 32.7344 72.543C34.2352 72.1409 35.373 71.0838 35.9093 69.6831L37.0927 66.5917L63.5945 59.4906L66.1549 61.5733C67.331 62.53 68.833 62.8771 70.3427 62.4726C71.8338 62.0731 73.1068 60.8431 73.5857 59.4267L74.2447 57.478L75.9156 56.2781C76.0109 56.2096 76.1303 56.0707 76.1946 55.9083C76.2221 55.839 76.2347 55.7777 76.2383 55.723C76.2417 55.6723 76.2396 55.5978 76.2103 55.4886L73.8122 46.5386C73.545 45.5415 73.0152 44.6384 72.2732 43.9254L66.0922 37.9742L66.0001 36.305L43.07 42.4491C40.5764 43.1173 38.3885 44.6674 36.9055 46.7935L36.9047 46.7946L36.9041 46.7955L36.8981 46.8041L32.4905 53.1114C31.5357 54.4792 30.3761 55.668 29.049 56.6327Z" fill="#243946"/>
<path d="M86.644 69.6998L20.1883 87.5065L21.8447 93.6884L88.3004 75.8817L86.644 69.6998Z" fill="#243946"/>
<path fill-rule="evenodd" clip-rule="evenodd" d="M19.962 17.8981C21.5359 14.8091 23.7029 12.0603 26.3391 9.80878C28.9754 7.55721 32.0293 5.84695 35.3265 4.77562C38.6237 3.7043 42.0997 3.29289 45.5559 3.56491C49.0121 3.83692 52.3809 4.78701 55.4699 6.36095C58.5589 7.93489 61.3077 10.1018 63.5593 12.7381C65.8108 15.3743 67.5211 18.4282 68.5924 21.7254L62.5057 23.7031C61.6941 21.2053 60.3984 18.8917 58.6927 16.8945C56.9869 14.8974 54.9045 13.2557 52.5644 12.0634C50.2242 10.871 47.6721 10.1512 45.0537 9.94516C42.4354 9.73909 39.8021 10.0508 37.3042 10.8624C34.8063 11.674 32.4927 12.9696 30.4956 14.6754C28.4984 16.3811 26.8568 18.4635 25.6644 20.8036C24.472 23.1438 23.7523 25.6959 23.5462 28.3143C23.3401 30.9326 23.6518 33.5659 24.4634 36.0638L18.3766 38.0415C17.3053 34.7443 16.8939 31.2683 17.1659 27.8121C17.4379 24.3559 18.388 20.9871 19.962 17.8981Z" fill="#243946"/>
<path d="M31.3918 20.8108L43.1885 22.4018C44.3589 22.5978 45.4385 23.3486 46.0107 24.5074C46.9124 26.3343 46.1949 28.4743 44.4128 29.2865C43.3066 29.791 42.0519 29.6638 41.0441 29.0571L41.0385 29.0539C41.0107 29.0379 40.9815 29.0176 40.9536 29.0017L30.848 22.472C30.0134 21.9363 30.4314 20.6715 31.396 20.8097L31.3918 20.8108Z" fill="#243946"/>
<path d="M10.9379 10.9199L5.73062 8.31556L3.93652 11.8192L9.19495 14.4491L7.53761 17.6856C7.38783 17.9781 7.66749 18.3097 7.98579 18.2053L15.8656 15.4893L13.3276 7.75004C13.2257 7.43953 12.7979 7.40525 12.6417 7.69456L10.9347 10.9262L10.9379 10.9199Z" fill="#243946"/>
</svg>
