<svg width="96" height="96" viewBox="0 0 96 96" fill="none" xmlns="http://www.w3.org/2000/svg">
<path fill-rule="evenodd" clip-rule="evenodd" d="M23.4286 20.5216L12.5867 16.8539L10.1867 21.0108L35.1615 35.43C24.9874 37.0043 13.502 39.8458 10.8834 44.2646C8.84308 47.7077 10.4485 58.342 11.0822 62.0056C11.2246 62.8294 11.1356 63.6726 10.8091 64.4422L9.74404 66.9522C9.29634 68.0073 10.0708 69.1772 11.2169 69.1772H21.2754C22.8461 74.9526 28.1271 79.1995 34.4 79.1995C40.6729 79.1995 45.9539 74.9526 47.5245 69.1772H84V18.0777C79.0307 18.3719 66.9932 20.3923 58.5977 26.1201C53.2931 29.7391 50.189 31.852 48.5234 32.9832L37.7272 26.75C37.0835 26.3784 36.3911 26.0982 35.67 25.9177L32.1941 25.0475C31.473 24.867 30.7806 24.5869 30.1368 24.2152L24.865 21.1715C24.4088 20.9081 23.9276 20.6904 23.4286 20.5216ZM34.4 72.8003C38.3764 72.8003 41.6 69.5767 41.6 65.6003C41.6 61.6238 38.3764 58.4003 34.4 58.4003C30.4235 58.4003 27.2 61.6238 27.2 65.6003C27.2 69.5767 30.4235 72.8003 34.4 72.8003Z" fill="#243946"/>
</svg>
