<svg width="96" height="96" viewBox="0 0 96 96" fill="none" xmlns="http://www.w3.org/2000/svg">
<path d="M9.64941 21.5996C10.515 21.5996 11.2201 22.2929 11.2822 23.1562C12.2171 36.1535 20.1987 41.1905 41.5107 44H84.2822C84.5497 44 84.7999 43.8661 84.9482 43.6436L85.8359 42.3125C86.1327 41.8675 86.6321 41.5996 87.167 41.5996H88.8047C89.6883 41.5997 90.4043 42.3166 90.4043 43.2002V51.2002C90.4042 52.0837 89.6882 52.7997 88.8047 52.7998H87.167C86.6322 52.7998 86.1327 52.5328 85.8359 52.0879L84.9482 50.7559C84.7999 50.5335 84.5496 50.4004 84.2822 50.4004H74.4482C77.5706 52.6535 79.911 55.7363 79.9111 59.5996C79.9111 64.6679 75.8852 68.3958 71.3467 70.665C66.6167 73.03 60.3062 74.4004 53.5107 74.4004C46.7153 74.4004 40.4047 73.03 35.6748 70.665C31.1363 68.3958 27.1104 64.6679 27.1104 59.5996C27.1105 56.7798 28.3578 54.3757 30.2451 52.4062C17.2804 55.5509 12.0296 60.8538 11.2822 71.2441C11.22 72.1074 10.5149 72.7998 9.64941 72.7998H8.00488C7.12134 72.7998 6.40445 72.0837 6.4043 71.2002V23.2002C6.40435 22.3166 7.12128 21.5996 8.00488 21.5996H9.64941ZM53.5107 51.2002C47.4935 51.2002 42.2039 52.4265 38.5371 54.2598C34.6795 56.1886 33.511 58.2614 33.5107 59.5996C33.5107 60.9378 34.6791 63.0114 38.5371 64.9404C42.2039 66.7737 47.4935 68 53.5107 68C59.5279 68 64.8176 66.7737 68.4844 64.9404C72.3424 63.0114 73.5107 60.9378 73.5107 59.5996C73.5105 58.2614 72.3419 56.1886 68.4844 54.2598C64.8176 52.4265 59.5279 51.2002 53.5107 51.2002Z" fill="#243946"/>
</svg>
