<svg width="96" height="96" viewBox="0 0 96 96" fill="none" xmlns="http://www.w3.org/2000/svg">
<path fill-rule="evenodd" clip-rule="evenodd" d="M51.4343 27.9955C51.4343 23.5772 55.016 19.9955 59.4343 19.9955H71.7075C76.1257 19.9955 79.7075 23.5772 79.7075 27.9955V37.2052H80.927C85.3453 37.2052 88.927 40.7869 88.927 45.2052V62.3955C88.927 66.8137 85.3453 70.3955 80.927 70.3955H60.6925C60.6891 70.3955 60.6857 70.3955 60.6824 70.3955H49.3332C49.0572 70.3955 48.7959 70.3342 48.562 70.2245C44.9368 69.463 42.2148 66.2471 42.2148 62.3955V45.2052C42.2148 40.7869 45.7966 37.2052 50.2148 37.2052H51.4343V27.9955ZM73.5611 26.1418V37.2052H57.5806V26.1418H73.5611ZM68.644 47.654H62.4977V51.3147C62.5003 52.8124 62.5052 54.2936 62.5101 55.7678C62.5143 57.0581 62.5186 58.3435 62.5213 59.6297H62.4977V59.9467H68.644V47.654Z" fill="#243946"/>
<path d="M36.0002 25.6026L46.7465 25.6028V30.1974H22.0009C21.7024 30.2011 21.3551 30.6944 21.3551 30.6944L17.5686 41.6775H37.6002V64.6531H24.4806V68.5821C24.4806 69.5855 23.6706 70.3955 22.6672 70.3955H11.318C10.3207 70.3955 9.51671 69.5976 9.50462 68.6062C9.46233 64.2292 9.47624 60.0273 9.49033 55.7678C9.49745 53.6162 9.50462 51.4499 9.50462 49.2388C9.50462 46.8209 11.2326 41.6775 11.2326 41.6775C9.93386 41.6091 8.61634 41.499 8.13899 40.7253C7.49689 39.6847 7.19603 38.9239 7.20024 37.657C7.1999 36.6265 7.77662 35.934 8.62408 35.942L13.8377 35.934C13.8377 35.934 15.7699 30.5337 17.3595 27.1956C18.1416 25.5531 20.1669 25.5817 21.4348 25.5995C21.5578 25.6013 21.6737 25.6029 21.7806 25.6029L36.0002 25.6026Z" fill="#243946"/>
</svg>
