<svg width="96" height="96" viewBox="0 0 96 96" fill="none" xmlns="http://www.w3.org/2000/svg">
<path d="M56.8005 34.3765V22.7955H50.4005V41.2288C50.4005 43.4379 52.1913 45.2288 54.4005 45.2288H72.8338V38.8288H61.3991L80.5022 19.7257L75.9768 15.2002L56.8005 34.3765Z" fill="#243946"/>
<path d="M31.4272 64.1833C21.8095 54.5655 16.0246 41.7419 15.2002 28.1573C15.2002 26.3113 15.933 24.5427 17.2365 23.2322C18.54 21.9287 20.3155 21.196 22.1616 21.196H33.2236C34.9499 21.196 36.5071 22.2457 37.1482 23.8522L41.714 35.2597C42.482 37.1903 41.7422 39.3885 39.9666 40.4524L34.2876 43.2426C34.2876 43.2426 38.0092 50.405 41.6002 53.996C45.1912 57.587 52.3535 61.3086 52.3535 61.3086L55.1437 55.6296C56.2076 53.854 58.4059 53.1142 60.3365 53.8822L71.7439 58.4479C73.3503 59.0891 74.4002 60.6463 74.4002 62.3726V73.4347C74.4002 75.2807 73.6674 77.0563 72.3639 78.3598C71.0534 79.6633 69.2849 80.396 67.4388 80.396C53.8543 79.5716 41.0448 73.801 31.4272 64.1833Z" fill="#243946"/>
</svg>
