<svg width="96" height="96" viewBox="0 0 96 96" fill="none" xmlns="http://www.w3.org/2000/svg">
<path fill-rule="evenodd" clip-rule="evenodd" d="M48.1148 82.5143C67.1134 82.5143 82.5148 67.1129 82.5148 48.1143C82.5148 29.1157 67.1134 13.7143 48.1148 13.7143C29.1162 13.7143 13.7148 29.1157 13.7148 48.1143C13.7148 67.1129 29.1162 82.5143 48.1148 82.5143ZM35.6714 50.0475C34.9484 49.766 34.6137 48.9327 34.9454 48.2313C38.7948 40.0891 43.3903 35.7357 51.5805 35.7357C59.8359 35.7362 65.6563 38.8937 69.6256 48.2693C69.9175 48.9588 69.5768 49.75 68.8789 50.0216C63.166 52.2447 57.4531 53.6954 51.7402 53.6298C46.384 53.5684 41.0276 52.1323 35.6714 50.0475ZM71.6835 53.699C71.5238 53.5918 71.3219 53.5609 71.1423 53.6298C67.967 54.8488 65.5384 55.6129 62.6014 56.0859C62.0951 56.1675 61.9267 56.8619 62.3102 57.2024C63.5423 58.296 64.2667 59.5876 64.5129 61.3586C64.5409 61.5603 64.6701 61.7368 64.8613 61.8069C66.0839 62.2549 67.3902 62.4555 68.6683 62.4555C70.0546 62.4555 71.4355 62.3248 72.8086 61.8315C72.6394 61.3206 72.5116 60.8425 72.3895 60.3859C72.0343 59.0569 71.7275 57.909 70.5891 56.6609C70.3783 56.4297 70.3743 56.2283 70.9732 56.2359C71.4193 56.2416 71.8879 56.3011 72.3895 56.3647C73.0022 56.4425 73.6643 56.5265 74.3949 56.5265C75.7239 56.5265 76.9362 55.9839 76.9362 55.3585C76.9327 55.1028 76.7132 54.8952 76.1227 54.8952C74.8307 54.8952 73.0064 54.5877 71.6835 53.699ZM30.4609 62.0015C31.0008 59.1317 32.5069 55.847 33.4747 54.3769C33.6114 54.1692 33.8752 54.0985 34.1069 54.1888C36.1714 54.9928 38.7913 55.7642 40.5422 56.2259C41.0507 56.3599 41.181 57.1828 40.8005 57.5459C39.8544 58.4487 38.9843 59.8413 38.7178 61.6726C38.6884 61.8741 38.5594 62.0504 38.3687 62.122C37.2778 62.5321 36.171 62.7693 34.9454 62.7693C33.4821 62.7693 31.9647 62.5417 30.4609 62.0015ZM34.1069 41.1966C34.2259 41.4061 34.2001 41.6686 34.0418 41.8503C32.8391 43.2308 31.7675 44.7572 30.8604 46.3711C30.5035 47.0061 29.7287 47.2926 29.0631 46.9967C25.7445 45.5214 23.069 44.1249 21.8586 43.378C21.6744 43.2643 21.5819 43.0496 21.6251 42.8374C22.428 38.9017 25.4872 36.3087 28.4403 36.3087C31.4518 36.3087 32.5104 38.263 33.6409 40.35C33.7933 40.6313 33.947 40.915 34.1069 41.1966Z" fill="#243946"/>
</svg>
