<svg width="96" height="96" viewBox="0 0 96 96" fill="none" xmlns="http://www.w3.org/2000/svg">
<path d="M48 41.2024C63.3476 41.2024 75.789 49.9607 75.7891 65.3469C75.7891 76.1171 69.6933 74.9948 60.7715 73.3518C56.9476 72.6476 52.6045 71.8479 48 71.8479C43.3955 71.8479 39.0524 72.6476 35.2285 73.3518C26.3067 74.9948 20.2109 76.117 20.2109 65.3469C20.211 49.9607 32.6524 41.2024 48 41.2024ZM18.3574 30.0588C21.4269 30.0588 23.9159 33.3846 23.916 37.4875C23.916 41.5905 21.427 44.9172 18.3574 44.9172C15.2881 44.9169 12.7998 41.5903 12.7998 37.4875C12.7999 33.3848 15.2881 30.0591 18.3574 30.0588ZM77.6426 30.0588C80.7119 30.0592 83.2001 33.3848 83.2002 37.4875C83.2002 41.5903 80.7119 44.9169 77.6426 44.9172C74.573 44.9172 72.084 41.5905 72.084 37.4875C72.0841 33.3846 74.5731 30.0588 77.6426 30.0588ZM36.8838 15.2004C40.9765 15.2004 44.2949 19.7736 44.2949 25.4153C44.2949 31.0569 40.9765 35.6301 36.8838 35.6301C32.7913 35.6298 29.4736 31.0567 29.4736 25.4153C29.4736 19.7738 32.7913 15.2007 36.8838 15.2004ZM59.1162 15.2004C63.2087 15.2007 66.5264 19.7738 66.5264 25.4153C66.5264 31.0567 63.2087 35.6298 59.1162 35.6301C55.0235 35.6301 51.7051 31.0569 51.7051 25.4153C51.7051 19.7736 55.0235 15.2004 59.1162 15.2004Z" fill="#243946"/>
</svg>
