<svg width="96" height="96" viewBox="0 0 96 96" fill="none" xmlns="http://www.w3.org/2000/svg">
<path d="M78.4004 21.5996C82.8184 21.5998 86.4002 25.1816 86.4004 29.5996V66.4004C86.4002 70.8184 82.8184 74.4002 78.4004 74.4004H17.5996C13.1816 74.4002 9.59982 70.8184 9.59961 66.4004V29.5996C9.59982 25.1816 13.1816 21.5998 17.5996 21.5996H78.4004ZM50.6895 31.75C53.306 36.6715 54.791 42.2865 54.791 48.249C54.791 54.2114 53.3058 59.8266 50.6895 64.748L55.9395 68.498C59.2849 62.5055 61.1914 55.5997 61.1914 48.249C61.1914 40.8983 59.2851 33.9926 55.9395 28L50.6895 31.75ZM41.458 38.3438C42.8281 41.3635 43.5918 44.7171 43.5918 48.249C43.5918 51.7808 42.828 55.1347 41.458 58.1543L46.7441 61.9297C48.8201 57.8175 49.9912 53.1701 49.9912 48.249C49.9912 43.3278 48.8202 38.6806 46.7441 34.5684L41.458 38.3438ZM32 45.0996C32.255 46.1072 32.3916 47.1622 32.3916 48.249C32.3916 49.3358 32.2549 50.3909 32 51.3984L37.4561 55.2949C38.3171 53.1134 38.791 50.7366 38.791 48.249C38.791 45.7612 38.3174 43.3839 37.4561 41.2021L32 45.0996Z" fill="#243946"/>
</svg>
