<svg width="96" height="96" viewBox="0 0 96 96" fill="none" xmlns="http://www.w3.org/2000/svg">
<path d="M51.2002 95.2002H44.7998V82.4004H51.2002V95.2002ZM28.1982 75.5254L19.1465 84.5762L14.6221 80.0508L23.6729 71L28.1982 75.5254ZM81.3789 80.0508L76.8535 84.5762L67.8027 75.5254L72.3271 71L81.3789 80.0508ZM56 10.4004C59.5346 10.4004 62.4003 13.2653 62.4004 16.7998V31.0068C68.696 35.5045 72.7998 42.8732 72.7998 51.2002C72.7997 64.8968 61.6966 76 48 76C34.3034 76 23.2003 64.8968 23.2002 51.2002C23.2002 42.8732 27.304 35.5045 33.5996 31.0068V16.7998C33.5997 13.2653 36.4654 10.4004 40 10.4004H56ZM48 32.7998C37.838 32.7998 29.5996 41.0382 29.5996 51.2002C29.5997 61.3621 37.838 69.5996 48 69.5996C58.162 69.5996 66.4003 61.3621 66.4004 51.2002C66.4004 41.0382 58.162 32.7998 48 32.7998ZM51.2002 66.4004H44.7998V60.7998H51.2002V66.4004ZM51.2002 38.7998L50.4004 56.7998H45.5996L44.7998 38.7998V36H51.2002V38.7998ZM16.7998 54.4004H4V48H16.7998V54.4004ZM92 54.4004H79.2002V48H92V54.4004ZM28.2041 26.877L23.6777 31.4023L14.627 22.3516L19.1523 17.8262L28.2041 26.877ZM81.373 22.3516L72.3213 31.4023L67.7959 26.877L76.8467 17.8262L81.373 22.3516ZM40 27.7188C42.5099 26.8639 45.2008 26.4004 48 26.4004C50.7992 26.4004 53.4901 26.8639 56 27.7188V16.7998H40V27.7188Z" fill="#243946"/>
</svg>
