<svg width="96" height="96" viewBox="0 0 96 96" fill="none" xmlns="http://www.w3.org/2000/svg">
<path fill-rule="evenodd" clip-rule="evenodd" d="M17.5957 25.9987L17.5957 13.5987L23.9957 13.5987V25.9987H17.5957Z" fill="#243946"/>
<path fill-rule="evenodd" clip-rule="evenodd" d="M17.5957 44.7984L17.5957 32.3984H23.9957V44.7984H17.5957Z" fill="#243946"/>
<path fill-rule="evenodd" clip-rule="evenodd" d="M17.5957 63.5991L17.5957 51.1991H23.9957V63.5991H17.5957Z" fill="#243946"/>
<path fill-rule="evenodd" clip-rule="evenodd" d="M17.5957 82.3987L17.5957 69.9987H23.9957V82.3987H17.5957Z" fill="#243946"/>
<path d="M71.9949 63.2385V82.3497H78.3949V51.932C77.1926 54.2979 75.9528 56.6325 74.7727 58.6764C73.9372 60.1236 72.9905 61.6696 71.9949 63.2385Z" fill="#243946"/>
<path d="M71.9949 20.1223C72.0189 20.1361 72.0428 20.1498 72.0666 20.1636C74.0923 21.3331 76.429 22.8493 78.3949 24.1665V13.5497H71.9949V20.1223Z" fill="#243946"/>
<path d="M52.7024 37.9424C52.8917 37.4199 53.5307 37.2144 54.1437 37.4674C58.4306 39.2976 62.4992 41.6395 66.2228 44.4404C66.7547 44.8405 66.8963 45.5 66.539 45.9239L63.7714 49.1775C63.4901 49.5051 62.9372 49.5127 62.5348 49.1995C59.2847 46.6662 55.6897 44.5919 51.8684 43.0457C51.4015 42.8554 51.1244 42.3644 51.2682 41.9663L52.7024 37.9424Z" fill="#243946"/>
<path d="M50.9059 70.6527C51.5183 70.9374 52.2766 70.6481 52.6544 69.9997L53.4001 68.7035C53.7998 68.0121 53.6205 67.1707 53.0016 66.8129L41.3876 60.101C40.7687 59.7432 39.9517 60.0144 39.552 60.7058L38.7964 62.0025C38.4285 62.6504 38.56 63.4521 39.1082 63.8344L41.3006 65.3742C43.5598 66.9738 45.9681 68.356 48.4758 69.5234L50.9059 70.6527Z" fill="#243946"/>
<path fill-rule="evenodd" clip-rule="evenodd" d="M67.1955 28.8131C65.2897 27.7128 62.7806 26.4513 60.5853 25.3926C58.928 24.5933 56.9424 25.1133 55.8696 26.6479C52.7462 31.1159 47.9305 38.1812 44.8032 43.5978C41.676 49.0143 37.9651 56.7175 35.6574 61.6565C34.8648 63.3528 35.4073 65.3324 36.9281 66.368C38.9426 67.7398 41.2897 69.282 43.1955 70.3824C45.1014 71.4827 47.6105 72.7442 49.8057 73.8029C51.463 74.6022 53.4487 74.0823 54.5214 72.5477C57.6449 68.0796 62.4606 61.0143 65.5878 55.5978C68.7151 50.1812 72.4259 42.4781 74.7337 37.539C75.5263 35.8427 74.9838 33.8631 73.4629 32.8275C71.4484 31.4557 69.1014 29.9135 67.1955 28.8131ZM62.6704 21.0691C64.8912 22.1401 67.5305 23.464 69.5955 24.6562C71.6605 25.8485 74.1267 27.4723 76.1646 28.86C79.6583 31.239 80.8579 35.771 79.0824 39.571C76.7729 44.5137 72.9858 52.3841 69.7448 57.9978C66.5037 63.6114 61.5813 70.8263 58.4555 75.2978C56.0524 78.7354 51.5278 79.9625 47.7206 78.1264C45.4999 77.0554 42.8605 75.7315 40.7955 74.5393C38.7305 73.347 36.2644 71.7232 34.2264 70.3355C30.7328 67.9565 29.5331 63.4245 31.3087 59.6245C33.6182 54.6818 37.4052 46.8114 40.6463 41.1978C43.8874 35.5841 48.8097 28.3692 51.9356 23.8977C54.3387 20.4601 58.8633 19.233 62.6704 21.0691Z" fill="#243946"/>
</svg>
