<svg width="96" height="96" viewBox="0 0 96 96" fill="none" xmlns="http://www.w3.org/2000/svg">
<path d="M58.282 63.9995C57.9481 65.3615 57.5646 66.6911 57.1296 68.0015C55.5667 72.7099 53.3107 77.2703 50.2175 82.3257C49.4804 82.3733 48.7404 82.3999 47.9998 82.3999C47.2589 82.3999 46.5193 82.3733 45.782 82.3257C42.689 77.2703 40.4328 72.7098 38.8699 68.0015C38.4349 66.6911 38.0514 65.3615 37.7175 63.9995H58.282ZM31.1511 63.9995C31.5971 66.0519 32.1419 68.0485 32.7957 70.0181C34.0062 73.6648 35.5712 77.1762 37.4929 80.7524C36.596 80.4647 35.7087 80.1424 34.8357 79.7808C30.6622 78.052 26.8698 75.518 23.6755 72.3237C21.2214 69.8695 19.1584 67.0614 17.5496 63.9995H31.1511ZM78.45 63.9995C76.841 67.0615 74.7782 69.8695 72.324 72.3237C69.1296 75.5181 65.3374 78.052 61.1638 79.7808C60.2911 80.1423 59.4042 80.4648 58.5076 80.7524C60.429 77.1763 61.9934 73.6645 63.2039 70.0181C63.8577 68.0485 64.4034 66.0519 64.8494 63.9995H78.45ZM30.1033 38.3999C29.7625 41.4096 29.6003 44.5833 29.6003 47.9995C29.6003 51.4158 29.7624 54.5903 30.1033 57.6001H14.9695C14.0645 54.4865 13.6003 51.2546 13.6003 47.9995C13.6004 44.7214 14.0706 41.4923 14.9695 38.3999H30.1033ZM59.4509 38.3999C59.8197 41.352 59.9997 44.5155 59.9998 47.9995C59.9998 51.4837 59.8197 54.6478 59.4509 57.6001H36.5496C36.1808 54.6478 35.9998 51.4837 35.9998 47.9995C35.9998 44.5155 36.1808 41.3521 36.5496 38.3999H59.4509ZM81.03 38.3999C81.9289 41.4923 82.4001 44.7213 82.4001 47.9995C82.4001 51.2546 81.935 54.4865 81.03 57.6001H65.8972C66.238 54.5903 66.4001 51.4158 66.4001 47.9995C66.4001 44.5834 66.238 41.4096 65.8972 38.3999H81.03ZM37.491 15.2466C35.5695 18.8229 34.0061 22.3353 32.7957 25.9819C32.1419 27.9513 31.597 29.9473 31.1511 31.9995H17.5496C19.1468 28.9596 21.2027 26.1482 23.6755 23.6753C27.5806 19.7703 32.3286 16.9032 37.491 15.2466ZM47.9998 13.6001C48.7417 13.6001 49.4816 13.6258 50.2175 13.6733C53.3107 18.729 55.5666 23.29 57.1296 27.9985C57.5646 29.3088 57.9482 30.6377 58.282 31.9995H37.7175C38.0513 30.6378 38.435 29.3088 38.8699 27.9985C40.4329 23.29 42.6887 18.7289 45.782 13.6733C46.5181 13.6258 47.2577 13.6001 47.9998 13.6001ZM58.5066 15.2456C63.6699 16.9021 68.4184 19.7698 72.324 23.6753C74.7969 26.1482 76.8537 28.9595 78.4509 31.9995H64.8494C64.4034 29.9472 63.8576 27.9514 63.2039 25.9819C61.9932 22.3347 60.4286 18.8224 58.5066 15.2456Z" fill="#243946"/>
</svg>
