<svg width="96" height="96" viewBox="0 0 96 96" fill="none" xmlns="http://www.w3.org/2000/svg">
<path d="M52.7715 75.2C59.927 75.2 67.7262 74.7328 74.8223 71.4256C82.3959 67.8957 92.7998 60.7615 92.7998 47.9998C92.7997 35.2382 82.3959 28.1038 74.8223 24.574C67.7262 21.2668 59.927 20.7996 52.7715 20.7996H50.6602C48.1152 20.7998 45.5514 22.1845 44.416 24.7996C42.7803 28.5673 39.9988 36.6446 40 47.9998C40.0013 59.354 42.7812 67.4312 44.416 71.199C45.5511 73.8151 48.1155 75.1999 50.6611 75.2H52.7715ZM29.5996 31.9998C31.8087 31.9998 33.5996 30.2089 33.5996 27.9998C33.5995 25.7908 31.8087 23.9998 29.5996 23.9998C27.3905 23.9998 25.5997 25.7908 25.5996 27.9998C25.5996 30.2089 27.3905 31.9998 29.5996 31.9998ZM20 31.2C21.7671 31.1998 23.1992 29.767 23.1992 27.9998C23.1991 26.2327 21.7671 24.7998 20 24.7996C18.2328 24.7996 16.7999 26.2326 16.7998 27.9998C16.7998 29.7671 18.2327 31.2 20 31.2ZM12 30.4002C13.3253 30.4 14.3994 29.3251 14.3994 27.9998C14.3993 26.6745 13.3252 25.6006 12 25.6004C10.6746 25.6004 9.59972 26.6744 9.59961 27.9998C9.59962 29.3253 10.6745 30.4002 12 30.4002ZM50.6611 68.7996C50.5161 68.7995 50.4143 68.7609 50.3594 68.7273C50.3121 68.6983 50.2968 68.6734 50.2871 68.6512C48.9228 65.5066 46.4006 58.3 46.3994 47.9998C46.3983 37.6985 48.9224 30.491 50.2871 27.3475C50.2967 27.3254 50.3115 27.3011 50.3584 27.2723C50.4132 27.2387 50.5152 27.2001 50.6602 27.2H52.7715C59.7835 27.2 66.3729 27.6982 72.1182 30.3758C79.3069 33.7262 86.3993 39.2781 86.3994 47.9998C86.3994 56.7216 79.307 62.2734 72.1182 65.6238C66.3729 68.3015 59.7835 68.7996 52.7715 68.7996H50.6611ZM29.5996 51.9998C31.8087 51.9998 33.5996 50.2089 33.5996 47.9998C33.5995 45.7908 31.8087 43.9998 29.5996 43.9998C27.3905 43.9998 25.5997 45.7908 25.5996 47.9998C25.5996 50.2089 27.3905 51.9998 29.5996 51.9998ZM20 51.2C21.7671 51.1998 23.1992 49.767 23.1992 47.9998C23.1991 46.2327 21.7671 44.7998 20 44.7996C18.2328 44.7996 16.7999 46.2326 16.7998 47.9998C16.7998 49.7671 18.2327 51.2 20 51.2ZM12 50.4002C13.3253 50.4 14.3994 49.3251 14.3994 47.9998C14.3993 46.6745 13.3252 45.6006 12 45.6004C10.6746 45.6004 9.59972 46.6744 9.59961 47.9998C9.59962 49.3253 10.6745 50.4002 12 50.4002ZM29.5996 70.4002C31.8087 70.4002 33.5995 68.6092 33.5996 66.4002C33.5996 64.1911 31.8087 62.4002 29.5996 62.4002C27.3905 62.4002 25.5996 64.1911 25.5996 66.4002C25.5997 68.6092 27.3905 70.4002 29.5996 70.4002ZM20 69.6004C21.7671 69.6002 23.1991 68.1673 23.1992 66.4002C23.1992 64.633 21.7671 63.2002 20 63.2C18.2327 63.2 16.7998 64.6329 16.7998 66.4002C16.7999 68.1674 18.2328 69.6004 20 69.6004ZM12 68.7996C13.3252 68.7994 14.3993 67.7254 14.3994 66.4002C14.3994 65.0748 13.3253 64 12 63.9998C10.6745 63.9998 9.59961 65.0747 9.59961 66.4002C9.59973 67.7256 10.6746 68.7996 12 68.7996Z" fill="#243946"/>
</svg>
