<svg width="96" height="96" viewBox="0 0 96 96" fill="none" xmlns="http://www.w3.org/2000/svg">
<path fill-rule="evenodd" clip-rule="evenodd" d="M54.0531 25.6C38.4262 25.6 9.6001 28.2442 9.6001 37.2186C9.6001 44.911 13.9248 70.4 28.997 70.4H58.0884L79.8004 70.3362C81.007 70.3362 82.0792 69.5693 82.4657 68.43L86.2518 57.268C86.5422 56.412 86.401 55.469 85.8725 54.7348C85.3441 54.0006 84.4931 53.5652 83.5866 53.5652H73.8781C75.277 48.4565 75.7571 43.4816 75.7571 40.7683C75.7571 29.4301 68.7073 25.608 54.0531 25.608V25.6ZM36.4643 59.2617C36.2431 59.9261 36.0134 60.498 35.8433 60.9101C35.829 60.944 35.815 60.977 35.8013 61.009L35.7632 61.0975C35.7118 61.2167 35.6677 61.319 35.6392 61.3979C35.628 61.4237 35.6184 61.4479 35.6098 61.4697C35.5987 61.4977 35.5892 61.5219 35.5796 61.5408L35.5626 61.5829V61.5997C35.5626 61.5997 34.8141 61.2633 33.3085 60.5905C31.8029 59.9177 31.0544 59.5813 31.0544 59.5813V59.556C31.0544 59.556 31.0884 59.5056 31.1055 59.4635C31.1303 59.4021 31.1688 59.3137 31.2176 59.2016L31.2756 59.0683C31.4202 58.7235 31.6073 58.2525 31.7944 57.6974C32.1942 56.5368 32.4834 55.3257 32.4834 54.4847C32.4834 53.6437 32.1857 52.441 31.7944 51.272C31.6073 50.7253 31.4202 50.2459 31.2756 49.9011C31.2324 49.7945 31.1927 49.7048 31.1586 49.6276C31.1389 49.5831 31.121 49.5427 31.1055 49.5058C31.0884 49.4637 31.0714 49.4301 31.0629 49.4133V49.3881H31.0544V49.3712L31.0374 49.3292C31.0374 49.3292 31.0034 49.2535 30.9779 49.1862C30.9661 49.1592 30.953 49.1299 30.9389 49.0982C30.8916 48.9923 30.8327 48.8603 30.7737 48.6984C30.6036 48.2863 30.3824 47.7144 30.1528 47.05C29.7275 45.7969 29.2001 43.9635 29.2001 42.2898C29.2001 40.6162 29.719 38.7911 30.1528 37.538C30.3739 36.8736 30.6036 36.3017 30.7737 35.8896C30.8017 35.8232 30.8287 35.7605 30.8539 35.702C30.9054 35.5827 30.9493 35.4808 30.9779 35.4018C30.989 35.376 30.9986 35.3518 31.0072 35.3299C31.0183 35.3019 31.0279 35.2777 31.0374 35.2588L31.0544 35.2168V35.2C31.0544 35.2 31.8029 35.5363 33.3085 36.2092C34.8141 36.882 35.5626 37.2184 35.5626 37.2184V37.2437C35.5626 37.2437 35.5286 37.2941 35.5116 37.3362C35.4867 37.3976 35.4482 37.4861 35.3994 37.5982L35.3415 37.7314C35.1969 38.0762 35.0097 38.5472 34.8311 39.1023C34.4313 40.2629 34.1421 41.474 34.1421 42.315C34.1421 43.156 34.4398 44.3587 34.8311 45.5277C35.0182 46.0744 35.2054 46.5538 35.3415 46.8986C35.3846 47.0052 35.4243 47.0949 35.4584 47.172L35.4885 47.2403L35.5008 47.2687L35.5116 47.2939C35.5286 47.336 35.5456 47.3696 35.5541 47.3864V47.4032H35.5626V47.42L35.5796 47.4621C35.5796 47.4621 35.6136 47.5378 35.6392 47.6051C35.6509 47.6322 35.664 47.6616 35.6782 47.6933C35.7255 47.7991 35.7844 47.9311 35.8433 48.0929C36.0134 48.505 36.2346 49.0769 36.4643 49.7413C36.8896 50.9944 37.4169 52.8279 37.4169 54.4931C37.4169 56.1583 36.8896 57.9917 36.4643 59.2533V59.2617ZM46.3525 59.262C46.1314 59.9264 45.9017 60.4982 45.7316 60.9103C45.7037 60.9765 45.6767 61.0391 45.6516 61.0974C45.6 61.217 45.556 61.3191 45.5274 61.3981C45.5162 61.424 45.5067 61.4481 45.4981 61.47C45.487 61.498 45.4774 61.5222 45.4679 61.5411L45.4509 61.5832V61.6C45.4509 61.6 44.7023 61.2636 43.1968 60.5908C41.6912 59.918 40.9427 59.5816 40.9427 59.5816V59.5563C40.9427 59.5563 40.9767 59.5058 40.9937 59.4638C41.0186 59.4023 41.0571 59.314 41.1058 59.2019L41.1638 59.0685C41.3084 58.7237 41.4956 58.2527 41.6827 57.6977C42.0825 56.537 42.3717 55.326 42.3717 54.4849C42.3717 53.6439 42.074 52.4412 41.6827 51.2722C41.4956 50.7255 41.3084 50.2462 41.1638 49.9013C41.1207 49.7947 41.081 49.705 41.0469 49.6279C41.0272 49.5833 41.0093 49.543 40.9937 49.506C40.9767 49.4641 40.9598 49.4305 40.9512 49.4137L40.9512 49.3967H40.9427V49.3799L40.9257 49.3379C40.9257 49.3379 40.9172 49.3126 40.9087 49.2958C40.9032 49.2795 40.8941 49.2632 40.8838 49.2447C40.8797 49.2373 40.8754 49.2295 40.8711 49.2212L40.8661 49.2117C40.8545 49.1849 40.8415 49.1558 40.8276 49.1246L40.8272 49.1236C40.7799 49.0178 40.7209 48.8857 40.662 48.7239C40.4919 48.3118 40.2707 47.7399 40.041 47.0755C39.6157 45.8224 39.0884 43.9889 39.0884 42.3237C39.0884 40.6585 39.6157 38.825 40.041 37.5635C40.2622 36.8991 40.4919 36.3272 40.662 35.9151C40.6899 35.8488 40.7169 35.7862 40.7421 35.7277L40.7424 35.727C40.7938 35.6078 40.8376 35.5062 40.8661 35.4273C40.8773 35.4015 40.8868 35.3774 40.8954 35.3556C40.9021 35.3388 40.9082 35.3231 40.9141 35.3094C40.918 35.3003 40.9219 35.2919 40.9257 35.2843L40.9427 35.2423V35.2254L43.1968 36.2263C44.7023 36.8991 45.4509 37.2355 45.4509 37.2355V37.2607C45.4509 37.2607 45.4169 37.3112 45.3998 37.3533C45.375 37.4147 45.3365 37.503 45.2877 37.6151L45.2297 37.7485C45.0851 38.0933 44.898 38.5643 44.7109 39.1194C44.3111 40.28 44.0219 41.4911 44.0219 42.3321C44.0219 43.1731 44.3196 44.3758 44.7109 45.5448C44.898 46.0915 45.0851 46.5709 45.2297 46.9157C45.2728 47.0223 45.3125 47.112 45.3466 47.189C45.3664 47.2336 45.3843 47.274 45.3998 47.311C45.4167 47.3527 45.4336 47.3861 45.4422 47.4031L45.4424 47.4203H45.4509V47.4371L45.4679 47.4792C45.4679 47.4792 45.5019 47.5549 45.5274 47.6221C45.5392 47.6492 45.5523 47.6785 45.5664 47.7102C45.6137 47.816 45.6726 47.9481 45.7316 48.1099C45.9017 48.5221 46.1229 49.094 46.3525 49.7584C46.7778 51.0115 47.3052 52.8449 47.3052 54.5186C47.2967 56.1754 46.7778 58.0088 46.3525 59.262ZM55.618 60.9097C55.7881 60.4976 56.0178 59.9257 56.2389 59.2613H56.2474C56.6727 58.0082 57.2001 56.1832 57.2001 54.5095C57.2001 52.8359 56.6727 51.0025 56.2474 49.7493C56.0178 49.0849 55.7966 48.513 55.6265 48.1009C55.5676 47.9392 55.5087 47.8073 55.4614 47.7014C55.4473 47.6698 55.4341 47.6402 55.4223 47.6131C55.3968 47.5458 55.3628 47.4701 55.3628 47.4701L55.3458 47.4281V47.4113H55.3373V47.3945C55.3318 47.3837 55.3229 47.366 55.3127 47.3437C55.3096 47.3368 55.3064 47.3296 55.3031 47.3219C55.3003 47.3155 55.2975 47.3088 55.2947 47.3019C55.2793 47.2652 55.2616 47.2252 55.242 47.181L55.2415 47.18C55.2074 47.1029 55.1677 47.0132 55.1246 46.9067C54.98 46.5619 54.7929 46.0825 54.6058 45.5358C54.2145 44.3668 53.9168 43.1641 53.9168 42.3231C53.9168 41.482 54.206 40.271 54.6058 39.1104C54.7929 38.5553 54.98 38.0843 55.1246 37.7395L55.1824 37.6065L55.1829 37.6055C55.2315 37.4937 55.2699 37.4056 55.2947 37.3442C55.3118 37.3022 55.3458 37.2517 55.3458 37.2517V37.2265C55.3458 37.2265 54.5973 36.89 53.0917 36.2172C51.5861 35.5528 50.8376 35.2164 50.8376 35.2164V35.2332L50.8206 35.2753C50.811 35.2942 50.8015 35.3184 50.7904 35.3463L50.7797 35.3734C50.7739 35.3877 50.7678 35.4027 50.761 35.4182C50.7325 35.4973 50.6885 35.5992 50.637 35.7187C50.6213 35.7552 50.6048 35.7934 50.5879 35.8331L50.5569 35.906C50.3868 36.3182 50.1571 36.8901 49.9359 37.5545C49.5106 38.816 48.9833 40.6494 48.9833 42.3147C48.9833 43.9799 49.5106 45.8133 49.9359 47.0665C50.1656 47.7309 50.3868 48.3027 50.5569 48.7148C50.6158 48.8767 50.6747 49.0086 50.722 49.1145C50.7361 49.1461 50.7493 49.1756 50.761 49.2027C50.7865 49.2699 50.8206 49.3456 50.8206 49.3456L50.8376 49.3877V49.4213C50.8461 49.4382 50.8631 49.4718 50.8801 49.5138C50.8957 49.5508 50.9135 49.5911 50.9332 49.6357C50.9674 49.7128 51.0071 49.8026 51.0502 49.9091C51.1948 50.254 51.382 50.7334 51.5691 51.28C51.9604 52.449 52.2581 53.6517 52.2581 54.4927C52.2581 55.3338 51.9689 56.5448 51.5691 57.7054C51.382 58.2605 51.1948 58.7315 51.0502 59.0763L50.9927 59.2087C50.9437 59.3212 50.905 59.41 50.8801 59.4716C50.8631 59.5136 50.8291 59.5641 50.8291 59.5641V59.5894C50.8291 59.5894 51.5776 59.9257 53.0832 60.5985L55.3373 61.5994V61.5826L55.3543 61.5405C55.3638 61.5216 55.3734 61.4974 55.3844 61.4694C55.393 61.4477 55.4027 61.4232 55.4138 61.3975C55.4424 61.3185 55.4863 61.2166 55.5378 61.0971C55.563 61.0387 55.59 60.976 55.618 60.9097Z" fill="#243946"/>
</svg>
