<svg width="96" height="96" viewBox="0 0 96 96" fill="none" xmlns="http://www.w3.org/2000/svg">
<path fill-rule="evenodd" clip-rule="evenodd" d="M9.6001 37.2187C9.6001 28.2443 38.4262 25.6 54.0531 25.6V25.608C68.7073 25.608 75.7571 29.4302 75.7571 40.7684C75.7571 43.4817 75.277 48.4566 73.8781 53.5653H83.5866C84.4931 53.5653 85.3441 54.0007 85.8725 54.7348C86.401 55.469 86.5422 56.4121 86.2518 57.2681L82.4657 68.43C82.0792 69.5694 81.007 70.3362 79.8004 70.3362L58.0884 70.4H28.997C13.9248 70.4 9.6001 44.911 9.6001 37.2187ZM41.6001 45.6H36.0001V42.5657C36.0001 42.2093 35.5692 42.0309 35.3173 42.2829L29.6001 48L35.3173 53.7172C35.5692 53.9692 36.0001 53.7907 36.0001 53.4343V50.4H41.6001C42.0419 50.4 42.4001 50.7582 42.4001 51.2V56.8H39.3658C39.0094 56.8 38.831 57.2309 39.0829 57.4828L44.8001 63.2L50.5173 57.4828C50.7692 57.2309 50.5908 56.8 50.2344 56.8H47.2001V51.2C47.2001 50.7582 47.5583 50.4 48.0001 50.4H53.6001V53.4343C53.6001 53.7907 54.031 53.9691 54.2829 53.7172L60.0001 48L54.2829 42.2829C54.031 42.0309 53.6001 42.2093 53.6001 42.5657V45.6H48.0001C47.5583 45.6 47.2001 45.2418 47.2001 44.8V39.2H50.2344C50.5908 39.2 50.7692 38.7691 50.5173 38.5172L44.8001 32.8L39.0829 38.5172C38.831 38.7691 39.0094 39.2 39.3658 39.2H42.4001V44.8C42.4001 45.2418 42.0419 45.6 41.6001 45.6Z" fill="#243946"/>
</svg>
