<svg width="96" height="96" viewBox="0 0 96 96" fill="none" xmlns="http://www.w3.org/2000/svg">
<path fill-rule="evenodd" clip-rule="evenodd" d="M74.5525 28.728C66.3685 18.888 54.2326 13.2 41.4326 13.2H15.4885C12.1925 13.2 9.52051 15.872 9.52051 19.168V69.4641C9.52051 73.7041 12.9604 77.1361 17.1924 77.1361H78.5764C82.8164 77.1361 86.2486 73.6961 86.2486 69.4641V48.168C86.2486 44.688 85.0324 41.3201 82.8084 38.6481L74.5525 28.728ZM15.7689 27.6641V19.592H41.4326C52.3686 19.592 62.6484 24.416 69.6404 32.816L77.6658 42.4156H65.3689L60.2084 36.192C55.7124 30.784 49.0486 27.6641 42.0166 27.6641H15.7689Z" fill="#243946"/>
</svg>
