<svg width="96" height="96" viewBox="0 0 96 96" fill="none" xmlns="http://www.w3.org/2000/svg">
<path d="M51.2002 95.2001H44.7998V82.4003H51.2002V95.2001ZM28.1982 75.5253L19.1475 84.5761L14.6221 80.0507L23.6729 70.9999L28.1982 75.5253ZM81.3779 80.0507L76.8535 84.5761L67.8018 75.5253L72.3271 70.9999L81.3779 80.0507ZM56 10.4003C59.5346 10.4003 62.4003 13.2652 62.4004 16.7997V31.0068C68.696 35.5044 72.7998 42.8731 72.7998 51.2001C72.7997 64.8967 61.6966 75.9999 48 75.9999C34.3034 75.9999 23.2003 64.8967 23.2002 51.2001C23.2002 42.8731 27.304 35.5044 33.5996 31.0068V16.7997C33.5997 13.2652 36.4654 10.4003 40 10.4003H56ZM48 32.7997C37.838 32.7997 29.5996 41.0381 29.5996 51.2001C29.5997 61.3621 37.838 69.5995 48 69.5995C58.162 69.5995 66.4003 61.3621 66.4004 51.2001C66.4004 41.0381 58.162 32.7997 48 32.7997ZM16.7998 54.4003H4V47.9999H16.7998V54.4003ZM92 54.4003H79.2002V47.9999H92V54.4003ZM28.2041 26.8769L23.6787 31.4023L14.627 22.3515L19.1533 17.8261L28.2041 26.8769ZM81.373 22.3515L72.3223 31.4023L67.7959 26.8769L76.8467 17.8261L81.373 22.3515ZM40 27.7187C42.5099 26.8638 45.2008 26.4003 48 26.4003C50.7992 26.4003 53.4901 26.8638 56 27.7187V16.7997H40V27.7187Z" fill="#243946"/>
</svg>
