<svg width="96" height="96" viewBox="0 0 96 96" fill="none" xmlns="http://www.w3.org/2000/svg">
<path d="M48 15.2002C66.1149 15.2002 80.7998 29.8851 80.7998 48C80.7998 66.1149 66.1149 80.7998 48 80.7998C29.8851 80.7998 15.2002 66.1149 15.2002 48C15.2002 29.8851 29.8851 15.2002 48 15.2002ZM48 23.2002C34.3033 23.2002 23.2002 34.3033 23.2002 48C23.2002 61.6967 34.3033 72.7998 48 72.7998C61.6967 72.7998 72.7998 61.6967 72.7998 48C72.7998 34.3033 61.6967 23.2002 48 23.2002ZM48 48L61.0107 61.0107C57.681 64.3405 53.081 66.4004 48 66.4004C37.838 66.4004 29.5996 58.162 29.5996 48C29.5996 37.838 37.838 29.5996 48 29.5996V48Z" fill="#243946"/>
</svg>
