<svg width="96" height="96" viewBox="0 0 96 96" fill="none" xmlns="http://www.w3.org/2000/svg">
<path d="M46.86 22.4373C42.1453 22.6844 37.5907 24.23 33.6998 26.9041C29.809 29.5782 26.7334 33.2766 24.8131 37.5896C22.8929 41.9025 22.2028 46.6628 22.819 51.3435C23.4353 56.0242 25.3342 60.4441 28.3053 64.113C31.2764 67.7819 35.2047 70.5576 39.6549 72.1335C44.105 73.7093 48.9044 74.0242 53.5221 73.0427C58.1401 72.0611 62.3973 69.8209 65.8219 66.571C69.2464 63.3212 71.7054 59.1879 72.9274 54.6277L80.6549 56.698C79.0511 62.6833 75.8235 68.1094 71.3287 72.3748C66.8341 76.64 61.2471 79.5786 55.1862 80.8669C49.125 82.1553 42.8251 81.743 36.984 79.6746C31.1431 77.6062 25.9881 73.9626 22.0885 69.1472C18.1889 64.3316 15.6962 58.531 14.8873 52.3875C14.0786 46.2441 14.9843 39.9964 17.5045 34.3357C20.0249 28.6749 24.0619 23.8211 29.1686 20.3113C34.2752 16.8016 40.2531 14.7724 46.441 14.448L46.86 22.4373Z" fill="#243946"/>
</svg>
