<svg width="96" height="96" viewBox="0 0 96 96" fill="none" xmlns="http://www.w3.org/2000/svg">
<path d="M37.0508 67.1992C37.5637 68.9541 38.0952 70.475 38.5898 71.7471L8.31055 81.0928L6.89551 76.5068L37.0508 67.1992ZM52.7734 20.7998C59.929 20.7998 67.7281 21.267 74.8242 24.5742C82.3979 28.1041 92.8018 35.2383 92.8018 48C92.8018 60.7617 82.3979 67.8959 74.8242 71.4258C67.7281 74.733 59.929 75.2002 52.7734 75.2002H50.6621C48.1173 75.2 45.5534 73.8161 44.418 71.2012C42.7823 67.4336 40.0007 59.3557 40.002 48C40.0032 36.6457 42.7832 28.5686 44.418 24.8008C45.553 22.1847 48.1174 20.7999 50.6631 20.7998H52.7734ZM34.9629 57.0439C35.1764 58.7395 35.44 60.3355 35.7373 61.8271L8.31055 70.293L6.89551 65.707L34.9629 57.0439ZM50.6631 27.2002C50.5181 27.2003 50.4163 27.2389 50.3613 27.2725C50.3141 27.3015 50.2987 27.3264 50.2891 27.3486C48.9248 30.4931 46.4026 37.6996 46.4014 48C46.4002 58.3015 48.9243 65.5088 50.2891 68.6523C50.2987 68.6744 50.3133 68.6987 50.3604 68.7275C50.4152 68.7611 50.5171 68.7997 50.6621 68.7998H52.7734C59.7854 68.7998 66.3748 68.3017 72.1201 65.624C79.3089 62.2735 86.4014 56.7218 86.4014 48C86.4014 39.2782 79.3089 33.7265 72.1201 30.376C66.3748 27.6983 59.7854 27.2002 52.7734 27.2002H50.6631ZM34.4199 46.4111C34.4088 46.9338 34.4014 47.4631 34.4014 47.999C34.4012 49.1694 34.4285 50.3091 34.4795 51.416L8.31055 59.4932L6.89551 54.9072L34.4199 46.4111ZM35.5293 35.2676C35.2314 36.9043 34.9756 38.6577 34.7832 40.5215L8.31055 48.6934L6.89551 44.1074L35.5293 35.2676ZM38.9229 23.4209C38.3182 24.8956 37.6335 26.7801 36.9824 29.043L8.31055 37.8926L6.89551 33.3066L38.9229 23.4209Z" fill="#243946"/>
</svg>
