<svg width="96" height="96" viewBox="0 0 96 96" fill="none" xmlns="http://www.w3.org/2000/svg">
<path d="M28.0009 16.0079V19.4951C28.0009 23.2827 26.9946 26.9182 25.3777 30.1712C24.0487 32.8448 22.3822 36.4775 21.0542 40.2617C19.7067 44.1017 18.8009 47.8416 18.8009 50.8078C18.8009 62.0083 23.1189 67.0434 26.9171 69.4569C28.9153 70.7266 30.9334 71.3718 32.464 71.696C33.2244 71.857 33.8481 71.9353 34.2652 71.9732C34.4732 71.9921 34.628 72.0007 34.7207 72.0047H37.1994C37.1994 72.0047 52.0251 72.0078 59.9994 72.0078L61.1874 72.0077C61.3698 72.004 61.5521 71.9897 61.7337 71.9732C62.1508 71.9353 62.7745 71.857 63.5349 71.696C65.0655 71.3718 67.0836 70.7266 69.0818 69.4569C72.703 67.1559 76.7966 62.4719 77.1703 52.334C77.1885 51.8356 77.1979 51.3281 77.1979 50.8078C77.1979 47.8416 76.2922 44.1017 74.9446 40.2617C73.6167 36.4775 71.9502 32.8448 70.6212 30.1712C69.0043 26.9182 67.9979 23.2827 67.9979 19.4951V16.0079H74.3979V19.4951C74.3979 22.1451 75.1037 24.8107 76.3523 27.3225C77.7481 30.1306 79.5372 34.0206 80.9836 38.1426C82.4105 42.2088 83.5979 46.7586 83.5979 50.8078C83.5979 51.2056 83.5931 51.5979 83.5837 51.9848C83.2823 64.4646 78.2013 72.2772 72.9191 76.9541C72.418 77.3978 72.044 77.8941 71.7516 78.4078C71.3027 79.1965 71.0457 80.0265 70.8154 80.7702C70.3932 82.134 70.0606 83.2082 68.7978 83.2082L64.7975 83.2083V78.4083H59.9975V83.2082H55.1975V78.4083H50.3975V83.2082H45.5975V78.4083H40.7975V83.2082H35.9975V78.4083H31.1975V83.1815C30.5698 83.1853 29.9207 83.1905 29.3214 83.1953L29.3174 83.1953C28.4574 83.2022 27.7003 83.2082 27.2562 83.2082C25.9534 83.2082 25.6106 82.1186 25.1772 80.7409C24.9458 80.0056 24.6874 79.186 24.2447 78.4084C23.9518 77.8945 23.5778 77.3979 23.0765 76.9541C17.6856 72.1809 12.5043 64.1418 12.3994 51.2086H12.4026C12.4015 51.0756 12.4009 50.9421 12.4009 50.8078C12.4009 46.7586 13.5884 42.2088 15.0153 38.1426C16.4617 34.0206 18.2508 30.1306 19.6466 27.3225C20.8952 24.8107 21.6009 22.1451 21.6009 19.4951V16.0079H28.0009Z" fill="#243946"/>
<path d="M50.3458 50.4078H45.6525L44.7994 28.8079V25.6082H51.1994V28.8079L50.3458 50.4078ZM51.1991 61.6078H44.7991V55.2078H51.1991V61.6078Z" fill="#243946"/>
</svg>
