<svg width="96" height="96" viewBox="0 0 96 96" fill="none" xmlns="http://www.w3.org/2000/svg">
<path d="M12.9689 42.3955C10.6326 39.9791 8.77927 37.1105 7.51484 33.9535C6.25041 30.7964 5.59961 27.4127 5.59961 23.9955C5.59961 20.5783 6.25041 17.1945 7.51484 14.0374C8.77927 10.8804 10.6326 8.01178 12.9689 5.59546L16.2875 9.02756C14.3869 10.9932 12.8793 13.3267 11.8507 15.8949C10.8221 18.4631 10.2927 21.2157 10.2927 23.9955C10.2927 26.7753 10.8221 29.5278 11.8507 32.096C12.8793 34.6642 14.3869 36.9977 16.2875 38.9633L12.9689 42.3955Z" fill="#243946"/>
<path d="M19.8535 34.3057C18.5445 32.9519 17.5061 31.3447 16.7976 29.5758C16.0892 27.807 15.7246 25.9111 15.7246 23.9965C15.7246 22.0819 16.0892 20.186 16.7976 18.4172C17.5061 16.6483 18.5445 15.0411 19.8535 13.6872L23.172 17.1194C22.2988 18.0225 21.6061 19.0946 21.1335 20.2746C20.6609 21.4546 20.4177 22.7193 20.4177 23.9965C20.4177 25.2737 20.6609 26.5384 21.1335 27.7184C21.6061 28.8984 22.2988 29.9705 23.172 30.8736L19.8535 34.3057Z" fill="#243946"/>
<path d="M44.0531 30.5324C45.349 30.5324 46.3996 29.4459 46.3996 28.1055L46.3996 18.7941C46.3996 17.4538 45.349 16.3673 44.0531 16.3673H39.9717C39.7524 16.3673 39.5401 16.2879 39.3716 16.143L31.0672 9.00257C30.7812 8.75665 30.421 8.62201 30.0491 8.62201C29.4642 8.62201 28.9683 9.05863 28.8929 9.65846C28.6305 11.747 28.0964 16.89 28.0964 24.154C28.0964 31.4754 28.639 36.6421 28.8991 38.6985C28.9715 39.2709 29.4447 39.6859 30.0029 39.6859C30.4014 39.6859 30.7839 39.5241 31.0682 39.2352L39.3586 30.8107C39.5341 30.6324 39.7703 30.5324 40.0164 30.5324H44.0531Z" fill="#243946"/>
<path fill-rule="evenodd" clip-rule="evenodd" d="M54.5284 30.2155C55.6021 30.8688 56.8549 31.1955 58.2866 31.1955C59.7183 31.1955 60.9639 30.8688 62.0234 30.2155C63.0972 29.5466 63.9204 28.5821 64.4931 27.3221C65.0801 26.0621 65.3736 24.5532 65.3736 22.7955C65.3736 21.0377 65.0801 19.5288 64.4931 18.2688C63.9204 17.0088 63.0972 16.0521 62.0234 15.3988C60.9639 14.7299 59.7183 14.3955 58.2866 14.3955C56.8549 14.3955 55.6021 14.7299 54.5284 15.3988C53.4689 16.0521 52.6456 17.0088 52.0586 18.2688C51.486 19.5288 51.1996 21.0377 51.1996 22.7955C51.1996 24.5532 51.486 26.0621 52.0586 27.3221C52.6456 28.5821 53.4689 29.5466 54.5284 30.2155ZM61.1 26.6921C60.3984 27.5943 59.4606 28.0455 58.2866 28.0455C57.1126 28.0455 56.1748 27.5943 55.4733 26.6921C54.7718 25.7899 54.421 24.491 54.421 22.7955C54.421 21.0999 54.7718 19.801 55.4733 18.8988C56.1748 17.9966 57.1126 17.5455 58.2866 17.5455C59.4606 17.5455 60.3984 17.9966 61.1 18.8988C61.8015 19.801 62.1523 21.0999 62.1523 22.7955C62.1523 24.491 61.8015 25.7899 61.1 26.6921Z" fill="#243946"/>
<path d="M77.942 17.7788V14.6288H67.741V30.9621H70.9624V24.7788H77.4051V21.6288H70.9624V17.7788H77.942Z" fill="#243946"/>
<path d="M90.3996 14.6288V17.7788H83.42V21.6288H89.8627V24.7788H83.42V30.9621H80.1986V14.6288H90.3996Z" fill="#243946"/>
<path fill-rule="evenodd" clip-rule="evenodd" d="M84.4608 47.6855C84.8261 45.9116 84.5079 43.9655 83.4365 42.3426C82.2054 40.4733 80.0558 39.1955 77.6081 39.1955H47.2186C42.1432 39.1955 37.2496 41.0703 33.4072 44.3936L33.404 44.3964L26.1439 50.6617C25.2235 51.4575 24.2191 52.0641 23.1691 52.478L23.1574 52.4826L11.7417 57.0344C8.34075 58.3856 4.97969 62.0078 5.69724 66.9449L5.69784 66.949C5.9188 68.4625 6.73526 72.426 7.02365 73.826L7.06609 74.0321L7.11956 74.29L6.89376 75.1526V75.6922C6.80031 77.2228 7.23172 78.6957 8.00189 79.8696C9.24475 81.7675 11.3862 82.9409 13.6804 82.9409H14.1957L14.2216 82.9775C16.7675 86.5719 20.8053 88.7873 25.3114 88.7873C29.8069 88.7873 33.8522 86.5806 36.3906 82.9876L36.4235 82.9409H62.1887L62.2109 82.9724C64.7489 86.5751 68.7763 88.7955 73.3025 88.7955C77.9095 88.7955 82.2521 86.2985 84.7003 82.5277C87.7517 81.3453 90.406 78.237 90.406 74.0832V62.3592C90.406 59.597 89.6802 56.8687 88.2706 54.4738L84.4151 47.9093L84.4608 47.6855ZM13.2867 76.0034L13.2819 76.0822C13.2793 76.1246 13.2835 76.1758 13.2989 76.2322C13.315 76.2913 13.3379 76.3358 13.353 76.3589L13.356 76.3634C13.3856 76.4086 13.4337 76.4562 13.5 76.4922C13.5651 76.5275 13.6275 76.5409 13.6804 76.5409H17.5054L19.4443 79.2783C20.8491 81.2617 22.9809 82.3873 25.3114 82.3873C27.6426 82.3873 29.774 81.2613 31.1634 79.2948L33.1089 76.5409H65.5085L67.4427 79.2862C68.84 81.2696 70.9568 82.3955 73.3025 82.3955C75.6402 82.3955 78.0079 81.0827 79.3324 79.0426L80.4589 77.3076L82.3878 76.5601C83.2294 76.234 84.006 75.3325 84.006 74.0832V62.3592C84.006 60.7148 83.5736 59.1109 82.755 57.7201L82.7521 57.715L77.6532 49.0336L78.1923 46.3946C78.2299 46.2123 78.1896 46.0113 78.0954 45.8687L78.0914 45.8627C78.0442 45.7909 77.9678 45.7167 77.8742 45.6648C77.7905 45.6184 77.705 45.5955 77.6081 45.5955H47.2186C43.7265 45.5955 40.3094 46.8863 37.5958 49.2326L37.5939 49.2342L37.5853 49.2416L30.3296 55.5031L30.327 55.5054C28.8797 56.7562 27.2584 57.7453 25.5161 58.4321L14.1048 62.9821C13.4799 63.2304 12.8333 63.7178 12.4304 64.2975C12.0921 64.7843 11.9271 65.309 12.0305 66.0228L12.0307 66.0244C12.2172 67.3019 12.9794 71.0171 13.292 72.5348L13.6908 74.4595L13.2867 76.0034Z" fill="#243946"/>
</svg>
