<svg width="96" height="96" viewBox="0 0 96 96" fill="none" xmlns="http://www.w3.org/2000/svg">
<path d="M45.335 51.6157C46.1883 51.6157 46.931 51.7996 47.5625 52.1665C48.2024 52.5249 48.6929 53.0497 49.0342 53.7407C49.384 54.4319 49.5596 55.2599 49.5596 56.2241C49.5596 57.1884 49.384 58.0163 49.0342 58.7075C48.6929 59.3986 48.2024 59.9275 47.5625 60.2944C46.931 60.6528 46.1883 60.8325 45.335 60.8325C44.4817 60.8325 43.7347 60.6528 43.0947 60.2944C42.4635 59.9275 41.9728 59.3986 41.623 58.7075C41.2817 58.0163 41.1113 57.1884 41.1113 56.2241C41.1113 55.2599 41.2817 54.4319 41.623 53.7407C41.9729 53.0497 42.4635 52.5249 43.0947 52.1665C43.7347 51.7996 44.4817 51.6158 45.335 51.6157ZM34.7236 57.9907H34.7998L36.9248 51.7446H39.7031V60.7046H37.7822V54.3687H37.7188L35.543 60.7046H33.9424L31.7666 54.3687H31.7031V60.7046H29.7822V51.7446H32.5986L34.7236 57.9907ZM54.4258 51.7446C55.2535 51.7446 55.9754 51.9233 56.5898 52.2817C57.2126 52.6316 57.6907 53.1439 58.0234 53.8179C58.3561 54.4919 58.5225 55.2941 58.5225 56.2241C58.5225 57.1541 58.3561 57.9563 58.0234 58.6304C57.6907 59.3043 57.2126 59.8208 56.5898 60.1792C55.9754 60.5291 55.2535 60.7046 54.4258 60.7046H50.9697V51.7446H54.4258ZM66.0127 51.7446V53.4722H61.8525V55.3921H65.7568V56.9927H61.8525V58.9761H66.1406V60.7046H59.9326V51.7446H66.0127ZM45.335 53.3442C44.6353 53.3443 44.0763 53.5916 43.6582 54.0864C43.2401 54.5813 43.0313 55.294 43.0312 56.2241C43.0312 57.1542 43.2401 57.8669 43.6582 58.3618C44.0763 58.8567 44.6353 59.104 45.335 59.104C46.0346 59.104 46.5936 58.8567 47.0117 58.3618C47.4299 57.8669 47.6387 57.1543 47.6387 56.2241C47.6387 55.294 47.4298 54.5813 47.0117 54.0864C46.5936 53.5916 46.0346 53.3442 45.335 53.3442ZM52.8906 58.9761H54.3623C54.7802 58.976 55.1556 58.874 55.4883 58.6694C55.8296 58.4647 56.0987 58.1571 56.2949 57.7476C56.4997 57.3294 56.6025 56.8215 56.6025 56.2241C56.6025 55.6268 56.4997 55.123 56.2949 54.7134C56.0987 54.2954 55.8295 53.9845 55.4883 53.7798C55.1555 53.575 54.7804 53.4722 54.3623 53.4722H52.8906V58.9761ZM82.6602 34.3999C83.7354 34.3999 84.5934 34.6648 85.2334 35.1938C85.8818 35.7144 86.3256 36.4313 86.5645 37.3442H84.5801C84.4009 36.9517 84.1619 36.6526 83.8633 36.4478C83.5732 36.2345 83.172 36.1284 82.6602 36.1284C81.9604 36.1284 81.4015 36.3757 80.9834 36.8706C80.5653 37.3655 80.3564 38.0782 80.3564 39.0083C80.3565 39.9384 80.5653 40.6511 80.9834 41.146C81.4015 41.6408 81.9605 41.8882 82.6602 41.8882C83.1722 41.8882 83.5732 41.7854 83.8633 41.5806C84.1618 41.3673 84.4009 41.0647 84.5801 40.6724H86.5645C86.3255 41.5853 85.8818 42.3064 85.2334 42.8354C84.5934 43.356 83.7354 43.6157 82.6602 43.6157C81.8068 43.6157 81.0599 43.437 80.4199 43.0786C79.7886 42.7117 79.2981 42.1827 78.9482 41.4917C78.6069 40.8005 78.4365 39.9725 78.4365 39.0083C78.4365 38.044 78.6069 37.2161 78.9482 36.5249C79.2981 35.8338 79.7886 35.3091 80.4199 34.9507C81.0599 34.5838 81.8068 34.3999 82.6602 34.3999ZM6.72363 40.7749H6.7998L8.9248 34.5278H11.7031V43.4878H9.78223V37.1519H9.71875L7.54297 43.4878H5.94238L3.7666 37.1519H3.70312V43.4878H1.78223V34.5278H4.59863L6.72363 40.7749ZM21.3027 43.4878H19.3193L18.7432 41.8237H15.0566L14.4805 43.4878H12.5352L15.7354 34.5278H18.1035L21.3027 43.4878ZM24.0527 43.4878H22.1328V34.5278H24.0527V43.4878ZM31.7334 40.7358H31.7969V34.5278H33.7168V43.4878H31.2207L27.8291 37.2798H27.7656V43.4878H25.8447V34.5278H28.3408L31.7334 40.7358ZM42.0996 36.2563H39.4121V43.4878H37.4912V36.2563H34.8037V34.5278H42.0996V36.2563ZM49.2627 36.2563H45.1025V38.1763H49.0068V39.7759H45.1025V41.7603H49.3906V43.4878H43.1826V34.5278H49.2627V36.2563ZM56.7461 40.7358H56.8096V34.5278H58.7295V43.4878H56.2334L52.8418 37.2798H52.7773V43.4878H50.8574V34.5278H53.3535L56.7461 40.7358ZM68.3281 43.4878H66.3438L65.7686 41.8237H62.082L61.5059 43.4878H59.5605L62.7598 34.5278H65.1279L68.3281 43.4878ZM75.0459 40.7358H75.1094V34.5278H77.0293V43.4878H74.5332L71.1416 37.2798H71.0781V43.4878H69.1572V34.5278H71.6533L75.0459 40.7358ZM93.9248 36.2563H89.7656V38.1763H93.6689V39.7759H89.7656V41.7603H94.0527V43.4878H87.8447V34.5278H93.9248V36.2563ZM15.6328 40.1606H18.1543L16.9258 36.6401H16.8613L15.6328 40.1606ZM62.6582 40.1606H65.1797L63.9502 36.6401H63.8867L62.6582 40.1606Z" fill="#243946"/>
</svg>
