<svg width="96" height="96" viewBox="0 0 96 96" fill="none" xmlns="http://www.w3.org/2000/svg">
<path d="M34.4 25.4546C34.4 22.0984 35.8329 18.8797 38.3833 16.5065C40.9338 14.1333 44.3931 12.8 48 12.8C51.6069 12.8 55.0662 14.1333 57.6167 16.5065C60.1671 18.8797 61.6 22.0984 61.6 25.4546V46.5455C61.6 49.9017 60.1671 53.1204 57.6167 55.4936C55.0662 57.8668 51.6069 59.2001 48 59.2001C44.3931 59.2001 40.9338 57.8668 38.3833 55.4936C35.8329 53.1204 34.4 49.9017 34.4 46.5455V25.4546Z" fill="#243946"/>
<path d="M28 39.2V43.2C28 49.2574 30.191 54.999 33.9892 59.177C37.7758 63.3423 42.8254 65.6 48 65.6C53.1746 65.6 58.2242 63.3423 62.0108 59.177C65.809 54.999 68 49.2574 68 43.2V39.2H76V43.2C76 51.1461 73.1339 58.8344 67.9303 64.5584C63.6462 69.2708 58.0501 72.3425 52 73.289V88.8H44V73.289C37.9499 72.3425 32.3538 69.2708 28.0697 64.5584C22.8661 58.8344 20 51.1461 20 43.2V39.2H28Z" fill="#243946"/>
</svg>
