<svg width="96" height="96" viewBox="0 0 96 96" fill="none" xmlns="http://www.w3.org/2000/svg">
<path d="M78.6133 79.4512L72.957 85.1084L58.9746 71.126C56.7309 72.1738 54.3558 72.9058 51.9062 73.2891V88.7998H43.9062V73.2891C37.8562 72.3425 32.2596 69.271 27.9756 64.5586C22.772 58.8347 19.9063 51.1462 19.9062 43.2002V39.2002H27.0488L9.59961 21.752L15.2568 16.0947L78.6133 79.4512ZM27.9062 43.2002C27.9063 49.2575 30.0974 54.9988 33.8955 59.1768C37.6821 63.342 42.7317 65.5996 47.9062 65.5996C49.5535 65.5996 51.1883 65.3711 52.7734 64.9248L47.0215 59.1729C43.7374 58.9738 40.6303 57.6716 38.2891 55.4932C35.7389 53.1201 34.3058 49.9018 34.3057 46.5459V46.457L27.9062 40.0576V43.2002ZM75.9062 39.2002V43.2002C75.9062 50.4832 73.4984 57.5501 69.0898 63.0859L63.3828 57.3789C66.2729 53.4232 67.9062 48.4294 67.9062 43.2002V39.2002H75.9062ZM47.9062 12.7998C51.5131 12.7999 54.9721 14.1337 57.5225 16.5068C60.0727 18.8799 61.5057 22.0981 61.5059 25.4541V46.5459C61.5058 48.9799 60.7524 51.342 59.3652 53.3613L34.3057 28.3018V25.4541C34.3058 22.0982 35.7389 18.8799 38.2891 16.5068C40.8396 14.1336 44.2993 12.7998 47.9062 12.7998Z" fill="#243946"/>
</svg>
