<svg width="96" height="96" viewBox="0 0 96 96" fill="none" xmlns="http://www.w3.org/2000/svg">
<path d="M35.4826 58.8925C35.2746 59.5245 35.0586 60.0685 34.8986 60.4605C34.8186 60.6525 34.7466 60.8125 34.7066 60.9245C34.6826 60.9805 34.6666 61.0285 34.6506 61.0605L34.6346 61.1005V61.1165C34.6346 61.1165 33.9306 60.7965 32.5146 60.1565C31.0986 59.5165 30.3946 59.1965 30.3946 59.1965V59.1725C30.3946 59.1725 30.4266 59.1245 30.4426 59.0845C30.4746 59.0045 30.5306 58.8765 30.6026 58.7085C30.7386 58.3805 30.9146 57.9325 31.0906 57.4045C31.4666 56.3005 31.7386 55.1485 31.7386 54.3485C31.7386 53.5485 31.4586 52.4045 31.0906 51.2925C30.9146 50.7725 30.7386 50.3165 30.6026 49.9885C30.5386 49.8285 30.4826 49.7085 30.4426 49.6125C30.4266 49.5725 30.4106 49.5405 30.4026 49.5245V49.5005H30.3946V49.4845L30.3786 49.4445C30.3786 49.4445 30.3466 49.3725 30.3226 49.3085C30.2746 49.1965 30.2026 49.0445 30.1306 48.8445C29.9706 48.4525 29.7626 47.9085 29.5466 47.2765C29.1466 46.0845 28.6506 44.3405 28.6506 42.7485C28.6506 41.1565 29.1386 39.4205 29.5466 38.2285C29.7546 37.5965 29.9706 37.0525 30.1306 36.6605C30.2106 36.4685 30.2826 36.3085 30.3226 36.1965C30.3466 36.1405 30.3626 36.0925 30.3786 36.0605L30.3946 36.0205V36.0045C30.3946 36.0045 31.0986 36.3245 32.5146 36.9645C33.9306 37.6045 34.6346 37.9245 34.6346 37.9245V37.9485C34.6346 37.9485 34.6026 37.9965 34.5866 38.0365C34.5546 38.1165 34.4986 38.2445 34.4266 38.4125C34.2906 38.7405 34.1146 39.1885 33.9466 39.7165C33.5706 40.8205 33.2986 41.9725 33.2986 42.7725C33.2986 43.5725 33.5786 44.7165 33.9466 45.8285C34.1226 46.3485 34.2986 46.8045 34.4266 47.1325C34.4906 47.2925 34.5466 47.4125 34.5866 47.5085C34.6026 47.5485 34.6186 47.5805 34.6266 47.5965V47.6125H34.6346V47.6285L34.6506 47.6685C34.6506 47.6685 34.6826 47.7405 34.7066 47.8045C34.7546 47.9165 34.8266 48.0685 34.8986 48.2685C35.0586 48.6605 35.2666 49.2045 35.4826 49.8365C35.8826 51.0285 36.3786 52.7725 36.3786 54.3565C36.3786 55.9405 35.8826 57.6845 35.4826 58.8845V58.8925Z" fill="#243946"/>
<path d="M44.7826 58.8928C44.5746 59.5248 44.3586 60.0687 44.1986 60.4607C44.1186 60.6527 44.0466 60.8128 44.0066 60.9248C43.9826 60.9808 43.9666 61.0287 43.9506 61.0607L43.9346 61.1008V61.1167C43.9346 61.1167 43.2306 60.7968 41.8146 60.1568C40.3986 59.5168 39.6946 59.1968 39.6946 59.1968V59.1727C39.6946 59.1727 39.7266 59.1248 39.7426 59.0848C39.7746 59.0048 39.8306 58.8768 39.9026 58.7088C40.0386 58.3808 40.2146 57.9328 40.3906 57.4048C40.7666 56.3008 41.0386 55.1488 41.0386 54.3488C41.0386 53.5488 40.7586 52.4048 40.3906 51.2928C40.2146 50.7728 40.0386 50.3168 39.9026 49.9888C39.8386 49.8288 39.7826 49.7087 39.7426 49.6127C39.7266 49.5727 39.7106 49.5407 39.7026 49.5247V49.5088H39.6946V49.4928L39.6786 49.4528C39.6786 49.4528 39.6706 49.4287 39.6626 49.4127C39.6546 49.3887 39.6386 49.3648 39.6226 49.3328C39.5746 49.2208 39.5026 49.0687 39.4306 48.8687C39.2706 48.4767 39.0626 47.9328 38.8466 47.3008C38.4466 46.1088 37.9506 44.3648 37.9506 42.7808C37.9506 41.1968 38.4466 39.4528 38.8466 38.2528C39.0546 37.6208 39.2706 37.0768 39.4306 36.6848C39.5106 36.4928 39.5826 36.3327 39.6226 36.2207C39.6466 36.1647 39.6626 36.1168 39.6786 36.0848L39.6946 36.0448V36.0287L41.8146 36.9808C43.2306 37.6208 43.9346 37.9408 43.9346 37.9408V37.9647C43.9346 37.9647 43.9026 38.0128 43.8866 38.0528C43.8546 38.1328 43.7986 38.2607 43.7266 38.4288C43.5906 38.7568 43.4146 39.2048 43.2386 39.7328C42.8626 40.8368 42.5906 41.9888 42.5906 42.7888C42.5906 43.5888 42.8706 44.7328 43.2386 45.8448C43.4146 46.3648 43.5906 46.8208 43.7266 47.1488C43.7906 47.3088 43.8466 47.4287 43.8866 47.5247C43.9026 47.5647 43.9186 47.5967 43.9266 47.6127V47.6288H43.9346V47.6448L43.9506 47.6848C43.9506 47.6848 43.9826 47.7567 44.0066 47.8207C44.0546 47.9327 44.1266 48.0848 44.1986 48.2848C44.3586 48.6768 44.5666 49.2208 44.7826 49.8528C45.1826 51.0448 45.6786 52.7888 45.6786 54.3808C45.6706 55.9568 45.1826 57.7008 44.7826 58.8928Z" fill="#243946"/>
<path d="M54.0808 58.8922C53.8728 59.5242 53.6568 60.0681 53.4968 60.4602C53.4168 60.6521 53.3448 60.8122 53.3048 60.9242C53.2808 60.9802 53.2648 61.0281 53.2488 61.0602L53.2328 61.1002V61.1162L51.1128 60.1642C49.6968 59.5242 48.9928 59.2042 48.9928 59.2042V59.1802C48.9928 59.1802 49.0248 59.1322 49.0408 59.0922C49.0728 59.0122 49.1288 58.8842 49.2008 58.7162C49.3368 58.3882 49.5128 57.9402 49.6888 57.4122C50.0648 56.3082 50.3368 55.1562 50.3368 54.3562C50.3368 53.5562 50.0568 52.4122 49.6888 51.3002C49.5128 50.7802 49.3368 50.3242 49.2008 49.9962C49.1368 49.8362 49.0808 49.7162 49.0408 49.6202C49.0248 49.5802 49.0088 49.5482 49.0008 49.5322V49.5002L48.9848 49.4601C48.9848 49.4601 48.9528 49.3882 48.9288 49.3242C48.8808 49.2122 48.8088 49.0601 48.7368 48.8601C48.5768 48.4681 48.3688 47.9242 48.1528 47.2922C47.7528 46.1002 47.2568 44.3562 47.2568 42.7722C47.2568 41.1882 47.7528 39.4442 48.1528 38.2442C48.3608 37.6122 48.5768 37.0682 48.7368 36.6762C48.8168 36.4842 48.8888 36.3241 48.9288 36.2121C48.9528 36.1561 48.9688 36.1082 48.9848 36.0762L49.0008 36.0362V36.0202C49.0008 36.0202 49.7048 36.3402 51.1208 36.9722C52.5368 37.6122 53.2408 37.9322 53.2408 37.9322V37.9562C53.2408 37.9562 53.2088 38.0042 53.1928 38.0442C53.1608 38.1242 53.1048 38.2522 53.0328 38.4202C52.8968 38.7482 52.7208 39.1962 52.5448 39.7242C52.1688 40.8282 51.8968 41.9802 51.8968 42.7802C51.8968 43.5802 52.1768 44.7242 52.5448 45.8362C52.7208 46.3562 52.8968 46.8122 53.0328 47.1402C53.0968 47.3002 53.1528 47.4202 53.1928 47.5162C53.2088 47.5562 53.2248 47.5882 53.2328 47.6042V47.6202H53.2408V47.6362L53.2568 47.6762C53.2568 47.6762 53.2888 47.7482 53.3128 47.8122C53.3608 47.9242 53.4328 48.0762 53.5048 48.2762C53.6648 48.6682 53.8728 49.2122 54.0888 49.8442C54.4888 51.0362 54.9848 52.7802 54.9848 54.3722C54.9848 55.9642 54.4888 57.7002 54.0888 58.8922H54.0808Z" fill="#243946"/>
<path fill-rule="evenodd" clip-rule="evenodd" d="M26.2696 72.8045C10.2393 72.8045 5.60059 43.9704 5.60059 35.694C5.60059 26.0465 37.9087 23.2045 53.7163 23.2045C69.3093 23.2045 76.8006 27.3178 76.8006 39.5081C76.8006 42.4041 76.3038 47.9001 74.8497 53.6045H87.1981C88.2476 53.6045 89.2304 54.1192 89.8282 54.9818C90.426 55.8445 90.5628 56.9454 90.1943 57.9281L85.3943 70.7281C84.926 71.9771 83.732 72.8045 82.3981 72.8045H26.2696ZM13.7371 35.4071C12.8099 35.8666 12.2902 36.2214 12.0147 36.4452C12.1474 40.2463 13.2308 48.1077 15.8988 55.0599C17.3214 58.7667 19.0306 61.7746 20.9187 63.7634C22.7052 65.6451 24.4164 66.4045 26.2696 66.4045H58.0415C61.344 66.4045 64.5518 63.7239 67.1739 56.7614C69.6208 50.264 70.4006 42.7331 70.4006 39.5081C70.4006 34.8543 69.0851 33.1313 67.5518 32.1074C65.3899 30.6639 61.2607 29.6045 53.7163 29.6045C46.0767 29.6045 34.4713 30.2992 24.9291 32.1182C20.1008 33.0386 16.2375 34.1682 13.7371 35.4071ZM72.799 59.9509V60.0045H82.5805L80.1805 66.4045H69.334C70.7132 64.495 71.8567 62.2838 72.799 59.9509Z" fill="#243946"/>
</svg>
