<svg width="96" height="96" viewBox="0 0 96 96" fill="none" xmlns="http://www.w3.org/2000/svg">
<path d="M51.9996 4.22864H43.9996V49.0257C40.2413 50.593 37.5996 54.3023 37.5996 58.6286C37.5996 64.3724 42.2558 69.0286 47.9996 69.0286C53.7434 69.0286 58.3996 64.3724 58.3996 58.6286C58.3996 54.3023 55.7579 50.593 51.9996 49.0257V42.6286H63.1996V36.2286H51.9996V29.8286H63.1996V23.4286H51.9996V17.0286H63.1996V10.6286H51.9996V4.22864Z" fill="#243946"/>
<path d="M28.7996 56.2286C29.6264 56.2286 30.4262 56.2744 31.1996 56.3563V64.4221C30.4215 64.2975 29.6277 64.2286 28.7996 64.2286C25.8174 64.2286 23.5823 65.1173 20.688 66.3217L20.4997 66.4001C17.6784 67.575 14.1878 69.0286 9.59961 69.0286V61.0286C12.5088 61.0286 14.7008 60.148 17.6146 58.9356L17.7331 58.8863C20.586 57.6988 24.118 56.2286 28.7996 56.2286Z" fill="#243946"/>
<path d="M67.1996 64.2286C66.3498 64.2286 65.5606 64.3008 64.7996 64.4319V56.3592C65.5648 56.2755 66.3639 56.2286 67.1996 56.2286C71.8979 56.2286 75.727 57.7058 78.7691 58.909L78.8337 58.9346C82.0288 60.1984 84.1279 61.0286 86.3996 61.0286V69.0286C82.5563 69.0286 79.1403 67.6678 76.3947 66.574C76.2021 66.4972 76.0127 66.4218 75.8267 66.3482C72.801 65.1515 70.2302 64.2286 67.1996 64.2286Z" fill="#243946"/>
<path d="M47.9996 83.4286C52.5878 83.4286 56.0784 81.975 58.8997 80.8001L59.088 80.7217C61.9823 79.5173 64.2174 78.6286 67.1996 78.6286C70.2302 78.6286 72.801 79.5515 75.8267 80.7482C76.0127 80.8218 76.2021 80.8972 76.3947 80.974C79.1403 82.0678 82.5563 83.4286 86.3996 83.4286V75.4286C84.1279 75.4286 82.0288 74.5984 78.8337 73.3346L78.7691 73.309C75.727 72.1058 71.8979 70.6286 67.1996 70.6286C62.518 70.6286 58.986 72.0988 56.1331 73.2863L56.0146 73.3356C53.1008 74.548 50.9088 75.4286 47.9996 75.4286C45.7279 75.4286 43.6288 74.5984 40.4337 73.3346L40.3691 73.309C37.327 72.1058 33.4979 70.6286 28.7996 70.6286C24.118 70.6286 20.586 72.0988 17.7331 73.2863L17.6146 73.3356C14.7008 74.548 12.5088 75.4286 9.59961 75.4286V83.4286C14.1878 83.4286 17.6784 81.975 20.4997 80.8001L20.688 80.7217C23.5823 79.5173 25.8174 78.6286 28.7996 78.6286C31.8302 78.6286 34.401 79.5515 37.4267 80.7482C37.5246 80.787 37.6234 80.8262 37.7232 80.8659C37.8117 80.9011 37.9009 80.9366 37.9908 80.9725L37.993 80.9733L37.9947 80.974C40.7403 82.0678 44.1563 83.4286 47.9996 83.4286Z" fill="#243946"/>
</svg>
