<svg width="96" height="96" viewBox="0 0 96 96" fill="none" xmlns="http://www.w3.org/2000/svg">
<path d="M20.4561 18L14.7992 23.6569L20.3971 29.2548C16.8187 31.4046 13.4964 33.9695 10.5016 36.9018L16.1588 42.559C19.1715 39.6202 22.5716 37.1173 26.2594 35.1171L31.0143 39.872C27.2079 41.7021 23.719 44.1369 20.6847 47.0849L26.3423 52.7425C29.1533 50.0316 32.4496 47.8713 36.0607 46.3756C36.4071 46.2321 36.7558 46.0949 37.1066 45.9642L42.2249 51.0825C40.9597 51.3855 39.7174 51.7882 38.5098 52.2884C35.6753 53.4625 33.0847 55.1517 30.8687 57.2689L36.5277 62.9279C37.9993 61.5523 39.7074 60.4515 41.5713 59.6794C43.6096 58.8351 45.7942 58.4006 48.0004 58.4006C48.5426 58.4006 49.0836 58.4269 49.6214 58.479L67.1179 75.9755L72.7747 70.3187L20.4561 18Z" fill="#243946"/>
<path d="M45.3858 36.0879L53.8522 44.5543C55.9332 44.9517 57.9733 45.5609 59.9401 46.3756C63.5512 47.8713 66.8475 50.0316 69.6585 52.7425L75.3161 47.0849C71.7616 43.6316 67.5833 40.8823 63.0016 38.9845C58.2456 37.0146 53.1482 36.0006 48.0004 36.0006C47.1269 36.0006 46.2549 36.0298 45.3858 36.0879Z" fill="#243946"/>
<path d="M33.0312 23.7333L39.6665 30.3686C42.4085 29.8589 45.198 29.6006 48.0004 29.6006C53.9887 29.6006 59.9183 30.7801 65.4508 33.0717C70.8089 35.2911 75.6929 38.5117 79.842 42.559L85.4992 36.9018C80.607 32.1118 74.841 28.3022 68.5123 25.6807C62.0092 22.987 55.0393 21.6006 48.0004 21.6006C42.9251 21.6006 37.8856 22.3214 33.0312 23.7333Z" fill="#243946"/>
<path d="M48.0004 74.4006L41.0573 67.4575C42.8984 65.8055 45.332 64.8006 48.0004 64.8006C50.6687 64.8006 53.1024 65.8055 54.9435 67.4575L48.0004 74.4006Z" fill="#243946"/>
</svg>
