<svg width="96" height="96" viewBox="0 0 96 96" fill="none" xmlns="http://www.w3.org/2000/svg">
<path d="M26.7412 40.7998C28.1277 40.7998 29.3343 41.0982 30.3604 41.6943C31.4004 42.2767 32.1983 43.1297 32.7529 44.2529C33.3214 45.3761 33.6055 46.7212 33.6055 48.2881C33.6055 49.855 33.3214 51.2001 32.7529 52.3232C32.1983 53.4464 31.4004 54.3061 30.3604 54.9023C29.3343 55.4846 28.1278 55.7764 26.7412 55.7764C25.3547 55.7763 24.1415 55.4847 23.1016 54.9023C22.0755 54.3061 21.2785 53.4463 20.71 52.3232C20.1553 51.2001 19.8779 49.855 19.8779 48.2881C19.8779 46.7212 20.1553 45.3761 20.71 44.2529C21.2785 43.1298 22.0754 42.2767 23.1016 41.6943C24.1415 41.0981 25.3547 40.7999 26.7412 40.7998ZM14.3682 51.0957H14.4717V41.0078H17.5918V55.5684H13.5361L8.02441 45.4805H7.91992V55.5684H4.7998V41.0078H8.85645L14.3682 51.0957ZM42.1387 41.0078C43.1092 41.0078 43.9624 41.2092 44.6973 41.6113C45.432 41.9996 46.0003 42.5545 46.4023 43.2754C46.8183 43.9964 47.0264 44.8352 47.0264 45.792C47.0264 46.8181 46.7765 47.7053 46.2773 48.4541C45.792 49.189 45.1755 49.7305 44.4268 50.0771L47.5469 55.5684H44.1973L41.3896 50.4717H39.0186V55.5684H35.8984V41.0078H42.1387ZM57.5566 51.1582H57.6816L61.1348 41.0078H65.6484V55.5684H62.5283V45.2725H62.4238L58.8877 55.5684H56.2881L52.752 45.2725H52.6484V55.5684H49.5283V41.0078H54.1045L57.5566 51.1582ZM81.249 55.5684H78.0254L77.0889 52.8643H71.0986L70.1621 55.5684H67.001L72.2012 41.0078H76.0488L81.249 55.5684ZM85.7168 52.7598H92.373V55.5684H82.5967V41.0078H85.7168V52.7598ZM26.7412 43.6084C25.6043 43.6085 24.696 44.0103 24.0166 44.8145C23.3372 45.6187 22.9971 46.7767 22.9971 48.2881C22.9971 49.7995 23.3372 50.9575 24.0166 51.7617C24.696 52.5659 25.6043 52.9677 26.7412 52.9678C27.8783 52.9678 28.7873 52.566 29.4668 51.7617C30.1462 50.9575 30.4853 49.7994 30.4854 48.2881C30.4854 46.7768 30.1461 45.6187 29.4668 44.8145C28.7873 44.0102 27.8783 43.6084 26.7412 43.6084ZM72.0342 50.1602H76.1318L74.1357 44.4404H74.0312L72.0342 50.1602ZM39.0186 47.7676H41.9307C42.5129 47.7675 42.9843 47.5946 43.3447 47.248C43.7191 46.8875 43.9062 46.4021 43.9062 45.792C43.9062 45.1819 43.7191 44.7031 43.3447 44.3564C42.9843 43.9961 42.5128 43.8165 41.9307 43.8164H39.0186V47.7676Z" fill="#243946"/>
</svg>
