<svg width="96" height="96" viewBox="0 0 96 96" fill="none" xmlns="http://www.w3.org/2000/svg">
<path fill-rule="evenodd" clip-rule="evenodd" d="M22.3523 43.445C22.4729 40.4325 20.1522 37.7401 16.997 37.6053C18.5366 25.4215 28.9201 16 41.5001 16H54.5001C67.0804 16 77.464 25.4218 79.0033 37.6059C75.8557 37.7486 73.5425 40.4373 73.6629 43.445C73.7714 46.1553 73.4873 50.2081 72.9027 51.7677C69.8015 49.4058 65.2586 50.0078 62.9153 53.2832C62.0913 54.435 61.6501 55.7816 61.604 57.1446L58.8698 58.1794C57.2729 58.853 55.5577 59.2 53.8251 59.2H42.1755C40.4429 59.2 38.7277 58.853 37.1308 58.1794L34.4114 57.1504C34.3664 55.7854 33.9251 54.4366 33.0999 53.2832C30.7566 50.0078 26.2138 49.4058 23.1125 51.7677C22.5279 50.2081 22.2439 46.1553 22.3523 43.445ZM54.5001 22.5116H41.5001C33.4467 22.5116 26.6151 27.7517 24.2171 35.0141L24.2753 34.8837C23.7894 36.5064 25.0023 38.1395 26.6934 38.1395H31.2106C32.082 38.1395 32.8231 37.5026 32.9557 36.6397L33.5166 32.9873C33.8092 31.0814 35.4463 29.6744 37.3712 29.6744H58.6294C60.5543 29.6744 62.1914 31.0814 62.484 32.9873L63.045 36.6397C63.1775 37.5026 63.9186 38.1395 64.7901 38.1395H69.3072C70.9983 38.1395 72.2112 36.5064 71.7253 34.8837L71.782 35.0106C69.383 27.75 62.5522 22.5116 54.5001 22.5116Z" fill="#243946"/>
<path d="M63.6695 63.0666C60.9769 64.6701 57.8438 65.6 54.5001 65.6H41.5001C38.1612 65.6 35.0322 64.6728 32.3422 63.0735L30.2115 67.1412C29.9215 67.6947 29.5959 68.2287 29.2368 68.7396C32.8502 70.8141 37.0369 72 41.5001 72H54.5001C58.9677 72 63.1583 70.8117 66.7741 68.7335C66.4167 68.2244 66.0926 67.6925 65.8038 67.1412L63.6695 63.0666Z" fill="#243946"/>
<path d="M23.1402 69.1995L20.8001 84.8H9.6001L14.8773 65.1991C15.0849 64.4277 14.9966 63.6066 14.6296 62.897L11.985 57.7841C11.4734 56.795 11.2683 55.6758 11.3959 54.5695L12.5549 44.5249C12.6946 43.3139 13.72 42.4 14.9391 42.4H16.7485C17.21 42.4 17.5748 42.7904 17.5568 43.2515C17.3694 48.0382 18.1763 51.9952 19.608 55.4678C20.2646 57.0604 21.8774 58 23.6001 58L25.7745 55.8031C26.7532 54.8142 28.3865 54.9446 29.196 56.0761C29.6891 56.7653 29.7521 57.6734 29.3589 58.4241L25.9594 64.914C25.7203 65.3706 25.4447 65.8072 25.1354 66.2195L23.4425 68.4768C23.2834 68.6889 23.1795 68.9373 23.1402 69.1995Z" fill="#243946"/>
<path d="M75.2001 84.8L72.86 69.1995C72.8207 68.9373 72.7168 68.6889 72.5577 68.4768L70.8648 66.2195C70.5555 65.8072 70.2799 65.3706 70.0408 64.914L66.6413 58.4241C66.2481 57.6734 66.3111 56.7653 66.8042 56.0761C67.6137 54.9446 69.2469 54.8142 70.2257 55.8031L72.4001 58C74.1228 58 75.7356 57.0604 76.3922 55.4678C77.8239 51.9952 78.6308 48.0382 78.4434 43.2515C78.4254 42.7904 78.7902 42.4 79.2517 42.4H81.0611C82.2802 42.4 83.3055 43.3139 83.4453 44.5249L84.6043 54.5695C84.7319 55.6758 84.5268 56.795 84.0152 57.7841L81.3706 62.897C81.0036 63.6066 80.9153 64.4277 81.1229 65.1991L86.4001 84.8H75.2001Z" fill="#243946"/>
</svg>
