<svg width="96" height="96" viewBox="0 0 96 96" fill="none" xmlns="http://www.w3.org/2000/svg">
<path d="M6.58099 53.9428C5.58717 53.9428 4.71193 53.7058 3.95527 53.2317C3.2099 52.7458 2.62829 52.0228 2.21043 51.0628C1.80387 50.1028 1.60059 48.9295 1.60059 47.5428C1.60059 46.1799 1.80387 45.0184 2.21043 44.0584C2.617 43.0984 3.19296 42.3754 3.93833 41.8895C4.68369 41.3917 5.56458 41.1428 6.58099 41.1428C7.57481 41.1428 8.44441 41.3858 9.18977 41.8717C9.94643 42.3458 10.528 43.0628 10.9346 44.0228C11.3525 44.9828 11.5614 46.1562 11.5614 47.5428C11.5614 48.9058 11.3581 50.0673 10.9516 51.0273C10.545 51.9873 9.96902 52.7162 9.22366 53.2139C8.47829 53.6999 7.5974 53.9428 6.58099 53.9428ZM6.58099 51.9517C7.428 51.9517 8.1169 51.5725 8.64769 50.8139C9.17848 50.0436 9.44388 48.9532 9.44388 47.5428C9.44388 46.571 9.314 45.7591 9.05425 45.1073C8.8058 44.4436 8.467 43.9517 8.03784 43.6317C7.60869 43.2999 7.12308 43.1339 6.58099 43.1339C6.02761 43.1339 5.53635 43.3058 5.1072 43.6495C4.67805 43.9813 4.33924 44.4791 4.09079 45.1428C3.84233 45.8065 3.71811 46.6065 3.71811 47.5428C3.71811 48.5147 3.84233 49.3325 4.09079 49.9962C4.35054 50.648 4.69499 51.1399 5.12414 51.4717C5.56458 51.7917 6.0502 51.9517 6.58099 51.9517Z" fill="#243946"/>
<path d="M18.0288 53.9428C17.035 53.9428 16.1598 53.7058 15.4031 53.2317C14.6577 52.7458 14.0761 52.0228 13.6583 51.0628C13.2517 50.1028 13.0484 48.9295 13.0484 47.5428C13.0484 46.1799 13.2517 45.0184 13.6583 44.0584C14.0648 43.0984 14.6408 42.3754 15.3862 41.8895C16.1315 41.3917 17.0124 41.1428 18.0288 41.1428C19.0227 41.1428 19.8922 41.3858 20.6376 41.8717C21.3943 42.3458 21.9759 43.0628 22.3825 44.0228C22.8003 44.9828 23.0092 46.1562 23.0092 47.5428C23.0092 48.9058 22.806 50.0673 22.3994 51.0273C21.9928 51.9873 21.4169 52.7162 20.6715 53.2139C19.9261 53.6999 19.0452 53.9428 18.0288 53.9428ZM18.0288 51.9517C18.8758 51.9517 19.5647 51.5725 20.0955 50.8139C20.6263 50.0436 20.8917 48.9532 20.8917 47.5428C20.8917 46.571 20.7618 45.7591 20.5021 45.1073C20.2536 44.4436 19.9148 43.9517 19.4857 43.6317C19.0565 43.2999 18.5709 43.1339 18.0288 43.1339C17.4755 43.1339 16.9842 43.3058 16.555 43.6495C16.1259 43.9813 15.7871 44.4791 15.5386 45.1428C15.2902 45.8065 15.1659 46.6065 15.1659 47.5428C15.1659 48.5147 15.2902 49.3325 15.5386 49.9962C15.7984 50.648 16.1428 51.1399 16.572 51.4717C17.0124 51.7917 17.498 51.9517 18.0288 51.9517Z" fill="#243946"/>
<path d="M29.4767 53.9428C28.4828 53.9428 27.6076 53.7058 26.8509 53.2317C26.1056 52.7458 25.524 52.0228 25.1061 51.0628C24.6995 50.1028 24.4963 48.9295 24.4963 47.5428C24.4963 46.1799 24.6995 45.0184 25.1061 44.0584C25.5127 43.0984 26.0886 42.3754 26.834 41.8895C27.5794 41.3917 28.4603 41.1428 29.4767 41.1428C30.4705 41.1428 31.3401 41.3858 32.0855 41.8717C32.8421 42.3458 33.4237 43.0628 33.8303 44.0228C34.2481 44.9828 34.4571 46.1562 34.4571 47.5428C34.4571 48.9058 34.2538 50.0673 33.8472 51.0273C33.4407 51.9873 32.8647 52.7162 32.1193 53.2139C31.374 53.6999 30.4931 53.9428 29.4767 53.9428ZM29.4767 51.9517C30.3237 51.9517 31.0126 51.5725 31.5434 50.8139C32.0742 50.0436 32.3396 48.9532 32.3396 47.5428C32.3396 46.571 32.2097 45.7591 31.9499 45.1073C31.7015 44.4436 31.3627 43.9517 30.9335 43.6317C30.5044 43.2999 30.0188 43.1339 29.4767 43.1339C28.9233 43.1339 28.432 43.3058 28.0029 43.6495C27.5737 43.9813 27.2349 44.4791 26.9865 45.1428C26.738 45.8065 26.6138 46.6065 26.6138 47.5428C26.6138 48.5147 26.738 49.3325 26.9865 49.9962C27.2462 50.648 27.5907 51.1399 28.0198 51.4717C28.4603 51.7917 28.9459 51.9517 29.4767 51.9517Z" fill="#243946"/>
<path d="M40.9245 53.9428C39.9307 53.9428 39.0554 53.7058 38.2988 53.2317C37.5534 52.7458 36.9718 52.0228 36.5539 51.0628C36.1474 50.1028 35.9441 48.9295 35.9441 47.5428C35.9441 46.1799 36.1474 45.0184 36.5539 44.0584C36.9605 43.0984 37.5365 42.3754 38.2818 41.8895C39.0272 41.3917 39.9081 41.1428 40.9245 41.1428C41.9183 41.1428 42.7879 41.3858 43.5333 41.8717C44.29 42.3458 44.8716 43.0628 45.2781 44.0228C45.696 44.9828 45.9049 46.1562 45.9049 47.5428C45.9049 48.9058 45.7016 50.0673 45.2951 51.0273C44.8885 51.9873 44.3125 52.7162 43.5672 53.2139C42.8218 53.6999 41.9409 53.9428 40.9245 53.9428ZM40.9245 51.9517C41.7715 51.9517 42.4604 51.5725 42.9912 50.8139C43.522 50.0436 43.7874 48.9532 43.7874 47.5428C43.7874 46.571 43.6575 45.7591 43.3978 45.1073C43.1493 44.4436 42.8105 43.9517 42.3814 43.6317C41.9522 43.2999 41.4666 43.1339 40.9245 43.1339C40.3711 43.1339 39.8799 43.3058 39.4507 43.6495C39.0216 43.9813 38.6828 44.4791 38.4343 45.1428C38.1858 45.8065 38.0616 46.6065 38.0616 47.5428C38.0616 48.5147 38.1858 49.3325 38.4343 49.9962C38.6941 50.648 39.0385 51.1399 39.4677 51.4717C39.9081 51.7917 40.3937 51.9517 40.9245 51.9517Z" fill="#243946"/>
<path d="M52.3723 53.9428C51.3785 53.9428 50.5033 53.7058 49.7466 53.2317C49.0013 52.7458 48.4196 52.0228 48.0018 51.0628C47.5952 50.1028 47.3919 48.9295 47.3919 47.5428C47.3919 46.1799 47.5952 45.0184 48.0018 44.0584C48.4083 43.0984 48.9843 42.3754 49.7297 41.8895C50.475 41.3917 51.3559 41.1428 52.3723 41.1428C53.3662 41.1428 54.2358 41.3858 54.9811 41.8717C55.7378 42.3458 56.3194 43.0628 56.726 44.0228C57.1438 44.9828 57.3527 46.1562 57.3527 47.5428C57.3527 48.9058 57.1495 50.0673 56.7429 51.0273C56.3363 51.9873 55.7604 52.7162 55.015 53.2139C54.2696 53.6999 53.3888 53.9428 52.3723 53.9428ZM52.3723 51.9517C53.2194 51.9517 53.9083 51.5725 54.439 50.8139C54.9698 50.0436 55.2352 48.9532 55.2352 47.5428C55.2352 46.571 55.1054 45.7591 54.8456 45.1073C54.5972 44.4436 54.2584 43.9517 53.8292 43.6317C53.4 43.2999 52.9144 43.1339 52.3723 43.1339C51.819 43.1339 51.3277 43.3058 50.8985 43.6495C50.4694 43.9813 50.1306 44.4791 49.8821 45.1428C49.6337 45.8065 49.5095 46.6065 49.5095 47.5428C49.5095 48.5147 49.6337 49.3325 49.8821 49.9962C50.1419 50.648 50.4863 51.1399 50.9155 51.4717C51.3559 51.7917 51.8416 51.9517 52.3723 51.9517Z" fill="#243946"/>
<path d="M63.8202 53.9428C62.8264 53.9428 61.9511 53.7058 61.1945 53.2317C60.4491 52.7458 59.8675 52.0228 59.4496 51.0628C59.0431 50.1028 58.8398 48.9295 58.8398 47.5428C58.8398 46.1799 59.0431 45.0184 59.4496 44.0584C59.8562 43.0984 60.4322 42.3754 61.1775 41.8895C61.9229 41.3917 62.8038 41.1428 63.8202 41.1428C64.814 41.1428 65.6836 41.3858 66.429 41.8717C67.1856 42.3458 67.7672 43.0628 68.1738 44.0228C68.5917 44.9828 68.8006 46.1562 68.8006 47.5428C68.8006 48.9058 68.5973 50.0673 68.1908 51.0273C67.7842 51.9873 67.2082 52.7162 66.4629 53.2139C65.7175 53.6999 64.8366 53.9428 63.8202 53.9428ZM63.8202 51.9517C64.6672 51.9517 65.3561 51.5725 65.8869 50.8139C66.4177 50.0436 66.6831 48.9532 66.6831 47.5428C66.6831 46.571 66.5532 45.7591 66.2934 45.1073C66.045 44.4436 65.7062 43.9517 65.277 43.6317C64.8479 43.2999 64.3623 43.1339 63.8202 43.1339C63.2668 43.1339 62.7755 43.3058 62.3464 43.6495C61.9172 43.9813 61.5784 44.4791 61.33 45.1428C61.0815 45.8065 60.9573 46.6065 60.9573 47.5428C60.9573 48.5147 61.0815 49.3325 61.33 49.9962C61.5897 50.648 61.9342 51.1399 62.3633 51.4717C62.8038 51.7917 63.2894 51.9517 63.8202 51.9517Z" fill="#243946"/>
<path d="M81.3275 52.7815H79.2026L76.9006 49.406H75.4518V52.7815H73.6006V41.9428H75.4518V47.8731H76.9167L79.106 44.637H81.086L78.3816 48.5544L81.3275 52.7815Z" fill="#243946"/>
<path d="M82.3707 52.7815V44.637H83.9322L84.1415 45.628H84.222C84.7156 44.8641 85.4186 44.4822 86.3308 44.4822C86.8352 44.4822 87.2966 44.606 87.7152 44.8538C88.1445 45.1015 88.4718 45.437 88.6972 45.8602H88.7776C89.003 45.437 89.3518 45.1015 89.824 44.8538C90.2962 44.606 90.8113 44.4822 91.3694 44.4822C91.9596 44.4822 92.4855 44.6164 92.947 44.8848C93.4084 45.1428 93.7679 45.5196 94.0255 46.0151C94.2938 46.5002 94.428 47.0731 94.428 47.7338V52.7815H92.5767V47.9196C92.5767 47.3209 92.4265 46.8667 92.126 46.557C91.8255 46.2473 91.4284 46.0925 90.9347 46.0925C90.484 46.0925 90.103 46.2577 89.7918 46.588C89.4806 46.9183 89.325 47.3622 89.325 47.9196V52.7815H87.4737V47.9196C87.4737 47.3209 87.3235 46.8667 87.023 46.557C86.7225 46.2473 86.3254 46.0925 85.8317 46.0925C85.381 46.0925 85 46.2577 84.6888 46.588C84.3776 46.9183 84.222 47.3622 84.222 47.9196V52.7815H82.3707Z" fill="#243946"/>
</svg>
