<svg width="96" height="96" viewBox="0 0 96 96" fill="none" xmlns="http://www.w3.org/2000/svg">
<path d="M52.0001 14.4H44.0001V48H52.0001V14.4Z" fill="#243946"/>
<path d="M24.4451 24.2412C19.7461 28.9403 16.546 34.9272 15.2495 41.445C13.953 47.9627 14.6184 54.7186 17.1615 60.8582C19.7046 66.9978 24.0112 72.2454 29.5367 75.9374C35.0622 79.6294 41.5584 81.6 48.2039 81.6C54.8493 81.6 61.3456 79.6294 66.8711 75.9374C72.3965 72.2454 76.7031 66.9978 79.2462 60.8582C81.7893 54.7186 82.4547 47.9628 81.1583 41.445C79.8618 34.9272 76.6617 28.9403 71.9627 24.2412L66.3058 29.8981C69.8861 33.4783 72.3242 38.0398 73.312 43.0057C74.2998 47.9716 73.7928 53.1189 71.8552 57.7967C69.9176 62.4745 66.6364 66.4727 62.4265 69.2856C58.2166 72.0986 53.2671 73.6 48.2039 73.6C43.1407 73.6 38.1912 72.0986 33.9813 69.2856C29.7714 66.4727 26.4902 62.4745 24.5526 57.7967C22.615 53.1189 22.108 47.9716 23.0958 43.0057C24.0836 38.0398 26.5217 33.4783 30.102 29.8981L24.4451 24.2412Z" fill="#243946"/>
</svg>
