<svg width="96" height="96" viewBox="0 0 96 96" fill="none" xmlns="http://www.w3.org/2000/svg">
<path d="M11.7832 52.0049C13.204 52.0049 14.4576 52.3101 15.543 52.9219C16.648 53.5139 17.5064 54.3531 18.1182 55.4385C18.7298 56.5237 19.0361 57.747 19.0361 59.1084C19.0361 60.47 18.7299 61.694 18.1182 62.7793C17.5065 63.8644 16.6479 64.7125 15.543 65.3242C14.4576 65.9162 13.204 66.2129 11.7832 66.2129H7.63965V72.7246H3.19922V52.0049H11.7832ZM36.3379 56H26.7178V60.4404H35.7461V64.1406H26.7178V68.7285H36.6338V72.7246H22.2773V52.0049H36.3379V56ZM48.0186 52.0049C49.9325 52.0049 51.5998 52.4193 53.0205 53.248C54.461 54.0571 55.5663 55.2409 56.3359 56.7998C57.1055 58.3587 57.4902 60.2135 57.4902 62.3643C57.4902 64.5152 57.1055 66.3708 56.3359 67.9297C55.5663 69.4885 54.461 70.682 53.0205 71.5107C51.5998 72.3198 49.9325 72.7246 48.0186 72.7246H40.0264V52.0049H48.0186ZM78.374 72.7246H73.7861L72.4541 68.877H63.9297L62.5977 72.7246H58.0986L65.498 52.0049H70.9746L78.374 72.7246ZM84.7324 68.7285H94.2051V72.7246H80.293V52.0049H84.7324V68.7285ZM44.4658 68.7285H47.8701C48.8368 68.7285 49.7051 68.4919 50.4746 68.0186C51.2639 67.545 51.886 66.8339 52.3398 65.8867C52.8134 64.9198 53.0498 63.7455 53.0498 62.3643C53.0498 60.9832 52.8133 59.8192 52.3398 58.8721C51.886 57.9051 51.2639 57.1845 50.4746 56.7109C49.7051 56.2375 48.8369 56 47.8701 56H44.4658V68.7285ZM65.2617 65.0283H71.0928L68.251 56.8887H68.1035L65.2617 65.0283ZM7.63965 62.2168H11.3398C12.3659 62.2168 13.1651 61.9402 13.7373 61.3877C14.3096 60.8352 14.5957 60.0753 14.5957 59.1084C14.5957 58.1415 14.3096 57.3816 13.7373 56.8291C13.1651 56.2766 12.3658 56 11.3398 56H7.63965V62.2168ZM25.7676 23.2041C27.7409 23.2041 29.4577 23.629 30.918 24.4775C32.398 25.3063 33.5329 26.5198 34.3223 28.1182C35.1313 29.7165 35.5361 31.6306 35.5361 33.8604C35.5361 36.0901 35.1312 38.0042 34.3223 39.6025C33.5329 41.2009 32.398 42.4249 30.918 43.2734C29.4577 44.1022 27.7409 44.5166 25.7676 44.5166C23.7944 44.5166 22.0678 44.1021 20.5879 43.2734C19.1276 42.4249 17.9927 41.2009 17.1836 39.6025C16.3944 38.0042 16 36.0901 16 33.8604C16 31.6306 16.3943 29.7165 17.1836 28.1182C17.9927 26.5198 19.1276 25.3063 20.5879 24.4775C22.0679 23.629 23.7943 23.2041 25.7676 23.2041ZM52.415 37.8564H52.5625V23.5H57.0029V44.2207H51.2305L43.3867 29.8643H43.2383V44.2207H38.7988V23.5H44.5703L52.415 37.8564ZM75.2031 27.4961H65.583V31.9365H74.6113V35.6367H65.583V40.2246H75.499V44.2207H61.1436V23.5H75.2031V27.4961ZM25.7676 27.2002C24.1495 27.2002 22.8566 27.7725 21.8896 28.917C20.9228 30.0615 20.4395 31.7095 20.4395 33.8604C20.4395 36.0112 20.9228 37.6592 21.8896 38.8037C22.8566 39.9482 24.1495 40.5205 25.7676 40.5205C27.3857 40.5205 28.6786 39.9482 29.6455 38.8037C30.6124 37.6592 31.0957 36.0112 31.0957 33.8604C31.0957 31.7095 30.6124 30.0615 29.6455 28.917C28.6786 27.7725 27.3857 27.2002 25.7676 27.2002Z" fill="#243946"/>
</svg>
