<svg width="96" height="96" viewBox="0 0 96 96" fill="none" xmlns="http://www.w3.org/2000/svg">
<path d="M80.7999 48C80.7999 57.0574 77.1287 65.2574 71.1931 71.1931L76.8499 76.8499C84.2333 69.4666 88.7999 59.2666 88.7999 48C88.7999 25.4667 70.5332 7.19995 48 7.19995C25.4667 7.19995 7.19995 25.4667 7.19995 48C7.19995 59.2666 11.7666 69.4666 19.15 76.8499L24.8068 71.1931C18.8712 65.2574 15.2 57.0574 15.2 48C15.2 29.885 29.885 15.2 48 15.2C66.1149 15.2 80.7999 29.885 80.7999 48Z" fill="#243946"/>
<path d="M75.2 48.3999C75.2 55.8006 72.2003 62.5006 67.3504 67.3504L61.6936 61.6936C65.0957 58.2914 67.2 53.5914 67.2 48.3999C67.2 38.017 58.7829 29.5999 48.4 29.5999C38.017 29.5999 29.6 38.017 29.6 48.3999C29.6 53.3879 31.5425 57.9222 34.7123 61.2876L29.0537 66.9462C24.437 62.1316 21.6 55.5971 21.6 48.3999C21.6 33.5987 33.5987 21.6 48.4 21.6C63.2012 21.6 75.2 33.5987 75.2 48.3999Z" fill="#243946"/>
<path d="M56 48C56 50.9218 54.4336 53.4777 52.0948 54.874L57.9215 84.0077C58.169 85.2453 57.2224 86.3999 55.9603 86.3999H40.0396C38.7775 86.3999 37.8309 85.2453 38.0784 84.0077L43.9051 54.874C41.5663 53.4777 40 50.9218 40 48C40 43.5817 43.5817 40 48 40C52.4182 40 56 43.5817 56 48Z" fill="#243946"/>
</svg>
