<svg width="96" height="96" viewBox="0 0 96 96" fill="none" xmlns="http://www.w3.org/2000/svg">
<path d="M69.181 21.6L57.6002 21.6V15.2H76.0335C78.2426 15.2 80.0335 16.9908 80.0335 19.2V37.6333L73.6335 37.6333V26.1984L55.9768 43.8551L51.4513 39.3296L69.181 21.6Z" fill="#243946"/>
<path d="M31.4272 63.7872C21.8095 54.1695 16.0246 41.3458 15.2002 27.7613C15.2002 25.9152 15.933 24.1467 17.2365 22.8362C18.54 21.5327 20.3155 20.8 22.1616 20.8H33.2236C34.9499 20.8 36.5071 21.8496 37.1482 23.4561L41.714 34.8636C42.482 36.7942 41.7422 38.9925 39.9666 40.0564L34.2876 42.8466C34.2876 42.8466 38.0092 50.0089 41.6002 53.6C45.1912 57.191 52.3535 60.9126 52.3535 60.9126L55.1437 55.2335C56.2076 53.4579 58.4059 52.7181 60.3365 53.4861L71.7439 58.0519C73.3503 58.6931 74.4002 60.2503 74.4002 61.9765V73.0386C74.4002 74.8847 73.6674 76.6602 72.3639 77.9637C71.0534 79.2672 69.2849 80 67.4388 80C53.8543 79.1756 41.0448 73.4049 31.4272 63.7872Z" fill="#243946"/>
</svg>
