<svg width="96" height="96" viewBox="0 0 96 96" fill="none" xmlns="http://www.w3.org/2000/svg">
<path d="M16.6314 63.491C18.6351 67.9423 21.5631 71.9162 25.221 75.1487L20.983 79.9445C16.6446 76.1106 13.1718 71.3974 10.7954 66.1179C8.41901 60.8384 7.19347 55.1136 7.20022 49.3239C7.20697 43.5343 8.44586 37.8124 10.8345 32.5384C13.2232 27.2645 16.707 22.5593 21.0544 18.7356L25.2812 23.5413C21.6157 26.7652 18.6784 30.7323 16.6645 35.1789C14.6505 39.6255 13.6059 44.4499 13.6002 49.3314C13.5945 54.2129 14.6278 59.0396 16.6314 63.491Z" fill="#243946"/>
<path d="M79.3682 63.491C77.3646 67.9423 74.4365 71.9162 70.7786 75.1487L75.0166 79.9445C79.3551 76.1106 82.8279 71.3974 85.2042 66.1179C87.5806 60.8384 88.8062 55.1136 88.7994 49.3239C88.7927 43.5343 87.5538 37.8124 85.1651 32.5384C82.7764 27.2645 79.2926 22.5593 74.9452 18.7356L70.7185 23.5413C74.3839 26.7652 77.3212 30.7323 79.3352 35.1789C81.3492 39.6255 82.3937 44.4499 82.3994 49.3314C82.4051 54.2129 81.3718 59.0396 79.3682 63.491Z" fill="#243946"/>
<path fill-rule="evenodd" clip-rule="evenodd" d="M51.2652 35.7699H40.0002V62.9699H45.0292V53.8385H51.2652C53.1427 53.8385 54.8056 53.4499 56.254 52.6728C57.7023 51.8956 58.8154 50.8206 59.5932 49.4476C60.3979 48.0747 60.8002 46.5204 60.8002 44.7848C60.8002 43.0492 60.3979 41.5078 59.5932 40.1608C58.8154 38.7878 57.7023 37.7128 56.254 36.9357C54.8056 36.1585 53.1427 35.7699 51.2652 35.7699ZM54.4435 48.2042C53.5852 49.059 52.3783 49.4865 50.8226 49.4865H45.0292V40.1219H50.8226C52.3783 40.1219 53.5852 40.5494 54.4435 41.4042C55.3286 42.2332 55.7712 43.36 55.7712 44.7848C55.7712 46.2095 55.3286 47.3493 54.4435 48.2042Z" fill="#243946"/>
<path fill-rule="evenodd" clip-rule="evenodd" d="M48.0002 77.3698C63.4642 77.3698 76.0002 64.8338 76.0002 49.3699C76.0002 33.906 63.4642 21.37 48.0002 21.37C32.5362 21.37 20.0002 33.906 20.0002 49.3699C20.0002 64.8338 32.5362 77.3698 48.0002 77.3698ZM48.0002 70.9698C59.9296 70.9698 69.6002 61.2992 69.6002 49.3699C69.6002 37.4406 59.9296 27.77 48.0002 27.77C36.0708 27.77 26.4002 37.4406 26.4002 49.3699C26.4002 61.2992 36.0708 70.9698 48.0002 70.9698Z" fill="#243946"/>
</svg>
