<svg width="96" height="96" viewBox="0 0 96 96" fill="none" xmlns="http://www.w3.org/2000/svg">
<path fill-rule="evenodd" clip-rule="evenodd" d="M12.8 80V12.8H39.2334C43.7519 12.8 47.6895 13.76 51.0461 15.68C54.4027 17.536 56.9847 20.128 58.7921 23.456C60.6641 26.72 61.6 30.4 61.6 34.496C61.6 38.656 60.6641 42.4 58.7921 45.728C56.9847 48.992 54.4027 51.552 51.0461 53.408C47.6895 55.264 43.7519 56.192 39.2334 56.192H22.9667V80H12.8ZM38.4588 47.264C42.4609 47.264 45.6239 46.112 47.9477 43.808C50.2715 41.44 51.4334 38.336 51.4334 34.496C51.4334 30.656 50.2715 27.584 47.9477 25.28C45.6239 22.912 42.4609 21.728 38.4588 21.728H22.9667V47.264H38.4588Z" fill="#243946"/>
<path d="M88.2298 44.5406C88.2298 50.1729 87.1204 55.75 84.965 60.9536C82.8096 66.1571 79.6505 70.8852 75.6678 74.8678C71.6852 78.8504 66.9572 82.0096 61.7536 84.165C56.5501 86.3204 50.9729 87.4297 45.3407 87.4297V79.4297C49.9224 79.4297 54.4592 78.5273 58.6922 76.7739C62.9251 75.0206 66.7712 72.4507 70.011 69.2109C73.2507 65.9712 75.8207 62.125 77.574 57.8921C79.3273 53.6592 80.2298 49.1223 80.2298 44.5406H88.2298Z" fill="#243946"/>
<path d="M71.4055 55.2746C72.8166 51.8681 73.5429 48.2169 73.5429 44.5297H65.5429C65.5429 47.1664 65.0235 49.7772 64.0145 52.2132C63.0055 54.6492 61.5266 56.8625 59.6622 58.7269C57.7977 60.5914 55.5844 62.0703 53.1484 63.0793C50.7124 64.0883 48.1016 64.6076 45.4649 64.6076V72.6076C49.1521 72.6076 52.8033 71.8814 56.2099 70.4703C59.6164 69.0593 62.7117 66.9911 65.319 64.3838C67.9263 61.7765 69.9945 58.6812 71.4055 55.2746Z" fill="#243946"/>
</svg>
