<svg width="96" height="96" viewBox="0 0 96 96" fill="none" xmlns="http://www.w3.org/2000/svg">
<path d="M25.6001 81.6V14.4H52.0334C56.5519 14.4 60.4895 15.36 63.8461 17.28C67.2027 19.136 69.7848 21.728 71.5922 25.056C73.4641 28.32 74.4001 32 74.4001 36.096C74.4001 40.256 73.4641 44 71.5922 47.328C69.7848 50.592 67.2027 53.152 63.8461 55.008C60.4895 56.864 56.5519 57.792 52.0334 57.792H35.7668V81.6H25.6001ZM51.2588 48.864C55.2609 48.864 58.4239 47.712 60.7477 45.408C63.0715 43.04 64.2334 39.936 64.2334 36.096C64.2334 32.256 63.0715 29.184 60.7477 26.88C58.4239 24.512 55.2609 23.328 51.2588 23.328H35.7668V48.864H51.2588Z" fill="#243946"/>
</svg>
