<svg width="96" height="96" viewBox="0 0 96 96" fill="none" xmlns="http://www.w3.org/2000/svg">
<path d="M20.8054 24.2526C20.5269 29.3586 30.3751 65.4231 34.3558 79.7517C35.3199 83.2222 38.4813 85.5948 42.0832 85.6164C52.1752 85.6771 68.3891 85.7861 71.7743 84.6467C77.0202 82.881 80.8672 70.1677 79.818 66.2831C78.7688 62.3986 73.8727 60.2797 67.2278 60.2797C63.7882 60.2797 55.5696 62.4561 48.0047 65.0945C48.1339 64.0497 47.2619 55.7563 45.2551 50.1869C43.5498 45.4541 39.2545 38.788 39.2545 38.788C39.2545 38.788 34.8615 32.2536 34.3914 26.8C34.0707 23.0789 35.8831 19.3165 36.4874 17.4688C36.9669 13.5608 32.6283 9.59999 28.7913 9.60001C24.8166 9.60002 21.1541 17.8579 20.8054 24.2526Z" fill="#243946"/>
</svg>
