<svg width="96" height="96" viewBox="0 0 96 96" fill="none" xmlns="http://www.w3.org/2000/svg">
<path d="M31.1563 79.7517C27.1756 65.4231 17.3275 29.3586 17.6059 24.2526C17.9546 17.8579 21.6171 9.59999 25.5918 9.59998C29.4288 9.59996 33.7674 13.5608 33.2879 17.4688C33.1749 17.8145 33.0195 18.2273 32.8437 18.6943C32.0801 20.7231 30.9312 23.7752 31.1919 26.8C31.662 32.2536 36.055 38.788 36.055 38.788C36.055 38.788 40.3503 45.454 42.0556 50.1868C44.0624 55.7563 44.9344 64.0496 44.8052 65.0945C52.3702 62.4561 60.5887 60.2797 64.0284 60.2797C70.6732 60.2797 75.5694 62.3985 76.6185 66.2831C77.6677 70.1677 73.8207 82.8809 68.5748 84.6466C65.2225 85.775 49.2889 85.6791 39.179 85.6182L38.8837 85.6164C35.2819 85.5947 32.1205 83.2222 31.1563 79.7517Z" fill="#243946"/>
<path d="M60.6738 29.4737H54.7369V26.2288C54.7369 25.8725 54.3061 25.694 54.0541 25.946L48.0001 32L54.0541 38.054C54.3061 38.306 54.7369 38.1275 54.7369 37.7711V34.5263H60.6738C61.1156 34.5263 61.4738 34.8845 61.4738 35.3263V41.2631H58.2289C57.8726 41.2631 57.6941 41.694 57.9461 41.946L64.0001 48L70.0541 41.946C70.3061 41.694 70.1276 41.2631 69.7712 41.2631H66.5264V35.3263C66.5264 34.8845 66.8846 34.5263 67.3264 34.5263H73.2632V37.7711C73.2632 38.1275 73.6941 38.306 73.9461 38.054L80.0001 32L73.9461 25.946C73.6941 25.694 73.2632 25.8725 73.2632 26.2288V29.4737H67.3264C66.8846 29.4737 66.5264 29.1155 66.5264 28.6737V22.7368H69.7712C70.1276 22.7368 70.3061 22.306 70.0541 22.054L64.0001 16L57.9461 22.054C57.6941 22.306 57.8726 22.7368 58.2289 22.7368H61.4738V28.6737C61.4738 29.1155 61.1156 29.4737 60.6738 29.4737Z" fill="#243946"/>
</svg>
