<svg width="96" height="96" viewBox="0 0 96 96" fill="none" xmlns="http://www.w3.org/2000/svg">
<path d="M33.9199 12C36.0194 12 37.9135 13.2767 38.6934 15.2305L44.2461 29.1045C45.1802 31.4525 44.2806 34.1259 42.1211 35.4199L35.2148 38.8135C35.2404 38.8626 39.7533 47.5365 44.1084 51.8916C48.4758 56.259 57.1865 60.7861 57.1865 60.7861L60.5801 53.8789C61.8741 51.7194 64.5475 50.8198 66.8955 51.7539L80.7695 57.3066C82.7232 58.0865 84 59.9807 84 62.0801V75.5332C84 77.7784 83.1087 79.9381 81.5234 81.5234C79.9295 83.1088 77.7784 84 75.5332 84C59.0116 82.9973 43.4324 75.9793 31.7354 64.2822C20.0383 52.5851 13.0027 36.9885 12 20.4668C12 18.2216 12.8913 16.0705 14.4766 14.4766C16.0619 12.8912 18.2216 12 20.4668 12H33.9199Z" fill="#243946"/>
</svg>
