<svg width="96" height="96" viewBox="0 0 96 96" fill="none" xmlns="http://www.w3.org/2000/svg">
<path d="M79.3568 21.6569L73.6999 16L16 73.6999L21.6569 79.3568L37.2528 63.7608C46.5326 71.9523 58.3113 76.8458 70.7385 77.6C72.5846 77.6 74.3531 76.8673 75.6636 75.5638C76.9671 74.2603 77.6999 72.4847 77.6999 70.6387V59.5766C77.6999 57.8503 76.6501 56.2931 75.0436 55.6519L63.6362 51.0862C61.7056 50.3182 59.5073 51.058 58.4434 52.8336L55.6532 58.5126C55.6532 58.5126 53.5324 57.7235 51.6722 56.5538C50.2059 55.6368 48.8105 54.6235 47.4907 53.523L79.3568 21.6569Z" fill="#243946"/>
<path d="M37.5873 40.4466C37.5873 40.4466 38.2019 42.0985 39.1503 43.7652L28.6839 54.2316C22.6991 45.7985 19.1337 35.8048 18.4999 25.3613C18.4999 23.5153 19.2327 21.7467 20.5362 20.4362C21.8397 19.1327 23.6152 18.4 25.4613 18.4H36.5233C38.2496 18.4 39.8068 19.4497 40.448 21.0562L45.0137 32.4637C45.7817 34.3943 45.0419 36.5925 43.2663 37.6565L37.5873 40.4466Z" fill="#243946"/>
</svg>
