<svg width="96" height="96" viewBox="0 0 96 96" fill="none" xmlns="http://www.w3.org/2000/svg">
<path d="M68.7998 8C73.2181 8 76.7998 11.5817 76.7998 16V80C76.7998 84.4183 73.2181 88 68.7998 88H32C27.5817 88 24 84.4183 24 80V65.5996H32V80H68.7998V16H32V25.5996H24V16C24 11.5817 27.5817 8 32 8H68.7998ZM60 72H40.7998V65.5996H60V72ZM47.2969 42.7715C48.859 44.3336 48.859 46.8666 47.2969 48.4287L36.6631 59.0625L32.1377 54.5371L37.874 48.8008H21.5996C18.9488 48.801 16.7998 50.9497 16.7998 53.6006V59.2002H10.4004V53.6006C10.4004 47.4151 15.4142 42.4006 21.5996 42.4004H37.875L32.1377 36.6631L36.6631 32.1377L47.2969 42.7715Z" fill="#243946"/>
</svg>
