<svg width="96" height="96" viewBox="0 0 96 96" fill="none" xmlns="http://www.w3.org/2000/svg">
<path d="M29.5996 26.1256L29.5996 37.661H23.1996L23.1996 19.2277C23.1996 17.0186 24.9905 15.2277 27.1996 15.2277L45.6329 15.2277L45.6329 21.6277L34.1527 21.6277L47.4342 34.9092C47.7466 35.2216 48.2531 35.2216 48.5655 34.9092L68.1371 15.3376L72.6626 19.8631L51.9597 40.566C49.7727 42.753 46.227 42.7529 44.0401 40.566L29.5996 26.1256Z" fill="#243946"/>
<path d="M47.9897 48.8282C61.3884 48.8282 74.3505 53.6684 84.3874 62.4428C85.6732 63.7122 86.3947 65.4322 86.3996 67.2297C86.3996 69.0224 85.6732 70.7472 84.3873 72.0166L76.6818 79.6233C75.4794 80.8103 73.6635 81.1593 72.0979 80.4955L60.9714 75.7908C59.0917 74.9914 58.0758 72.9711 58.5715 71.0185L60.5838 65.1948C60.5838 65.1948 53.0024 62.8288 47.9996 62.8288C42.9969 62.8288 35.4155 65.1947 35.4155 65.1947L37.4278 71.0185C37.9235 72.971 36.9076 74.9914 35.0278 75.7908L23.9014 80.4954C22.3358 81.1592 20.5198 80.8103 19.3174 79.6233L11.6119 72.0165C10.326 70.7471 9.59961 69.0223 9.59961 67.2296C9.60451 65.4321 10.326 63.7121 11.6119 62.4427C21.6487 53.6684 34.591 48.8282 47.9897 48.8282Z" fill="#243946"/>
</svg>
