<svg width="96" height="96" viewBox="0 0 96 96" fill="none" xmlns="http://www.w3.org/2000/svg">
<path d="M47.9897 31.2C61.3884 31.2 74.3505 36.0402 84.3874 44.8146C85.6732 46.084 86.3947 47.804 86.3996 49.6015C86.3996 51.3942 85.6732 53.119 84.3873 54.3884L76.6818 61.9951C75.4794 63.1821 73.6635 63.5311 72.0979 62.8673L60.9714 58.1626C59.0917 57.3632 58.0758 55.3429 58.5715 53.3903L60.5838 47.5665C60.5838 47.5665 53.0024 45.2006 47.9996 45.2006C42.9969 45.2005 35.4155 47.5665 35.4155 47.5665L37.4278 53.3903C37.9235 55.3428 36.9076 57.3632 35.0278 58.1626L23.9014 62.8672C22.3358 63.531 20.5198 63.1821 19.3174 61.9951L11.6119 54.3883C10.326 53.1189 9.59961 51.3941 9.59961 49.6014C9.60451 47.8039 10.326 46.0839 11.6119 44.8145C21.6487 36.0402 34.591 31.2 47.9897 31.2Z" fill="#243946"/>
</svg>
