<svg width="96" height="96" viewBox="0 0 96 96" fill="none" xmlns="http://www.w3.org/2000/svg">
<path d="M19.9004 28.9909C19.0272 30.3015 18.4264 31.8002 18.166 33.402L22.127 34.0455C22.4435 32.3189 23.4553 30.7953 24.9297 29.8356C26.4404 28.8524 28.2962 28.5516 30.04 29.0075L28.4209 35.1989C30.0392 29.0097 30.0436 29.0085 30.0469 29.0094C30.0482 29.0097 30.0507 29.0108 30.0527 29.0114C30.0572 29.0125 30.0626 29.014 30.0674 29.0153C30.077 29.0178 30.0879 29.0202 30.0986 29.0231C30.1205 29.029 30.1454 29.0352 30.1719 29.0426C30.225 29.0575 30.2873 29.076 30.3584 29.0973C30.501 29.14 30.6799 29.1967 30.8887 29.2682C31.3049 29.4107 31.8506 29.6165 32.4824 29.901C33.7336 30.4644 35.4035 31.3714 37.0918 32.7692C40.615 35.6863 44 40.6021 44 47.9996C43.9999 55.397 40.615 60.312 37.0918 63.2291C35.4034 64.627 33.7336 65.5339 32.4824 66.0973C31.8506 66.3818 31.3049 66.5876 30.8887 66.7301C30.6799 66.8016 30.501 66.8583 30.3584 66.901C30.2873 66.9223 30.225 66.9408 30.1719 66.9557C30.1453 66.9631 30.1205 66.9703 30.0986 66.9762C30.0878 66.9791 30.077 66.9814 30.0674 66.984C30.0626 66.9853 30.0572 66.9867 30.0527 66.9879C30.0508 66.9884 30.0482 66.9886 30.0469 66.9889C30.0452 66.9893 30.0435 66.9902 29.8398 66.2164L28.4209 60.7994L30.04 66.9918C28.2963 67.4477 26.4403 67.1468 24.9297 66.1637C23.4548 65.2038 22.4432 63.6791 22.127 61.9518L18.166 62.5963C18.4264 64.198 19.0274 65.6968 19.9004 67.0075L8.10742 71.8209L6.29297 67.3776L18.1562 62.5348C18.1573 62.5417 18.1582 62.5485 18.1592 62.5543C18.1609 62.5649 18.1629 62.5748 18.1641 62.5817C18.1645 62.5846 18.1647 62.5872 18.165 62.5895C18.1652 62.5906 18.1658 62.5924 18.166 62.5934L22.127 61.9518C22.1193 61.9101 22.1103 61.8677 22.1035 61.8258V61.8219C22.1032 61.8201 22.103 61.8177 22.1025 61.8151C22.1017 61.8096 22.1001 61.8016 22.0986 61.7926C22.0957 61.7745 22.092 61.7491 22.0869 61.7174C22.0767 61.6532 22.0619 61.5612 22.0439 61.445C22.0079 61.212 21.9567 60.8785 21.8965 60.4645C21.7761 59.6372 21.6163 58.4789 21.4561 57.1461C21.1429 54.5414 20.7998 51.0359 20.7998 47.9996C20.7998 44.9633 21.1429 41.4571 21.4561 38.8522C21.6163 37.5197 21.7762 36.362 21.8965 35.5348C21.9568 35.1205 22.0079 34.7864 22.0439 34.5534C22.0619 34.4371 22.0767 34.3451 22.0869 34.2809C22.092 34.2491 22.0957 34.2238 22.0986 34.2057C22.1001 34.1967 22.1017 34.1887 22.1025 34.1832C22.1029 34.1807 22.1032 34.1781 22.1035 34.1764V34.1744C22.1036 34.174 22.1041 34.1721 28.4209 35.1989L22.1035 34.1725C22.1104 34.1304 22.1193 34.0884 22.127 34.0465C18.3483 33.4326 18.1741 33.4048 18.166 33.4039C18.1658 33.405 18.1652 33.4076 18.165 33.4088C18.1647 33.4112 18.1646 33.4144 18.1641 33.4176C18.1629 33.4245 18.1608 33.4336 18.1592 33.444C18.1583 33.4496 18.1573 33.4558 18.1562 33.4625L6.29297 28.6207L8.10742 24.1774L19.9004 28.9909ZM89.707 28.6207L77.8438 33.4625C77.8427 33.4558 77.8417 33.4496 77.8408 33.444C77.8391 33.4336 77.8371 33.4245 77.8359 33.4176C77.8354 33.4144 77.8353 33.4112 77.835 33.4088C77.8348 33.4076 77.8342 33.406 77.834 33.4049C77.826 33.4057 77.6529 33.4322 73.8721 34.0465C73.8797 34.0884 73.8896 34.1304 73.8965 34.1725V34.1764C73.8968 34.1781 73.8971 34.1807 73.8975 34.1832C73.8983 34.1887 73.8999 34.1967 73.9014 34.2057C73.9043 34.2238 73.908 34.2491 73.9131 34.2809C73.9233 34.3451 73.9381 34.4371 73.9561 34.5534C73.9921 34.7864 74.0432 35.1205 74.1035 35.5348C74.2238 36.362 74.3837 37.5197 74.5439 38.8522C74.8571 41.4571 75.2002 44.9633 75.2002 47.9996C75.2002 51.0359 74.8571 54.5414 74.5439 57.1461C74.3837 58.4789 74.2239 59.6372 74.1035 60.4645C74.0433 60.8785 73.9921 61.212 73.9561 61.445C73.9381 61.5612 73.9233 61.6532 73.9131 61.7174C73.9081 61.7491 73.9043 61.7745 73.9014 61.7926C73.8999 61.8016 73.8983 61.8096 73.8975 61.8151C73.897 61.8177 73.8968 61.8201 73.8965 61.8219V61.8239L67.5791 60.7994L73.8965 61.8258C73.8897 61.8677 73.8797 61.9091 73.8721 61.9508L77.834 62.5944C77.8342 62.5933 77.8348 62.5907 77.835 62.5895C77.8353 62.5872 77.8355 62.5846 77.8359 62.5817C77.8371 62.5748 77.8391 62.5649 77.8408 62.5543C77.8418 62.5485 77.8427 62.5417 77.8438 62.5348L89.707 67.3776L87.8926 71.8209L76.0996 67.0075C76.9726 65.6968 77.5736 64.198 77.834 62.5963L73.8721 61.9508C73.5558 63.6781 72.5451 65.2038 71.0703 66.1637C69.5597 67.1468 67.7038 67.4477 65.96 66.9918L67.5791 60.7994L66.1602 66.2164C65.9565 66.9902 65.9548 66.9893 65.9531 66.9889C65.9519 66.9886 65.9492 66.9884 65.9473 66.9879C65.9428 66.9867 65.9374 66.9853 65.9326 66.984C65.9229 66.9814 65.9122 66.9791 65.9014 66.9762C65.8795 66.9703 65.8547 66.9631 65.8281 66.9557C65.775 66.9408 65.7127 66.9223 65.6416 66.901C65.499 66.8583 65.3201 66.8016 65.1113 66.7301C64.6951 66.5876 64.1494 66.3818 63.5176 66.0973C62.2664 65.5339 60.5966 64.627 58.9082 63.2291C55.385 60.312 52.0001 55.397 52 47.9996C52 40.6021 55.385 35.6863 58.9082 32.7692C60.5965 31.3714 62.2664 30.4644 63.5176 29.901C64.1494 29.6165 64.6951 29.4107 65.1113 29.2682C65.3201 29.1967 65.499 29.14 65.6416 29.0973C65.7127 29.076 65.775 29.0575 65.8281 29.0426C65.8546 29.0352 65.8795 29.029 65.9014 29.0231C65.9122 29.0202 65.923 29.0178 65.9326 29.0153C65.9374 29.014 65.9428 29.0125 65.9473 29.0114C65.9493 29.0108 65.9518 29.0097 65.9531 29.0094C65.9564 29.0086 65.9651 29.026 67.5791 35.1989L65.96 29.0075C67.7038 28.5516 69.5596 28.8524 71.0703 29.8356C72.5446 30.7952 73.5555 32.319 73.8721 34.0455L77.834 33.402C77.5736 31.8002 76.9728 30.3015 76.0996 28.9909L87.8926 24.1774L89.707 28.6207ZM28.4209 35.1989C28.4209 35.1989 27.2002 42.7116 27.2002 47.9996C27.2002 53.2877 28.4209 60.7994 28.4209 60.7994C28.4426 60.7938 37.5994 58.3871 37.5996 47.9996C37.5996 37.612 28.4426 35.2045 28.4209 35.1989ZM67.5791 35.1989C67.5574 35.2045 58.4004 37.612 58.4004 47.9996C58.4006 58.3871 67.5574 60.7938 67.5791 60.7994C67.5791 60.7994 68.7998 53.2877 68.7998 47.9996C68.7998 42.7116 67.5791 35.1989 67.5791 35.1989ZM16.8574 45.5993C16.8218 46.4088 16.7998 47.2156 16.7998 47.9996C16.7998 48.7835 16.8218 49.5897 16.8574 50.3991H4.7998V45.5993H16.8574ZM91.2002 50.3991H79.1426C79.1782 49.5897 79.2002 48.7835 79.2002 47.9996C79.2002 47.2156 79.1782 46.4088 79.1426 45.5993H91.2002V50.3991Z" fill="#243946"/>
</svg>
