<svg width="96" height="96" viewBox="0 0 96 96" fill="none" xmlns="http://www.w3.org/2000/svg">
<path d="M25.2812 22.1677C21.6158 25.3916 18.6781 29.3588 16.6641 33.8054C14.6501 38.252 13.6063 43.0764 13.6006 47.9578C13.5949 52.8393 14.6282 57.6666 16.6318 62.1179C18.6354 66.569 21.5631 70.5428 25.2207 73.7751L20.9834 78.571C16.6451 74.7373 13.1723 70.0242 10.7959 64.7449C8.41956 59.4655 7.19349 53.7405 7.2002 47.9509C7.20695 42.1613 8.44627 36.4387 10.835 31.1648C13.2236 25.891 16.7074 21.1857 21.0547 17.3621L25.2812 22.1677ZM74.9453 17.3621C79.2926 21.1857 82.7764 25.8909 85.165 31.1648C87.5537 36.4387 88.7931 42.1613 88.7998 47.9509C88.8065 53.7405 87.5804 59.4655 85.2041 64.7449C82.8277 70.0242 79.3549 74.7373 75.0166 78.571L70.7783 73.7751C74.4362 70.5427 77.3646 66.5692 79.3682 62.1179C81.3718 57.6666 82.4051 52.8393 82.3994 47.9578C82.3937 43.0764 81.3489 38.252 79.335 33.8054C77.321 29.3589 74.3841 25.3916 70.7188 22.1677L74.9453 17.3621ZM48 19.9968C63.464 19.9968 76 32.5329 76 47.9968C75.9999 63.4607 63.4639 75.9968 48 75.9968C32.5362 75.9967 20.0001 63.4606 20 47.9968C20 32.5329 32.5361 19.997 48 19.9968ZM48 26.3962C36.0708 26.3964 26.4004 36.0676 26.4004 47.9968C26.4005 59.926 36.0709 69.5963 48 69.5964C59.9293 69.5964 69.6005 59.9261 69.6006 47.9968C69.6006 36.0675 59.9294 26.3962 48 26.3962ZM37.5352 40.8386C37.7518 40.7367 38.0025 40.7369 38.2188 40.8396L45.293 44.2019C45.4552 44.279 45.6384 44.2993 45.8135 44.2595L55.8682 41.9734C56.2874 41.8781 56.7071 42.1313 56.8184 42.5466L57.6406 45.614C57.6976 45.8266 57.8396 46.0065 58.0332 46.1111L64.2656 49.4734C64.6321 49.6712 64.7853 50.1173 64.6182 50.4988L61.5244 57.5613L60.625 59.3064C60.4157 59.7123 59.9092 59.8607 59.5137 59.6326L53.541 56.1843C53.3647 56.0825 53.2336 55.9173 53.1748 55.7224L52.3252 52.8962C52.2032 52.4915 51.7865 52.2515 51.375 52.3484L48.5039 53.0251C48.3056 53.0718 48.0964 53.0411 47.9199 52.9392L33.0361 44.3455C32.4773 44.0224 32.5116 43.2046 33.0957 42.9294L37.5352 40.8386Z" fill="#243946"/>
</svg>
