<svg width="96" height="96" viewBox="0 0 96 96" fill="none" xmlns="http://www.w3.org/2000/svg">
<path d="M55.2002 12L56.1758 20.6084C56.2716 21.4536 56.8574 22.1565 57.6553 22.4512C57.9072 22.5442 58.1529 22.639 58.3916 22.7354C58.5983 22.8158 58.8005 22.8984 58.998 22.9834C59.7682 23.3148 60.6658 23.2582 61.3379 22.7568L68.5195 17.4004L78.5996 27.8398L73.2861 34.7041C72.8092 35.3202 72.701 36.1454 72.999 36.8652C73.0841 37.0706 73.171 37.2808 73.2588 37.4941C73.368 37.7374 73.474 37.988 73.5762 38.2451C73.8847 39.0212 74.568 39.5996 75.3965 39.7051L84 40.7998V55.2002L75.2783 56.4863C74.4747 56.6048 73.8109 57.1669 73.5186 57.9248C73.4347 58.1422 73.3482 58.3598 73.2588 58.5771C73.1793 58.7898 73.0954 59.0009 73.0078 59.2109C72.6895 59.9744 72.7614 60.8567 73.2627 61.5146L78.5996 68.5195L68.5195 78.5996L61.2754 73.3193C60.6353 72.8528 59.7932 72.7795 59.0625 73.085C58.8316 73.1815 58.5957 73.2767 58.3555 73.3701C58.1119 73.4649 57.8669 73.5588 57.6201 73.6504C56.8382 73.9406 56.2728 74.6363 56.1777 75.4648L55.2002 84H40.7998L39.1465 75.3418C39.0009 74.5794 38.4558 73.957 37.7275 73.6885C37.4458 73.5846 37.1663 73.4781 36.8887 73.3701C36.6819 73.2897 36.4782 73.2087 36.2783 73.126C35.496 72.8022 34.5919 72.9125 33.9443 73.458L27.8398 78.5996L17.4004 68.5195L22.126 61.4502C22.5455 60.8226 22.6035 60.0229 22.3037 59.3301C22.1959 59.0809 22.0894 58.8301 21.9854 58.5771C21.9016 58.3735 21.8215 58.1695 21.7451 57.9658C21.4534 57.1887 20.7895 56.597 19.9697 56.4668L12 55.2002V40.7998L19.8545 39.7217C20.6975 39.606 21.3843 39.0026 21.6758 38.2031C21.7642 37.9606 21.8555 37.7242 21.9502 37.4941C22.0596 37.2504 22.1652 37.0116 22.2676 36.7783C22.5612 36.109 22.4834 35.3364 22.0732 34.7314L17.4004 27.8398L27.4795 17.4004L33.875 22.6445C34.5409 23.1905 35.4641 23.2788 36.2568 22.9424C36.4521 22.8595 36.6507 22.7787 36.8525 22.7002C37.1446 22.5805 37.4374 22.4647 37.7295 22.3535C38.4551 22.0772 39.0002 21.4561 39.1455 20.6934L40.7998 12H55.2002ZM48 26.4004C36.0707 26.4004 26.4004 36.0707 26.4004 48C26.4004 59.9293 36.0707 69.5996 48 69.5996C59.9293 69.5996 69.5996 59.9293 69.5996 48C69.5996 36.0707 59.9293 26.4004 48 26.4004ZM51.2002 64.7998H44.7998V58.0322H51.2002V64.7998ZM51.2002 34.4307L50.4004 53.3516H45.5996L44.7998 34.4307V31.2002H51.2002V34.4307Z" fill="#243946"/>
</svg>
