<svg width="96" height="96" viewBox="0 0 96 96" fill="none" xmlns="http://www.w3.org/2000/svg">
<path d="M77.6025 24.7998C80.0501 24.7999 82.1996 26.078 83.4307 27.9473C84.502 29.5701 84.8204 31.5162 84.4551 33.29L84.4092 33.5137L88.2646 40.0781C89.6742 42.473 90.4004 45.2017 90.4004 47.9639V59.6875C90.4004 63.8413 87.7457 66.9494 84.6943 68.1318C82.2462 71.9026 77.9038 74.4003 73.2969 74.4004C68.7707 74.4004 64.7431 72.1798 62.2051 68.5771L62.1826 68.5459H36.418L36.3848 68.5918C33.8464 72.1848 29.8011 74.3916 25.3057 74.3916C20.7995 74.3916 16.7617 72.1764 14.2158 68.582L14.1895 68.5459H13.6748C11.3808 68.5459 9.23899 67.3723 7.99609 65.4746C7.22594 64.3007 6.79427 62.8274 6.8877 61.2969V60.7568L7.11328 59.8945L7.06055 59.6367L7.01758 59.4307C6.72921 58.0307 5.91339 54.0674 5.69238 52.5537L5.69141 52.5498C4.97385 47.6127 8.33539 43.9899 11.7363 42.6387L23.1514 38.0869L23.1631 38.082C24.2129 37.6682 25.2174 37.0622 26.1377 36.2666L33.3984 30.001L33.4014 29.998C36.4246 27.3833 40.0987 25.6655 44 25.0518V31.5664C41.6663 32.1035 39.4608 33.2193 37.5898 34.8369L37.5879 34.8389L37.5791 34.8457L30.3242 41.1074L30.3213 41.1104C28.8741 42.361 27.2529 43.3504 25.5107 44.0371L14.0986 48.5869C13.4739 48.8352 12.8277 49.3227 12.4248 49.9023C12.0866 50.389 11.9212 50.9134 12.0244 51.627V51.6289C12.211 52.9064 12.9735 56.6219 13.2861 58.1396L13.6846 60.0645L13.2812 61.6084L13.2764 61.6865C13.2738 61.7289 13.2776 61.7805 13.293 61.8369C13.3091 61.8959 13.3325 61.9408 13.3477 61.9639L13.3506 61.9678C13.3801 62.0129 13.4278 62.0607 13.4941 62.0967C13.5592 62.132 13.622 62.1455 13.6748 62.1455H17.5L19.4385 64.8828C20.8433 66.8662 22.9751 67.9922 25.3057 67.9922C27.6367 67.9922 29.7679 66.8658 31.1572 64.8994L33.1035 62.1455H65.5029L67.4365 64.8906C68.8338 66.8741 70.9511 68 73.2969 68C75.6343 67.9999 78.0016 66.6872 79.3262 64.6475L80.4531 62.9121L82.3818 62.165C83.2234 61.8389 84 60.9368 84 59.6875V47.9639C84 46.3195 83.5676 44.715 82.749 43.3242L82.7461 43.3193L77.6475 34.6377L78.1865 31.999C78.224 31.8169 78.1838 31.6162 78.0898 31.4736L78.0859 31.4668C78.0387 31.395 77.9616 31.3214 77.8682 31.2695C77.7846 31.2232 77.6993 31.2002 77.6025 31.2002H60V24.7998H77.6025ZM55.2002 51.2002H48.7998V44.7998H55.2002V51.2002ZM55.2002 13.5996L54.4004 40H49.5996L48.7998 13.5996V9.59961H55.2002V13.5996Z" fill="#243946"/>
</svg>
