<svg width="96" height="96" viewBox="0 0 96 96" fill="none" xmlns="http://www.w3.org/2000/svg">
<path d="M9.59998 25.5056C9.59998 22.8425 11.7668 20.6949 14.4277 20.804C18.5298 20.9722 24.4309 21.3563 28.8 22.2288C36.4505 23.7566 48 28.4459 48 28.4459C48 28.4459 59.5495 23.7566 67.2 22.2288C71.5691 21.3563 77.4702 20.9722 81.5723 20.804C84.2331 20.6949 86.4 22.8425 86.4 25.5056V62.5339C86.4 65.1728 84.2697 67.3229 81.633 67.4301C77.5286 67.597 71.5907 67.9805 67.2 68.8574C59.5495 70.3852 48 75.0745 48 75.0745C48 75.0745 36.4505 70.3852 28.8 68.8574C24.4093 67.9805 18.4714 67.597 14.367 67.4301C11.7303 67.3229 9.59998 65.1728 9.59998 62.5339V25.5056Z" fill="#243946"/>
</svg>
