<svg width="96" height="96" viewBox="0 0 96 96" fill="none" xmlns="http://www.w3.org/2000/svg">
<path d="M52.5273 14.1816C50.3506 18.9438 50.252 24.3847 52.2266 29.21H42.7881V34.6338H54.6699C55.9112 37.6467 56.0173 40.9952 54.9863 44.0654H42.7881V49.4883H52.5918L52.5273 49.6309C51.0877 52.7803 50.5595 56.2265 50.9355 59.5947H42.7881V65.0176H52.3818C52.4303 65.1308 52.4755 65.247 52.5273 65.3604L54.4707 69.6104C56.0992 73.1729 56.0991 77.2675 54.4707 80.8301L53.5 82.9551L53.2168 83.5791L58.1475 85.834L59.4043 83.0859C61.6874 78.0914 61.6874 72.349 59.4043 67.3545L58.335 65.0176H71.1699V59.5947H56.4043C55.9963 57.0028 56.3491 54.3201 57.4619 51.8857L58.5566 49.4883H71.1699V44.0654H60.6172C61.3415 40.9584 61.2695 37.713 60.4004 34.6338H71.1699V29.21H58.1709L57.4619 27.6572C55.8332 24.0945 55.8333 19.9993 57.4619 16.4365L58.4326 14.3125L58.7168 13.6885L53.7852 11.4326L52.5273 14.1816ZM34.2695 12.8203C32.8747 11.9053 31.1635 11.6032 29.54 11.9834L28.873 12.1396L28.8789 12.1602C28.6753 12.2169 28.4289 12.2854 28.1465 12.3721C27.3658 12.6115 26.2903 12.9722 25.0205 13.4844C22.4963 14.5027 19.1047 16.1544 15.6816 18.6934C8.71638 23.86 1.59966 32.7813 1.59961 46.9453L1.60547 47.6055C1.82266 61.3876 8.82502 70.1134 15.6816 75.1992C19.1047 77.7382 22.4965 79.388 25.0205 80.4062C26.2904 80.9185 27.3658 81.2791 28.1465 81.5186C28.429 81.6052 28.6753 81.6738 28.8789 81.7305L28.873 81.751L29.54 81.9072C29.662 81.9358 29.7855 81.9586 29.9082 81.9795L30.0547 82.0098L30.0586 82.002C31.5227 82.2137 33.0222 81.8886 34.2695 81.0703C35.5765 80.2127 36.4996 78.887 36.8555 77.373L36.8613 77.3555L36.916 77.084L36.9307 77.0137V77.0059C36.9367 76.9722 36.947 76.9154 36.959 76.8477C36.9832 76.7111 37.0179 76.513 37.0615 76.2607C37.1492 75.7531 37.2716 75.02 37.4199 74.1064C37.7166 72.2793 38.1124 69.7174 38.5078 66.7715C39.2411 61.3078 40.0068 54.3012 40.0996 48.1621L40.1084 46.9453C40.1084 40.5316 39.29 32.9493 38.5078 27.1211C38.1124 24.1751 37.7167 21.6134 37.4199 19.7861C37.2715 18.8723 37.1493 18.1378 37.0615 17.6299C37.0537 17.5845 37.0463 17.5399 37.0391 17.498H37.041L36.9307 16.8838L36.7637 16.1699C36.3553 14.8017 35.4753 13.6115 34.2695 12.8203ZM30.3809 18.7754C30.9673 22.1684 33.3359 36.4975 33.3359 46.9453L33.3262 48.0742C33.169 58.3985 30.9455 71.8427 30.3799 75.1152C30.2946 75.0901 30.2007 75.0657 30.1016 75.0352C29.4752 74.8422 28.5811 74.5412 27.5098 74.1074C25.3649 73.2388 22.5179 71.8417 19.6777 69.7285C14.1877 65.6436 8.72455 58.8854 8.38867 48.0098L8.37305 46.9453C8.3731 35.4407 14.0132 28.3745 19.6816 24.1582C22.5221 22.0455 25.3694 20.6503 27.5137 19.7822C28.7542 19.2801 29.7576 18.9593 30.3809 18.7754ZM82.4004 71.2002H91.2002V62.6514H82.4004V71.2002ZM82.6934 25.875L83.5732 55.9346H90.0264L90.9062 25.875V21.5996H82.6934V25.875Z" fill="#243946"/>
</svg>
