<svg width="96" height="96" viewBox="0 0 96 96" fill="none" xmlns="http://www.w3.org/2000/svg">
<path d="M68.2666 9.51759C65.6596 15.2206 65.6595 21.7755 68.2666 27.4785L68.4121 27.7979H56.7998V32.5977H70.6055C72.4333 36.6553 72.5705 41.2577 71.0176 45.3975H56.7998V50.1973H68.8691L68.2666 51.5176C66.4938 55.3958 65.9271 59.6677 66.5654 63.7979H56.7998V68.5977H67.8896C68.0091 68.8929 68.1336 69.1875 68.2666 69.4785L70.5684 74.5127C72.5959 78.9482 72.5959 84.0469 70.5684 88.4824L69.417 91L73.7832 92.9951L74.9336 90.4785C77.5407 84.7755 77.5406 78.2206 74.9336 72.5176L73.1416 68.5977H88.7998V63.7979H71.4395C70.7511 60.3609 71.1478 56.7592 72.6318 53.5127L74.1475 50.1973H88.7998V45.3975H76.0654C77.2558 41.206 77.1531 36.7416 75.7559 32.5977H88.7998V27.7979H73.6904L72.6318 25.4824C70.6043 21.0469 70.6042 15.9483 72.6318 11.5127L73.7832 8.99512L69.417 7.00001L68.2666 9.51759ZM45.4473 8.2461C43.9812 7.28441 42.1847 6.96645 40.4775 7.36622L41.9365 13.5977C40.477 7.36638 40.4738 7.36743 40.4707 7.36817C40.4696 7.36842 40.4658 7.36869 40.4639 7.36915C40.4592 7.37026 40.4538 7.37174 40.4482 7.37305C40.4372 7.37568 40.4244 7.37839 40.4102 7.38184C40.3811 7.38889 40.3449 7.39765 40.3027 7.40821C40.2178 7.42948 40.106 7.45886 39.9707 7.49512C39.6999 7.56771 39.3302 7.67155 38.877 7.81055C37.9714 8.08834 36.7209 8.51013 35.2402 9.10743C32.2955 10.2953 28.3422 12.2187 24.3555 15.1758C16.2563 21.1832 8 31.5327 8 47.9981C8.00014 64.4631 16.2563 74.8119 24.3555 80.8193C28.3422 83.7765 32.2955 85.7008 35.2402 86.8887C36.7208 87.4859 37.9714 87.9068 38.877 88.1846C39.3302 88.3236 39.6999 88.4274 39.9707 88.5C40.106 88.5363 40.2178 88.5656 40.3027 88.5869C40.3449 88.5975 40.3811 88.6062 40.4102 88.6133C40.4244 88.6167 40.4372 88.6195 40.4482 88.6221C40.4537 88.6234 40.4592 88.6249 40.4639 88.626C40.4658 88.6264 40.4695 88.6267 40.4707 88.627C40.4723 88.6273 40.4747 88.6277 40.6582 87.8496L41.9365 82.3975L40.4775 88.6289C42.1847 89.0287 43.9812 88.7108 45.4473 87.749C46.9133 86.7873 47.9212 85.2661 48.2344 83.541L41.9365 82.3975L48.2344 83.5391V83.5371L48.2354 83.5332C48.236 83.5298 48.2363 83.5251 48.2373 83.5195C48.2394 83.5077 48.2432 83.4911 48.2471 83.4697C48.2548 83.4269 48.2651 83.3643 48.2793 83.2842C48.3077 83.1241 48.3487 82.891 48.4004 82.5918C48.5039 81.9929 48.6507 81.1272 48.8262 80.0469C49.1768 77.8875 49.644 74.8599 50.1113 71.3779C51.0368 64.4819 52 55.5416 52 47.9981C52 40.4544 51.0369 31.5133 50.1113 24.6172C49.644 21.1352 49.1768 18.1077 48.8262 15.9482C48.6507 14.8679 48.5039 14.0022 48.4004 13.4033C48.3487 13.1041 48.3077 12.871 48.2793 12.7109C48.2651 12.6309 48.2548 12.5682 48.2471 12.5254C48.2433 12.5041 48.2394 12.4874 48.2373 12.4756C48.2363 12.47 48.236 12.4653 48.2354 12.4619L48.2344 12.458V12.4561C48.2344 12.4561 48.2286 12.456 41.9365 13.5977L48.2344 12.4551C47.9212 10.7298 46.9134 9.20793 45.4473 8.2461ZM41.9365 13.5977C41.9387 13.6095 45.5996 33.7906 45.5996 47.9981C45.5995 62.1867 41.9483 82.3324 41.9365 82.3975C41.832 82.3729 14.4007 75.8945 14.4004 47.9981C14.4004 20.0975 41.8394 13.6205 41.9365 13.5977ZM43.415 76.1699C43.4189 76.1709 43.4228 76.1726 43.4238 76.1729C43.4226 76.1726 43.4179 76.1711 43.4131 76.1699L43.4102 76.169C43.4119 76.1694 43.415 76.1699 43.415 76.1699ZM43.415 19.8252C43.4132 19.8256 43.4105 19.8256 43.4082 19.8262C43.4096 19.8258 43.4124 19.8253 43.4131 19.8252C43.418 19.824 43.4227 19.8225 43.4238 19.8223C43.4228 19.8225 43.419 19.8243 43.415 19.8252Z" fill="#243946"/>
</svg>
