<svg width="96" height="96" viewBox="0 0 96 96" fill="none" xmlns="http://www.w3.org/2000/svg">
<path d="M73.4414 16.005C77.2548 16.005 80.5382 18.6963 81.2861 22.4357L86.2451 47.2277C86.3484 47.7442 86.4004 48.2702 86.4004 48.797V72.005C86.4002 76.423 82.8184 80.0048 78.4004 80.005H17.5996C13.1816 80.0048 9.59982 76.423 9.59961 72.005V48.797C9.59961 48.2702 9.65157 47.7442 9.75488 47.2277L14.7139 22.4357C15.4618 18.6963 18.7452 16.005 22.5586 16.005H73.4414ZM44.6357 56.8048V65.1085H41.1963C40.8498 65.1088 40.6708 65.6183 40.9082 65.9288L48 75.2042L55.0918 65.9288C55.3292 65.6183 55.1502 65.1088 54.8037 65.1085H51.3643V56.8048H44.6357ZM40.9082 44.4806C40.6708 44.7911 40.8498 45.3006 41.1963 45.3009H44.6357V52.005H51.3643V45.3009H54.8037C55.1502 45.3006 55.3292 44.7911 55.0918 44.4806L48 35.2042L40.9082 44.4806ZM22.5586 22.4044C21.796 22.4044 21.1389 22.9428 20.9893 23.6906L16.6064 45.6046H24.7998L27.5215 31.6974C27.6684 30.9464 28.3266 30.4044 29.0918 30.4044H66.9082C67.6734 30.4044 68.3316 30.9464 68.4785 31.6974L71.2002 45.6046H79.3936L75.0107 23.6906C74.8611 22.9428 74.204 22.4044 73.4414 22.4044H22.5586Z" fill="#243946"/>
</svg>
