<svg width="96" height="96" viewBox="0 0 96 96" fill="none" xmlns="http://www.w3.org/2000/svg">
<path d="M50.708 9.59961C54.8702 9.59964 61.314 10.5304 61.3604 10.5371C61.3938 10.5439 64.6068 11.2014 66.2021 12.4092C68.7142 14.3115 69.1074 17.5609 69.1074 20.8389V72.8193C69.1073 76.7546 68.3598 81.071 65.2344 83.5908C61.758 86.3934 50.763 86.4004 50.708 86.4004C50.708 86.4004 39.6671 86.4002 36.1816 83.5908C33.3952 81.3441 32.5007 77.7249 32.3389 74.1777L15.2002 56.9941L19.7256 52.4678L32.3076 65.0498V20.8389C32.3076 17.561 32.701 14.3115 35.2129 12.4092C36.8165 11.195 40.0557 10.5371 40.0557 10.5371C40.1022 10.5304 46.5458 9.59963 50.708 9.59961ZM50.708 27.3955C41.4265 27.3955 37.5254 29.9973 36.4834 30.8643C36.2807 31.0331 36.1972 31.2874 36.2236 31.5449L37.0625 39.6641C37.1121 40.1427 37.529 40.5067 38.0264 40.5068H63.3887C63.8862 40.5068 64.304 40.1428 64.3535 39.6641L65.1924 31.5449C65.2188 31.2874 65.1345 31.0331 64.9316 30.8643C63.8894 29.9972 59.9889 27.3955 50.708 27.3955Z" fill="#243946"/>
</svg>
