<svg width="96" height="96" viewBox="0 0 96 96" fill="none" xmlns="http://www.w3.org/2000/svg">
<path d="M11.2002 86.3998H4.7998V9.59998H11.2002V86.3998ZM22.3994 62.3998C22.3994 64.711 22.8548 66.9999 23.7393 69.1351C24.6237 71.2705 25.9204 73.2108 27.5547 74.8451C29.189 76.4794 31.1293 77.776 33.2646 78.6605C35.3999 79.545 37.6888 80.0004 40 80.0004V86.3998C36.8483 86.3998 33.7272 85.7787 30.8154 84.5726C27.9037 83.3665 25.2579 81.5991 23.0293 79.3705C20.8007 77.1419 19.0333 74.4961 17.8271 71.5844C16.621 68.6725 16 65.5515 16 62.3998H22.3994ZM79.292 9.59998C83.394 9.59998 86.8275 12.6983 87.1855 16.7845C87.8955 24.8929 88.9131 38.2248 88.9131 48.0004C88.9131 57.7759 87.8955 71.107 87.1855 79.2152C86.8276 83.3016 83.394 86.3998 79.292 86.3998H54.293C50.2941 86.3998 46.9143 83.4486 46.4482 79.4769C45.8956 74.7666 45.1932 68.2095 44.7041 61.6H51.1221C51.5971 67.8807 52.2651 74.1321 52.8047 78.7308C52.8851 79.416 53.4768 80.0004 54.293 80.0004H79.292C80.1285 80.0004 80.7458 79.3853 80.8096 78.6566C81.5194 70.5505 82.5136 57.468 82.5137 48.0004C82.5137 38.5327 81.5194 25.4493 80.8096 17.3431C80.7457 16.6146 80.1285 16.0004 79.292 16.0004H54.293C53.4768 16.0004 52.8851 16.5838 52.8047 17.2689C52.311 21.4767 51.7096 27.0685 51.2471 32.8002H44.8271C45.3062 26.7432 45.9403 20.8526 46.4482 16.5228C46.9144 12.5513 50.2941 9.59998 54.293 9.59998H79.292ZM32 62.3998C32 63.4503 32.2064 64.4908 32.6084 65.4613C33.0104 66.4319 33.5999 67.3141 34.3428 68.057C35.0856 68.7999 35.9679 69.3893 36.9385 69.7914C37.909 70.1933 38.9495 70.3998 40 70.3998V75.1996C38.3192 75.1996 36.6545 74.8692 35.1016 74.226C33.5486 73.5827 32.1378 72.6391 30.9492 71.4506C29.7606 70.262 28.8171 68.8512 28.1738 67.2982C27.5306 65.7453 27.2002 64.0806 27.2002 62.3998H32ZM73.1279 66.601C74.3663 66.4968 75.4948 67.3351 75.7314 68.5551L76.4062 72.0326C76.6775 73.4314 75.6781 74.7552 74.2568 74.8558C72.0495 75.012 68.8962 75.1996 66.5137 75.1996C64.1309 75.1996 60.9769 75.0121 58.7695 74.8558C57.3483 74.7552 56.3498 73.4313 56.6211 72.0326L57.2959 68.5551C57.5325 67.3351 58.6611 66.4968 59.8994 66.601C61.769 66.7581 64.4733 66.9496 66.5137 66.9496C68.5542 66.9496 71.2584 66.7581 73.1279 66.601ZM49.0273 53.9886L44.502 58.514L26.3994 40.4115L30.9248 35.8861L49.0273 53.9886ZM66.5137 29.6C68.9906 29.6 72.3006 29.8955 74.5146 30.1273C75.8392 30.266 76.7698 31.4751 76.5938 32.7953L75.6357 39.9828C75.4586 41.3113 74.2281 42.2399 72.8975 42.0804C71.0411 41.8576 68.4716 41.6 66.5137 41.6C64.5557 41.6 61.9863 41.8576 60.1299 42.0804C58.7991 42.2401 57.5688 41.3114 57.3916 39.9828L56.4326 32.7953C56.2566 31.4753 57.1874 30.2662 58.5117 30.1273C60.7258 29.8955 64.0366 29.6 66.5137 29.6Z" fill="#243946"/>
</svg>
