<svg width="96" height="96" viewBox="0 0 96 96" fill="none" xmlns="http://www.w3.org/2000/svg">
<path fill-rule="evenodd" clip-rule="evenodd" d="M48.0006 11.2046C43.4816 11.2046 39.0094 12.0932 34.8335 13.8228C30.6594 15.5517 26.8656 18.0836 23.6726 21.2766L23.6684 21.2809C20.4794 24.4794 17.9488 28.2702 16.22 32.4345L16.2188 32.4375C14.4892 36.6134 13.6006 41.0856 13.6006 45.6046C13.6006 50.1236 14.4892 54.5957 16.2188 58.7717L16.22 58.7747C17.9488 62.939 20.4794 66.7298 23.6684 69.9283L23.6726 69.9325C26.8656 73.1256 30.6594 75.6575 34.8335 77.3864C37.0199 78.292 39.2875 78.967 41.6006 79.4046V86.4046H54.4006V79.4047C56.7136 78.967 58.9813 78.292 61.1677 77.3864C65.3418 75.6575 69.1356 73.1256 72.3286 69.9325L72.3328 69.9283C75.5218 66.7298 78.0524 62.939 79.7811 58.7747L79.7824 58.7717C81.512 54.5957 82.4006 50.1236 82.4006 45.6046C82.4006 41.0856 81.512 36.6134 79.7824 32.4375L79.7811 32.4345C78.0524 28.2702 75.5218 24.4794 72.3328 21.2809L72.3286 21.2766C69.1356 18.0836 65.3418 15.5517 61.1677 13.8228C56.9917 12.0932 52.5196 11.2046 48.0006 11.2046ZM37.8948 21.2139C41.0993 19.8867 44.5311 19.2046 48.0006 19.2046C51.47 19.2046 54.9019 19.8867 58.1064 21.2139C61.312 22.5416 64.2225 24.4847 66.67 26.9318C69.12 29.3897 71.0636 32.3018 72.3913 35.4988L72.3925 35.5018C73.7189 38.7054 74.4006 42.1362 74.4006 45.6046C74.4006 49.073 73.7189 52.5038 72.3925 55.7074C71.0648 58.9058 69.1205 61.819 66.6695 64.2779C64.2221 66.7247 61.3118 68.6676 58.1064 69.9953C54.9019 71.3225 51.47 72.0046 48.0006 72.0046C44.5311 72.0046 41.0993 71.3225 37.8948 69.9953C34.6895 68.6677 31.7792 66.7248 29.3318 64.2781C26.881 61.8195 24.9368 58.9064 23.6091 55.7084C22.2824 52.5045 21.6006 49.0733 21.6006 45.6046C21.6006 42.1357 22.2824 38.7043 23.6093 35.5002C24.937 32.3026 26.8809 29.3899 29.3314 26.9315C31.7788 24.4846 34.6893 22.5416 37.8948 21.2139Z" fill="#243946"/>
<path d="M35.585 33.8369L50.3354 43.2946C51.7752 44.2814 52.7514 45.9148 52.7988 47.7459C52.8729 50.6325 50.5942 52.8951 47.7157 52.8018C45.9288 52.7443 44.334 51.7915 43.3647 50.3863L43.3592 50.3788C43.332 50.3409 43.3056 50.2968 43.2783 50.2589L33.8337 35.6016C33.0515 34.3957 34.3903 33.0545 35.5914 33.8381L35.585 33.8369Z" fill="#243946"/>
</svg>
