<svg width="96" height="96" viewBox="0 0 96 96" fill="none" xmlns="http://www.w3.org/2000/svg">
<path d="M24.3193 32.7951C24.1433 31.4749 25.0741 30.2664 26.3987 30.1277C28.6128 29.8958 31.923 29.6 34.4 29.6C36.877 29.6 40.1872 29.8958 42.4013 30.1277C43.7259 30.2664 44.6567 31.4749 44.4807 32.7951L43.5223 39.9829C43.3451 41.3115 42.1144 42.2401 40.7835 42.0804C38.9271 41.8575 36.358 41.6 34.4 41.6C32.442 41.6 29.8729 41.8575 28.0165 42.0804C26.6856 42.2401 25.4549 41.3115 25.2777 39.9829L24.3193 32.7951Z" fill="#243946"/>
<path d="M42.1438 74.8556C43.5651 74.755 44.5637 73.4317 44.2925 72.0329L43.6179 68.555C43.3813 67.335 42.2529 66.4963 41.0145 66.6005C39.1449 66.7577 36.4406 66.95 34.4 66.95C32.3594 66.95 29.6551 66.7577 27.7855 66.6005C26.5471 66.4963 25.4187 67.335 25.1821 68.555L24.5075 72.0329C24.2363 73.4317 25.2349 74.755 26.6562 74.8556C28.8636 75.0118 32.0173 75.2 34.4 75.2C36.7827 75.2 39.9364 75.0118 42.1438 74.8556Z" fill="#243946"/>
<path fill-rule="evenodd" clip-rule="evenodd" d="M22.1794 9.59998C18.1805 9.59998 14.8003 12.5514 14.3343 16.5231C13.3866 24.6007 12 38.1093 12 48C12 57.8907 13.3866 71.3992 14.3343 79.4768C14.8003 83.4485 18.1805 86.4 22.1794 86.4H47.1788C51.281 86.4 54.7141 83.3014 55.0719 79.2149C55.7819 71.1066 56.8 57.7755 56.8 48C56.8 38.2244 55.7819 24.8934 55.0719 16.785C54.7141 12.6985 51.281 9.59998 47.1788 9.59998H22.1794ZM47.1788 16H22.1794C21.3632 16 20.7711 16.5837 20.6907 17.2689C19.7431 25.3461 18.4 38.5222 18.4 48C18.4 57.4778 19.7431 70.6539 20.6907 78.7311C20.7711 79.4162 21.3632 80 22.1794 80H47.1788C48.0154 80 48.6325 79.3853 48.6963 78.6567C49.4061 70.5505 50.4 57.4676 50.4 48C50.4 38.5324 49.4061 25.4495 48.6963 17.3433C48.6325 16.6146 48.0154 16 47.1788 16Z" fill="#243946"/>
<path fill-rule="evenodd" clip-rule="evenodd" d="M64.8 86.4V57.6H76.5084C78.4464 57.6 80.1555 58.0251 81.6359 58.8754C83.1432 59.6983 84.314 60.864 85.1484 62.3725C85.9828 63.8811 86.4 65.5817 86.4 67.4743C86.4 69.3668 85.9828 71.0674 85.1484 72.576C84.314 74.0845 83.1432 75.264 81.6359 76.1143C80.1555 76.9371 78.4464 77.3485 76.5084 77.3485H70.8561V86.4H64.8ZM75.9028 71.7943C77.3024 71.7943 78.3925 71.4103 79.1731 70.6423C79.9536 69.8743 80.3439 68.8183 80.3439 67.4743C80.3439 66.1303 79.9536 65.0743 79.1731 64.3063C78.3925 63.5383 77.3024 63.1543 75.9028 63.1543H70.8561V71.7943H75.9028Z" fill="#243946"/>
<path d="M81.1813 38.2222C81.1813 39.204 80.3937 40 79.4221 40H70.9779C70.0063 40 69.2187 39.204 69.2187 38.2222V24.3555H63.1051C62.4886 24.3555 62.1701 23.6114 62.5923 23.1574L75.2 9.59998L87.8077 23.1574C88.2299 23.6114 87.9114 24.3555 87.2949 24.3555H81.1813V38.2222Z" fill="#243946"/>
</svg>
