<svg width="96" height="96" viewBox="0 0 96 96" fill="none" xmlns="http://www.w3.org/2000/svg">
<path d="M86.4006 49.6001V58.5815C86.4006 62.7111 84.8378 66.7234 81.9924 69.7017C79.1372 72.6903 75.2356 74.3999 71.1223 74.3999H23.2571L30.0286 81.1714L24.3713 86.8286L11.3372 73.7944C9.46264 71.9199 9.46264 68.8799 11.3372 67.0054L24.3713 53.9712L30.0286 59.6284L23.2571 66.3999H71.1223C72.9921 66.3999 74.8215 65.6268 76.2083 64.1753C77.5887 62.7303 78.4006 60.7153 78.4006 58.5815V49.6001H86.4006ZM84.6633 22.2056C86.5376 24.08 86.5374 27.1191 84.6633 28.9937L71.6282 42.0288L65.9719 36.3716L72.7434 29.6001H24.8782C23.0084 29.6001 21.179 30.3723 19.7922 31.8237C18.4116 33.2688 17.5999 35.2845 17.5999 37.4185V46.3999H9.59985V37.4185C9.59985 33.2888 11.1626 29.2757 14.0081 26.2974C16.8633 23.3088 20.7649 21.6001 24.8782 21.6001H72.7434L65.9719 14.8286L71.6282 9.17139L84.6633 22.2056Z" fill="#243946"/>
</svg>
