<svg width="96" height="96" viewBox="0 0 96 96" fill="none" xmlns="http://www.w3.org/2000/svg">
<path d="M76.0665 82.72H64.8425L50.0073 56.4656H35.6601V82.72H25.4121V14.4H52.7401C57.0996 14.4 60.9385 15.2784 64.2569 17.0352C67.5753 18.792 70.1129 21.2645 71.8697 24.4528C73.6916 27.641 74.6025 31.3173 74.6025 35.4816C74.6025 40.4917 73.3012 44.7536 70.6985 48.2672C68.1609 51.7808 64.7449 54.1882 60.4505 55.4896L76.0665 82.72ZM35.6601 23.4768V47.4864H52.0569C55.8958 47.4864 58.8889 46.4128 61.0361 44.2656C63.2484 42.0533 64.3545 39.1253 64.3545 35.4816C64.3545 31.8378 63.2484 28.9424 61.0361 26.7952C58.8889 24.5829 55.8958 23.4768 52.0569 23.4768H35.6601Z" fill="#243946"/>
</svg>
