<svg width="96" height="96" viewBox="0 0 96 96" fill="none" xmlns="http://www.w3.org/2000/svg">
<path d="M48.0166 14.4004C66.5642 14.4004 81.5996 29.4432 81.5996 48C81.5996 66.5568 66.5642 81.5996 48.0166 81.5996C29.4691 81.5996 14.4336 66.5568 14.4336 48H22.4297C22.4297 62.1385 33.8851 73.5996 48.0166 73.5996C62.1481 73.5996 73.6035 62.1385 73.6035 48C73.6035 33.8615 62.1481 22.4004 48.0166 22.4004C39.5739 22.4004 32.0861 26.491 27.4258 32.7998H33.5996V40.7998H19.1973C16.5478 40.7996 14.4004 38.6508 14.4004 36V20H22.3965V26.2754C28.5567 19.0106 37.7485 14.4004 48.0166 14.4004ZM56.9795 37.5996C59.4896 37.5996 61.4208 38.48 62.7725 40.2393C64.1239 41.9984 64.7997 44.4518 64.7998 47.5996C64.7998 50.7477 64.124 53.2017 62.7725 54.9609C61.4208 56.7202 59.4896 57.5996 56.9795 57.5996C54.4696 57.5995 52.539 56.7201 51.1875 54.9609C49.8359 53.2017 49.1602 50.7477 49.1602 47.5996C49.1602 44.4517 49.836 41.9984 51.1875 40.2393C52.539 38.4801 54.4696 37.5997 56.9795 37.5996ZM43.668 53.5723H48.3027V57.3223H34.4004V53.5723H39.3242V43.7109C38.4167 44.1739 37.1612 44.4053 35.5586 44.4053H35.124V40.6553H36.1377C37.2383 40.6553 38.1269 40.4612 38.8027 40.0723C39.4783 39.6649 39.8933 39.0724 40.0479 38.2949L40.1348 37.8779H43.668V53.5723ZM56.9795 41.3496C55.8985 41.3498 55.0494 41.9058 54.4316 43.0166C53.8138 44.1276 53.504 45.6554 53.5039 47.5996C53.5039 49.5441 53.8138 51.0725 54.4316 52.1836C55.0494 53.2943 55.8985 53.8494 56.9795 53.8496C58.0607 53.8496 58.9105 53.2945 59.5283 52.1836C60.1462 51.0725 60.4551 49.5441 60.4551 47.5996C60.455 45.6554 60.1462 44.1276 59.5283 43.0166C58.9104 41.9056 58.0607 41.3496 56.9795 41.3496Z" fill="#243946"/>
</svg>
