<svg width="96" height="96" viewBox="0 0 96 96" fill="none" xmlns="http://www.w3.org/2000/svg">
<path d="M47.9834 14.4004C58.2515 14.4005 67.4434 19.0106 73.6035 26.2754V20H81.5996V36C81.5996 38.6508 79.4522 40.7996 76.8027 40.7998H62.4004V32.7998H68.5742C63.914 26.491 56.4261 22.4005 47.9834 22.4004C33.852 22.4005 22.3965 33.8616 22.3965 48C22.3965 62.1384 33.852 73.5995 47.9834 73.5996C62.1148 73.5995 73.5703 62.1384 73.5703 48H81.5664C81.5664 66.5567 66.5309 81.5995 47.9834 81.5996C29.4359 81.5995 14.4004 66.5567 14.4004 48C14.4004 29.4433 29.4359 14.4005 47.9834 14.4004ZM54.04 41.6396H45.1924L44.7998 45.2803H44.9404C45.3511 44.9817 45.8829 44.7481 46.5361 44.5801C47.1894 44.3934 47.8708 44.2998 48.5801 44.2998C49.8307 44.2998 50.9511 44.5797 51.9404 45.1396C52.9482 45.6996 53.732 46.4931 54.292 47.5195C54.8706 48.5274 55.1601 49.6944 55.1602 51.0195C55.1602 52.3074 54.8705 53.4743 54.292 54.5195C53.732 55.5461 52.8924 56.3684 51.7725 56.9844C50.6712 57.5817 49.3268 57.8799 47.7402 57.8799C45.7056 57.8799 44.0255 57.3289 42.7002 56.2275C41.3749 55.1262 40.5816 53.6237 40.3203 51.7197H44.5195C44.6688 52.429 45.0144 53.0081 45.5557 53.4561C46.0969 53.8853 46.7785 54.0995 47.5996 54.0996C48.7009 54.0996 49.5318 53.8198 50.0918 53.2598C50.6705 52.6811 50.96 51.8879 50.96 50.8799C50.9599 49.9279 50.6425 49.153 50.0078 48.5557C49.3918 47.9585 48.5888 47.6602 47.5996 47.6602C46.3305 47.6603 45.3508 48.1736 44.6602 49.2002H40.5996L41.7197 38H54.04V41.6396Z" fill="#243946"/>
</svg>
