<svg width="96" height="96" viewBox="0 0 96 96" fill="none" xmlns="http://www.w3.org/2000/svg">
<path d="M47.9834 14.4004C58.2515 14.4005 67.4434 19.0106 73.6035 26.2754V20H81.5996V36C81.5996 38.6508 79.4522 40.7996 76.8027 40.7998H62.4004V32.7998H68.5742C63.914 26.491 56.4261 22.4005 47.9834 22.4004C33.852 22.4005 22.3965 33.8616 22.3965 48C22.3965 62.1384 33.852 73.5995 47.9834 73.5996C62.1148 73.5995 73.5703 62.1384 73.5703 48H81.5664C81.5664 66.5567 66.5309 81.5995 47.9834 81.5996C29.4359 81.5995 14.4004 66.5567 14.4004 48C14.4004 29.4433 29.4359 14.4005 47.9834 14.4004ZM53.7793 37.5996C56.2894 37.5996 58.2207 38.48 59.5723 40.2393C60.9237 41.9984 61.5996 44.4517 61.5996 47.5996C61.5996 50.7477 60.9238 53.2017 59.5723 54.9609C58.2207 56.7201 56.2893 57.5996 53.7793 57.5996C51.2695 57.5995 49.3388 56.72 47.9873 54.9609C46.6357 53.2017 45.96 50.7477 45.96 47.5996C45.96 44.4518 46.6359 41.9984 47.9873 40.2393C49.3388 38.4802 51.2695 37.5998 53.7793 37.5996ZM40.4678 53.5723H45.1025V57.3223H31.2002V53.5723H36.123V43.7109C35.2156 44.1737 33.9607 44.4053 32.3584 44.4053H31.9238V40.6553H32.9375C34.0381 40.6553 34.9267 40.4611 35.6025 40.0723C36.2781 39.6649 36.6931 39.0724 36.8477 38.2949L36.9346 37.8779H40.4678V53.5723ZM53.7793 41.3496C52.6984 41.3498 51.8492 41.9059 51.2314 43.0166C50.6136 44.1276 50.3047 45.6554 50.3047 47.5996C50.3047 49.5441 50.6136 51.0725 51.2314 52.1836C51.8492 53.2943 52.6984 53.8494 53.7793 53.8496C54.8605 53.8496 55.7112 53.2946 56.3291 52.1836C56.947 51.0725 57.2559 49.544 57.2559 47.5996C57.2558 45.6555 56.9469 44.1276 56.3291 43.0166C55.7112 41.9056 54.8605 41.3496 53.7793 41.3496Z" fill="#243946"/>
</svg>
