<svg width="96" height="96" viewBox="0 0 96 96" fill="none" xmlns="http://www.w3.org/2000/svg">
<path d="M48.0166 14.4004C66.5641 14.4005 81.5996 29.4433 81.5996 48C81.5996 66.5567 66.5641 81.5995 48.0166 81.5996C29.4691 81.5995 14.4336 66.5567 14.4336 48H22.4297C22.4297 62.1384 33.8852 73.5995 48.0166 73.5996C62.148 73.5995 73.6035 62.1384 73.6035 48C73.6035 33.8616 62.148 22.4005 48.0166 22.4004C39.5739 22.4005 32.086 26.491 27.4258 32.7998H33.5996V40.7998H19.1973C16.5478 40.7996 14.4004 38.6508 14.4004 36V20H22.3965V26.2754C28.5566 19.0106 37.7485 14.4005 48.0166 14.4004ZM54.0391 41.6396H45.1904L44.7988 45.2803H44.9385C45.3491 44.9816 45.8818 44.7481 46.5352 44.5801C47.1884 44.3935 47.8699 44.2998 48.5791 44.2998C49.8295 44.2999 50.9493 44.5798 51.9385 45.1396C52.9464 45.6996 53.731 46.493 54.291 47.5195C54.8696 48.5274 55.1591 49.6944 55.1592 51.0195C55.1592 52.3073 54.8695 53.4743 54.291 54.5195C53.731 55.5462 52.8905 56.3684 51.7705 56.9844C50.6692 57.5816 49.3248 57.8799 47.7383 57.8799C45.7039 57.8798 44.0244 57.3288 42.6992 56.2275C41.3739 55.1262 40.5797 53.6237 40.3184 51.7197H44.5186C44.6679 52.4291 45.0134 53.0081 45.5547 53.4561C46.096 53.8854 46.7774 54.0996 47.5986 54.0996C48.7 54.0996 49.5308 53.8198 50.0908 53.2598C50.6694 52.6811 50.959 51.8878 50.959 50.8799C50.959 49.9279 50.6415 49.153 50.0068 48.5557C49.3909 47.9584 48.5879 47.6602 47.5986 47.6602C46.3294 47.6602 45.3498 48.1736 44.6592 49.2002H40.5986L41.7188 38H54.0391V41.6396Z" fill="#243946"/>
</svg>
