<svg width="96" height="96" viewBox="0 0 96 96" fill="none" xmlns="http://www.w3.org/2000/svg">
<path fill-rule="evenodd" clip-rule="evenodd" d="M21.2166 28.728C29.4006 18.888 41.5365 13.2 54.3365 13.2H80.2807C83.5767 13.2 86.2486 15.872 86.2486 19.168V69.4641C86.2486 73.7041 82.8088 77.1361 78.5768 77.1361H17.1928C12.9528 77.1361 9.52051 73.6961 9.52051 69.4641V48.168C9.52051 44.688 10.7367 41.3201 12.9607 38.6481L21.2166 28.728ZM80.0002 27.6641V19.592H54.3365C43.4005 19.592 33.1207 24.416 26.1287 32.816L18.1033 42.4156H30.4002L35.5607 36.192C40.0567 30.784 46.7205 27.6641 53.7525 27.6641H80.0002Z" fill="#243946"/>
</svg>
