<svg width="96" height="96" viewBox="0 0 96 96" fill="none" xmlns="http://www.w3.org/2000/svg">
<path fill-rule="evenodd" clip-rule="evenodd" d="M41.9469 25.6C57.5738 25.6 86.3999 28.2442 86.3999 37.2186C86.3999 44.911 82.0752 70.4 67.003 70.4H37.9116L16.1996 70.3362C14.993 70.3362 13.9208 69.5693 13.5343 68.43L9.74815 57.268C9.45779 56.412 9.59899 55.469 10.1275 54.7348C10.6559 54.0006 11.5069 53.5652 12.4134 53.5652H22.1219C20.723 48.4565 20.2429 43.4816 20.2429 40.7683C20.2429 29.4301 27.2927 25.608 41.9469 25.608V25.6ZM46.0641 59.2617C45.8429 59.9261 45.6132 60.498 45.4431 60.9101C45.4152 60.9764 45.3882 61.039 45.363 61.0975C45.3115 61.2169 45.2675 61.3188 45.239 61.3979C45.2353 61.4064 45.2318 61.4147 45.2284 61.4228C45.2216 61.4394 45.2154 61.4551 45.2096 61.4697C45.204 61.4839 45.1988 61.4972 45.1938 61.5091C45.1889 61.5209 45.1841 61.5315 45.1794 61.5408L45.1624 61.5829V61.5997C45.1624 61.5997 44.4139 61.2633 42.9083 60.5905C41.4027 59.9177 40.6542 59.5813 40.6542 59.5813V59.556C40.6542 59.556 40.6882 59.5056 40.7053 59.4635C40.7301 59.4022 40.7685 59.314 40.8172 59.2021L40.8754 59.0683C41.02 58.7235 41.2071 58.2525 41.3942 57.6974C41.794 56.5368 42.0832 55.3257 42.0832 54.4847C42.0832 53.6437 41.7855 52.441 41.3942 51.272C41.2071 50.7253 41.02 50.2459 40.8754 49.9011C40.8323 49.7945 40.7925 49.7048 40.7584 49.6277C40.7387 49.5831 40.7208 49.5427 40.7053 49.5058C40.6882 49.4637 40.6712 49.4301 40.6627 49.4133V49.3881H40.6542V49.3712L40.6372 49.3292C40.6372 49.3292 40.6032 49.2535 40.5777 49.1862C40.5659 49.1592 40.5528 49.1299 40.5387 49.0982C40.4914 48.9923 40.4325 48.8603 40.3735 48.6984C40.2034 48.2863 39.9822 47.7144 39.7526 47.05C39.3273 45.7969 38.7999 43.9635 38.7999 42.2898C38.7999 40.6162 39.3188 38.7911 39.7526 37.538C39.9737 36.8736 40.2034 36.3017 40.3735 35.8896C40.4015 35.8232 40.4285 35.7605 40.4537 35.702C40.5052 35.5827 40.5491 35.4808 40.5777 35.4018C40.5889 35.376 40.5984 35.3518 40.6071 35.3299C40.618 35.302 40.6277 35.2776 40.6372 35.2588L40.6542 35.2168V35.2C40.6542 35.2 41.4027 35.5363 42.9083 36.2092C44.4139 36.882 45.1624 37.2184 45.1624 37.2184V37.2437C45.1624 37.2437 45.1284 37.2941 45.1114 37.3362C45.0865 37.3976 45.048 37.4861 44.9992 37.5982L44.9413 37.7314C44.7967 38.0762 44.6095 38.5472 44.4309 39.1023C44.0311 40.2629 43.7419 41.474 43.7419 42.315C43.7419 43.156 44.0396 44.3587 44.4309 45.5277C44.618 46.0744 44.8052 46.5538 44.9413 46.8986C44.9844 47.0052 45.0241 47.0949 45.0582 47.172C45.0779 47.2166 45.0958 47.257 45.1114 47.2939C45.1284 47.336 45.1454 47.3696 45.1539 47.3864V47.4032H45.1624V47.42L45.1794 47.4621C45.1794 47.4621 45.2135 47.5378 45.239 47.6051C45.2507 47.6322 45.2638 47.6616 45.278 47.6933C45.3253 47.7991 45.3842 47.9311 45.4431 48.0929C45.6132 48.505 45.8344 49.0769 46.0641 49.7413C46.4894 50.9944 47.0167 52.8279 47.0167 54.4931C47.0167 56.1583 46.4894 57.9917 46.0641 59.2533V59.2617ZM55.9523 59.262C55.7312 59.9264 55.5015 60.4982 55.3314 60.9103C55.3044 60.9743 55.2783 61.0349 55.2539 61.0916L55.2517 61.0966L55.2512 61.0977C55.1998 61.2171 55.1558 61.3191 55.1272 61.3981C55.1162 61.4237 55.1067 61.4476 55.0981 61.4693L55.0979 61.47C55.0868 61.498 55.0772 61.5222 55.0677 61.5411L55.0507 61.5832V61.6C55.0507 61.6 54.3021 61.2636 52.7966 60.5908C51.291 59.918 50.5425 59.5816 50.5425 59.5816V59.5563C50.5425 59.5563 50.5765 59.5058 50.5935 59.4638C50.6183 59.4025 50.6566 59.3145 50.7052 59.203L50.7057 59.2019L50.7636 59.0685C50.9082 58.7237 51.0954 58.2527 51.2825 57.6977C51.6823 56.537 51.9715 55.326 51.9715 54.4849C51.9715 53.6439 51.6738 52.4412 51.2825 51.2722C51.0954 50.7255 50.9082 50.2462 50.7636 49.9013C50.7205 49.7947 50.6808 49.705 50.6467 49.6279C50.627 49.5833 50.6091 49.543 50.5935 49.506C50.5765 49.4641 50.5596 49.4305 50.5511 49.4137L50.551 49.3967H50.5425V49.3799L50.5255 49.3379C50.5255 49.3379 50.517 49.3126 50.5085 49.2958C50.5052 49.286 50.5006 49.2762 50.4952 49.2659C50.4916 49.2591 50.4877 49.2521 50.4836 49.2447L50.4792 49.2367L50.4724 49.2242L50.4659 49.2117C50.4586 49.1948 50.4508 49.177 50.4425 49.1584L50.427 49.1236C50.3797 49.0178 50.3207 48.8857 50.2618 48.7239C50.0917 48.3118 49.8705 47.7399 49.6408 47.0755C49.2155 45.8224 48.6882 43.9889 48.6882 42.3237C48.6882 40.6585 49.2155 38.825 49.6408 37.5635C49.862 36.8991 50.0917 36.3272 50.2618 35.9151C50.2897 35.8488 50.3167 35.7862 50.3419 35.7277L50.3422 35.727C50.3936 35.6078 50.4374 35.5062 50.4659 35.4273C50.4771 35.4015 50.4867 35.3773 50.4953 35.3554C50.5064 35.3274 50.5159 35.3032 50.5255 35.2843L50.5425 35.2423V35.2254L52.7966 36.2263C54.3021 36.8991 55.0507 37.2355 55.0507 37.2355V37.2607C55.0507 37.2607 55.0167 37.3112 54.9996 37.3533C54.9748 37.4146 54.9365 37.5027 54.8878 37.6145L54.8295 37.7485C54.6849 38.0933 54.4978 38.5643 54.3107 39.1194C53.9109 40.28 53.6217 41.4911 53.6217 42.3321C53.6217 43.1731 53.9194 44.3758 54.3107 45.5448C54.4978 46.0915 54.6849 46.5709 54.8295 46.9157C54.8725 47.022 54.9121 47.1115 54.9462 47.1884C54.9659 47.233 54.9841 47.274 54.9996 47.311C55.0167 47.353 55.0337 47.3866 55.0422 47.4035V47.4203H55.0507V47.4371L55.0677 47.4792C55.0677 47.4792 55.1017 47.5549 55.1272 47.6221C55.139 47.6492 55.1521 47.6785 55.1662 47.7102C55.2135 47.8161 55.2724 47.948 55.3314 48.1099C55.5015 48.5221 55.7227 49.094 55.9523 49.7584C56.3776 51.0115 56.905 52.8449 56.905 54.5186C56.8965 56.1754 56.3776 58.0088 55.9523 59.262ZM65.2178 60.9097C65.3879 60.4976 65.6176 59.9257 65.8387 59.2613H65.8472C66.2725 58.0082 66.7999 56.1832 66.7999 54.5095C66.7999 52.8359 66.2725 51.0025 65.8472 49.7493C65.6176 49.0849 65.3964 48.513 65.2263 48.1009C65.1674 47.9392 65.1085 47.8073 65.0612 47.7014C65.0471 47.6698 65.0339 47.6402 65.0221 47.6131C64.9966 47.5458 64.9626 47.4701 64.9626 47.4701L64.9456 47.4281V47.4113H64.9371V47.3945C64.9286 47.3777 64.9116 47.344 64.8945 47.3019C64.8791 47.2652 64.8614 47.2252 64.8418 47.181L64.8413 47.18C64.8072 47.1029 64.7675 47.0132 64.7244 46.9067C64.5798 46.5619 64.3927 46.0825 64.2056 45.5358C63.8143 44.3668 63.5166 43.1641 63.5166 42.3231C63.5166 41.482 63.8058 40.271 64.2056 39.1104C64.3927 38.5553 64.5798 38.0843 64.7244 37.7395L64.7822 37.6065C64.8311 37.4943 64.8697 37.4057 64.8945 37.3442C64.9116 37.3022 64.9456 37.2517 64.9456 37.2517V37.2265C64.9456 37.2265 64.1971 36.89 62.6915 36.2172C61.1859 35.5528 60.4374 35.2164 60.4374 35.2164V35.2332L60.4204 35.2753C60.4108 35.2942 60.4013 35.3184 60.3902 35.3464C60.3816 35.3681 60.3719 35.3927 60.3608 35.4182C60.3323 35.4974 60.2883 35.5993 60.2368 35.7189C60.2116 35.7772 60.1846 35.8398 60.1567 35.906C59.9866 36.3182 59.7569 36.8901 59.5358 37.5545C59.1104 38.816 58.5831 40.6494 58.5831 42.3147C58.5831 43.9799 59.1104 45.8133 59.5358 47.0665C59.7654 47.7309 59.9866 48.3027 60.1567 48.7148C60.2156 48.8767 60.2746 49.0087 60.3218 49.1146C60.336 49.1462 60.3491 49.1756 60.3608 49.2027C60.3864 49.2699 60.4204 49.3456 60.4204 49.3456L60.4374 49.3877V49.4213C60.4459 49.4382 60.4629 49.4718 60.4799 49.5138C60.4955 49.5508 60.5134 49.5912 60.5331 49.6358C60.5672 49.7129 60.6069 49.8026 60.65 49.9091C60.7946 50.254 60.9818 50.7334 61.1689 51.28C61.5602 52.449 61.8579 53.6517 61.8579 54.4927C61.8579 55.3338 61.5687 56.5448 61.1689 57.7054C60.9818 58.2605 60.7946 58.7315 60.65 59.0763L60.5926 59.2085C60.5435 59.3211 60.5049 59.4099 60.4799 59.4716C60.4629 59.5136 60.4289 59.5641 60.4289 59.5641V59.5894C60.4289 59.5894 61.1774 59.9257 62.683 60.5985L64.9371 61.5994V61.5826L64.9541 61.5405C64.9582 61.5324 64.9623 61.5234 64.9665 61.5134C64.972 61.5004 64.9777 61.4859 64.984 61.4702L64.9843 61.4694L64.9846 61.4686C64.9931 61.447 65.0026 61.423 65.0136 61.3975C65.0422 61.3185 65.0861 61.2166 65.1376 61.0971C65.1628 61.0387 65.1898 60.976 65.2178 60.9097Z" fill="#243946"/>
</svg>
