<svg width="96" height="96" viewBox="0 0 96 96" fill="none" xmlns="http://www.w3.org/2000/svg">
<path fill-rule="evenodd" clip-rule="evenodd" d="M86.3999 37.2186C86.3999 28.2442 57.5738 25.6 41.9469 25.6V25.608C27.2927 25.608 20.2429 29.4301 20.2429 40.7683C20.2429 43.4816 20.723 48.4565 22.1219 53.5652H12.4134C11.5069 53.5652 10.6559 54.0006 10.1275 54.7348C9.59899 55.469 9.45779 56.412 9.74815 57.268L13.5343 68.43C13.9208 69.5693 14.993 70.3362 16.1996 70.3362L37.9116 70.4H67.003C82.0752 70.4 86.3999 44.911 86.3999 37.2186ZM47.9999 45.6H42.3999V42.5657C42.3999 42.2093 41.969 42.0308 41.7171 42.2828L35.9999 48L41.7171 53.7171C41.969 53.9691 42.3999 53.7906 42.3999 53.4343V50.4H47.9999C48.4417 50.4 48.7999 50.7581 48.7999 51.2V56.8H45.7656C45.4092 56.8 45.2308 57.2308 45.4827 57.4828L51.1999 63.2L56.9171 57.4828C57.169 57.2308 56.9906 56.8 56.6342 56.8H53.5999V51.2C53.5999 50.7581 53.9581 50.4 54.3999 50.4H59.9999V53.4343C59.9999 53.7906 60.4308 53.9691 60.6827 53.7171L66.3999 48L60.6827 42.2828C60.4308 42.0308 59.9999 42.2093 59.9999 42.5657V45.6H54.3999C53.9581 45.6 53.5999 45.2418 53.5999 44.8V39.2H56.6342C56.9906 39.2 57.169 38.7691 56.9171 38.5171L51.1999 32.8L45.4827 38.5171C45.2308 38.7691 45.4092 39.2 45.7656 39.2H48.7999V44.8C48.7999 45.2418 48.4417 45.6 47.9999 45.6Z" fill="#243946"/>
</svg>
