<svg width="96" height="96" viewBox="0 0 96 96" fill="none" xmlns="http://www.w3.org/2000/svg">
<path fill-rule="evenodd" clip-rule="evenodd" d="M14.9707 43.6161C14.1173 43.6161 13.3707 43.4369 12.7307 43.0785C12.0992 42.7116 11.6085 42.1825 11.2587 41.4913C10.9173 40.8001 10.7467 39.9724 10.7467 39.0081C10.7467 38.0439 10.9173 37.2161 11.2587 36.5249C11.6085 35.8337 12.0992 35.3089 12.7307 34.9505C13.3707 34.5836 14.1173 34.4001 14.9707 34.4001C15.824 34.4001 16.5664 34.5836 17.1979 34.9505C17.8379 35.3089 18.3285 35.8337 18.6699 36.5249C19.0197 37.2161 19.1947 38.0439 19.1947 39.0081C19.1947 39.9724 19.0197 40.8001 18.6699 41.4913C18.3285 42.1825 17.8379 42.7116 17.1979 43.0785C16.5664 43.4369 15.824 43.6161 14.9707 43.6161ZM14.9707 41.8881C15.6704 41.8881 16.2293 41.6407 16.6475 41.1457C17.0656 40.6508 17.2747 39.9383 17.2747 39.0081C17.2747 38.078 17.0656 37.3655 16.6475 36.8705C16.2293 36.3756 15.6704 36.1281 14.9707 36.1281C14.2709 36.1281 13.712 36.3756 13.2939 36.8705C12.8757 37.3655 12.6667 38.078 12.6667 39.0081C12.6667 39.9383 12.8757 40.6508 13.2939 41.1457C13.712 41.6407 14.2709 41.8881 14.9707 41.8881Z" fill="#243946"/>
<path fill-rule="evenodd" clip-rule="evenodd" d="M9.91116 43.4881H7.85036L6.12236 40.3521H4.66316V43.4881H2.74316V34.5281H6.58316C7.1805 34.5281 7.7053 34.6519 8.15756 34.8993C8.60983 35.1383 8.9597 35.4796 9.20716 35.9233C9.46316 36.3671 9.59116 36.8833 9.59116 37.4721C9.59116 38.1036 9.43756 38.6497 9.13036 39.1105C8.8317 39.5628 8.45196 39.8956 7.99116 40.1089L9.91116 43.4881ZM4.66316 36.2561V38.6881H6.45516C6.81356 38.6881 7.1037 38.5815 7.32556 38.3681C7.55596 38.1463 7.67116 37.8476 7.67116 37.4721C7.67116 37.0967 7.55596 36.8023 7.32556 36.5889C7.1037 36.3671 6.81356 36.2561 6.45516 36.2561H4.66316Z" fill="#243946"/>
<path d="M20.6057 43.4881H26.6217V41.7601H22.5257V34.5281H20.6057V43.4881Z" fill="#243946"/>
<path d="M33.7842 43.4881H27.7682V34.5281H29.6882V41.7601H33.7842V43.4881Z" fill="#243946"/>
<path d="M36.8507 41.7601V39.7761H40.7547V38.1761H36.8507V36.2561H41.0107V34.5281H34.9307V43.4881H41.1387V41.7601H36.8507Z" fill="#243946"/>
<path fill-rule="evenodd" clip-rule="evenodd" d="M49.7737 43.4881H47.7129L45.9849 40.3521H44.5257V43.4881H42.6057V34.5281H46.4457C47.043 34.5281 47.5678 34.6519 48.0201 34.8993C48.4723 35.1383 48.8222 35.4796 49.0697 35.9233C49.3257 36.3671 49.4537 36.8833 49.4537 37.4721C49.4537 38.1036 49.3001 38.6497 48.9929 39.1105C48.6942 39.5628 48.3145 39.8956 47.8537 40.1089L49.7737 43.4881ZM44.5257 36.2561V38.6881H46.3177C46.6761 38.6881 46.9662 38.5815 47.1881 38.3681C47.4185 38.1463 47.5337 37.8476 47.5337 37.4721C47.5337 37.0967 47.4185 36.8023 47.1881 36.5889C46.9662 36.3671 46.6761 36.2561 46.3177 36.2561H44.5257Z" fill="#243946"/>
<path fill-rule="evenodd" clip-rule="evenodd" d="M55.2172 34.5281H50.9932V43.4881H55.3452C56.2326 43.4881 56.911 43.2663 57.3804 42.8225C57.8582 42.3788 58.0972 41.7687 58.0972 40.9921C58.0972 40.5057 57.9777 40.0876 57.7388 39.7377C57.4998 39.3793 57.1926 39.1148 56.8172 38.9441C57.15 38.7735 57.423 38.5175 57.6364 38.1761C57.8582 37.8348 57.9692 37.4508 57.9692 37.0241C57.9692 36.2476 57.7302 35.6375 57.2524 35.1937C56.783 34.75 56.1046 34.5281 55.2172 34.5281ZM55.7676 37.9713C55.5798 38.1505 55.311 38.2401 54.9612 38.2401H52.9132V36.1921H54.9612C55.311 36.1921 55.5798 36.2817 55.7676 36.4609C55.9553 36.6401 56.0492 36.8919 56.0492 37.2161C56.0492 37.5404 55.9553 37.7921 55.7676 37.9713ZM55.8956 41.5553C55.7078 41.7345 55.439 41.8241 55.0892 41.8241H52.9132V39.7761H55.0892C55.439 39.7761 55.7078 39.8657 55.8956 40.0449C56.0833 40.2241 56.1772 40.4759 56.1772 40.8001C56.1772 41.1244 56.0833 41.3761 55.8956 41.5553Z" fill="#243946"/>
<path d="M61.4257 39.7761V41.7601H65.7137V43.4881H59.5057V34.5281H65.5857V36.2561H61.4257V38.1761H65.3297V39.7761H61.4257Z" fill="#243946"/>
<path d="M67.1807 43.4881H69.1007V37.2801H69.1647L72.5567 43.4881H75.0527V34.5281H73.1327V40.7361H73.0687L69.6767 34.5281H67.1807V43.4881Z" fill="#243946"/>
<path d="M80.6832 43.6161C79.8298 43.6161 79.0832 43.4369 78.4432 43.0785C77.8117 42.7116 77.321 42.1825 76.9712 41.4913C76.6298 40.8001 76.4592 39.9724 76.4592 39.0081C76.4592 38.0439 76.6298 37.2161 76.9712 36.5249C77.321 35.8337 77.8117 35.3089 78.4432 34.9505C79.0832 34.5836 79.8298 34.4001 80.6832 34.4001C81.7584 34.4001 82.616 34.6647 83.256 35.1937C83.9045 35.7143 84.3482 36.4311 84.5872 37.3441H82.6032C82.424 36.9516 82.185 36.6529 81.8864 36.4481C81.5962 36.2348 81.1952 36.1281 80.6832 36.1281C79.9834 36.1281 79.4245 36.3756 79.0064 36.8705C78.5882 37.3655 78.3792 38.078 78.3792 39.0081C78.3792 39.9383 78.5882 40.6508 79.0064 41.1457C79.4245 41.6407 79.9834 41.8881 80.6832 41.8881C81.1952 41.8881 81.5962 41.7857 81.8864 41.5809C82.185 41.3676 82.424 41.0647 82.6032 40.6721H84.5872C84.3482 41.5852 83.9045 42.3063 83.256 42.8353C82.616 43.3559 81.7584 43.6161 80.6832 43.6161Z" fill="#243946"/>
<path d="M91.3722 34.5281V38.1121H87.7882V34.5281H85.8682V43.4881H87.7882V39.8401H91.3722V43.4881H93.2922V34.5281H91.3722Z" fill="#243946"/>
<path fill-rule="evenodd" clip-rule="evenodd" d="M43.2557 60.2946C43.8957 60.653 44.6423 60.8322 45.4957 60.8322C46.349 60.8322 47.0914 60.653 47.7229 60.2946C48.3629 59.9276 48.8535 59.3986 49.1949 58.7074C49.5447 58.0162 49.7197 57.1884 49.7197 56.2242C49.7197 55.2599 49.5447 54.4322 49.1949 53.741C48.8535 53.0498 48.3629 52.525 47.7229 52.1666C47.0914 51.7996 46.349 51.6162 45.4957 51.6162C44.6423 51.6162 43.8957 51.7996 43.2557 52.1666C42.6242 52.525 42.1335 53.0498 41.7837 53.741C41.4423 54.4322 41.2717 55.2599 41.2717 56.2242C41.2717 57.1884 41.4423 58.0162 41.7837 58.7074C42.1335 59.3986 42.6242 59.9276 43.2557 60.2946ZM47.1725 58.3618C46.7543 58.8567 46.1954 59.1042 45.4957 59.1042C44.7959 59.1042 44.237 58.8567 43.8189 58.3618C43.4007 57.8668 43.1917 57.1543 43.1917 56.2242C43.1917 55.294 43.4007 54.5815 43.8189 54.0866C44.237 53.5916 44.7959 53.3442 45.4957 53.3442C46.1954 53.3442 46.7543 53.5916 47.1725 54.0866C47.5906 54.5815 47.7997 55.294 47.7997 56.2242C47.7997 57.1543 47.5906 57.8668 47.1725 58.3618Z" fill="#243946"/>
<path d="M29.9432 60.7042H31.8632V54.3682H31.9272L34.1032 60.7042H35.7032L37.8792 54.3682H37.9432V60.7042H39.8632V51.7442H37.0856L34.9608 57.9906H34.884L32.7592 51.7442H29.9432V60.7042Z" fill="#243946"/>
<path fill-rule="evenodd" clip-rule="evenodd" d="M51.1307 51.7442H54.5867C55.4144 51.7442 56.1355 51.9234 56.7499 52.2818C57.3728 52.6316 57.8507 53.1436 58.1835 53.8178C58.5163 54.4919 58.6827 55.294 58.6827 56.2242C58.6827 57.1543 58.5163 57.9564 58.1835 58.6306C57.8507 59.3047 57.3728 59.821 56.7499 60.1794C56.1355 60.5292 55.4144 60.7042 54.5867 60.7042H51.1307V51.7442ZM54.5227 58.9762C54.9408 58.9762 55.3163 58.8738 55.6491 58.669C55.9904 58.4642 56.2592 58.157 56.4555 57.7474C56.6603 57.3292 56.7627 56.8215 56.7627 56.2242C56.7627 55.6268 56.6603 55.1234 56.4555 54.7138C56.2592 54.2956 55.9904 53.9842 55.6491 53.7794C55.3163 53.5746 54.9408 53.4722 54.5227 53.4722H53.0507V58.9762H54.5227Z" fill="#243946"/>
<path d="M62.0132 58.9762V56.9922H65.9172V55.3922H62.0132V53.4722H66.1732V51.7442H60.0932V60.7042H66.3012V58.9762H62.0132Z" fill="#243946"/>
</svg>
