<svg width="96" height="96" viewBox="0 0 96 96" fill="none" xmlns="http://www.w3.org/2000/svg">
<path d="M47.0986 12.1106C48.0677 11.7076 49.14 11.7031 50.1133 12.0959C54.47 13.8545 67.2107 19.0008 74.5547 22.0012C76.0438 22.6097 77.0184 24.0459 77.0312 25.6545C77.0718 30.7942 77.1524 41.9265 77.1191 45.4465C77.119 71.615 56.7096 81.6348 50.5811 84.0432C49.7541 84.3682 48.8621 84.3641 48.0352 84.0393C41.7992 81.589 20.5118 71.3836 20.5117 45.4465C20.5458 41.8445 20.8289 30.6583 20.9609 25.5715C21.0016 24.005 21.9532 22.6152 23.3975 22.0071C30.4738 19.0283 42.8276 13.8868 47.0986 12.1106Z" fill="#243946"/>
</svg>
