<svg width="96" height="96" viewBox="0 0 96 96" fill="none" xmlns="http://www.w3.org/2000/svg">
<path d="M64.7998 36.7998C74.9618 36.7998 83.2002 45.0382 83.2002 55.2002C83.2002 58.8182 82.1541 62.1918 80.3506 65.0371L86.668 71.3535L81.0107 77.0107L74.707 70.707C71.8472 72.5379 68.4475 73.5996 64.7998 73.5996C54.6379 73.5995 46.4005 65.3621 46.4004 55.2002C46.4004 45.0382 54.6379 36.7999 64.7998 36.7998ZM38.4004 76.7998H9.59961V68.7998H38.4004V76.7998ZM64.7998 44.7998C59.0561 44.7999 54.4004 49.4565 54.4004 55.2002C54.4005 60.9438 59.0562 65.5995 64.7998 65.5996C70.5435 65.5996 75.2001 60.9439 75.2002 55.2002C75.2002 49.4564 70.5436 44.7998 64.7998 44.7998ZM38.4004 60.7998H9.59961V52.7998H38.4004V60.7998ZM38.4004 44.7998H9.59961V36.7998H38.4004V44.7998ZM86.4004 28.7998H9.59961V20.7998H86.4004V28.7998Z" fill="#243946"/>
</svg>
