<svg width="96" height="96" viewBox="0 0 96 96" fill="none" xmlns="http://www.w3.org/2000/svg">
<path fill-rule="evenodd" clip-rule="evenodd" d="M77.7717 83.62L62.0597 67.9081L67.7165 62.2513L83.4285 77.9632L77.7717 83.62Z" fill="#243946"/>
<path fill-rule="evenodd" clip-rule="evenodd" d="M44.8 69.6C58.4967 69.6 69.6 58.4967 69.6 44.8C69.6 31.1033 58.4967 20 44.8 20C31.1033 20 20 31.1033 20 44.8C20 58.4967 31.1033 69.6 44.8 69.6ZM44.8 77.6C62.9149 77.6 77.6 62.9149 77.6 44.8C77.6 26.6851 62.9149 12 44.8 12C26.6851 12 12 26.6851 12 44.8C12 62.9149 26.6851 77.6 44.8 77.6Z" fill="#243946"/>
</svg>
