<svg width="96" height="96" viewBox="0 0 96 96" fill="none" xmlns="http://www.w3.org/2000/svg">
<path d="M67.6962 86.3997C70.4002 86.3997 74.2897 83.2 74.2897 79.984C74.7702 74.0363 75.0123 71.433 75.1845 69.5815C75.3592 67.702 75.462 66.5972 75.6689 63.5551C76.0623 57.7728 76.8324 46.4548 79.1892 13.7851C79.3619 11.3919 77.4665 9.21798 75.1256 9.65674C67.919 11.0075 67.6137 12.2812 65.1468 22.571C65.0316 23.0516 64.9117 23.552 64.7861 24.0729C64.4948 25.4275 64.1889 26.8498 63.8291 28.3288C63.4325 29.9589 62.2381 33.6741 60.9828 37.5786C59.8592 41.0734 58.6868 44.7202 57.9942 47.1589C57.0615 50.4429 54.5517 57.2935 52.8483 61.8454C51.8565 64.4957 49.2316 66.154 46.4086 65.9578C41.6867 65.6295 34.7029 65.185 31.5042 65.185C26.6963 65.1556 20.3524 65.1216 19.3521 67.812C18.2497 70.7772 21.0662 86.3997 25.6887 86.3997C26.8962 86.3997 28.9091 86.3961 31.3574 86.3917H31.3588C38.2823 86.3791 48.6862 86.3602 54.2053 86.3997C54.247 86.4 54.2888 86.4 54.3304 86.3997H67.6962Z" fill="#243946"/>
<path d="M25.3862 17.9804C25.3861 17.9807 25.3859 17.9809 23.2 16.9902C21.014 15.9994 21.0139 15.9997 21.0138 16L21.0108 16.0065L21.0053 16.0188L20.9876 16.0585C20.973 16.0915 20.9528 16.1376 20.9278 16.1955C20.8778 16.3113 20.8085 16.475 20.7262 16.6777C20.5623 17.0814 20.344 17.6472 20.1248 18.3C19.7094 19.5373 19.2 21.3458 19.2 22.9902C19.2 24.6345 19.7094 26.443 20.1248 27.6803C20.344 28.3331 20.5623 28.8989 20.7262 29.3026C20.8085 29.5053 20.8778 29.669 20.9278 29.7848C20.9528 29.8427 20.973 29.8888 20.9876 29.9218L21.0053 29.9615L21.0108 29.9738L21.0135 29.9796C21.0136 29.9799 21.014 29.9809 23.2 28.9902C21.014 29.9809 21.0139 29.9807 21.0138 29.9804L21.0236 30.0023C21.0324 30.0222 21.0465 30.0544 21.0653 30.0978C21.1028 30.1848 21.1585 30.3161 21.2262 30.483C21.3623 30.8183 21.544 31.2895 21.7248 31.8279C22.1094 32.9731 22.4 34.1646 22.4 34.9902C22.4 35.8157 22.1094 37.0072 21.7248 38.1524C21.544 38.6908 21.3623 39.162 21.2262 39.4973C21.1585 39.6642 21.1028 39.7955 21.0653 39.8825C21.0465 39.9259 21.0324 39.9581 21.0236 39.978L21.0138 39.9999C21.0139 39.9997 21.014 39.9994 23.2 40.9902C25.3859 41.9809 25.3861 41.9806 25.3862 41.9803L25.3892 41.9738L25.3947 41.9615L25.4124 41.9218C25.427 41.8888 25.4472 41.8428 25.4722 41.7848C25.5222 41.669 25.5915 41.5053 25.6738 41.3026C25.8377 40.8989 26.056 40.3331 26.2752 39.6803C26.6906 38.443 27.2 36.6345 27.2 34.9902C27.2 33.3458 26.6906 31.5373 26.2752 30.3C26.056 29.6472 25.8377 29.0814 25.6738 28.6777C25.5915 28.475 25.5222 28.3113 25.4722 28.1955C25.4472 28.1376 25.427 28.0915 25.4124 28.0585L25.3947 28.0188L25.3892 28.0065L25.3865 28.0007C25.3864 28.0004 25.3859 27.9994 23.2 28.9902C25.3859 27.9994 25.3861 27.9997 25.3862 27.9999L25.3764 27.978C25.3676 27.9581 25.3535 27.9259 25.3347 27.8825C25.2972 27.7955 25.2415 27.6642 25.1738 27.4973C25.0377 27.162 24.856 26.6908 24.6752 26.1524C24.2906 25.0072 24 23.8157 24 22.9902C24 22.1646 24.2906 20.9731 24.6752 19.8279C24.856 19.2895 25.0377 18.8183 25.1738 18.483C25.2415 18.3161 25.2972 18.1848 25.3347 18.0978C25.3535 18.0544 25.3676 18.0222 25.3764 18.0023L25.3862 17.9804Z" fill="#243946"/>
<path d="M34.9862 17.9804C34.9861 17.9807 34.9859 17.9809 32.8 16.9902C30.614 15.9994 30.6139 15.9997 30.6138 16L30.6127 16.0023L30.6108 16.0065L30.6053 16.0188L30.5876 16.0585C30.573 16.0915 30.5528 16.1376 30.5278 16.1955C30.4778 16.3113 30.4085 16.475 30.3262 16.6777C30.1623 17.0814 29.944 17.6472 29.7248 18.3C29.3094 19.5373 28.8 21.3458 28.8 22.9902C28.8 24.6345 29.3094 26.443 29.7248 27.6803C29.944 28.3331 30.1623 28.8989 30.3262 29.3026C30.4085 29.5053 30.4778 29.669 30.5278 29.7848C30.5528 29.8427 30.573 29.8888 30.5876 29.9218L30.6053 29.9615L30.6108 29.9738L30.6135 29.9796C30.6136 29.9799 30.614 29.9809 32.8 28.9902C30.614 29.9809 30.6139 29.9807 30.6138 29.9804L30.6236 30.0023C30.6324 30.0222 30.6465 30.0544 30.6653 30.0978C30.7028 30.1848 30.7585 30.3161 30.8262 30.483C30.9623 30.8183 31.144 31.2895 31.3248 31.8279C31.7094 32.9731 32 34.1646 32 34.9902C32 35.8157 31.7094 37.0072 31.3248 38.1524C31.144 38.6908 30.9623 39.162 30.8262 39.4973C30.7585 39.6642 30.7028 39.7955 30.6653 39.8825C30.6465 39.9259 30.6324 39.9581 30.6236 39.978L30.6138 39.9999C30.6139 39.9997 30.614 39.9994 32.8 40.9902C34.9859 41.9809 34.9861 41.9806 34.9862 41.9803L34.9873 41.978L34.9892 41.9738L34.9947 41.9615L35.0124 41.9218C35.027 41.8888 35.0472 41.8428 35.0722 41.7848C35.1222 41.669 35.1915 41.5053 35.2738 41.3026C35.4377 40.8989 35.656 40.3331 35.8752 39.6803C36.2906 38.443 36.8 36.6345 36.8 34.9902C36.8 33.3458 36.2906 31.5373 35.8752 30.3C35.656 29.6472 35.4377 29.0814 35.2738 28.6777C35.1915 28.475 35.1222 28.3113 35.0722 28.1955C35.0472 28.1376 35.027 28.0915 35.0124 28.0585L34.9947 28.0188L34.9892 28.0065L34.9873 28.0023L34.9865 28.0007C34.9864 28.0004 34.9859 27.9994 32.8 28.9902C34.9859 27.9994 34.9861 27.9997 34.9862 27.9999L34.9764 27.978C34.9676 27.9581 34.9535 27.9259 34.9347 27.8825C34.8972 27.7955 34.8415 27.6642 34.7738 27.4973C34.6377 27.162 34.456 26.6908 34.2752 26.1524C33.8906 25.0072 33.6 23.8157 33.6 22.9902C33.6 22.1646 33.8906 20.9731 34.2752 19.8279C34.456 19.2895 34.6377 18.8183 34.7738 18.483C34.8415 18.3161 34.8972 18.1848 34.9347 18.0978C34.9535 18.0544 34.9676 18.0222 34.9764 18.0023L34.9862 17.9804Z" fill="#243946"/>
<path d="M42.4 16.9902C44.5859 17.9809 44.5861 17.9807 44.5862 17.9804L44.5764 18.0023C44.5676 18.0222 44.5535 18.0544 44.5347 18.0978C44.4972 18.1848 44.4415 18.3161 44.3738 18.483C44.2377 18.8183 44.056 19.2895 43.8752 19.8279C43.4906 20.9731 43.2 22.1646 43.2 22.9902C43.2 23.8157 43.4906 25.0072 43.8752 26.1524C44.056 26.6908 44.2377 27.162 44.3738 27.4973C44.4415 27.6642 44.4972 27.7955 44.5347 27.8825C44.5535 27.9259 44.5676 27.9581 44.5764 27.978L44.5862 27.9999C44.5861 27.9997 44.5859 27.9994 42.4 28.9902C40.214 29.9809 40.2139 29.9806 40.2138 29.9803L40.2108 29.9738L40.2053 29.9615L40.1876 29.9218C40.173 29.8888 40.1528 29.8427 40.1278 29.7848C40.0778 29.669 40.0085 29.5053 39.9262 29.3026C39.7623 28.8989 39.544 28.3331 39.3248 27.6803C38.9094 26.443 38.4 24.6345 38.4 22.9902C38.4 21.3458 38.9094 19.5373 39.3248 18.3C39.544 17.6472 39.7623 17.0814 39.9262 16.6777C40.0085 16.475 40.0778 16.3113 40.1278 16.1955C40.1528 16.1376 40.173 16.0915 40.1876 16.0585L40.2053 16.0188L40.2108 16.0065L40.2135 16.0007C40.2136 16.0004 40.214 15.9994 42.4 16.9902Z" fill="#243946"/>
<path d="M42.4 28.9902C44.5859 27.9994 44.5861 27.9997 44.5862 27.9999L44.5873 28.0023L44.5892 28.0065L44.5947 28.0188L44.6124 28.0585C44.627 28.0915 44.6472 28.1376 44.6722 28.1955C44.7222 28.3113 44.7915 28.475 44.8738 28.6777C45.0377 29.0814 45.256 29.6472 45.4752 30.3C45.8906 31.5373 46.4 33.3458 46.4 34.9902C46.4 36.6345 45.8906 38.443 45.4752 39.6803C45.256 40.3331 45.0377 40.8989 44.8738 41.3026C44.7915 41.5053 44.7222 41.669 44.6722 41.7848C44.6472 41.8428 44.627 41.8888 44.6124 41.9218L44.5947 41.9615L44.5892 41.9738L44.5873 41.978L44.5865 41.9796C44.5864 41.9799 44.5859 41.9809 42.4 40.9902C40.214 39.9994 40.2139 39.9997 40.2138 39.9999L40.2236 39.978C40.2324 39.9581 40.2465 39.9259 40.2653 39.8825C40.3028 39.7955 40.3585 39.6642 40.4262 39.4973C40.5623 39.162 40.744 38.6908 40.9248 38.1524C41.3094 37.0072 41.6 35.8157 41.6 34.9902C41.6 34.1646 41.3094 32.9731 40.9248 31.8279C40.744 31.2895 40.5623 30.8183 40.4262 30.483C40.3585 30.3161 40.3028 30.1848 40.2653 30.0978C40.2465 30.0544 40.2324 30.0222 40.2236 30.0023L40.2145 29.9819L40.2138 29.9803C40.2139 29.9806 40.214 29.9809 42.4 28.9902Z" fill="#243946"/>
</svg>
