<svg width="96" height="96" viewBox="0 0 96 96" fill="none" xmlns="http://www.w3.org/2000/svg">
<path d="M48.2002 64.7988C57.7087 64.7988 65.0835 66.9812 70.4639 69.5322C70.2825 70.5426 70.136 71.3152 70.0596 71.7089C69.9951 72.1674 69.9094 72.6239 69.7959 73.0751C69.3104 75.0054 68.5543 77.6105 67.6035 79.5986C65.8852 83.1914 62.4033 91.999 62.4033 91.999H53.6035C53.6035 91.999 57.1294 83.5896 58.4033 80.0585C59.1105 78.0983 60.3398 75.4168 60.5732 73.5429C60.7289 72.2928 58.2374 71.1803 56.9873 71.0234C54.8436 70.7544 51.6297 70.3994 49.6035 70.3994C47.5772 70.3994 44.3625 70.7544 42.2188 71.0234C40.9685 71.1805 38.4782 72.293 38.6338 73.5429C38.8673 75.4169 40.0965 78.0983 40.8037 80.0585C42.0755 83.5838 45.5922 91.972 45.6035 91.999H37.6035C37.5894 91.97 33.319 83.1854 31.6035 79.5986C30.6527 77.6105 29.8967 75.0054 29.4111 73.0751C29.2864 72.5792 29.1927 72.0776 29.127 71.5732C29.0137 70.9864 28.7982 69.835 28.5488 68.3915C33.6254 66.363 40.1477 64.7988 48.2002 64.7988ZM27.2139 57.6415C27.3166 60.759 28.0083 65.2628 28.5488 68.3915C26.2955 69.292 24.3269 70.2844 22.6357 71.2714C19.879 72.8805 17.8505 74.4828 16.5264 75.665C16.3168 75.8521 16.1244 76.028 15.9502 76.1923L14.5254 77.6679L10.9482 74.4736L12.7998 75.999C10.9652 74.4881 10.9485 74.4718 10.9492 74.4706L10.9512 74.4687C10.9525 74.467 10.9544 74.4649 10.9561 74.4628C10.9595 74.4587 10.964 74.4538 10.9688 74.4482C10.9785 74.4365 10.9915 74.4213 11.0068 74.4033C11.0376 74.3672 11.0797 74.318 11.1328 74.2578C11.2395 74.1369 11.3914 73.9684 11.5889 73.7607C11.8388 73.4977 12.164 73.1719 12.5615 72.7939L27.2139 57.6415ZM14.6475 77.5302C14.6478 77.5298 14.6497 77.5291 14.6504 77.5283L14.6514 77.5263V77.5253C14.6496 77.5274 14.648 77.5296 14.6475 77.5302ZM81.7529 77.5302C81.7526 77.5298 81.7507 77.5291 81.75 77.5283L81.749 77.5263C81.7509 77.5285 81.7524 77.5295 81.7529 77.5302ZM71.2695 64.623C73.0857 65.4235 74.724 66.2728 76.1855 67.1259C79.2534 68.9166 81.5383 70.7152 83.0703 72.0829C83.8365 72.767 84.4161 73.3447 84.8115 73.7607C85.009 73.9685 85.1609 74.1369 85.2676 74.2578C85.3208 74.318 85.3628 74.3671 85.3936 74.4033C85.4089 74.4213 85.4219 74.4365 85.4316 74.4482C85.4364 74.4538 85.4409 74.4587 85.4443 74.4628C85.446 74.4649 85.4479 74.467 85.4492 74.4687L85.4512 74.4706C85.452 74.4717 85.4531 74.4734 83.6006 75.999C81.8605 77.4319 81.7548 77.5202 81.749 77.5263C81.7472 77.5241 81.7443 77.5202 81.7412 77.5165C81.7282 77.5013 81.7035 77.4736 81.6689 77.4345C81.5998 77.3562 81.4875 77.2319 81.332 77.0683C81.0205 76.7406 80.5355 76.2555 79.874 75.665C78.5499 74.4828 76.5214 72.8805 73.7646 71.2714C72.7624 70.6865 71.6625 70.1005 70.4639 69.5322C70.7027 68.2016 70.9996 66.4579 71.2695 64.623ZM62.7842 27.7665C63.9475 28.4948 64.9724 29.2603 65.6074 29.999C68.4074 33.599 71.6869 45.7957 72.0059 56.3994C72.0687 58.4895 71.7033 61.6745 71.2695 64.623C65.4451 62.0557 57.7841 59.999 48.2002 59.999C40.3189 59.999 33.7377 61.3888 28.4092 63.3105L62.7842 27.7665ZM49.6064 0.798767C54.4665 0.798767 58.4061 5.27607 58.4062 10.7988C58.4062 14.6839 56.4547 18.0484 53.6064 19.704V23.6689C54.5286 23.8416 55.19 23.995 55.207 23.999C55.207 23.999 56.5951 24.5562 58.3887 25.4072L27.2139 57.6415C27.1992 57.1965 27.1956 56.7798 27.207 56.3994C27.526 45.7959 31.211 32.7993 33.6055 29.999C35.996 27.2036 43.9797 24.0094 44.0059 23.999C44.0166 23.9965 44.6799 23.8424 45.6064 23.6689V19.704C42.7582 18.0484 40.8066 14.6839 40.8066 10.7988C40.8068 5.2761 44.7465 0.79881 49.6064 0.798767ZM73.3252 16.8681L62.7842 27.7665C61.3758 26.8849 59.7633 26.0594 58.3887 25.4072L69.875 13.5302L73.3252 16.8681Z" fill="#243946"/>
</svg>
