<svg width="96" height="96" viewBox="0 0 96 96" fill="none" xmlns="http://www.w3.org/2000/svg">
<path d="M21.7103 79.984C21.7103 83.2 25.5998 86.3997 28.3038 86.3997H41.6695C41.7112 86.4 41.7529 86.4 41.7947 86.3997C47.3137 86.3602 57.7177 86.3791 64.6411 86.3917H64.6426C67.0908 86.3961 69.1037 86.3997 70.3113 86.3997C74.9338 86.3997 77.7503 70.7772 76.6478 67.812C75.6476 65.1216 69.3036 65.1556 64.4958 65.185C61.297 65.185 54.3132 65.6295 49.5914 65.9578C46.7684 66.154 44.1435 64.4957 43.1517 61.8454C41.4482 57.2935 38.9384 50.4429 38.0057 47.1589C37.3131 44.7201 36.1408 41.0735 35.0172 37.5786C33.7619 33.6741 32.5675 29.9589 32.1709 28.3288C31.8111 26.8498 31.5052 25.4275 31.2139 24.0729C28.3998 12.4 28.4176 11.0706 20.8743 9.65674C18.5335 9.21798 16.6381 11.3919 16.8107 13.7851C19.1676 46.4548 19.9376 57.7728 20.331 63.5551C20.7419 69.594 20.742 67.9985 21.7103 79.984Z" fill="#243946"/>
<path d="M74.986 17.9804C74.9859 17.9807 74.9858 17.9809 72.7998 16.9902C70.6139 15.9994 70.6137 15.9997 70.6136 16L70.6106 16.0065L70.6051 16.0188L70.5874 16.0585C70.5728 16.0915 70.5526 16.1376 70.5276 16.1955C70.4776 16.3113 70.4083 16.475 70.326 16.6777C70.1621 17.0814 69.9438 17.6472 69.7246 18.3C69.3092 19.5373 68.7998 21.3458 68.7998 22.9902C68.7998 24.6345 69.3092 26.443 69.7246 27.6803C69.9438 28.3331 70.1621 28.8989 70.326 29.3026C70.4083 29.5053 70.4776 29.669 70.5276 29.7848C70.5526 29.8427 70.5728 29.8888 70.5874 29.9218L70.6051 29.9615L70.6106 29.9738L70.6133 29.9796C70.6134 29.9799 70.6139 29.9809 72.7998 28.9902C70.6139 29.9809 70.6137 29.9807 70.6136 29.9804L70.6234 30.0023C70.6322 30.0222 70.6463 30.0544 70.6651 30.0978C70.7026 30.1848 70.7583 30.3161 70.826 30.483C70.9621 30.8183 71.1438 31.2895 71.3246 31.8279C71.7092 32.9731 71.9998 34.1646 71.9998 34.9902C71.9998 35.8157 71.7092 37.0072 71.3246 38.1524C71.1438 38.6908 70.9621 39.162 70.826 39.4973C70.7583 39.6642 70.7026 39.7955 70.6651 39.8825C70.6463 39.9259 70.6322 39.9581 70.6234 39.978L70.6136 39.9999C70.6137 39.9997 70.6139 39.9994 72.7998 40.9902C74.9858 41.9809 74.9859 41.9806 74.986 41.9803L74.9871 41.978L74.989 41.9738L74.9945 41.9615L75.0122 41.9218C75.0268 41.8888 75.047 41.8428 75.072 41.7848C75.122 41.669 75.1913 41.5053 75.2736 41.3026C75.4375 40.8989 75.6558 40.3331 75.875 39.6803C76.2904 38.443 76.7998 36.6345 76.7998 34.9902C76.7998 33.3458 76.2904 31.5373 75.875 30.3C75.6558 29.6472 75.4375 29.0814 75.2736 28.6777C75.1913 28.475 75.122 28.3113 75.072 28.1955C75.047 28.1376 75.0268 28.0915 75.0122 28.0585L74.9945 28.0188L74.989 28.0065L74.9871 28.0023L74.9863 28.0007C74.9862 28.0004 74.9858 27.9994 72.7998 28.9902C74.9858 27.9994 74.9859 27.9997 74.986 27.9999L74.9762 27.978C74.9674 27.9581 74.9533 27.9259 74.9345 27.8825C74.897 27.7955 74.8413 27.6642 74.7736 27.4973C74.6375 27.162 74.4558 26.6908 74.275 26.1524C73.8904 25.0072 73.5998 23.8157 73.5998 22.9902C73.5998 22.1646 73.8904 20.9731 74.275 19.8279C74.4558 19.2895 74.6375 18.8183 74.7736 18.483C74.8413 18.3161 74.897 18.1848 74.9345 18.0978C74.9533 18.0544 74.9674 18.0222 74.9762 18.0023L74.986 17.9804Z" fill="#243946"/>
<path d="M63.1998 16.9902C65.3858 17.9809 65.3859 17.9807 65.386 17.9804L65.3762 18.0023C65.3674 18.0222 65.3533 18.0544 65.3345 18.0978C65.297 18.1848 65.2413 18.3161 65.1736 18.483C65.0375 18.8183 64.8558 19.2895 64.675 19.8279C64.2904 20.9731 63.9998 22.1646 63.9998 22.9902C63.9998 23.8157 64.2904 25.0072 64.675 26.1524C64.8558 26.6908 65.0375 27.162 65.1736 27.4973C65.2413 27.6642 65.297 27.7955 65.3345 27.8825C65.3533 27.9259 65.3674 27.9581 65.3762 27.978L65.386 27.9999C65.3859 27.9997 65.3858 27.9994 63.1998 28.9902C61.0139 29.9809 61.0137 29.9806 61.0136 29.9803L61.0125 29.978L61.0106 29.9738L61.0051 29.9615L60.9874 29.9218C60.9728 29.8888 60.9526 29.8427 60.9276 29.7848C60.8776 29.669 60.8083 29.5053 60.726 29.3026C60.5621 28.8989 60.3438 28.3331 60.1246 27.6803C59.7092 26.443 59.1998 24.6345 59.1998 22.9902C59.1998 21.3458 59.7092 19.5373 60.1246 18.3C60.3438 17.6472 60.5621 17.0814 60.726 16.6777C60.8083 16.475 60.8776 16.3113 60.9276 16.1955C60.9526 16.1376 60.9728 16.0915 60.9874 16.0585L61.0051 16.0188L61.0106 16.0065L61.0133 16.0007C61.0134 16.0004 61.0139 15.9994 63.1998 16.9902Z" fill="#243946"/>
<path d="M63.1998 28.9902C65.3858 27.9994 65.3859 27.9997 65.386 27.9999L65.3871 28.0023L65.389 28.0065L65.3945 28.0188L65.4122 28.0585C65.4268 28.0915 65.447 28.1376 65.472 28.1955C65.522 28.3113 65.5913 28.475 65.6736 28.6777C65.8375 29.0814 66.0558 29.6472 66.275 30.3C66.6904 31.5373 67.1998 33.3458 67.1998 34.9902C67.1998 36.6345 66.6904 38.443 66.275 39.6803C66.0558 40.3331 65.8375 40.8989 65.6736 41.3026C65.5913 41.5053 65.522 41.669 65.472 41.7848C65.447 41.8428 65.4268 41.8888 65.4122 41.9218L65.3945 41.9615L65.389 41.9738L65.3871 41.978L65.3863 41.9796C65.3862 41.9799 65.3858 41.9809 63.1998 40.9902C61.0139 39.9994 61.0137 39.9997 61.0136 39.9999L61.0234 39.978C61.0322 39.9581 61.0463 39.9259 61.0651 39.8825C61.1026 39.7955 61.1583 39.6642 61.226 39.4973C61.3621 39.162 61.5438 38.6908 61.7246 38.1524C62.1092 37.0072 62.3998 35.8157 62.3998 34.9902C62.3998 34.1646 62.1092 32.9731 61.7246 31.8279C61.5438 31.2895 61.3621 30.8183 61.226 30.483C61.1583 30.3161 61.1026 30.1848 61.0651 30.0978C61.0463 30.0544 61.0322 30.0222 61.0234 30.0023L61.0143 29.9819L61.0136 29.9803C61.0137 29.9806 61.0139 29.9809 63.1998 28.9902Z" fill="#243946"/>
<path d="M53.5998 16.9907C55.7858 17.9815 55.7859 17.9812 55.786 17.981L55.7762 18.0029C55.7674 18.0228 55.7533 18.055 55.7345 18.0984C55.697 18.1854 55.6413 18.3167 55.5736 18.4836C55.4375 18.8189 55.2558 19.2901 55.075 19.8285C54.6904 20.9737 54.3998 22.1652 54.3998 22.9907C54.3998 23.8163 54.6904 25.0078 55.075 26.153C55.2558 26.6914 55.4375 27.1626 55.5736 27.4979C55.6413 27.6648 55.697 27.7961 55.7345 27.8831C55.7533 27.9265 55.7674 27.9587 55.7762 27.9786L55.786 28.0005C55.7859 28.0002 55.7858 28 53.5998 28.9907C51.4139 29.9815 51.4137 29.9812 51.4136 29.9809L51.4106 29.9744L51.4051 29.9621L51.3874 29.9224C51.3728 29.8894 51.3526 29.8433 51.3276 29.7854C51.2776 29.6696 51.2083 29.5059 51.126 29.3032C50.9621 28.8995 50.7438 28.3337 50.5246 27.6809C50.1092 26.4436 49.5998 24.6351 49.5998 22.9907C49.5998 21.3464 50.1092 19.5379 50.5246 18.3006C50.7438 17.6477 50.9621 17.082 51.126 16.6783C51.2083 16.4756 51.2776 16.3118 51.3276 16.1961C51.3526 16.1381 51.3728 16.0921 51.3874 16.0591L51.4051 16.0194L51.4106 16.0071L51.4133 16.0013C51.4134 16.001 51.4139 16 53.5998 16.9907Z" fill="#243946"/>
<path d="M53.5998 28.9907C55.7858 28 55.7859 28.0002 55.786 28.0005L55.789 28.0071L55.7945 28.0194L55.8122 28.0591C55.8268 28.0921 55.847 28.1381 55.872 28.1961C55.922 28.3118 55.9913 28.4756 56.0736 28.6783C56.2375 29.082 56.4558 29.6477 56.675 30.3006C57.0904 31.5379 57.5998 33.3464 57.5998 34.9907C57.5998 36.6351 57.0904 38.4436 56.675 39.6809C56.4558 40.3337 56.2375 40.8995 56.0736 41.3032C55.9913 41.5059 55.922 41.6696 55.872 41.7854C55.847 41.8433 55.8268 41.8894 55.8122 41.9224L55.7945 41.9621L55.789 41.9744L55.7863 41.9802C55.7862 41.9805 55.7858 41.9815 53.5998 40.9907C51.4139 40 51.4137 40.0002 51.4136 40.0005L51.4234 39.9786C51.4322 39.9587 51.4463 39.9265 51.4651 39.8831C51.5026 39.7961 51.5583 39.6648 51.626 39.4979C51.7621 39.1626 51.9438 38.6914 52.1246 38.153C52.5092 37.0078 52.7998 35.8163 52.7998 34.9907C52.7998 34.1652 52.5092 32.9737 52.1246 31.8285C51.9438 31.2901 51.7621 30.8189 51.626 30.4836C51.5583 30.3167 51.5026 30.1854 51.4651 30.0984C51.4463 30.055 51.4322 30.0228 51.4234 30.0029L51.4136 29.9809C51.4137 29.9812 51.4139 29.9815 53.5998 28.9907Z" fill="#243946"/>
</svg>
