<svg width="96" height="96" viewBox="0 0 96 96" fill="none" xmlns="http://www.w3.org/2000/svg">
<path d="M67.2002 52C72.8723 52.0001 77.6815 55.6899 79.3613 60.7998H86.4004V68.7998H79.3613C77.6816 73.9099 72.8724 77.5995 67.2002 77.5996C60.131 77.5996 54.4004 71.869 54.4004 64.7998C54.4005 57.7306 60.131 52 67.2002 52ZM48 68.7998H9.59961V60.7998H48V68.7998ZM28.7998 18.4004C35.869 18.4004 41.5996 24.1309 41.5996 31.2002C41.5995 38.2694 35.869 44 28.7998 44C23.1277 43.9999 18.3185 40.3101 16.6387 35.2002H9.59961V27.2002H16.6387C18.3184 22.0901 23.1276 18.4005 28.7998 18.4004ZM86.4004 35.2002H48V27.2002H86.4004V35.2002Z" fill="#243946"/>
</svg>
