<svg width="96" height="96" viewBox="0 0 96 96" fill="none" xmlns="http://www.w3.org/2000/svg">
<path fill-rule="evenodd" clip-rule="evenodd" d="M39.1465 75.3416L40.8 84H55.2L56.1778 75.4652C56.2728 74.6365 56.8378 73.9404 57.6198 73.6501C57.8668 73.5585 58.1121 73.4653 58.3558 73.3704C58.5961 73.277 58.8316 73.182 59.0625 73.0854C59.7933 72.7799 60.6351 72.8528 61.2751 73.3193L68.52 78.6L78.6 68.52L73.2622 61.5149C72.7609 60.857 72.6897 59.9748 73.008 59.2113C73.0956 59.0012 73.1792 58.7898 73.2588 58.577C73.3483 58.3595 73.4349 58.1421 73.5188 57.9246C73.8111 57.1666 74.4745 56.6049 75.2781 56.4864L84 55.2002V40.8002L75.3966 39.7046C74.5679 39.5991 73.8845 39.0211 73.576 38.2448C73.4738 37.9875 73.368 37.7372 73.2588 37.4938C73.171 37.2804 73.0846 37.071 72.9995 36.8657C72.7012 36.1457 72.8087 35.3206 73.2858 34.7043L78.6 27.84L68.52 17.4L61.338 22.7572C60.6659 23.2585 59.7684 23.3153 58.9982 22.9838C58.8005 22.8988 58.5982 22.816 58.3913 22.7355C58.1526 22.6392 57.9072 22.5445 57.6552 22.4514C56.8573 22.1568 56.2716 21.4538 56.1758 20.6087L55.2 12H40.8L39.1459 20.693C39.0007 21.456 38.4552 22.0777 37.7293 22.354C37.4372 22.4652 37.1451 22.5807 36.853 22.7004C36.6511 22.7789 36.4524 22.8596 36.2571 22.9425C35.4643 23.2791 34.5412 23.1902 33.8752 22.6441L27.48 17.4L17.4 27.84L22.073 34.7319C22.4832 35.3368 22.5613 36.1088 22.2677 36.7781C22.1653 37.0114 22.0594 37.25 21.95 37.4938C21.8553 37.7239 21.7638 37.9603 21.6753 38.2029C21.3839 39.0024 20.6978 39.6063 19.8548 39.722L12 40.8002V55.2002L19.9701 56.4664C20.79 56.5967 21.4535 57.1889 21.7452 57.9661C21.8216 58.1697 21.9017 58.3734 21.9855 58.577C22.0896 58.83 22.1955 59.0811 22.3034 59.3303C22.6032 60.0231 22.5454 60.8226 22.1259 61.4502L17.4 68.52L27.84 78.6L33.9446 73.4579C34.5921 72.9124 35.4963 72.8019 36.2786 73.1257C36.4784 73.2084 36.6817 73.29 36.8885 73.3704C37.1662 73.4785 37.446 73.5845 37.7278 73.6884C38.4561 73.9569 39.0009 74.5791 39.1465 75.3416ZM48 62.4C55.9529 62.4 62.4 55.9529 62.4 48C62.4 40.0471 55.9529 33.6 48 33.6C40.0471 33.6 33.6 40.0471 33.6 48C33.6 55.9529 40.0471 62.4 48 62.4Z" fill="#243946"/>
</svg>
