<svg width="96" height="96" viewBox="0 0 96 96" fill="none" xmlns="http://www.w3.org/2000/svg">
<path d="M53.7158 23.1998C69.3085 23.1999 76.7998 27.3134 76.7998 39.5035C76.7998 42.3995 76.3028 47.8958 74.8486 53.6002H87.1973C88.2467 53.6003 89.2294 54.1146 89.8271 54.9772C90.4249 55.8398 90.5618 56.9408 90.1934 57.9235L85.3936 70.7233C84.9252 71.9721 83.7312 72.8003 82.3975 72.8004H26.2686C10.2383 72.8003 5.59961 43.9655 5.59961 35.6891C5.60033 26.0418 37.9084 23.1998 53.7158 23.1998ZM53.7158 29.6002C46.0762 29.6002 34.47 30.2948 24.9277 32.1139C20.0997 33.0343 16.2367 34.1641 13.7363 35.403C12.8091 35.8624 12.2892 36.2172 12.0137 36.441C12.1464 40.2423 13.2295 48.1034 15.8975 55.0553C17.32 58.7621 19.0299 61.7696 20.918 63.7584C22.7044 65.6401 24.4154 66.4 26.2686 66.4H58.041C61.3433 66.3998 64.551 63.7186 67.1729 56.7565C69.6197 50.2591 70.3994 42.7285 70.3994 39.5035C70.3994 34.8498 69.0841 33.1271 67.5508 32.1031C65.389 30.6596 61.2599 29.6003 53.7158 29.6002ZM72.7979 59.9459C71.8556 62.2788 70.7123 64.4905 69.333 66.4H80.1797L82.5791 59.9996H72.7979V59.9459ZM45.0303 34.4C45.8196 34.4001 46.459 35.1124 46.459 35.9908V48.3981H51.4268C51.9275 48.3981 52.1864 49.0632 51.8438 49.4694L41.5996 61.6002L31.3555 49.4694C31.0129 49.0632 31.2718 48.3981 31.7725 48.3981H36.7402V35.9908C36.7402 35.1124 37.3796 34.4002 38.1689 34.4H45.0303Z" fill="#243946"/>
</svg>
