<svg width="96" height="96" viewBox="0 0 96 96" fill="none" xmlns="http://www.w3.org/2000/svg">
<path d="M53.7158 23.2042C69.3085 23.2042 76.7997 27.3179 76.7998 39.5079C76.7998 42.4039 76.3028 47.9001 74.8486 53.6046H87.1973C88.2466 53.6046 89.2293 54.1191 89.8271 54.9815C90.4249 55.8441 90.5617 56.9452 90.1934 57.9278L85.3936 70.7286C84.9251 71.9773 83.7311 72.8046 82.3975 72.8047H26.2686C10.2386 72.8046 5.59976 43.9713 5.59961 35.6944C5.59961 26.0469 37.9083 23.2042 53.7158 23.2042ZM53.7158 29.6046C46.0762 29.6046 34.47 30.2992 24.9277 32.1182C20.0997 33.0386 16.2367 34.1684 13.7363 35.4073C12.8091 35.8667 12.2892 36.2215 12.0137 36.4454C12.1464 40.2465 13.2295 48.1076 15.8975 55.0596C17.3201 58.7665 19.0298 61.7749 20.918 63.7637C22.7043 65.6452 24.4155 66.4043 26.2686 66.4044H58.041C61.3433 66.4041 64.551 63.7237 67.1729 56.7618C69.6197 50.2644 70.3994 42.7329 70.3994 39.5079C70.3994 34.8542 69.0841 33.1314 67.5508 32.1075C65.389 30.664 61.2599 29.6046 53.7158 29.6046ZM72.7979 59.9512C71.8556 62.284 70.7122 64.4949 69.333 66.4044H80.1797L82.5791 60.0049H72.7979V59.9512ZM31.1992 43.6046C31.1992 46.6973 33.707 49.2042 36.7998 49.2042H49.5996V43.3135C49.5998 42.9659 50.013 42.7841 50.2695 43.0186L59.1992 51.2042L50.2695 59.3897C50.013 59.6248 49.5996 59.4428 49.5996 59.0948V54.0049H36.7998C31.056 54.0049 26.3994 49.3483 26.3994 43.6046V38.4044H31.1992V43.6046Z" fill="#243946"/>
</svg>
