<svg width="96" height="96" viewBox="0 0 96 96" fill="none" xmlns="http://www.w3.org/2000/svg">
<path d="M53.7158 23.2042C69.3085 23.2042 76.7997 27.3179 76.7998 39.5079C76.7998 42.4039 76.3028 47.9001 74.8486 53.6046H87.1973C88.2466 53.6046 89.2293 54.1191 89.8271 54.9815C90.4249 55.8441 90.5617 56.9452 90.1934 57.9278L85.3936 70.7286C84.9251 71.9773 83.7311 72.8046 82.3975 72.8047H26.2686C10.2386 72.8046 5.59976 43.9713 5.59961 35.6944C5.59961 26.0469 37.9083 23.2042 53.7158 23.2042ZM53.7158 29.6046C46.0762 29.6046 34.47 30.2992 24.9277 32.1182C20.0997 33.0386 16.2367 34.1684 13.7363 35.4073C12.8091 35.8667 12.2892 36.2215 12.0137 36.4454C12.1464 40.2465 13.2295 48.1076 15.8975 55.0596C17.3201 58.7665 19.0298 61.7749 20.918 63.7637C22.7043 65.6452 24.4155 66.4043 26.2686 66.4044H58.041C61.3433 66.4041 64.551 63.7237 67.1729 56.7618C69.6197 50.2644 70.3994 42.7329 70.3994 39.5079C70.3994 34.8542 69.0841 33.1314 67.5508 32.1075C65.389 30.664 61.2599 29.6046 53.7158 29.6046ZM72.7979 59.9512C71.8556 62.284 70.7122 64.4949 69.333 66.4044H80.1797L82.5791 60.0049H72.7979V59.9512ZM49.043 39.4483C49.2948 39.7002 49.1168 40.1306 48.7607 40.1309H46.1475V45.0567C46.1475 45.4985 46.5054 45.8575 46.9473 45.8575H51.873V43.2442C51.873 42.8878 52.3047 42.709 52.5566 42.961L57.5996 48.0049L52.5566 53.0479C52.3047 53.2999 51.873 53.1211 51.873 52.7647V50.1514H46.9473C46.5054 50.1514 46.1475 50.5104 46.1475 50.9522V55.878H48.7607C49.1168 55.8783 49.2946 56.3087 49.043 56.5606L44 61.6046L38.9561 56.5606C38.7045 56.3086 38.883 55.878 39.2393 55.878H41.8525V50.9522C41.8525 50.5105 41.4944 50.1517 41.0527 50.1514H36.126V52.7647C36.126 53.121 35.6954 53.2998 35.4434 53.0479L30.3994 48.0049L35.4434 42.961C35.6954 42.7092 36.126 42.8879 36.126 43.2442V45.8575H41.0527C41.4944 45.8573 41.8525 45.4984 41.8525 45.0567V40.1309H39.2393C38.883 40.1309 38.7044 39.7003 38.9561 39.4483L44 34.4044L49.043 39.4483Z" fill="#243946"/>
</svg>
