<svg width="96" height="96" viewBox="0 0 96 96" fill="none" xmlns="http://www.w3.org/2000/svg">
<path d="M86.2624 67.0635L78.9225 74.4004L86.2624 81.7373L81.738 86.2637L74.3962 78.9248L67.0622 86.2549L62.5378 81.7285L69.8698 74.4004L62.5378 67.0713L67.0622 62.5449L74.3962 69.876L81.738 62.5371L86.2624 67.0635ZM67.57 14.6699C68.567 14.4725 69.5999 14.5746 70.5388 14.9639C71.4777 15.3532 72.2807 16.0123 72.8454 16.8574C73.4099 17.7024 73.7111 18.6957 73.7116 19.7119V56H55.9997V76.2832H17.1403C16.1232 76.2827 15.1293 75.9805 14.2839 75.415C13.4384 74.8495 12.7791 74.0464 12.3903 73.1064C12.0016 72.1665 11.9004 71.1323 12.0993 70.1348C12.2983 69.1372 12.7888 68.2208 13.5085 67.502L64.9372 16.0732C65.6567 15.3555 66.5731 14.8674 67.57 14.6699Z" fill="#243946"/>
</svg>
