<svg width="96" height="96" viewBox="0 0 96 96" fill="none" xmlns="http://www.w3.org/2000/svg">
<path d="M80.4183 77.9624L74.7621 83.6187L67.9427 76.7993H17.3255C14.4746 76.7993 13.047 73.3533 15.0628 71.3374L38.7708 47.6284L14.7992 23.6567L20.4564 17.9995L80.4183 77.9624ZM30.2787 67.4341C29.775 67.9381 30.1325 68.7993 30.8451 68.7993H59.9427L44.4281 53.2847L30.2787 67.4341ZM71.3372 15.062C73.3532 13.0467 76.8001 14.475 76.8001 17.3257V67.5015L68.8001 59.5015V30.8452C68.8001 30.1325 67.9379 29.775 67.4339 30.2788L53.5052 44.2075L47.849 38.5503L71.3372 15.062Z" fill="#243946"/>
</svg>
