<svg width="96" height="96" viewBox="0 0 96 96" fill="none" xmlns="http://www.w3.org/2000/svg">
<path d="M64 9.59961C68.4181 9.59961 71.9998 13.1815 72 17.5996V78.4004C71.9998 82.8185 68.4181 86.4004 64 86.4004H32C27.5819 86.4004 24.0002 82.8185 24 78.4004V17.5996C24.0002 13.1815 27.5819 9.59961 32 9.59961H64ZM32 16C31.1165 16 30.4006 16.7161 30.4004 17.5996V78.4004C30.4006 79.2839 31.1165 80 32 80H64C64.8835 80 65.5994 79.2839 65.5996 78.4004V17.5996C65.5994 16.7161 64.8835 16 64 16H32ZM59.4697 64C60.2042 64 60.7998 64.5956 60.7998 65.3301V73.8701C60.7998 74.6046 60.2042 75.2002 59.4697 75.2002H52.8857C52.4311 75.2001 52.0077 74.9676 51.7637 74.584L50.1611 72.0645H36.8623L35.2002 69.5996L36.8623 67.1357H39.5225L40.8516 69.4131L42.1816 67.1357H44.8418L46.1719 69.4131L47.501 67.1357H50.1611L51.7637 64.6162C52.0077 64.2326 52.4311 64.0001 52.8857 64H59.4697ZM56.1455 72.5117H58.8057V66.6885H56.1455V72.5117ZM41.9648 54.0625C44.1863 52.6267 46.8442 52.0886 49.4316 52.5645C50.9896 52.851 52.4508 53.4924 53.7197 54.4248L49.5225 59.2002C49.1604 59.0228 48.7739 58.894 48.373 58.8203C47.6315 58.684 46.8764 58.742 46.1729 58.9795L41.9648 54.0625ZM36.0811 45.4775C40.5474 42.216 46.0738 40.9383 51.4434 41.9258C54.9034 42.5621 58.1157 44.1057 60.7998 46.3691L56.6729 51.0645C54.846 49.6045 52.6933 48.6062 50.3848 48.1816C46.6063 47.487 42.7181 48.3866 39.5752 50.6816C39.4718 50.7571 39.3697 50.8341 39.2686 50.9121L35.2002 46.1582C35.4873 45.9238 35.7809 45.6967 36.0811 45.4775ZM56 27.2002H40V20.7998H56V27.2002Z" fill="#243946"/>
</svg>
