<svg width="96" height="96" viewBox="0 0 96 96" fill="none" xmlns="http://www.w3.org/2000/svg">
<path d="M9.92871 40.7998C11.62 40.7999 12.937 41.1952 13.8799 41.9854C14.8228 42.7619 15.3775 43.7887 15.5439 45.0645H12.4248C12.3139 44.5791 12.0498 44.1973 11.6338 43.9199C11.2317 43.6427 10.6977 43.5039 10.0322 43.5039C9.29742 43.5039 8.72925 43.6569 8.32715 43.9619C7.93888 44.2531 7.74414 44.6207 7.74414 45.0645C7.74424 45.4664 7.87628 45.7925 8.13965 46.042C8.41694 46.2776 8.75717 46.4649 9.15918 46.6035C9.57515 46.7283 10.1577 46.8737 10.9062 47.04C11.9321 47.2619 12.7779 47.5042 13.4434 47.7676C14.109 48.0172 14.6779 48.4266 15.1494 48.9951C15.6208 49.5497 15.8564 50.3194 15.8564 51.3037C15.8564 52.1495 15.6275 52.9124 15.1699 53.5918C14.7124 54.2712 14.033 54.8051 13.1318 55.1934C12.2445 55.5816 11.1766 55.7763 9.92871 55.7764C8.26491 55.7764 6.89873 55.381 5.83105 54.5908C4.76336 53.8004 4.15256 52.67 4 51.2002H7.12012C7.23107 51.7825 7.52935 52.2405 8.01465 52.5732C8.51383 52.906 9.15224 53.0723 9.92871 53.0723C11.7311 53.0722 12.6328 52.4823 12.6328 51.3037C12.6327 50.9295 12.5007 50.631 12.2373 50.4092C11.9877 50.1735 11.6685 50.0006 11.2803 49.8896C10.892 49.7787 10.3372 49.6467 9.61621 49.4941C8.56248 49.2862 7.69601 49.0572 7.0166 48.8076C6.33714 48.558 5.74725 48.1353 5.24805 47.5391C4.76291 46.9429 4.52058 46.118 4.52051 45.0645C4.52051 44.1631 4.75607 43.3927 5.22754 42.7549C5.69899 42.1033 6.34406 41.6177 7.16211 41.2988C7.98018 40.9661 8.90269 40.7998 9.92871 40.7998ZM43.209 40.7998C44.5956 40.7998 45.802 41.0982 46.8281 41.6943C47.8681 42.2767 48.666 43.1297 49.2207 44.2529C49.7892 45.3761 50.0732 46.7213 50.0732 48.2881C50.0732 49.8549 49.7892 51.2001 49.2207 52.3232C48.666 53.4464 47.8681 54.3061 46.8281 54.9023C45.802 55.4847 44.5956 55.7764 43.209 55.7764C41.8224 55.7763 40.6093 55.4847 39.5693 54.9023C38.5432 54.3061 37.7453 53.4464 37.1768 52.3232C36.6221 51.2001 36.3447 49.8549 36.3447 48.2881C36.3447 46.7213 36.6222 45.3761 37.1768 44.2529C37.7453 43.1297 38.5432 42.2767 39.5693 41.6943C40.6093 41.0982 41.8225 40.7998 43.209 40.7998ZM58.6064 40.7998C59.9929 40.7999 61.1996 41.0981 62.2256 41.6943C63.2655 42.2767 64.0626 43.1298 64.6172 44.2529C65.1857 45.3761 65.4697 46.7212 65.4697 48.2881C65.4697 49.855 65.1857 51.2001 64.6172 52.3232C64.0626 53.4463 63.2654 54.3061 62.2256 54.9023C61.1996 55.4847 59.9929 55.7763 58.6064 55.7764C57.2198 55.7764 56.0058 55.4847 54.9658 54.9023C53.9398 54.3061 53.1427 53.4463 52.5742 52.3232C52.0196 51.2001 51.7422 49.855 51.7422 48.2881C51.7422 46.7212 52.0196 45.3761 52.5742 44.2529C53.1427 43.1298 53.9398 42.2767 54.9658 41.6943C56.0058 41.0981 57.2198 40.7998 58.6064 40.7998ZM25.9648 51.1582H26.0898L29.543 41.0078H34.0566V55.5684H30.9365V45.2725H30.832L27.2959 55.5684H24.6963L21.1602 45.2725H21.0566V55.5684H17.9365V41.0078H22.5127L25.9648 51.1582ZM77.4395 43.8164H73.0713V55.5684H69.9512V43.8164H65.583V41.0078H77.4395V43.8164ZM82.3193 46.832H88.1426V41.0078H91.2627V55.5684H88.1426V49.6396H82.3193V55.5684H79.1992V41.0078H82.3193V46.832ZM43.209 43.6084C42.072 43.6084 41.1638 44.0102 40.4844 44.8145C39.8049 45.6187 39.4648 46.7766 39.4648 48.2881C39.4649 49.7995 39.8049 50.9575 40.4844 51.7617C41.1638 52.5659 42.072 52.9677 43.209 52.9678C44.3459 52.9678 45.2542 52.5658 45.9336 51.7617C46.613 50.9575 46.9531 49.7995 46.9531 48.2881C46.9531 46.7766 46.6131 45.6187 45.9336 44.8145C45.2541 44.0103 44.346 43.6084 43.209 43.6084ZM58.6064 43.6084C57.4694 43.6084 56.5603 44.0102 55.8809 44.8145C55.2015 45.6187 54.8623 46.7768 54.8623 48.2881C54.8623 49.7994 55.2015 50.9575 55.8809 51.7617C56.5603 52.566 57.4694 52.9678 58.6064 52.9678C59.7433 52.9677 60.6517 52.5659 61.3311 51.7617C62.0105 50.9575 62.3496 49.7995 62.3496 48.2881C62.3496 46.7767 62.0104 45.6187 61.3311 44.8145C60.6517 44.0103 59.7433 43.6085 58.6064 43.6084Z" fill="#243946"/>
</svg>
