<svg width="96" height="96" viewBox="0 0 96 96" fill="none" xmlns="http://www.w3.org/2000/svg">
<path d="M53.3096 73.1433H51.3779L56.0459 58.7429H57.9775L53.3096 73.1433ZM31.4512 65.1375H32.916L35.1055 61.9021H37.085L34.3809 65.8191L37.3262 70.0466H35.2021L32.8994 66.6707H31.4512V70.0466H29.5996V59.2078H31.4512V65.1375ZM47.3682 61.7468C47.9584 61.7468 48.4848 61.8808 48.9463 62.1492C49.4077 62.4072 49.7669 62.7846 50.0244 63.28C50.2926 63.7652 50.4268 64.3382 50.4268 64.9988V70.0466H48.5762V65.1843C48.5762 64.5857 48.4254 64.1317 48.125 63.822C47.8245 63.5123 47.4273 63.3572 46.9336 63.3572C46.4831 63.3572 46.1021 63.5222 45.791 63.8523C45.4798 64.1826 45.3242 64.6269 45.3242 65.1843V70.0466H43.4727V65.1843C43.4727 64.5859 43.3227 64.1317 43.0225 63.822C42.722 63.5124 42.3246 63.3572 41.8311 63.3572C41.3803 63.3572 40.9987 63.522 40.6875 63.8523C40.3763 64.1826 40.2207 64.6269 40.2207 65.1843V70.0466H38.3701V61.9021H39.9316L40.1406 62.8923H40.2207C40.7144 62.1285 41.4179 61.7468 42.3301 61.7468C42.8343 61.7469 43.2954 61.8712 43.7139 62.1189C44.1431 62.3666 44.4709 62.7016 44.6963 63.1248H44.7764C45.0017 62.7015 45.3511 62.3666 45.8232 62.1189C46.2954 61.8712 46.8102 61.7469 47.3682 61.7468ZM60.9424 59.2078V62.8152H61.0234C61.3131 62.454 61.6352 62.1859 61.9893 62.0105C62.3541 61.8351 62.7779 61.7468 63.2607 61.7468C63.8615 61.7468 64.398 61.8809 64.8701 62.1492C65.3423 62.4072 65.7132 62.7845 65.9814 63.28C66.2603 63.7754 66.3994 64.3636 66.3994 65.0447V70.0466H64.5488V65.2302C64.5487 64.6421 64.3873 64.1825 64.0654 63.8523C63.7543 63.5221 63.3303 63.3572 62.7939 63.3572C62.2574 63.3572 61.8121 63.538 61.458 63.8992C61.1147 64.25 60.9425 64.6937 60.9424 65.2302V70.0466H59.0908V59.2078H60.9424ZM71.9502 32.8787L66.2051 37.9187C68.1759 38.1427 69.7661 38.8932 70.9756 40.1697C72.1852 41.4241 72.79 43.0933 72.79 45.1765C72.79 47.4835 71.9954 49.2865 70.4053 50.5857C68.8149 51.8849 66.6978 52.5349 64.0547 52.5349C62.2851 52.5349 60.6836 52.2433 59.25 51.6609C57.8165 51.0785 56.6852 50.2389 55.8564 49.1414C55.0501 48.0214 54.6465 46.6888 54.6465 45.1433H59.6865C59.8434 46.1063 60.2912 46.8234 61.0303 47.2937C61.7919 47.7641 62.7443 47.9988 63.8867 47.9988C65.0962 47.9987 66.037 47.7415 66.709 47.2263C67.4034 46.7111 67.75 45.9492 67.75 44.9412C67.75 43.9333 67.4033 43.1604 66.709 42.6228C66.0146 42.0628 65.0738 41.783 63.8867 41.783H60.0225V38.1882L65.667 33.2146H55.8223V28.6785H71.9502V32.8787ZM32.3115 52.199H27.2715V35.6677C26.7339 36.0037 26.1181 36.2394 25.4238 36.3738C24.7294 36.5082 23.8889 36.575 22.9033 36.575H22.3994V32.0388H23.5752C24.852 32.0388 25.883 31.8041 26.667 31.3337C27.4509 30.841 27.9321 30.1239 28.1113 29.1833L28.2129 28.6785H32.3115V52.199ZM44.3955 28.3425C47.2179 28.3425 49.3467 28.9925 50.7803 30.2917C52.2361 31.5685 52.9639 33.2713 52.9639 35.3992C52.9638 37.5495 51.8994 39.5547 49.7715 41.4138L42.6826 47.6628H53.2998V52.199H35.8281V47.6628L46.0762 38.6248C46.6137 38.1544 47.0282 37.6948 47.3193 37.2468C47.6104 36.7765 47.7558 36.2726 47.7559 35.7351C47.7559 33.8311 46.6355 32.8787 44.3955 32.8787C43.4549 32.8787 42.671 33.1253 42.0439 33.6179C41.4167 34.1107 41.025 34.8167 40.8682 35.7351H35.8281C36.1193 33.3831 37.004 31.5685 38.4824 30.2917C39.9831 28.9927 41.9541 28.3426 44.3955 28.3425Z" fill="#243946"/>
</svg>
