<svg width="96" height="96" viewBox="0 0 96 96" fill="none" xmlns="http://www.w3.org/2000/svg">
<path d="M35.5019 31.4226L49.6377 40.4862C51.0176 41.4319 51.9531 42.9973 51.9985 44.7521C52.0695 47.5183 49.8857 49.6867 47.1272 49.5973C45.4148 49.5422 43.8864 48.6291 42.9575 47.2825L42.9522 47.2752C42.9261 47.2389 42.9008 47.1966 42.8747 47.1604L33.8236 33.1137C33.074 31.9581 34.3571 30.6728 35.508 31.4238L35.5019 31.4226Z" fill="#243946"/>
<path fill-rule="evenodd" clip-rule="evenodd" d="M27.6355 27.6353C22.2345 33.0363 19.2002 40.3617 19.2002 48H11.2002C11.2002 38.24 15.0773 28.8798 21.9787 21.9784C28.88 15.0771 38.2402 11.2 48.0002 11.2C57.7602 11.2 67.1204 15.0771 74.0217 21.9784C80.9231 28.8798 84.8002 38.24 84.8002 47.9999L76.8002 48C76.8002 40.3617 73.7659 33.0363 68.3649 27.6353C62.9638 22.2342 55.6384 19.2 48.0002 19.2C40.362 19.2 33.0366 22.2342 27.6355 27.6353Z" fill="#243946"/>
<path d="M56.0002 86.4H49.6002V54.4H59.2002L66.8002 76.8H67.6002L75.2002 54.4H84.8002V86.4H78.4002V63.2H78.1673L70.4002 86.4H64.0002L56.2331 63.2H56.0002V86.4Z" fill="#243946"/>
<path d="M43.2002 86.4H36.8002V54.4H43.2002V86.4Z" fill="#243946"/>
<path d="M30.4002 86.4H11.2002V54.4H17.6002V80.0003H30.4002V86.4Z" fill="#243946"/>
</svg>
