<svg width="96" height="96" viewBox="0 0 96 96" fill="none" xmlns="http://www.w3.org/2000/svg">
<path d="M21.1282 55.776C19.4642 55.776 18.0983 55.3808 17.0306 54.5904C15.9629 53.8 15.3527 52.6699 15.2002 51.2H18.3202C18.4311 51.7824 18.7293 52.24 19.2146 52.5728C19.7138 52.9056 20.3517 53.072 21.1282 53.072C22.9309 53.072 23.8322 52.4827 23.8322 51.304C23.8322 50.9296 23.7005 50.6315 23.437 50.4096C23.1874 50.1739 22.8685 50.0006 22.4802 49.8896C22.0919 49.7787 21.5373 49.647 20.8162 49.4944C19.7623 49.2864 18.8957 49.0576 18.2162 48.808C17.5367 48.5584 16.9474 48.1355 16.4482 47.5392C15.9629 46.943 15.7202 46.1179 15.7202 45.064C15.7202 44.1627 15.9559 43.3931 16.4274 42.7552C16.8989 42.1035 17.5437 41.6182 18.3618 41.2992C19.1799 40.9664 20.1021 40.8 21.1282 40.8C22.8199 40.8 24.1373 41.1952 25.0802 41.9856C26.0231 42.7622 26.5778 43.7883 26.7442 45.064H23.6242C23.5133 44.5787 23.2498 44.1974 22.8338 43.92C22.4317 43.6427 21.8978 43.504 21.2322 43.504C20.4973 43.504 19.9287 43.6566 19.5266 43.9616C19.1383 44.2528 18.9442 44.6203 18.9442 45.064C18.9442 45.4662 19.0759 45.792 19.3394 46.0416C19.6167 46.2774 19.9565 46.4646 20.3586 46.6032C20.7746 46.728 21.357 46.8736 22.1058 47.04C23.1319 47.2619 23.9778 47.5046 24.6434 47.768C25.309 48.0176 25.8775 48.4267 26.349 48.9952C26.8205 49.5499 27.0562 50.3195 27.0562 51.304C27.0562 52.1499 26.8274 52.9126 26.3698 53.592C25.9122 54.2715 25.2327 54.8054 24.3314 55.1936C23.4439 55.5819 22.3762 55.776 21.1282 55.776Z" fill="#243946"/>
<path d="M29.1362 55.568V41.008H35.1682C36.1666 41.008 37.0471 41.223 37.8098 41.6528C38.5863 42.0688 39.1895 42.6582 39.6194 43.4208C40.0493 44.1835 40.2642 45.0432 40.2642 46C40.2642 46.9568 40.0493 47.8166 39.6194 48.5792C39.1895 49.3419 38.5863 49.9382 37.8098 50.368C37.0471 50.784 36.1666 50.992 35.1682 50.992H32.2562V55.568H29.1362ZM34.8562 48.184C35.5773 48.184 36.1389 47.9899 36.541 47.6016C36.9431 47.2134 37.1442 46.6795 37.1442 46C37.1442 45.3206 36.9431 44.7867 36.541 44.3984C36.1389 44.0102 35.5773 43.816 34.8562 43.816H32.2562V48.184H34.8562Z" fill="#243946"/>
<path d="M48.4778 55.776C47.0911 55.776 45.8778 55.4848 44.8378 54.9024C43.8116 54.3062 43.0143 53.4464 42.4458 52.3232C41.8911 51.2 41.6138 49.855 41.6138 48.288C41.6138 46.7211 41.8911 45.376 42.4458 44.2528C43.0143 43.1296 43.8116 42.2768 44.8378 41.6944C45.8778 41.0982 47.0911 40.8 48.4778 40.8C49.8644 40.8 51.0708 41.0982 52.097 41.6944C53.137 42.2768 53.9343 43.1296 54.489 44.2528C55.0575 45.376 55.3418 46.7211 55.3418 48.288C55.3418 49.855 55.0575 51.2 54.489 52.3232C53.9343 53.4464 53.137 54.3062 52.097 54.9024C51.0708 55.4848 49.8644 55.776 48.4778 55.776ZM48.4778 52.968C49.6148 52.968 50.5231 52.5659 51.2026 51.7616C51.882 50.9574 52.2218 49.7995 52.2218 48.288C52.2218 46.7766 51.882 45.6187 51.2026 44.8144C50.5231 44.0102 49.6148 43.608 48.4778 43.608C47.3407 43.608 46.4324 44.0102 45.753 44.8144C45.0735 45.6187 44.7338 46.7766 44.7338 48.288C44.7338 49.7995 45.0735 50.9574 45.753 51.7616C46.4324 52.5659 47.3407 52.968 48.4778 52.968Z" fill="#243946"/>
<path d="M69.2826 55.568H65.9338L63.1258 50.472H60.7546V55.568H57.6346V41.008H63.8746C64.8453 41.008 65.6981 41.2091 66.433 41.6112C67.168 41.9995 67.7365 42.5542 68.1386 43.2752C68.5546 43.9963 68.7626 44.8352 68.7626 45.792C68.7626 46.8182 68.513 47.7056 68.0138 48.4544C67.5285 49.1894 66.9114 49.7302 66.1626 50.0768L69.2826 55.568ZM60.7546 43.816V47.768H63.6666C64.249 47.768 64.7205 47.5947 65.081 47.248C65.4554 46.8875 65.6426 46.4022 65.6426 45.792C65.6426 45.1819 65.4554 44.7035 65.081 44.3568C64.7205 43.9963 64.249 43.816 63.6666 43.816H60.7546Z" fill="#243946"/>
<path d="M76.9786 55.568H73.8586V43.816H69.4906V41.008H81.3466V43.816H76.9786V55.568Z" fill="#243946"/>
</svg>
