<svg width="96" height="96" viewBox="0 0 96 96" fill="none" xmlns="http://www.w3.org/2000/svg">
<path fill-rule="evenodd" clip-rule="evenodd" d="M28.5602 19.0322C28.0904 18.2734 27.8703 17.7187 27.8734 16.7949C27.8731 16.0434 28.2951 15.5385 28.9152 15.5444L32.7298 15.5385C32.7298 15.5385 34.1436 11.6008 35.3066 9.16677C35.9344 7.85289 37.6569 8.00543 38.5414 8.0054L48.9454 8.00521L59.3495 8.0054C60.234 8.00543 61.9565 7.85289 62.5843 9.16677C63.7473 11.6008 65.1611 15.5385 65.1611 15.5385L68.9757 15.5444C69.5958 15.5385 70.0178 16.0434 70.0175 16.7949C70.0206 17.7187 69.8005 18.2734 69.3306 19.0322C68.9814 19.5963 68.0174 19.6766 67.0671 19.7265C67.0671 19.7265 68.3315 23.4768 68.3315 25.2399C68.3315 26.8521 68.3367 28.4318 68.3419 30.0006C68.3522 33.1065 68.3624 36.1704 68.3315 39.362C68.3226 40.0849 67.7344 40.6667 67.0046 40.6667L58.7008 40.6667C57.9666 40.6667 57.374 40.076 57.374 39.3444L57.374 36.4795L40.5169 36.4795L40.5169 39.3444C40.5169 40.076 39.9243 40.6667 39.1901 40.6667L30.8862 40.6667C30.1565 40.6667 29.5683 40.0849 29.5594 39.362C29.5285 36.1704 29.5387 33.1065 29.549 30.0006C29.5542 28.4318 29.5594 26.8521 29.5594 25.2399C29.5594 23.4768 30.8237 19.7265 30.8237 19.7265C29.8735 19.6766 28.9095 19.5963 28.5602 19.0322ZM38.2301 11.7179C38.2301 11.7179 38.4842 11.3583 38.7025 11.3556L59.1883 11.3556C59.4067 11.3583 59.6608 11.7179 59.6608 11.7179L62.4313 19.7265L35.4596 19.7265L38.2301 11.7179Z" fill="#243946"/>
<path d="M32.5955 43.3297C32.4337 43.2443 32.4946 43 32.6777 43L37.6608 43C37.7676 43 37.8724 43.0291 37.9638 43.0842L44.3543 46.9375C45.1093 47.3928 45.1066 48.4852 44.3494 48.9368L33.1814 55.5976C32.8603 55.7891 32.7995 56.2276 33.0565 56.4987L39.8857 63.7049C39.9914 63.8165 39.9121 64 39.758 64L28.7315 64C28.5586 64 28.3945 63.9238 28.2832 63.7917L22.8118 57.2966C22.0993 56.4508 22.3413 55.1669 23.3132 54.6365L37.456 46.9174C37.8649 46.6943 37.8607 46.1076 37.4487 45.8902L32.5955 43.3297Z" fill="#243946"/>
<path d="M61.277 43.3297C61.1152 43.2443 61.1761 43 61.3592 43L66.3422 43C66.4491 43 66.5538 43.0291 66.6452 43.0842L73.0357 46.9375C73.7907 47.3928 73.7881 48.4852 73.0309 48.9368L61.8629 55.5976C61.5418 55.7891 61.481 56.2275 61.7379 56.4987L68.5671 63.7049C68.6729 63.8165 68.5935 64 68.4395 64L57.413 64C57.24 64 57.0759 63.9238 56.9647 63.7917L51.4932 57.2966C50.7808 56.4508 51.0228 55.1669 51.9947 54.6365L66.1375 46.9174C66.5463 46.6943 66.5422 46.1076 66.1302 45.8902L61.277 43.3297Z" fill="#243946"/>
<path d="M31.1985 88C29.4425 88 27.8947 87.6267 26.555 86.88C25.2335 86.1333 24.2107 85.04 23.4866 83.6C22.7625 82.16 22.4004 80.4267 22.4004 78.4C22.4004 76.3733 22.7625 74.64 23.4866 73.2C24.2107 71.76 25.2335 70.6667 26.555 69.92C27.8947 69.1733 29.4425 68.8 31.1985 68.8C32.9545 68.8 34.4932 69.1733 35.8148 69.92C37.1544 70.6667 38.1863 71.76 38.9104 73.2C39.6345 74.64 39.9966 76.3733 39.9966 78.4C39.9966 80.4267 39.6345 82.16 38.9104 83.6C38.1863 85.04 37.1544 86.1333 35.8148 86.88C34.4932 87.6267 32.9545 88 31.1985 88ZM31.1985 85.0133C32.8278 85.0133 34.1312 84.4444 35.1087 83.3067C36.1044 82.1511 36.6022 80.5156 36.6022 78.4C36.6022 76.2845 36.1044 74.6578 35.1087 73.52C34.1312 72.3644 32.8278 71.7867 31.1985 71.7867C29.5692 71.7867 28.2567 72.3644 27.2611 73.52C26.2835 74.6578 25.7947 76.2844 25.7947 78.4C25.7947 80.5156 26.2835 82.1511 27.2611 83.3067C28.2567 84.4445 29.5692 85.0133 31.1985 85.0133Z" fill="#243946"/>
<path d="M56.8685 69.0667L56.8685 72.0533L47.7445 72.0533L47.7445 77.28L56.1896 77.28L56.1896 80.2667L47.7445 80.2667L47.7445 87.7333L44.3502 87.7333L44.3502 69.0667L56.8685 69.0667Z" fill="#243946"/>
<path d="M73.6004 69.0667L73.6004 72.0533L64.4764 72.0533L64.4764 77.28L72.9215 77.28L72.9215 80.2667L64.4764 80.2667L64.4764 87.7333L61.0821 87.7333L61.0821 69.0667L73.6004 69.0667Z" fill="#243946"/>
</svg>
