<svg width="96" height="96" viewBox="0 0 96 96" fill="none" xmlns="http://www.w3.org/2000/svg">
<path fill-rule="evenodd" clip-rule="evenodd" d="M21.2148 24.73C20.5727 23.6894 20.2718 22.9286 20.276 21.6617C20.2757 20.6312 20.8524 19.9387 21.6999 19.9467L26.9135 19.9387C26.9135 19.9387 28.8457 14.5384 30.4353 11.2004C31.2174 9.55786 33.2427 9.5864 34.5106 9.60426C34.6335 9.606 34.7495 9.60763 34.8564 9.60763L49.076 9.60736L63.2955 9.60763C63.4024 9.60763 63.5183 9.606 63.6412 9.60427C64.9091 9.5864 66.9346 9.55786 67.7167 11.2004C69.3062 14.5384 71.2385 19.9387 71.2385 19.9387L76.4521 19.9467C77.2996 19.9387 77.8763 20.6312 77.8759 21.6617C77.8801 22.9286 77.5793 23.6894 76.9372 24.73C76.4598 25.5037 75.1423 25.6138 73.8436 25.6822C73.8436 25.6822 75.5716 30.8255 75.5716 33.2434C75.5716 35.4545 75.5787 37.6208 75.5858 39.7724L75.5859 39.7755C75.5999 44.034 75.6138 48.2348 75.5716 52.6108C75.5595 53.6022 74.7555 54.4001 73.7581 54.4001H62.409C61.4055 54.4001 60.5956 53.5901 60.5956 52.5867V48.6577H37.5564V52.5867C37.5564 53.5901 36.7464 54.4001 35.743 54.4001H24.3938C23.3964 54.4001 22.5925 53.6022 22.5804 52.6108C22.5381 48.2338 22.552 44.032 22.5661 39.7725L22.5661 39.7711C22.5732 37.62 22.5804 35.4541 22.5804 33.2434C22.5804 30.8255 24.3084 25.6822 24.3084 25.6822C23.0096 25.6138 21.6921 25.5037 21.2148 24.73ZM34.4309 14.6991C34.4309 14.6991 34.7782 14.2058 35.0766 14.2022H63.0753C63.3737 14.2058 63.7211 14.6991 63.7211 14.6991L67.5076 25.6822H30.6444L34.4309 14.6991Z" fill="#243946"/>
<path d="M26.73 58.0522C26.5088 57.9351 26.592 57.6001 26.8423 57.6001H33.6528C33.7988 57.6001 33.942 57.64 34.0669 57.7156L42.8011 63.0001C43.8329 63.6244 43.8293 65.1226 42.7944 65.7419L27.5307 74.8767C27.0919 75.1394 27.0088 75.7407 27.36 76.1125L36.6937 85.9952C36.8382 86.1483 36.7297 86.4 36.5192 86.4H21.4489C21.2125 86.4 20.9882 86.2954 20.8362 86.1144L13.3581 77.2067C12.3844 76.0468 12.7152 74.2861 14.0434 73.5586L33.373 62.9725C33.9318 62.6665 33.9261 61.8619 33.363 61.5638L26.73 58.0522Z" fill="#243946"/>
<path d="M66.0423 57.6001C65.792 57.6001 65.7088 57.9351 65.93 58.0522L72.563 61.5638C73.1261 61.8619 73.1318 62.6665 72.573 62.9725L53.2435 73.5586C51.9152 74.2861 51.5844 76.0468 52.5581 77.2067L60.0362 86.1144C60.1882 86.2954 60.4125 86.4 60.6489 86.4H75.7192C75.9297 86.4 76.0382 86.1483 75.8937 85.9952L66.56 76.1125C66.2088 75.7407 66.2919 75.1394 66.7307 74.8767L81.9944 65.7419C83.0293 65.1226 83.0329 63.6244 82.0011 63.0001L73.2669 57.7156C73.142 57.64 72.9988 57.6001 72.8528 57.6001H66.0423Z" fill="#243946"/>
</svg>
