<svg width="96" height="96" viewBox="0 0 96 96" fill="none" xmlns="http://www.w3.org/2000/svg">
<path d="M57.6006 42.3998V38.3998H52.8006V42.3998H48.8006V47.1997H52.8006V51.1997H57.6006V47.1997H61.6006V42.3998H57.6006Z" fill="#243946"/>
<path d="M20.0006 42.3998H32.8006V47.1997H20.0006V42.3998Z" fill="#243946"/>
<path fill-rule="evenodd" clip-rule="evenodd" d="M52.8006 19.1998H65.6006V23.9998H72.0006V57.5997C72.0006 62.018 68.4189 65.5997 64.0006 65.5997H17.6006C13.1823 65.5997 9.60059 62.018 9.60059 57.5997V23.9998H15.2006V19.1998H28.0006V23.9998H52.8006V19.1998ZM65.6006 30.3998H16.0006V57.5997C16.0006 58.4834 16.7169 59.1997 17.6006 59.1997H64.0006C64.8842 59.1997 65.6006 58.4834 65.6006 57.5997V30.3998Z" fill="#243946"/>
<path d="M76.0005 37.6001V59.2C76.0005 64.9438 71.3442 69.6 65.6005 69.6H22.4005V74.4H65.6005C73.9952 74.4 80.8005 67.5947 80.8005 59.2V37.6001H76.0005Z" fill="#243946"/>
<path d="M84.8007 46.3998V59.9997C84.8007 70.1617 76.5627 78.3997 66.4006 78.3997H31.2006V83.1996H66.4006C79.2137 83.1996 89.6006 72.8127 89.6006 59.9997V46.3998H84.8007Z" fill="#243946"/>
</svg>
