<svg width="96" height="96" viewBox="0 0 96 96" fill="none" xmlns="http://www.w3.org/2000/svg">
<path d="M41.1083 43.9543L38.6055 50.9486H43.7487L41.2231 43.9543H41.1083Z" fill="#243946"/>
<path fill-rule="evenodd" clip-rule="evenodd" d="M9.6001 44C9.6001 27.2105 23.2106 13.6 40.0001 13.6H56.0001C72.7896 13.6 86.4001 27.2106 86.4001 44V52C86.4001 68.7895 72.7896 82.4 56.0001 82.4H40.0001C23.2106 82.4 9.6001 68.7895 9.6001 52V44ZM40.0001 21.6H56.0001C65.9104 21.6 74.3176 28.0358 77.2701 36.956L77.2004 36.8C77.7984 38.7936 76.3056 40.8 74.2242 40.8H68.6647C67.5921 40.8 66.68 40.0175 66.5169 38.9574L65.8265 34.4701C65.4663 32.1285 63.4515 30.4 61.0823 30.4H34.9184C32.5492 30.4 30.5344 32.1285 30.1742 34.4701L29.4838 38.9573C29.3207 40.0175 28.4086 40.8 27.336 40.8H21.7765C19.6951 40.8 18.2023 38.7936 18.8003 36.8L18.7287 36.9602C21.68 28.0378 30.0882 21.6 40.0001 21.6ZM20.3864 62.8281C24.2037 69.728 31.5563 74.4 40.0001 74.4H56.0001C64.4389 74.4 71.7879 69.7335 75.6071 62.8402C75.6686 61.7852 74.8371 60.8 73.6783 60.8C73.6268 60.8 73.5759 60.8103 73.5285 60.8302L61.3782 65.9462C59.4128 66.7737 57.3018 67.2 55.1693 67.2H40.8314C38.6989 67.2 36.5879 66.7737 34.6225 65.9462L22.4896 60.8376C22.4307 60.8128 22.3674 60.8 22.3035 60.8C21.1517 60.8 20.3252 61.7794 20.3864 62.8281ZM48.8001 56.8H45.8611L44.6442 53.44H37.7101L36.4932 56.8H33.6001L39.478 40.8H42.9222L48.8001 56.8ZM55.0001 43.1059V53.6941H52.5877C52.3728 53.6941 52.2662 53.955 52.4197 54.1055L56.8001 58.4L61.1805 54.1055C61.334 53.955 61.2275 53.6941 61.0125 53.6941H58.6001V43.1059H61.0125C61.2275 43.1059 61.334 42.845 61.1805 42.6945L56.8001 38.4L52.4197 42.6945C52.2662 42.845 52.3728 43.1059 52.5877 43.1059H55.0001Z" fill="#243946"/>
</svg>
