<svg width="96" height="96" viewBox="0 0 96 96" fill="none" xmlns="http://www.w3.org/2000/svg">
<path d="M59.7864 9.97515C59.7864 9.97515 59.7861 9.97567 57.6002 8.9849C55.4142 7.99413 55.4137 7.99542 55.4137 7.99542L55.411 8.00125L55.4055 8.01353L55.3878 8.05322C55.3732 8.08625 55.353 8.13231 55.328 8.19024C55.278 8.30601 55.2087 8.46979 55.1264 8.67242C54.9625 9.07615 54.7442 9.64191 54.525 10.2947C54.1096 11.532 53.6002 13.3406 53.6002 14.9849C53.6002 16.6293 54.1096 18.4378 54.525 19.6751C54.7442 20.3279 54.9625 20.8937 55.1264 21.2974C55.2087 21.5 55.278 21.6638 55.328 21.7796C55.353 21.8375 55.3732 21.8836 55.3878 21.9166L55.4055 21.9563L55.411 21.9686L55.414 21.9751L55.4238 21.9971C55.4326 22.017 55.4467 22.0492 55.4655 22.0926C55.503 22.1795 55.5587 22.3108 55.6264 22.4777C55.7625 22.8131 55.9442 23.2842 56.125 23.8226C56.5096 24.9679 56.8002 26.1594 56.8002 26.9849C56.8002 27.8104 56.5096 29.0019 56.125 30.1472C55.9442 30.6856 55.7625 31.1567 55.6264 31.4921C55.5587 31.659 55.503 31.7903 55.4655 31.8772L55.4466 31.9207L55.4238 31.9727L55.414 31.9947C55.414 31.9947 55.4142 31.9941 57.6002 32.9849C59.7861 33.9757 59.7867 33.9744 59.7867 33.9744L59.7894 33.9686L59.7949 33.9563L59.8126 33.9166C59.8272 33.8836 59.8474 33.8375 59.8724 33.7796C59.9224 33.6638 59.9917 33.5 60.074 33.2974C60.2379 32.8937 60.4562 32.3279 60.6754 31.6751C61.0908 30.4378 61.6002 28.6293 61.6002 26.9849C61.6002 25.3406 61.0908 23.532 60.6754 22.2947C60.4562 21.6419 60.2379 21.0761 60.074 20.6724C59.9917 20.4698 59.9224 20.306 59.8724 20.1902C59.8474 20.1323 59.8272 20.0863 59.8126 20.0532L59.7949 20.0135L59.7894 20.0012L59.7864 19.9947L59.7766 19.9727C59.7678 19.9528 59.7537 19.9206 59.7349 19.8772C59.6974 19.7903 59.6417 19.659 59.574 19.4921C59.4379 19.1567 59.2562 18.6856 59.0754 18.1472C58.6908 17.0019 58.4002 15.8104 58.4002 14.9849C58.4002 14.1594 58.6908 12.9679 59.0754 11.8226C59.2562 11.2842 59.4379 10.8131 59.574 10.4777C59.6417 10.3108 59.6974 10.1795 59.7349 10.0926C59.7537 10.0492 59.7678 10.017 59.7766 9.99708L59.7864 9.97515Z" fill="#243946"/>
<path d="M68.5864 9.97515C68.5864 9.97515 68.5861 9.97567 66.4002 8.9849C64.2142 7.99413 64.2137 7.99542 64.2137 7.99542L64.211 8.00125L64.2055 8.01353L64.1878 8.05322C64.1732 8.08625 64.153 8.13231 64.128 8.19024C64.078 8.30601 64.0087 8.46979 63.9264 8.67242C63.7625 9.07615 63.5442 9.64191 63.325 10.2947C62.9096 11.532 62.4002 13.3406 62.4002 14.9849C62.4002 16.6293 62.9096 18.4378 63.325 19.6751C63.5442 20.3279 63.7625 20.8937 63.9264 21.2974C64.0087 21.5 64.078 21.6638 64.128 21.7796C64.153 21.8375 64.1732 21.8836 64.1878 21.9166L64.2055 21.9563L64.211 21.9686L64.2129 21.9728L64.214 21.9751L64.2147 21.9767L64.2238 21.9971L64.2343 22.021C64.2425 22.0396 64.253 22.0636 64.2655 22.0926C64.303 22.1795 64.3587 22.3108 64.4264 22.4777C64.5625 22.8131 64.7442 23.2842 64.925 23.8226C65.3096 24.9679 65.6002 26.1594 65.6002 26.9849C65.6002 27.8104 65.3096 29.0019 64.925 30.1472C64.7442 30.6856 64.5625 31.1567 64.4264 31.4921C64.3587 31.659 64.303 31.7903 64.2655 31.8772L64.2425 31.9301L64.2238 31.9727L64.214 31.9947C64.214 31.9947 64.2142 31.9941 66.4002 32.9849C68.5861 33.9757 68.5867 33.9744 68.5867 33.9744L68.5875 33.9728L68.5949 33.9563L68.6126 33.9166C68.6272 33.8836 68.6474 33.8375 68.6724 33.7796C68.7224 33.6638 68.7917 33.5 68.874 33.2974C69.0379 32.8937 69.2562 32.3279 69.4754 31.6751C69.8908 30.4378 70.4002 28.6293 70.4002 26.9849C70.4002 25.3406 69.8908 23.532 69.4754 22.2947C69.2562 21.6419 69.0379 21.0761 68.874 20.6724C68.7917 20.4698 68.7224 20.306 68.6724 20.1902C68.6474 20.1323 68.6272 20.0863 68.6126 20.0532L68.5949 20.0135L68.5875 19.997L68.5864 19.9947L68.5766 19.9727L68.5646 19.9454C68.5566 19.9272 68.5467 19.9044 68.5349 19.8772C68.4974 19.7903 68.4417 19.659 68.374 19.4921C68.2379 19.1567 68.0562 18.6856 67.8754 18.1472C67.4908 17.0019 67.2002 15.8104 67.2002 14.9849C67.2002 14.1594 67.4908 12.9679 67.8754 11.8226C68.0562 11.2842 68.2379 10.8131 68.374 10.4777C68.4417 10.3108 68.4974 10.1795 68.5349 10.0926C68.5537 10.0492 68.5678 10.017 68.5766 9.99708L68.5864 9.97515Z" fill="#243946"/>
<path d="M75.2002 8.9849C77.3861 9.97567 77.3864 9.97515 77.3864 9.97515L77.3766 9.99708C77.3678 10.017 77.3537 10.0492 77.3349 10.0926C77.2974 10.1795 77.2417 10.3108 77.174 10.4777C77.0379 10.8131 76.8562 11.2842 76.6754 11.8226C76.2908 12.9679 76.0002 14.1594 76.0002 14.9849C76.0002 15.8104 76.2908 17.0019 76.6754 18.1472C76.8562 18.6856 77.0379 19.1567 77.174 19.4921C77.2417 19.659 77.2974 19.7903 77.3349 19.8772C77.3537 19.9206 77.3678 19.9528 77.3766 19.9727L77.3864 19.9947L77.3894 20.0012L77.3949 20.0135L77.4126 20.0532C77.4272 20.0863 77.4474 20.1323 77.4724 20.1902C77.5224 20.306 77.5917 20.4698 77.674 20.6724C77.8379 21.0761 78.0562 21.6419 78.2754 22.2947C78.6908 23.532 79.2002 25.3406 79.2002 26.9849C79.2002 28.6293 78.6908 30.4378 78.2754 31.6751C78.0562 32.3279 77.8379 32.8937 77.674 33.2974C77.5917 33.5 77.5224 33.6638 77.4724 33.7796L77.4449 33.843C77.4322 33.8721 77.4214 33.8967 77.4126 33.9166L77.3949 33.9563L77.3867 33.9744C77.3867 33.9744 77.3861 33.9757 75.2002 32.9849C73.0142 31.9941 73.014 31.9947 73.014 31.9947L73.0238 31.9727C73.0326 31.9528 73.0467 31.9206 73.0655 31.8772C73.103 31.7903 73.1587 31.659 73.2264 31.4921C73.3625 31.1567 73.5442 30.6856 73.725 30.1472C74.1096 29.0019 74.4002 27.8104 74.4002 26.9849C74.4002 26.1594 74.1096 24.9679 73.725 23.8226C73.5442 23.2842 73.3625 22.8131 73.2264 22.4777C73.1587 22.3108 73.103 22.1795 73.0655 22.0926C73.0467 22.0492 73.0326 22.017 73.0238 21.9971L73.014 21.9751L73.011 21.9686L73.0055 21.9563L72.9878 21.9166C72.9732 21.8836 72.953 21.8375 72.928 21.7796C72.878 21.6638 72.8087 21.5 72.7264 21.2974C72.5625 20.8937 72.3442 20.3279 72.125 19.6751C71.7096 18.4378 71.2002 16.6293 71.2002 14.9849C71.2002 13.3406 71.7096 11.532 72.125 10.2947C72.3442 9.64191 72.5625 9.07615 72.7264 8.67242C72.8087 8.46979 72.878 8.30601 72.928 8.19024C72.953 8.13231 72.9732 8.08625 72.9878 8.05322L73.0055 8.01353L73.011 8.00125L73.0137 7.99542C73.0137 7.99542 73.0142 7.99413 75.2002 8.9849Z" fill="#243946"/>
<path fill-rule="evenodd" clip-rule="evenodd" d="M40.7049 25.5954H48.8002V32.1071H40.7049C32.6515 32.1071 25.8198 37.3472 23.4218 44.6095L23.4801 44.4791C22.9941 46.1018 24.207 47.735 25.8982 47.735H30.4153C31.2868 47.735 32.0279 47.098 32.1604 46.2351L32.7213 42.5828C33.014 40.6768 34.651 39.2698 36.576 39.2698H57.8342C59.7591 39.2698 61.3961 40.6768 61.6888 42.5828L62.2498 46.2351C62.3823 47.098 63.1234 47.735 63.9948 47.735H68.512C70.2031 47.735 71.416 46.1018 70.9301 44.4791L70.9868 44.6061C70.3343 42.6314 69.354 40.8063 68.1105 39.1954H75.764C77.4533 42.5446 78.4049 46.3308 78.4049 50.3396V56.8512C78.4049 70.5171 67.3463 81.5954 53.7049 81.5954H40.7049C27.0635 81.5954 16.0049 70.5171 16.0049 56.8512V50.3396C16.0049 36.6738 27.0635 25.5954 40.7049 25.5954ZM40.7049 75.1954C33.8443 75.1954 27.8703 71.281 24.7687 65.6648C24.719 64.8112 25.3906 64.014 26.3264 64.014C26.3784 64.014 26.4297 64.0245 26.4776 64.0446L36.3356 67.7749C37.9324 68.4484 39.6477 68.7954 41.3803 68.7954H53.0299C54.7625 68.7954 56.4777 68.4484 58.0746 67.7749L67.9467 64.0386C67.9853 64.0224 68.0266 64.014 68.0684 64.014C69.0099 64.014 69.6855 64.8159 69.6356 65.6746C66.5324 71.2855 60.5614 75.1954 53.7049 75.1954H40.7049Z" fill="#243946"/>
</svg>
