<svg width="96" height="96" viewBox="0 0 96 96" fill="none" xmlns="http://www.w3.org/2000/svg">
<path fill-rule="evenodd" clip-rule="evenodd" d="M40.0001 13.6C23.2106 13.6 9.6001 27.2105 9.6001 44V52C9.6001 68.7895 23.2106 82.4 40.0001 82.4H56.0001C72.7896 82.4 86.4001 68.7895 86.4001 52V44C86.4001 27.2105 72.7896 13.6 56.0001 13.6H40.0001ZM56.0001 21.6H40.0001C30.0882 21.6 21.68 28.0378 18.7287 36.9602L18.8003 36.8C18.2023 38.7936 19.6951 40.8 21.7765 40.8H27.336C28.4086 40.8 29.3207 40.0174 29.4838 38.9573L30.1742 34.4701C30.5344 32.1285 32.5492 30.4 34.9184 30.4H61.0823C63.4515 30.4 65.4663 32.1285 65.8265 34.4701L66.5169 38.9573C66.68 40.0174 67.5921 40.8 68.6647 40.8H74.2242C76.3056 40.8 77.7984 38.7936 77.2003 36.8L77.2701 36.9559C74.3176 28.0358 65.9104 21.6 56.0001 21.6ZM40.0001 74.4C31.5563 74.4 24.2037 69.728 20.3864 62.828C20.3252 61.7793 21.1517 60.8 22.3035 60.8C22.3674 60.8 22.4307 60.8128 22.4896 60.8376L34.6225 65.9462C36.5879 66.7737 38.6989 67.2 40.8314 67.2H55.1693C57.3018 67.2 59.4128 66.7737 61.3782 65.9462L73.5285 60.8302C73.5759 60.8103 73.6268 60.8 73.6783 60.8C74.8371 60.8 75.6686 61.7852 75.6071 62.8402C71.7878 69.7335 64.4389 74.4 56.0001 74.4H40.0001ZM45.6001 40.8V55.2H42.1795C41.9657 55.2 41.8586 55.4585 42.0098 55.6097L48.0001 61.6L53.9904 55.6097C54.1416 55.4585 54.0345 55.2 53.8207 55.2H50.4001V40.8H53.8207C54.0345 40.8 54.1416 40.5415 53.9904 40.3903L48.0001 34.4L42.0098 40.3903C41.8586 40.5415 41.9657 40.8 42.1795 40.8H45.6001Z" fill="#243946"/>
</svg>
