<svg width="96" height="96" viewBox="0 0 96 96" fill="none" xmlns="http://www.w3.org/2000/svg">
<path d="M83.7998 72.7479H88.2588C88.4668 72.7479 88.5768 72.995 88.4375 73.1493L80.7998 81.5956L73.1621 73.1493C73.0227 72.995 73.1328 72.7479 73.3408 72.7479H77.7998V65.5956H83.7998V72.7479ZM46.5049 12.7958C60.1461 12.796 71.2041 23.8742 71.2041 37.5399V44.0516C71.2039 57.7171 60.146 68.7956 46.5049 68.7958H33.5049C19.8636 68.7958 8.80492 57.7173 8.80469 44.0516V37.5399C8.80469 23.8741 19.8635 12.7958 33.5049 12.7958H46.5049ZM60.8682 51.2137C60.8264 51.2137 60.7846 51.2219 60.7461 51.2382L50.874 54.9745C49.2772 55.648 47.5617 55.995 45.8291 55.995H34.1797C32.4471 55.995 30.7316 55.648 29.1348 54.9745L19.2773 51.245C19.2294 51.2248 19.1779 51.2137 19.126 51.2137C18.1901 51.2138 17.5186 52.0115 17.5684 52.8651C20.67 58.4812 26.6445 62.3954 33.5049 62.3954H46.5049C53.3612 62.3952 59.3324 58.4856 62.4355 52.8749C62.4855 52.0162 61.8096 51.2139 60.8682 51.2137ZM88.4375 52.4413C88.577 52.5956 88.4668 52.8427 88.2588 52.8427H83.7998V60.7958H77.7998V52.8427H73.3408C73.1328 52.8427 73.0226 52.5956 73.1621 52.4413L80.7998 43.995L88.4375 52.4413ZM33.5049 19.3075C25.4515 19.3075 18.6197 24.5471 16.2217 31.8094L16.2793 31.6796C15.7938 33.3021 17.0073 34.9344 18.6982 34.9344H23.2148C24.0862 34.9344 24.8273 34.2981 24.96 33.4354L25.5205 29.7831C25.8132 27.8771 27.4511 26.4696 29.376 26.4696H50.6338C52.5587 26.4696 54.1956 27.8771 54.4883 29.7831L55.0498 33.4354C55.1824 34.2979 55.9228 34.9342 56.7939 34.9344H61.3115C63.0025 34.9344 64.2151 33.3021 63.7295 31.6796L63.7861 31.8055C61.3871 24.5453 54.5567 19.3077 46.5049 19.3075H33.5049Z" fill="#243946"/>
</svg>
