<svg width="96" height="96" viewBox="0 0 96 96" fill="none" xmlns="http://www.w3.org/2000/svg">
<path d="M85.5502 55.0734H80.8568L80.2169 32.7706V29.5992H86.1902V32.7706L85.5502 55.0734ZM86.4035 66.3991H80.0035V60.0562H86.4035V66.3991Z" fill="#243946"/>
<path fill-rule="evenodd" clip-rule="evenodd" d="M11.2041 44.7433C11.2041 31.0775 22.2627 19.9992 35.9041 19.9992H48.9041C62.5455 19.9992 73.6041 31.0775 73.6041 44.7433V51.2549C73.6041 64.9207 62.5455 75.999 48.9041 75.999H35.9041C22.2627 75.999 11.2041 64.9207 11.2041 51.2549V44.7433ZM48.9041 26.5108H35.9041C27.8507 26.5108 21.019 31.7509 18.6211 39.0132L18.6793 38.8829C18.1934 40.5056 19.4063 42.1387 21.0974 42.1387H25.6145C26.486 42.1387 27.2271 41.5017 27.3597 40.6389L27.9205 36.9865C28.2132 35.0805 29.8503 33.6736 31.7752 33.6736H53.0334C54.9583 33.6736 56.5954 35.0805 56.8881 36.9865L57.449 40.6389C57.5815 41.5017 58.3226 42.1387 59.1941 42.1387H63.7112C65.4023 42.1387 66.6152 40.5056 66.1293 38.8829L66.186 39.0098C63.787 31.7492 56.9562 26.5108 48.9041 26.5108ZM35.9041 69.5991C29.0435 69.5991 23.0695 65.6847 19.9679 60.0685C19.9182 59.2149 20.5898 58.4177 21.5256 58.4177C21.5776 58.4177 21.6289 58.4281 21.6768 58.4483L31.5348 62.1785C33.1317 62.8521 34.8469 63.1991 36.5795 63.1991H48.2291C49.9617 63.1991 51.6769 62.8521 53.2738 62.1785L63.1459 58.4423C63.1845 58.4261 63.2258 58.4177 63.2676 58.4177C64.2091 58.4177 64.8847 59.2196 64.8348 60.0783C61.7317 65.6892 55.7606 69.5991 48.9041 69.5991H35.9041Z" fill="#243946"/>
</svg>
