<svg width="96" height="96" viewBox="0 0 96 96" fill="none" xmlns="http://www.w3.org/2000/svg">
<path d="M65.5996 16.7998C82.3891 16.7998 96 30.7687 96 48C96 65.2313 82.3891 79.2002 65.5996 79.2002C59.0406 79.2001 52.9667 77.0679 48 73.4424C43.0333 77.0679 36.9594 79.2001 30.4004 79.2002C13.6109 79.2002 0 65.2313 0 48C3.45258e-07 30.7687 13.6109 16.7998 30.4004 16.7998L31.0137 16.8066C37.3377 16.9351 43.1885 19.0446 48 22.5566C52.9666 18.9313 59.0408 16.7999 65.5996 16.7998ZM30.4004 24.7998C18.2238 24.7998 8 34.9898 8 48C8 61.0102 18.2238 71.2002 30.4004 71.2002C34.6537 71.2001 38.6676 69.9548 42.0918 67.7822C37.7855 62.3983 35.2002 55.5092 35.2002 48C35.2002 40.4905 37.7852 33.6008 42.0918 28.2168C38.6677 26.0444 34.6535 24.7999 30.4004 24.7998ZM65.5996 24.7998C61.3462 24.7999 57.3315 26.0441 53.9072 28.2168C58.214 33.6009 60.7998 40.4904 60.7998 48C60.7998 55.5094 58.2137 62.3982 53.9072 67.7822C57.3316 69.9551 61.346 71.2001 65.5996 71.2002C77.7762 71.2002 88 61.0102 88 48C88 34.9898 77.7762 24.7998 65.5996 24.7998ZM48 33.6426C45.0046 37.5663 43.2002 42.5344 43.2002 48C43.2002 53.4654 45.0048 58.4328 48 62.3564C50.9952 58.4328 52.7998 53.4654 52.7998 48C52.7998 42.5344 50.9954 37.5663 48 33.6426Z" fill="#243946"/>
</svg>
