<svg width="96" height="96" viewBox="0 0 96 96" fill="none" xmlns="http://www.w3.org/2000/svg">
<path d="M44.8002 7.2H51.2002V20H44.8002V7.2Z" fill="#243946"/>
<path d="M44.8002 88.8V76H51.2002V88.8H44.8002Z" fill="#243946"/>
<path d="M20.0002 51.2V44.8H7.2002V51.2H20.0002Z" fill="#243946"/>
<path d="M79.1768 74.6516L74.6513 79.177L65.6003 70.1261L70.1258 65.6006L79.1768 74.6516Z" fill="#243946"/>
<path d="M74.6513 16.7995L79.1768 21.325L70.1258 30.376L65.6003 25.8505L74.6513 16.7995Z" fill="#243946"/>
<path d="M16.8002 74.6516L21.3257 79.177L30.3766 70.1261L25.8512 65.6006L16.8002 74.6516Z" fill="#243946"/>
<path d="M21.3257 16.7995L16.8002 21.325L25.8512 30.376L30.3766 25.8505L21.3257 16.7995Z" fill="#243946"/>
<path d="M88.8002 44.8V51.2H76.0002V44.8H88.8002Z" fill="#243946"/>
<path d="M48.0002 69.6C59.9295 69.6 69.6002 59.9293 69.6002 48C69.6002 36.0706 59.9295 26.4 48.0002 26.4C36.0708 26.4 26.4002 36.0706 26.4002 48C26.4002 59.9293 36.0708 69.6 48.0002 69.6Z" fill="#243946"/>
</svg>
