<svg width="96" height="96" viewBox="0 0 96 96" fill="none" xmlns="http://www.w3.org/2000/svg">
<path fill-rule="evenodd" clip-rule="evenodd" d="M83.1204 47.2C83.1204 65.7567 68.0772 80.8 49.5204 80.8C44.3072 80.8 39.3712 79.6127 34.9682 77.4938L13.6001 83.192L19.318 61.9406C17.1419 57.4902 15.9204 52.4877 15.9204 47.2C15.9204 28.6432 30.9636 13.6 49.5204 13.6C68.0772 13.6 83.1204 28.6432 83.1204 47.2ZM46.7591 47.4073C46.2774 48.5476 46.0365 49.947 46.0365 51.6056V53.6789H53.0043V51.6056C53.0043 50.5344 53.2968 49.636 53.8817 48.9104C54.4667 48.1848 55.3957 47.3209 56.6688 46.3188C57.7011 45.4896 58.5269 44.7466 59.1462 44.0901C59.8 43.4336 60.3505 42.6216 60.7978 41.6541C61.2796 40.652 61.5204 39.4772 61.5204 38.1296C61.5204 35.2961 60.4365 33.0328 58.2688 31.3397C56.1355 29.6465 53.2624 28.8 49.6494 28.8C46.0021 28.8 43.0946 29.7329 40.9269 31.5989C38.7935 33.4648 37.658 36.0736 37.5204 39.4253H45.0043C45.1419 38.1814 45.6408 37.1793 46.5011 36.4191C47.3957 35.6589 48.4451 35.2788 49.6494 35.2788C51.129 35.2788 52.2301 35.6071 52.9527 36.2636C53.6753 36.8856 54.0365 37.6803 54.0365 38.6479C54.0365 39.4772 53.7957 40.1682 53.314 40.7211C52.8322 41.2394 52.0925 41.8614 51.0946 42.587C50.0624 43.3127 49.2021 44.021 48.514 44.7121C47.8258 45.3686 47.2408 46.267 46.7591 47.4073ZM45.8696 65.6H53.4597V57.9776H45.8696V65.6Z" fill="#243946"/>
</svg>
