<svg width="96" height="96" viewBox="0 0 96 96" fill="none" xmlns="http://www.w3.org/2000/svg">
<path d="M36.1063 61.6H30.2938V52.2775L20.8 34.4094H27L33.1613 46.4121H33.355L39.5163 34.4094H45.6L36.1063 52.2775V61.6Z" fill="#243946"/>
<path d="M53.6585 61.6H48V34.4094H55.3561L65.3528 53.2486H65.5415V34.4094H71.2V61.6H63.8439L53.8472 42.7608H53.6585V61.6Z" fill="#243946"/>
<path d="M85.2409 61.6C82.8892 61.6 80.8315 61.0713 79.0677 60.0139C77.3275 58.9313 75.9752 57.3703 75.011 55.331C74.0703 53.2917 73.6 50.8496 73.6 48.0047C73.6 45.1597 74.0703 42.7176 75.011 40.6783C75.9752 38.639 77.3275 37.0907 79.0677 36.0332C80.8315 34.9507 82.8892 34.4094 85.2409 34.4094C88.2041 34.4094 90.5676 35.1898 92.3313 36.7508C94.1186 38.2865 95.3415 40.4014 96 43.0953H90.5323C90.0384 41.9371 89.38 41.056 88.5569 40.4517C87.7573 39.8223 86.652 39.5076 85.2409 39.5076C83.3125 39.5076 81.7722 40.2377 80.6198 41.698C79.4675 43.1582 78.8913 45.2604 78.8913 48.0047C78.8913 50.7489 79.4675 52.8512 80.6198 54.3114C81.7722 55.7716 83.3125 56.5018 85.2409 56.5018C86.652 56.5018 87.7573 56.1996 88.5569 55.5954C89.38 54.966 90.0384 54.0722 90.5323 52.9141H96C95.3415 55.608 94.1186 57.7354 92.3313 59.2963C90.5676 60.8321 88.2041 61.6 85.2409 61.6Z" fill="#243946"/>
<path d="M0.981671 41.9974C0.981671 41.9974 0.8 34.4094 10.8 34.4C20.8 34.3906 20.8 41.9974 20.8 41.9974H15.2C15.2 40.7978 14 39.1983 10.8 39.1983C8.89322 39.1983 6.8 40.0913 6.8 41.9974C6.8 45.1963 15.2 46.3959 15.2 46.3959C15.2 46.3959 21.6 47.5955 21.6 52.7937C21.6 57.8777 17.6 61.5906 12 61.5906C0 61.5906 0 53.1935 0 53.1935H5.79293C5.79293 53.1935 5.79191 56.7923 10.8 56.7923C15.6 56.7923 15.6 54.4025 15.6 53.1935C15.6 50.4039 9.6 50.492 6.4 49.1949C0.981671 46.9986 0.981671 44.4059 0.981671 41.9974Z" fill="#243946"/>
</svg>
