<svg width="96" height="96" viewBox="0 0 96 96" fill="none" xmlns="http://www.w3.org/2000/svg">
<path d="M54.0527 25.6084C68.7068 25.6084 75.7567 29.4306 75.7568 40.7686C75.7568 43.4818 75.2767 48.4569 73.8779 53.5654H83.5859C84.4924 53.5654 85.3446 54.0012 85.873 54.7354C86.4013 55.4694 86.5421 56.4127 86.252 57.2686L82.4658 68.4307C82.0794 69.5698 81.0071 70.3367 79.8008 70.3369L58.0879 70.4004H28.9971C13.9252 70.4003 9.59978 44.9126 9.59961 37.2197C9.59961 28.2454 38.4258 25.6006 54.0527 25.6006V25.6084ZM26.9834 38.5176C26.7315 38.7695 26.9094 39.2 27.2656 39.2002H30.2998V56.8008H27.2656C26.9094 56.801 26.7315 57.2315 26.9834 57.4834L32.7002 63.2002L38.417 57.4834C38.6689 57.2315 38.4908 56.8011 38.1348 56.8008H35.0996V39.2002H38.1348C38.4908 39.1998 38.6689 38.7695 38.417 38.5176L32.7002 32.8008L26.9834 38.5176ZM43.7998 60H48.2695V50.9336H52.9883L58.1377 60H63L57.4229 50.4766C58.8767 49.9377 60.0449 49.0355 60.9268 47.7705C61.8324 46.5055 62.2851 44.9825 62.2852 43.2021C62.2852 41.6559 61.9392 40.2964 61.248 39.125C60.5807 37.9303 59.627 37.0163 58.3877 36.3838C57.1484 35.7279 55.7182 35.4005 54.0977 35.4004H43.7998V60ZM53.8115 39.3359C55.0508 39.336 56.0282 39.6879 56.7432 40.3906C57.458 41.0935 57.8154 42.0309 57.8154 43.2021C57.8153 44.3966 57.4579 45.3451 56.7432 46.0479C56.0282 46.7506 55.0508 47.1025 53.8115 47.1025H48.2695V39.3359H53.8115Z" fill="#243946"/>
</svg>
