<svg width="96" height="96" viewBox="0 0 96 96" fill="none" xmlns="http://www.w3.org/2000/svg">
<path d="M34.2419 19.3546C28.1577 22.4546 23.2944 27.5127 20.4356 33.7139C17.5769 39.9151 16.8891 46.8982 18.4831 53.5379C20.0772 60.1776 23.8603 66.0874 29.2227 70.3148C32.2231 72.68 35.62 74.4416 39.2266 75.5346C39.4796 73.1217 41.5203 71.2412 44.0001 71.2412H53.6001V74.4412H64.0001V77.6412H53.6001V80.8412H64.0001V84.0412H53.6001V87.2412H44.0001C41.3492 87.2412 39.2001 85.0921 39.2001 82.4412V82.1629C34.154 80.9136 29.396 78.601 25.2605 75.3408C18.7691 70.2234 14.1896 63.0695 12.26 55.0319C10.3303 46.9944 11.1629 38.5412 14.6235 31.0345C18.0842 23.5278 23.9713 17.4048 31.3363 13.6521C38.7014 9.89945 47.1154 8.73565 55.2225 10.3483C63.3297 11.9609 70.6578 16.256 76.0261 22.5415C81.3945 28.827 84.4903 36.7368 84.8148 44.9964C85.1393 53.256 82.6736 61.3843 77.815 68.0716L72.6373 64.3098C76.651 58.7855 78.6878 52.0708 78.4198 45.2477C78.1517 38.4245 75.5942 31.8903 71.1595 26.6979C66.7248 21.5056 60.6711 17.9574 53.9739 16.6253C47.2767 15.2931 40.326 16.2545 34.2419 19.3546Z" fill="#243946"/>
<path d="M54.4001 23.2412V44.0412C54.4001 48.4594 50.8184 52.0412 46.4001 52.0412H33.6001V45.6412H46.4001C47.2838 45.6412 48.0001 44.9248 48.0001 44.0412V23.2412H54.4001Z" fill="#243946"/>
</svg>
