<svg width="96" height="96" viewBox="0 0 96 96" fill="none" xmlns="http://www.w3.org/2000/svg">
<path d="M71.0005 12.0002C76.5231 12.0005 81.0005 16.4776 81.0005 22.0002V72.0002C81.0004 79.1797 75.1799 85 68.0005 85.0002C60.8209 85.0002 55.0006 79.1798 55.0005 72.0002C55.0005 64.8205 60.8208 59.0002 68.0005 59.0002C69.0329 59.0003 70.0375 59.1214 71.0005 59.3489V35.0002H37.0005V73.0002H36.9624C36.4517 79.7124 30.8434 85 24.0005 85.0002C16.8209 85.0002 11.0006 79.1798 11.0005 72.0002C11.0005 64.8205 16.8208 59.0002 24.0005 59.0002C25.0329 59.0003 26.0375 59.1214 27.0005 59.3489V22.0002C27.0005 16.4774 31.4776 12.0002 37.0005 12.0002H71.0005Z" fill="#243946"/>
</svg>
