<svg width="96" height="96" viewBox="0 0 96 96" fill="none" xmlns="http://www.w3.org/2000/svg">
<path d="M37.5924 23.9602C36.7284 17.0962 42.4964 11.3282 49.3603 12.1922C54.0323 12.7762 57.8082 16.552 58.4002 21.232C59.2642 28.096 53.4962 33.864 46.6322 33C41.9604 32.4079 38.1844 28.632 37.5924 23.9602Z" fill="#243946"/>
<path fill-rule="evenodd" clip-rule="evenodd" d="M48.1518 0C61.7801 7.81292e-05 73.1031 11.1347 73.1033 24.6109V71.3891C73.1031 85.0293 61.7741 95.9999 48.1518 96C34.5294 96 23.2004 85.0293 23.2002 71.3891V24.6109C23.2004 11.1347 34.5234 0 48.1518 0ZM48.1518 6.4C37.9725 6.4 29.6004 14.7542 29.6002 24.6109V71.3891C29.6004 81.3824 37.9506 89.6 48.1518 89.6C58.3528 89.5999 66.7031 81.3823 66.7033 71.3891V24.6109C66.7031 14.7542 58.3309 6.40008 48.1518 6.4Z" fill="#243946"/>
</svg>
