<svg width="96" height="96" viewBox="0 0 96 96" fill="none" xmlns="http://www.w3.org/2000/svg">
<path fill-rule="evenodd" clip-rule="evenodd" d="M48.0002 80.8C66.1151 80.8 80.8002 66.1149 80.8002 48C80.8002 29.885 66.1151 15.2 48.0002 15.2C29.8853 15.2 15.2002 29.885 15.2002 48C15.2002 66.1149 29.8853 80.8 48.0002 80.8ZM48.0002 88.8C70.5334 88.8 88.8002 70.5332 88.8002 48C88.8002 25.4667 70.5334 7.19995 48.0002 7.19995C25.467 7.19995 7.2002 25.4667 7.2002 48C7.2002 70.5332 25.467 88.8 48.0002 88.8Z" fill="#FE3333"/>
<path d="M26.4794 43.5088C25.941 43.8533 25.3241 44.0944 24.6287 44.2322C23.9333 44.37 23.092 44.4388 22.1049 44.4388H21.6002V39.7888H22.7779C24.0566 39.7888 25.0886 39.5477 25.8737 39.0655C26.6589 38.5603 27.1412 37.8255 27.3207 36.8611L27.4216 36.3444H31.5269V60.4555H26.4794V43.5088Z" fill="#243946"/>
<path d="M35.0483 60.4555V55.8055L45.3115 46.54C45.8499 46.0577 46.2649 45.587 46.5565 45.1277C46.8482 44.6455 46.994 44.1288 46.994 43.5777C46.994 41.6259 45.8723 40.65 43.629 40.65C42.6868 40.65 41.9016 40.9025 41.2735 41.4077C40.6454 41.9129 40.2528 42.6362 40.0958 43.5777H35.0483C35.3399 41.1666 36.226 39.3066 37.7066 37.9977C39.2097 36.6659 41.1838 36 43.629 36C46.4556 36 48.5867 36.6659 50.0225 37.9977C51.4806 39.3066 52.2097 41.0518 52.2097 43.2333C52.2097 45.4377 51.1441 47.4929 49.013 49.3988L41.9129 55.8055H52.5462V60.4555H35.0483Z" fill="#243946"/>
<path d="M64.3052 60.8C61.187 60.8 58.7194 59.7437 56.9023 57.6311C55.1076 55.5185 54.2103 52.4414 54.2103 48.4C54.2103 44.3585 55.1076 41.2814 56.9023 39.1688C58.7194 37.0563 61.187 36 64.3052 36C67.4235 36 69.8799 37.0563 71.6746 39.1688C73.4917 41.2814 74.4002 44.3585 74.4002 48.4C74.4002 52.4414 73.4917 55.5185 71.6746 57.6311C69.8799 59.7437 67.4235 60.8 64.3052 60.8ZM64.3052 56.15C65.225 56.15 66.0663 55.8744 66.829 55.3233C67.5917 54.7492 68.1974 53.8766 68.6461 52.7055C69.1172 51.5344 69.3527 50.0992 69.3527 48.4C69.3527 46.7007 69.1172 45.2655 68.6461 44.0944C68.1974 42.9233 67.5917 42.0622 66.829 41.5111C66.0663 40.937 65.225 40.65 64.3052 40.65C63.3855 40.65 62.5442 40.937 61.7815 41.5111C61.0188 42.0622 60.4019 42.9233 59.9308 44.0944C59.4821 45.2655 59.2578 46.7007 59.2578 48.4C59.2578 50.0992 59.4821 51.5344 59.9308 52.7055C60.4019 53.8766 61.0188 54.7492 61.7815 55.3233C62.5442 55.8744 63.3855 56.15 64.3052 56.15Z" fill="#243946"/>
</svg>
