<svg width="96" height="96" viewBox="0 0 96 96" fill="none" xmlns="http://www.w3.org/2000/svg">
<path d="M37.5963 75.6961C36.7323 68.8321 42.5003 63.0642 49.3643 63.9281C54.0362 64.5121 57.8121 68.288 58.4041 72.968C59.2681 79.832 53.5001 85.5999 46.6361 84.7359C41.9643 84.1438 38.1883 80.368 37.5963 75.6961Z" fill="#243946"/>
<path fill-rule="evenodd" clip-rule="evenodd" d="M48.1557 0C61.784 7.81293e-05 73.107 11.1347 73.1072 24.6109V71.3891C73.107 85.0293 61.778 95.9999 48.1557 96C34.5333 96 23.2043 85.0293 23.2041 71.3891V24.6109C23.2043 11.1347 34.5273 0 48.1557 0ZM48.1557 6.4C37.9764 6.4 29.6043 14.7542 29.6041 24.6109V71.3891C29.6043 81.3824 37.9545 89.6 48.1557 89.6C58.3567 89.5999 66.707 81.3823 66.7072 71.3891V24.6109C66.707 14.7542 58.3349 6.40008 48.1557 6.4Z" fill="#243946"/>
</svg>
