<svg width="96" height="96" viewBox="0 0 96 96" fill="none" xmlns="http://www.w3.org/2000/svg">
<path d="M37.5924 50.2242C36.7284 43.3602 42.4964 37.5923 49.3603 38.4562C54.0324 39.0402 57.8082 42.8161 58.4002 47.4961C59.2641 54.3601 53.4962 60.1281 46.6322 59.2641C41.9604 58.672 38.1845 54.896 37.5924 50.2242Z" fill="#243946"/>
<path fill-rule="evenodd" clip-rule="evenodd" d="M48.1518 0C61.7801 7.81293e-05 73.1031 11.1347 73.1033 24.6109V71.3891C73.1031 85.0293 61.7741 95.9999 48.1518 96C34.5294 96 23.2004 85.0293 23.2002 71.3891V24.6109C23.2004 11.1347 34.5233 0 48.1518 0ZM48.1518 6.4C37.9725 6.4 29.6004 14.7542 29.6002 24.6109V71.3891C29.6004 81.3824 37.9506 89.6 48.1518 89.6C58.3528 89.5999 66.7031 81.3823 66.7033 71.3891V24.6109C66.7031 14.7542 58.331 6.40008 48.1518 6.4Z" fill="#243946"/>
</svg>
