<svg width="96" height="96" viewBox="0 0 96 96" fill="none" xmlns="http://www.w3.org/2000/svg">
<path d="M44.8084 43.6159C43.7844 43.6159 42.9439 43.3727 42.2868 42.8863C41.6298 42.3999 41.2543 41.7044 41.1604 40.7999H43.0804C43.1487 41.1583 43.3322 41.4399 43.6308 41.6447C43.938 41.8495 44.3306 41.9519 44.8084 41.9519C45.9178 41.9519 46.4724 41.5892 46.4724 40.8639C46.4724 40.6335 46.3914 40.45 46.2292 40.3135C46.0756 40.1684 45.8794 40.0618 45.6404 39.9935C45.4015 39.9252 45.0602 39.8442 44.6164 39.7503C43.9679 39.6223 43.4346 39.4815 43.0164 39.3279C42.5983 39.1743 42.2356 38.914 41.9284 38.5471C41.6298 38.1802 41.4804 37.6724 41.4804 37.0239C41.4804 36.4692 41.6255 35.9956 41.9156 35.6031C42.2058 35.202 42.6026 34.9034 43.106 34.7071C43.6095 34.5023 44.177 34.3999 44.8084 34.3999C45.8495 34.3999 46.6602 34.6431 47.2404 35.1295C47.8207 35.6074 48.162 36.2388 48.2644 37.0239H46.3444C46.2762 36.7252 46.114 36.4906 45.858 36.3199C45.6106 36.1492 45.282 36.0639 44.8724 36.0639C44.4202 36.0639 44.0703 36.1578 43.8228 36.3455C43.5839 36.5247 43.4644 36.7508 43.4644 37.0239C43.4644 37.2714 43.5455 37.4719 43.7076 37.6255C43.8783 37.7706 44.0874 37.8858 44.3348 37.9711C44.5908 38.0479 44.9492 38.1375 45.41 38.2399C46.0415 38.3764 46.562 38.5258 46.9716 38.6879C47.3812 38.8415 47.7311 39.0932 48.0212 39.4431C48.3114 39.7844 48.4564 40.258 48.4564 40.8639C48.4564 41.3844 48.3156 41.8538 48.034 42.2719C47.7524 42.69 47.3343 43.0186 46.7796 43.2575C46.2335 43.4964 45.5764 43.6159 44.8084 43.6159Z" fill="#243946"/>
<path d="M9.54542 43.4879H11.4654V36.2559H14.1534V34.5279H6.85742V36.2559H9.54542V43.4879Z" fill="#243946"/>
<path fill-rule="evenodd" clip-rule="evenodd" d="M20.3436 43.4879H22.4044L20.4844 40.1087C20.9452 39.8954 21.325 39.5626 21.6236 39.1103C21.9308 38.6495 22.0844 38.1034 22.0844 37.4719C22.0844 36.8831 21.9564 36.3668 21.7004 35.9231C21.453 35.4794 21.1031 35.138 20.6508 34.8991C20.1986 34.6516 19.6738 34.5279 19.0764 34.5279H15.2364V43.4879H17.1564V40.3519H18.6156L20.3436 43.4879ZM17.1564 38.6879V36.2559H18.9484C19.3068 36.2559 19.597 36.3668 19.8188 36.5887C20.0492 36.802 20.1644 37.0964 20.1644 37.4719C20.1644 37.8474 20.0492 38.146 19.8188 38.3679C19.597 38.5812 19.3068 38.6879 18.9484 38.6879H17.1564Z" fill="#243946"/>
<path fill-rule="evenodd" clip-rule="evenodd" d="M31.2444 43.4879H29.2604L28.6844 41.8239H24.998L24.422 43.4879H22.4764L25.6764 34.5279H28.0444L31.2444 43.4879ZM26.8028 36.6399L25.574 40.1599H28.0956L26.8668 36.6399H26.8028Z" fill="#243946"/>
<path d="M32.0739 43.4879H33.9939V37.2799H34.0579L37.4499 43.4879H39.9459V34.5279H38.0259V40.7359H37.9619L34.5699 34.5279H32.0739V43.4879Z" fill="#243946"/>
<path fill-rule="evenodd" clip-rule="evenodd" d="M49.7364 34.5279V43.4879H51.6564V40.6719H53.4484C54.0628 40.6719 54.6047 40.5439 55.074 40.2879C55.5519 40.0234 55.9231 39.6564 56.1876 39.1871C56.4522 38.7178 56.5844 38.1887 56.5844 37.5999C56.5844 37.0111 56.4522 36.482 56.1876 36.0127C55.9231 35.5434 55.5519 35.1807 55.074 34.9247C54.6047 34.6602 54.0628 34.5279 53.4484 34.5279H49.7364ZM54.2932 38.5855C54.0458 38.8244 53.7002 38.9439 53.2564 38.9439H51.6564V36.2559H53.2564C53.7002 36.2559 54.0458 36.3754 54.2932 36.6143C54.5407 36.8532 54.6644 37.1818 54.6644 37.5999C54.6644 38.018 54.5407 38.3466 54.2932 38.5855Z" fill="#243946"/>
<path fill-rule="evenodd" clip-rule="evenodd" d="M61.6389 43.6159C60.7856 43.6159 60.0389 43.4367 59.3989 43.0783C58.7675 42.7114 58.2768 42.1823 57.9269 41.4911C57.5856 40.7999 57.4149 39.9722 57.4149 39.0079C57.4149 38.0436 57.5856 37.2159 57.9269 36.5247C58.2768 35.8335 58.7675 35.3087 59.3989 34.9503C60.0389 34.5834 60.7856 34.3999 61.6389 34.3999C62.4923 34.3999 63.2347 34.5834 63.8661 34.9503C64.5061 35.3087 64.9968 35.8335 65.3381 36.5247C65.688 37.2159 65.8629 38.0436 65.8629 39.0079C65.8629 39.9722 65.688 40.7999 65.3381 41.4911C64.9968 42.1823 64.5061 42.7114 63.8661 43.0783C63.2347 43.4367 62.4923 43.6159 61.6389 43.6159ZM61.6389 41.8879C62.3387 41.8879 62.8976 41.6404 63.3157 41.1455C63.7339 40.6506 63.9429 39.938 63.9429 39.0079C63.9429 38.0778 63.7339 37.3652 63.3157 36.8703C62.8976 36.3754 62.3387 36.1279 61.6389 36.1279C60.9392 36.1279 60.3803 36.3754 59.9621 36.8703C59.544 37.3652 59.3349 38.0778 59.3349 39.0079C59.3349 39.938 59.544 40.6506 59.9621 41.1455C60.3803 41.6404 60.9392 41.8879 61.6389 41.8879Z" fill="#243946"/>
<path fill-rule="evenodd" clip-rule="evenodd" d="M72.3811 43.4879H74.4419L72.5219 40.1087C72.9827 39.8954 73.3624 39.5626 73.6611 39.1103C73.9683 38.6495 74.1219 38.1034 74.1219 37.4719C74.1219 36.8831 73.9939 36.3668 73.7379 35.9231C73.4905 35.4794 73.1406 35.138 72.6883 34.8991C72.2361 34.6516 71.7113 34.5279 71.1139 34.5279H67.2739V43.4879H69.1939V40.3519H70.6531L72.3811 43.4879ZM69.1939 38.6879V36.2559H70.9859C71.3443 36.2559 71.6345 36.3668 71.8563 36.5887C72.0867 36.802 72.2019 37.0964 72.2019 37.4719C72.2019 37.8474 72.0867 38.146 71.8563 38.3679C71.6345 38.5812 71.3443 38.6879 70.9859 38.6879H69.1939Z" fill="#243946"/>
<path d="M79.1779 43.4879H77.2579V36.2559H74.5699V34.5279H81.8659V36.2559H79.1779V43.4879Z" fill="#243946"/>
<path d="M84.8689 41.7599V39.7759H88.7729V38.1759H84.8689V36.2559H89.0289V34.5279H82.9489V43.4879H89.1569V41.7599H84.8689Z" fill="#243946"/>
<path fill-rule="evenodd" clip-rule="evenodd" d="M42.5699 60.2943C43.2099 60.6527 43.9566 60.8319 44.8099 60.8319C45.6633 60.8319 46.4057 60.6527 47.0371 60.2943C47.6771 59.9274 48.1678 59.3983 48.5091 58.7071C48.859 58.0159 49.0339 57.1882 49.0339 56.2239C49.0339 55.2596 48.859 54.4319 48.5091 53.7407C48.1678 53.0495 47.6771 52.5247 47.0371 52.1663C46.4057 51.7994 45.6633 51.6159 44.8099 51.6159C43.9566 51.6159 43.2099 51.7994 42.5699 52.1663C41.9385 52.5247 41.4478 53.0495 41.0979 53.7407C40.7566 54.4319 40.5859 55.2596 40.5859 56.2239C40.5859 57.1882 40.7566 58.0159 41.0979 58.7071C41.4478 59.3983 41.9385 59.9274 42.5699 60.2943ZM46.4867 58.3615C46.0686 58.8564 45.5097 59.1039 44.8099 59.1039C44.1102 59.1039 43.5513 58.8564 43.1331 58.3615C42.715 57.8666 42.5059 57.154 42.5059 56.2239C42.5059 55.2938 42.715 54.5813 43.1331 54.0863C43.5513 53.5914 44.1102 53.3439 44.8099 53.3439C45.5097 53.3439 46.0686 53.5914 46.4867 54.0863C46.9049 54.5813 47.1139 55.2938 47.1139 56.2239C47.1139 57.154 46.9049 57.8666 46.4867 58.3615Z" fill="#243946"/>
<path d="M29.2574 60.7039H31.1774V54.3679H31.2414L33.4174 60.7039H35.0174L37.1934 54.3679H37.2574V60.7039H39.1774V51.7439H36.3998L34.275 57.9903H34.1982L32.0734 51.7439H29.2574V60.7039Z" fill="#243946"/>
<path fill-rule="evenodd" clip-rule="evenodd" d="M50.4449 51.7439H53.9009C54.7287 51.7439 55.4497 51.9231 56.0641 52.2815C56.6871 52.6314 57.1649 53.1434 57.4977 53.8175C57.8305 54.4917 57.9969 55.2938 57.9969 56.2239C57.9969 57.154 57.8305 57.9562 57.4977 58.6303C57.1649 59.3045 56.6871 59.8207 56.0641 60.1791C55.4497 60.529 54.7287 60.7039 53.9009 60.7039H50.4449V51.7439ZM53.8369 58.9759C54.2551 58.9759 54.6305 58.8735 54.9633 58.6687C55.3047 58.4639 55.5735 58.1567 55.7697 57.7471C55.9745 57.329 56.0769 56.8213 56.0769 56.2239C56.0769 55.6266 55.9745 55.1231 55.7697 54.7135C55.5735 54.2954 55.3047 53.9839 54.9633 53.7791C54.6305 53.5743 54.2551 53.4719 53.8369 53.4719H52.3649V58.9759H53.8369Z" fill="#243946"/>
<path d="M61.3274 58.9759V56.9919H65.2314V55.3919H61.3274V53.4719H65.4874V51.7439H59.4074V60.7039H65.6154V58.9759H61.3274Z" fill="#243946"/>
</svg>
