<svg width="96" height="96" viewBox="0 0 96 96" fill="none" xmlns="http://www.w3.org/2000/svg">
<path fill-rule="evenodd" clip-rule="evenodd" d="M56.0021 33.2654L50.5263 25.0012L50.7326 25.2075L54.5799 22.6272C55.8212 21.7947 57.2397 21.2636 58.7224 21.076L68.9425 19.7832C69.8607 19.6671 70.7927 19.729 71.6874 19.9657L72.5674 20.1986C73.0943 20.3379 73.6037 20.5367 74.0857 20.791L83.1999 25.5995L86.3999 20.7995L77.5173 15.5006L74.348 13.6709C73.7092 13.3021 72.9627 13.1653 72.2346 13.2836L67.1173 14.1153L57.5999 15.3858C56.8701 14.1605 55.8603 13.1256 54.6533 12.366L53.7267 11.7828C53.2682 11.4943 52.6615 11.7352 52.526 12.2597L51.9673 14.4222C51.8051 15.0498 51.4562 15.6133 50.9667 16.0382L46.5581 19.8653L43.3342 19.0916L42.7188 17.4073H38.2353L36.0375 18.5962H11.8164V70.2073H32.5398C34.1863 75.8656 39.4102 80.0006 45.5999 80.0006C52.0177 80.0006 57.3972 75.5553 58.8273 69.5758C61.946 68.0417 66.6018 64.1805 66.191 58.8224C65.6987 52.402 64.1694 45.3146 63.4663 42.5734C63.7887 41.8468 64.24 39.9577 63.4663 38.2139C62.6927 36.4701 61.2099 34.8452 60.5652 34.2507L56.0021 33.2654ZM45.5999 73.6C49.5764 73.6 52.7999 70.3765 52.7999 66.4C52.7999 62.4236 49.5764 59.2 45.5999 59.2C41.6235 59.2 38.3999 62.4236 38.3999 66.4C38.3999 70.3765 41.6235 73.6 45.5999 73.6Z" fill="#243946"/>
</svg>
