<svg width="96" height="96" viewBox="0 0 96 96" fill="none" xmlns="http://www.w3.org/2000/svg">
<path d="M47.8735 74.5691C51.212 62.5519 59.4715 32.3055 59.2379 28.0232C58.9455 22.6601 55.8738 15.7344 52.5403 15.7344C49.3223 15.7344 45.6836 19.0562 46.0858 22.3338C46.1806 22.6237 46.3109 22.9699 46.4583 23.3616C47.0988 25.063 48.0623 27.6228 47.8436 30.1596C47.4494 34.7334 43.765 40.2137 43.765 40.2137C43.765 40.2137 40.1627 45.8044 38.7325 49.7737C37.0494 54.4446 36.3181 61.4001 36.4264 62.2763C30.0819 60.0636 23.1892 58.2383 20.3045 58.2383C14.7316 58.2383 10.6253 60.0153 9.74535 63.2732C8.86542 66.5312 12.0918 77.1935 16.4914 78.6743C19.303 79.6207 32.6662 79.5402 41.1452 79.4891L41.3927 79.4876C44.4135 79.4695 47.0649 77.4797 47.8735 74.5691Z" fill="#243946"/>
<path d="M52.4844 79.3229C51.5583 79.3057 50.9909 78.2807 51.4244 77.4622C51.859 76.6414 52.3647 75.621 52.8001 74.5691C53.777 72.2089 54.3301 69.7166 54.9746 66.8125C55.2075 65.7633 55.4522 64.6603 55.7332 63.4904C56.0476 62.1817 57.4114 61.3852 58.7489 61.5358C59.0049 61.5647 59.2639 61.5917 59.5238 61.6189C60.8369 61.7562 62.1732 61.8959 63.2641 62.2763C63.1558 61.4001 63.8871 54.4447 65.5702 49.7737C67.0004 45.8044 70.6027 40.2137 70.6027 40.2137C70.6027 40.2137 74.287 34.7334 74.6813 30.1596C74.8999 27.6228 73.9364 25.0631 73.296 23.3616C73.1486 22.9701 73.0182 22.6236 72.9234 22.3338C72.5213 19.0562 76.1599 15.7344 79.378 15.7344C82.7115 15.7344 85.7832 22.6601 86.0756 28.0232C86.3091 32.3055 78.0497 62.552 74.7112 74.5691C73.9026 77.4797 71.2512 79.4695 68.2304 79.4876L67.9827 79.4891C63.625 79.5154 56.1144 79.3902 52.4844 79.3229Z" fill="#243946"/>
</svg>
