<svg width="96" height="96" viewBox="0 0 96 96" fill="none" xmlns="http://www.w3.org/2000/svg">
<path d="M66.4409 58.0825C67.4146 55.984 70.4243 55.984 71.3979 58.0825L74.4458 64.6509C74.7178 65.237 75.1922 65.7074 75.7837 65.9771L82.4116 68.9985C84.529 69.9635 84.529 72.9447 82.4116 73.9097L75.7837 76.9312C75.1923 77.2008 74.7179 77.6712 74.4458 78.2573L71.3979 84.8257C70.4243 86.9242 67.4146 86.9242 66.4409 84.8257L63.3931 78.2573C63.121 77.6712 62.6466 77.2008 62.0552 76.9312L55.4263 73.9097C53.3096 72.9445 53.3096 69.9637 55.4263 68.9985L62.0552 65.9771C62.6466 65.7074 63.121 65.237 63.3931 64.6509L66.4409 58.0825ZM35.5981 11.1812C36.5687 9.07306 39.5904 9.07306 40.561 11.1812L46.5308 24.1479C46.8034 24.74 47.2829 25.2147 47.8804 25.4849L60.9634 31.4019C63.0904 32.3638 63.0904 35.3579 60.9634 36.3198L47.8804 42.2368C47.283 42.507 46.8034 42.9817 46.5308 43.5737L40.561 56.5405C39.5904 58.6486 36.5687 58.6486 35.5981 56.5405L29.6284 43.5737C29.3558 42.9817 28.8762 42.507 28.2788 42.2368L15.1948 36.3198C13.0685 35.3577 13.0684 32.3639 15.1948 31.4019L28.2788 25.4849C28.8763 25.2147 29.3558 24.7401 29.6284 24.1479L35.5981 11.1812Z" fill="#243946"/>
</svg>
