<svg width="96" height="96" viewBox="0 0 96 96" fill="none" xmlns="http://www.w3.org/2000/svg">
<path d="M57.333 51.2002C62.2835 51.2002 67.0316 53.2228 70.5322 56.8232C74.0329 60.4239 76 65.3082 76 70.4004V80H20V70.4004C20 65.3082 21.9671 60.4239 25.4678 56.8232C28.9684 53.2228 33.7165 51.2002 38.667 51.2002H57.333ZM48 9.59961C52.6678 9.59961 57.1447 11.4542 60.4453 14.7549C63.7459 18.0555 65.5996 22.5324 65.5996 27.2002C65.5996 31.8679 63.7459 36.3449 60.4453 39.6455C57.1447 42.9461 52.6678 44.7998 48 44.7998C43.3322 44.7998 38.8553 42.9461 35.5547 39.6455C32.2541 36.3449 30.4004 31.8679 30.4004 27.2002C30.4004 22.5324 32.2541 18.0555 35.5547 14.7549C38.8553 11.4542 43.3322 9.59961 48 9.59961Z" fill="#243946"/>
</svg>
