<svg width="96" height="96" viewBox="0 0 96 96" fill="none" xmlns="http://www.w3.org/2000/svg">
<path d="M44.7994 33.5995H51.1994V54.3994H44.7994V33.5995Z" fill="#243946"/>
<path d="M51.1994 59.1994H44.7994V65.5994H51.1994V59.1994Z" fill="#243946"/>
<path fill-rule="evenodd" clip-rule="evenodd" d="M11.4373 66.2297C8.17955 71.5605 12.0161 78.4013 18.2635 78.4013H77.7346C83.9821 78.4013 87.8186 71.5605 84.5609 66.2297L54.8253 17.5717C51.7059 12.4672 44.2923 12.4672 41.1728 17.5717L11.4373 66.2297ZM49.3643 20.9089C48.7404 19.888 47.2577 19.888 46.6338 20.9089L16.8983 69.567C16.2467 70.6331 17.014 72.0013 18.2635 72.0013H77.7346C78.9841 72.0013 79.7514 70.6331 79.0999 69.567L49.3643 20.9089Z" fill="#243946"/>
</svg>
