<svg width="96" height="96" viewBox="0 0 96 96" fill="none" xmlns="http://www.w3.org/2000/svg">
<path fill-rule="evenodd" clip-rule="evenodd" d="M52.7278 9.78601C55.2948 9.36543 57.9283 9.66837 60.3328 10.6609C62.7373 11.6533 64.8178 13.2961 66.3408 15.4049C67.8639 17.5138 68.7692 20.0052 68.9554 22.5998C69.1416 25.1944 68.6012 27.7896 67.3948 30.0943C66.1885 32.399 64.3639 34.3219 62.1257 35.6476C59.8994 36.9661 57.3515 37.6418 54.765 37.6L16.8 37.6L16.8 29.6L54.8 29.6C54.8255 29.6 54.851 29.6002 54.8765 29.6007C55.9912 29.622 57.0897 29.3324 58.0489 28.7643C59.0081 28.1962 59.7901 27.372 60.3071 26.3843C60.8241 25.3966 61.0557 24.2844 60.9759 23.1724C60.8961 22.0604 60.5081 20.9926 59.8554 20.0889C59.2027 19.1851 58.311 18.481 57.2805 18.0557C56.25 17.6303 55.1214 17.5005 54.0212 17.6808C52.921 17.861 51.8928 18.3442 51.052 19.0762C50.2111 19.8081 49.5907 20.7599 49.2605 21.8247L48.0758 25.6452L40.4347 23.2758L41.6195 19.4553C42.3899 16.9707 43.8374 14.7499 45.7995 13.042C47.7616 11.3341 50.1607 10.2066 52.7278 9.78601ZM77.2489 52.8356C76.2897 52.2675 75.1912 51.9779 74.0765 51.9992C74.051 51.9997 74.0255 51.9999 74 51.9999L8 51.9999L8 43.9999L73.965 43.9999C76.5515 43.9581 79.0994 44.6338 81.3257 45.9523C83.5639 47.278 85.3885 49.201 86.5948 51.5056C87.8012 53.8103 88.3416 56.4055 88.1554 59.0001C87.9692 61.5947 87.0639 64.0861 85.5408 66.195C84.0178 68.3038 81.9373 69.9466 79.5328 70.939C77.1283 71.9315 74.4948 72.2345 71.9278 71.8139C69.3607 71.3933 66.9616 70.2658 64.9995 68.5579C63.0374 66.85 61.5899 64.6292 60.8195 62.1447L59.6347 58.3241L67.2758 55.9547L68.4605 59.7752C68.7907 60.84 69.4111 61.7918 70.2519 62.5237C71.0928 63.2557 72.121 63.7389 73.2212 63.9192C74.3214 64.0994 75.45 63.9696 76.4805 63.5442C77.511 63.1189 78.4027 62.4148 79.0554 61.511C79.7081 60.6073 80.0961 59.5395 80.1759 58.4275C80.2557 57.3155 80.0241 56.2033 79.5071 55.2156C78.9901 54.2279 78.2081 53.4038 77.2489 52.8356ZM42.0489 67.2356C41.0897 66.6675 39.9912 66.3779 38.8765 66.3992C38.851 66.3997 38.8255 66.3999 38.8 66.3999H12.8V58.3999L38.765 58.3999C41.3515 58.3581 43.8994 59.0338 46.1257 60.3523C48.3639 61.678 50.1885 63.601 51.3948 65.9056C52.6012 68.2103 53.1416 70.8055 52.9554 73.4001C52.7692 75.9947 51.8638 78.4861 50.3408 80.595C48.8178 82.7038 46.7373 84.3465 44.3328 85.339C41.9283 86.3315 39.2948 86.6345 36.7278 86.2139C34.1607 85.7933 31.7616 84.6658 29.7995 82.9579C27.8374 81.25 26.3899 79.0292 25.6195 76.5446L24.4347 72.7241L32.0758 70.3547L33.2605 74.1752C33.5907 75.24 34.2111 76.1918 35.052 76.9237C35.8928 77.6557 36.921 78.1389 38.0212 78.3192C39.1214 78.4994 40.25 78.3696 41.2805 77.9442C42.311 77.5189 43.2027 76.8148 43.8554 75.911C44.5081 75.0073 44.8961 73.9395 44.9759 72.8275C45.0557 71.7155 44.8241 70.6033 44.3071 69.6156C43.7901 68.6279 43.0081 67.8037 42.0489 67.2356Z" fill="#243946"/>
</svg>
