<svg width="96" height="96" viewBox="0 0 96 96" fill="none" xmlns="http://www.w3.org/2000/svg">
<path fill-rule="evenodd" clip-rule="evenodd" d="M60 19C65.5228 19 70 23.4772 70 29V67C70 72.5228 65.5228 77 60 77H16C10.4772 77 6 72.5228 6 67V29C6 23.4772 10.4772 19 16 19H60ZM90.0576 26.3018C92.7237 24.8206 95.9999 26.748 96 29.7979V66.2021C95.9998 69.252 92.7237 71.1794 90.0576 69.6982L81.0859 64.7148C79.1812 63.6567 78.0001 61.6487 78 59.4697V36.5303C78 34.3513 79.1812 32.3434 81.0859 31.2852L90.0576 26.3018Z" fill="#243946"/>
</svg>
