<svg width="96" height="96" viewBox="0 0 96 96" fill="none" xmlns="http://www.w3.org/2000/svg">
<path d="M16 37.4869C13.7909 37.4869 12 39.2778 12 41.4869V56.8341C12 59.0433 13.7909 60.8341 16 60.8341H22.9572C23.3309 60.8341 23.6928 60.9649 23.9801 61.2038L38.1359 72.9728C38.6234 73.3781 39.2374 73.6 39.8714 73.6C40.8684 73.6 41.7138 72.8803 41.8423 71.8917C42.2896 68.4493 43.2 59.9726 43.2 48C43.2 35.9326 42.2751 27.4168 41.8317 24.0275C41.7083 23.084 40.9018 22.4 39.9502 22.4C39.2709 22.4 38.6188 22.6668 38.1343 23.1428L24.0023 37.0282C23.7031 37.3222 23.3004 37.4869 22.881 37.4869H16Z" fill="#243946"/>
<path d="M77.1723 32.3711L67.1948 42.3444L57.2279 32.3818L51.5723 38.0398L61.5367 48.0001L51.5723 57.9604L57.2279 63.6184L67.1948 53.6558L77.1723 63.6291L82.8279 57.9711L72.8528 48.0001L82.8279 38.0291L77.1723 32.3711Z" fill="#243946"/>
</svg>
