<svg width="96" height="96" viewBox="0 0 96 96" fill="none" xmlns="http://www.w3.org/2000/svg">
<path fill-rule="evenodd" clip-rule="evenodd" d="M76.0505 15.5C83.6788 24.5911 87.8982 36.0576 87.9812 47.9248C88.064 59.7921 84.0061 71.3178 76.5056 80.5146L68.7556 74.1943C74.7855 66.8008 78.0478 57.5355 77.9812 47.9951C77.9145 38.4548 74.5228 29.2363 68.3904 21.9277L76.0505 15.5ZM39.3542 16.2988C40.4215 16.2989 41.326 17.1538 41.4646 18.333C41.962 22.5696 42.9998 33.2146 42.9998 48.2988C42.9998 63.2643 41.9781 73.8599 41.4763 78.1631C41.3322 79.3989 40.3838 80.2988 39.2654 80.2988C38.5544 80.2987 37.8658 80.0211 37.3191 79.5146L21.4392 64.8037C21.117 64.5052 20.7108 64.3419 20.2917 64.3418H12.4871C10.0091 64.3416 7.99991 62.103 7.99976 59.3418V40.1572C7.99988 37.396 10.0091 35.1574 12.4871 35.1572H20.2058C20.6763 35.1572 21.128 34.9513 21.4636 34.584L37.3171 17.2275C37.8606 16.6325 38.5923 16.2989 39.3542 16.2988ZM60.3552 28.6768C64.9173 34.1136 67.4413 40.9713 67.491 48.0684C67.5405 55.1656 65.1125 62.0585 60.6267 67.5586L52.8777 61.2383C55.8925 57.5416 57.5242 52.9088 57.491 48.1387C57.4577 43.3685 55.7613 38.7588 52.6951 35.1045L60.3552 28.6768Z" fill="#243946"/>
</svg>
