<svg width="96" height="96" viewBox="0 0 96 96" fill="none" xmlns="http://www.w3.org/2000/svg">
<path fill-rule="evenodd" clip-rule="evenodd" d="M76.7997 59.725C76.7997 76.7 63.9069 86.4 47.9997 86.4C32.0925 86.4 19.1997 76.7 19.1997 59.725C19.1997 51.1356 22.7997 42.75 28.7997 37.9C40.7997 28.2 40.1133 18.5 38.3997 8.79999C52.7997 11.225 62.3997 28.2 58.7997 40.325C58.7997 40.325 65.9997 37.9 64.7997 30.625C74.3997 40.325 76.7997 52.45 76.7997 59.725ZM34.3997 67.625C34.3997 75.5 40.488 80 47.9997 80C55.5114 80 61.5997 75.5 61.5997 67.625C61.5997 63.6402 59.8997 59.75 57.0664 57.5C51.3997 53 51.7238 48.5 52.533 44C45.733 45.125 41.1997 53 42.8997 58.625C42.8997 58.625 39.4997 57.5 40.0664 54.125C35.533 58.625 34.3997 64.25 34.3997 67.625Z" fill="#243946"/>
</svg>
