<svg width="96" height="96" viewBox="0 0 96 96" fill="none" xmlns="http://www.w3.org/2000/svg">
<path d="M35.2 11.2C35.2 10.3164 35.9163 9.60001 36.8 9.60001H78.4C79.2837 9.60001 80 10.3164 80 11.2V27.2H35.2V11.2Z" fill="#243946"/>
<path fill-rule="evenodd" clip-rule="evenodd" d="M38.4 33.6C38.4 32.7164 39.1163 32 40 32H75.2C76.0837 32 76.8 32.7164 76.8 33.6V78.4291C76.8 82.8474 73.2183 86.4291 68.8 86.4291H30C22.268 86.4291 16 80.1611 16 72.4291C16 64.6971 22.268 58.4291 30 58.4291H30.4C34.8183 58.4291 38.4 54.8474 38.4 50.4291V33.6ZM54.5782 48.8504C54.5783 48.8506 54.5784 48.8508 56.4 48.0251C58.2216 47.1995 58.2217 47.1998 58.2219 47.2L58.2228 47.202L58.2245 47.2059L58.2297 47.2174L58.2466 47.2555C58.2608 47.2874 58.2805 47.3323 58.305 47.389C58.3539 47.5024 58.4221 47.6635 58.5032 47.8631C58.6647 48.2611 58.88 48.819 59.096 49.4623C59.5089 50.6919 60 52.449 60 54.0251C60 55.6013 59.5089 57.3583 59.096 58.588C58.88 59.2313 58.6647 59.7892 58.5032 60.1872C58.4221 60.3868 58.3539 60.5479 58.305 60.6613C58.2805 60.718 58.2608 60.7629 58.2466 60.7948L58.2297 60.8329L58.2245 60.8444L58.2228 60.8483L58.2221 60.8497C58.222 60.8499 58.2216 60.8508 56.4 60.0251C54.5784 59.1995 54.5783 59.1997 54.5782 59.1999L54.5795 59.197L54.5893 59.175C54.5986 59.154 54.6133 59.1206 54.6325 59.076C54.6711 58.9867 54.7279 58.8527 54.7968 58.6828C54.9353 58.3417 55.12 57.8627 55.304 57.3147C55.6911 56.1618 56 54.9189 56 54.0251C56 53.1314 55.6911 51.8885 55.304 50.7356C55.12 50.1876 54.9353 49.7086 54.7968 49.3675C54.7279 49.1976 54.6711 49.0636 54.6325 48.9743C54.6133 48.9297 54.5986 48.8963 54.5893 48.8753L54.5795 48.8533L54.5782 48.8504ZM56.4 60.0251C58.2216 60.8508 58.222 60.8499 58.2221 60.8497L58.2205 60.8533L58.2107 60.8753C58.2014 60.8963 58.1867 60.9297 58.1675 60.9743C58.1289 61.0636 58.0721 61.1976 58.0032 61.3675C57.8647 61.7086 57.68 62.1876 57.496 62.7356C57.1089 63.8885 56.8 65.1314 56.8 66.0251C56.8 66.9189 57.1089 68.1618 57.496 69.3147C57.68 69.8627 57.8647 70.3417 58.0032 70.6828C58.0721 70.8527 58.1289 70.9867 58.1675 71.076C58.1867 71.1206 58.2014 71.154 58.2107 71.175L58.2205 71.197L58.2218 71.1999C58.2217 71.1997 58.2216 71.1995 56.4 72.0251C54.5784 72.8508 54.5783 72.8505 54.5781 72.8503L54.5755 72.8444L54.5703 72.8329L54.5534 72.7948C54.5461 72.7784 54.5373 72.7584 54.5271 72.7352C54.5176 72.7134 54.5069 72.6887 54.495 72.6613C54.4461 72.5479 54.3779 72.3868 54.2968 72.1872C54.1353 71.7892 53.92 71.2313 53.704 70.588C53.2911 69.3583 52.8 67.6013 52.8 66.0251C52.8 64.449 53.2911 62.6919 53.704 61.4623C53.92 60.819 54.1353 60.2611 54.2968 59.8631C54.3779 59.6635 54.4461 59.5024 54.495 59.389C54.5103 59.3536 54.5237 59.3228 54.5351 59.2969C54.542 59.2813 54.5481 59.2675 54.5534 59.2555L54.5703 59.2174L54.5755 59.2059L54.5772 59.202L54.5778 59.2007C54.5779 59.2005 54.5784 59.1995 56.4 60.0251ZM63.3782 48.8509C63.3783 48.8512 63.3784 48.8514 65.2 48.0257C67.0216 47.2001 67.0217 47.2003 67.0219 47.2006L67.0228 47.2026L67.0245 47.2065L67.0297 47.218L67.0466 47.256C67.0608 47.288 67.0805 47.3329 67.105 47.3896C67.1539 47.503 67.2221 47.664 67.3032 47.8637C67.4647 48.2617 67.68 48.8196 67.896 49.4629C68.3089 50.6925 68.8 52.4496 68.8 54.0257C68.8 55.6019 68.3089 57.3589 67.896 58.5886C67.68 59.2319 67.4647 59.7897 67.3032 60.1878C67.2221 60.3874 67.1539 60.5485 67.105 60.6619C67.0805 60.7186 67.0608 60.7635 67.0466 60.7954L67.0297 60.8335L67.0245 60.845L67.0228 60.8489L67.0221 60.8503C67.022 60.8505 67.0216 60.8514 65.2 60.0257C63.3784 59.2001 63.3783 59.2003 63.3782 59.2005L63.3795 59.1976L63.3893 59.1755C63.3986 59.1546 63.4133 59.1212 63.4325 59.0766C63.4711 58.9873 63.5279 58.8532 63.5968 58.6834C63.7353 58.3423 63.92 57.8633 64.104 57.3153C64.4911 56.1624 64.8 54.9195 64.8 54.0257C64.8 53.132 64.4911 51.889 64.104 50.7362C63.92 50.1882 63.7353 49.7092 63.5968 49.3681C63.5279 49.1982 63.4711 49.0642 63.4325 48.9749C63.4133 48.9303 63.3986 48.8969 63.3893 48.8759L63.3795 48.8539L63.3782 48.8509ZM65.2 60.0257C67.0216 60.8514 67.022 60.8505 67.0221 60.8503L67.0205 60.8539L67.0107 60.8759C67.0014 60.8969 66.9867 60.9303 66.9675 60.9749C66.9289 61.0642 66.8721 61.1982 66.8032 61.3681C66.6647 61.7092 66.48 62.1882 66.296 62.7362C65.9089 63.889 65.6 65.132 65.6 66.0257C65.6 66.9195 65.9089 68.1624 66.296 69.3153C66.48 69.8633 66.6647 70.3423 66.8032 70.6833C66.8721 70.8532 66.9289 70.9873 66.9675 71.0766C66.9867 71.1212 67.0014 71.1546 67.0107 71.1755L67.0205 71.1976L67.0218 71.2005C67.0217 71.2003 67.0216 71.2001 65.2 72.0257C63.3784 72.8514 63.3783 72.8511 63.3781 72.8509L63.3772 72.8489L63.3755 72.845L63.3703 72.8335L63.3534 72.7954C63.3392 72.7635 63.3195 72.7186 63.295 72.6619C63.2461 72.5485 63.1779 72.3874 63.0968 72.1878C62.9353 71.7897 62.72 71.2319 62.504 70.5886C62.0911 69.3589 61.6 67.6019 61.6 66.0257C61.6 64.4496 62.0911 62.6925 62.504 61.4629C62.72 60.8196 62.9353 60.2617 63.0968 59.8637C63.1779 59.664 63.2461 59.503 63.295 59.3896C63.3195 59.3329 63.3392 59.288 63.3534 59.256L63.3703 59.218L63.3755 59.2065L63.3772 59.2026L63.3778 59.2013C63.3779 59.2011 63.3784 59.2001 65.2 60.0257ZM47.6 48.0251C45.7784 48.8508 45.7783 48.8506 45.7782 48.8504L45.7795 48.8533L45.7893 48.8753C45.7986 48.8963 45.8133 48.9297 45.8325 48.9743C45.8711 49.0636 45.9279 49.1976 45.9968 49.3675C46.1353 49.7086 46.32 50.1876 46.504 50.7356C46.8911 51.8885 47.2 53.1314 47.2 54.0251C47.2 54.9189 46.8911 56.1618 46.504 57.3147C46.32 57.8627 46.1353 58.3417 45.9968 58.6828C45.9279 58.8527 45.8711 58.9867 45.8325 59.076C45.8133 59.1206 45.7986 59.154 45.7893 59.175L45.7795 59.197L45.7782 59.1999L45.7772 59.202L45.7755 59.2059L45.7703 59.2174L45.7534 59.2555C45.7392 59.2874 45.7195 59.3323 45.695 59.389C45.6461 59.5024 45.5779 59.6635 45.4968 59.8631C45.3353 60.2611 45.12 60.819 44.904 61.4623C44.4911 62.6919 44 64.449 44 66.0251C44 67.6013 44.4911 69.3583 44.904 70.588C45.12 71.2313 45.3353 71.7892 45.4968 72.1872C45.5779 72.3868 45.6461 72.5479 45.695 72.6613C45.7195 72.718 45.7392 72.7629 45.7534 72.7948L45.7703 72.8329L45.7755 72.8444L45.7772 72.8483L45.7779 72.8497C45.778 72.8499 45.7784 72.8508 47.6 72.0251C49.4216 71.1995 49.4217 71.1997 49.4218 71.1999L49.4205 71.197L49.4107 71.175C49.4014 71.154 49.3867 71.1206 49.3675 71.076C49.3289 70.9867 49.2721 70.8527 49.2032 70.6828C49.0647 70.3417 48.88 69.8627 48.696 69.3147C48.3089 68.1618 48 66.9189 48 66.0251C48 65.1314 48.3089 63.8885 48.696 62.7356C48.88 62.1876 49.0647 61.7086 49.2032 61.3675C49.2721 61.1976 49.3289 61.0636 49.3675 60.9743C49.3867 60.9297 49.4014 60.8963 49.4107 60.8753L49.4205 60.8533L49.4218 60.8504L49.4245 60.8444L49.4297 60.8329L49.4466 60.7948C49.4538 60.7786 49.4625 60.7589 49.4725 60.736C49.4821 60.714 49.493 60.6891 49.505 60.6613C49.5539 60.5479 49.6221 60.3868 49.7032 60.1872C49.8647 59.7892 50.08 59.2313 50.296 58.588C50.7089 57.3583 51.2 55.6013 51.2 54.0251C51.2 52.449 50.7089 50.6919 50.296 49.4623C50.08 48.819 49.8647 48.2611 49.7032 47.8631C49.6221 47.6635 49.5539 47.5024 49.505 47.389C49.4805 47.3323 49.4608 47.2874 49.4466 47.2555L49.4297 47.2174L49.4245 47.2059L49.4221 47.2006C49.422 47.2003 49.4216 47.1995 47.6 48.0251Z" fill="#243946"/>
</svg>
