<svg width="96" height="96" viewBox="0 0 96 96" fill="none" xmlns="http://www.w3.org/2000/svg">
<path fill-rule="evenodd" clip-rule="evenodd" d="M56.7999 13.6C55.1686 13.6 53.5999 15.1645 53.5999 16.8V36C53.5999 37.0905 53.0876 37.6 51.9999 37.6C50.9127 37.6 50.3999 37.0905 50.3999 36V12.8C50.3999 11.1645 48.8317 9.60001 47.1999 9.60001C45.5686 9.60001 44.0002 11.1645 44.0002 12.8V36C44.0002 37.0905 43.4876 37.6 42.3999 37.6C41.3127 37.6 40.7999 37.0905 40.7999 36V16.8C40.7999 15.1645 39.2317 13.6 37.5999 13.6C35.9686 13.6 34.3999 15.1645 34.3999 16.8V46.9384C34.3999 48.6137 32.7217 49.7788 31.2184 49.0396C29.7249 48.3053 28.2529 47.4109 27.4009 46.4409L25.2917 44.0388C23.8599 42.4027 21.3579 42.2526 19.7338 43.6799C18.1122 45.1113 17.9389 47.6112 19.3799 49.2523L33.5999 65.0239V73.6C33.5999 74.4837 34.3162 75.2 35.1999 75.2H65.6536C66.516 75.2 67.2233 74.5165 67.2527 73.6547L67.5435 65.1455C68.8348 62.8426 69.5999 60.2491 69.5999 57.5874V24.4077C69.5999 22.7722 68.0317 21.6 66.3999 21.6C64.7686 21.6 63.1999 22.7722 63.1999 24.4077V36C63.1999 37.0905 62.6876 37.6 61.5999 37.6C60.5127 37.6 59.9999 37.0905 59.9999 36V16.8C59.9999 15.1645 58.4312 13.6 56.7999 13.6ZM48.9782 44.7475C48.9782 44.7475 48.9784 44.7479 50.8 43.9222C52.6216 43.0966 52.6219 43.0971 52.6219 43.0971L52.6244 43.1028L52.6294 43.1138L52.6455 43.15C52.6589 43.1803 52.6776 43.2228 52.7007 43.2763C52.7469 43.3834 52.8112 43.5353 52.8876 43.7234C53.0398 44.0984 53.2425 44.6239 53.4461 45.2301C53.834 46.3854 54.3002 48.0489 54.3002 49.548C54.3002 51.0471 53.834 52.7106 53.4461 53.8659C53.2425 54.4721 53.0398 54.9976 52.8876 55.3726C52.8112 55.5607 52.7469 55.7126 52.7007 55.8196C52.6776 55.8732 52.6589 55.9156 52.6455 55.9459L52.6294 55.9821L52.6244 55.9932L52.6221 55.9983C52.6221 55.9983 52.6216 55.9994 50.8 55.1737C48.9784 54.3481 48.9782 54.3485 48.9782 54.3485L48.9792 54.3462L48.9882 54.3261C48.9931 54.315 48.9996 54.3002 49.0076 54.2818C49.0137 54.268 49.0206 54.2521 49.0282 54.2343C49.0641 54.1513 49.117 54.0265 49.1813 53.8682C49.3103 53.5502 49.4826 53.1035 49.6541 52.5927C50.0163 51.5141 50.3002 50.3647 50.3002 49.548C50.3002 48.7312 50.0163 47.5819 49.6541 46.5033C49.4826 45.9925 49.3103 45.5458 49.1813 45.2278C49.117 45.0695 49.0641 44.9446 49.0282 44.8616C49.0103 44.8202 48.9967 44.7893 48.9882 44.7699L48.9792 44.7498L48.9782 44.7475ZM50.8 55.1737C52.6216 55.9994 52.6221 55.9983 52.6221 55.9983L52.6208 56.0013L52.6118 56.0214C52.6033 56.0407 52.5897 56.0717 52.5718 56.1131C52.5359 56.1961 52.483 56.3209 52.4187 56.4793C52.2897 56.7973 52.1174 57.244 51.9459 57.7548C51.5837 58.8334 51.2998 59.9827 51.2998 60.7995C51.2998 61.6162 51.5837 62.7656 51.9459 63.8442C52.1174 64.355 52.2897 64.8016 52.4187 65.1196C52.483 65.278 52.5359 65.4028 52.5718 65.4858C52.5897 65.5273 52.6033 65.5582 52.6118 65.5775L52.6208 65.5977L52.6218 65.6C52.6218 65.6 52.6216 65.5996 50.8 66.4252C48.9784 67.2509 48.9781 67.2504 48.9781 67.2504L48.9773 67.2484L48.9756 67.2447L48.9706 67.2336L48.9545 67.1974C48.9483 67.1835 48.941 67.1669 48.9327 67.1479C48.9229 67.1256 48.9118 67.1 48.8993 67.0711C48.8531 66.9641 48.7888 66.8122 48.7124 66.6241C48.5602 66.2491 48.3575 65.7236 48.1539 65.1174C47.766 63.9621 47.2998 62.2986 47.2998 60.7995C47.2998 59.3004 47.766 57.6369 48.1539 56.4815C48.3575 55.8754 48.5602 55.3499 48.7124 54.9749C48.7888 54.7868 48.8531 54.6349 48.8993 54.5278C48.9224 54.4743 48.9411 54.4318 48.9545 54.4015L48.9706 54.3653L48.9756 54.3543L48.9782 54.3485C48.9782 54.3485 48.9784 54.3481 50.8 55.1737ZM57.2292 44.748C57.2292 44.748 57.2294 44.7484 59.051 43.9228C60.8726 43.0971 60.8729 43.0976 60.8729 43.0976L60.8738 43.0996L60.8754 43.1033L60.8804 43.1143L60.8965 43.1506C60.9048 43.1691 60.915 43.1923 60.927 43.2198C60.9345 43.2371 60.9428 43.2562 60.9517 43.2769C60.9979 43.3839 61.0622 43.5358 61.1386 43.7239C61.2908 44.0989 61.4935 44.6244 61.6971 45.2306C62.085 46.3859 62.5512 48.0494 62.5512 49.5485C62.5512 51.0476 62.085 52.7111 61.6971 53.8664C61.4935 54.4726 61.2908 54.9981 61.1386 55.3731C61.0622 55.5612 60.9979 55.7131 60.9517 55.8201C60.9286 55.8737 60.9099 55.9162 60.8965 55.9464L60.8804 55.9827L60.8754 55.9937L60.8731 55.9988C60.8731 55.9988 60.8726 55.9999 59.051 55.1742C57.2294 54.3486 57.2292 54.349 57.2292 54.349L57.2302 54.3467L57.2392 54.3266C57.2478 54.3072 57.2613 54.2763 57.2792 54.2349C57.3151 54.1518 57.368 54.027 57.4323 53.8687C57.5613 53.5507 57.7336 53.104 57.9051 52.5932C58.2673 51.5146 58.5512 50.3652 58.5512 49.5485C58.5512 48.7318 58.2673 47.5824 57.9051 46.5038C57.7336 45.993 57.5613 45.5463 57.4323 45.2283C57.368 45.07 57.3151 44.9452 57.2792 44.8621C57.2613 44.8207 57.2478 44.7898 57.2392 44.7704L57.2302 44.7503L57.2292 44.748ZM59.051 55.1742C60.8726 55.9999 60.8731 55.9988 60.8731 55.9988L60.8718 56.0018L60.8628 56.0219C60.8543 56.0413 60.8407 56.0722 60.8228 56.1136C60.7869 56.1966 60.734 56.3215 60.6698 56.4798C60.5407 56.7978 60.3684 57.2445 60.1969 57.7553C59.8347 58.8339 59.5508 59.9832 59.5508 60.8C59.5508 61.6167 59.8347 62.7661 60.1969 63.8447C60.3684 64.3555 60.5407 64.8022 60.6698 65.1202C60.734 65.2785 60.7869 65.4033 60.8228 65.4863C60.8407 65.5278 60.8543 65.5587 60.8628 65.5781L60.8718 65.5982L60.8728 65.6005C60.8728 65.6005 60.8726 65.6001 59.051 66.4257C57.2294 67.2514 57.2292 67.2509 57.2292 67.2509L57.2266 67.2452L57.2216 67.2341L57.2055 67.1979C57.1921 67.1677 57.1734 67.1252 57.1503 67.0716C57.1041 66.9646 57.0398 66.8127 56.9635 66.6246C56.8112 66.2496 56.6085 65.7241 56.4049 65.1179C56.017 63.9626 55.5508 62.2991 55.5508 60.8C55.5508 59.3009 56.017 57.6374 56.4049 56.4821C56.6085 55.8759 56.8112 55.3504 56.9635 54.9754C57.0398 54.7873 57.1041 54.6354 57.1503 54.5283C57.1629 54.4992 57.1741 54.4734 57.1839 54.451C57.1922 54.4322 57.1994 54.4159 57.2055 54.402L57.2216 54.3658L57.2266 54.3548L57.2283 54.3511L57.2292 54.349C57.2292 54.349 57.2294 54.3486 59.051 55.1742ZM42.5488 43.9222C40.7272 44.7479 40.727 44.7475 40.727 44.7475L40.728 44.7498L40.737 44.7699C40.7455 44.7893 40.7591 44.8202 40.777 44.8616C40.8129 44.9446 40.8658 45.0695 40.93 45.2278C41.0591 45.5458 41.2314 45.9925 41.4029 46.5033C41.7651 47.5819 42.049 48.7312 42.049 49.548C42.049 50.3647 41.7651 51.5141 41.4029 52.5927C41.2314 53.1035 41.0591 53.5502 40.93 53.8682C40.8658 54.0265 40.8129 54.1513 40.777 54.2343C40.7591 54.2758 40.7455 54.3067 40.737 54.3261L40.728 54.3462L40.727 54.3485C40.727 54.3485 40.7272 54.3481 42.5488 55.1737C44.3704 55.9994 44.3706 55.9989 44.3706 55.9989L44.3696 56.0013L44.3606 56.0214C44.352 56.0407 44.3385 56.0717 44.3206 56.1131C44.2847 56.1961 44.2318 56.3209 44.1675 56.4793C44.0385 56.7973 43.8662 57.244 43.6947 57.7548C43.3325 58.8334 43.0486 59.9827 43.0486 60.7995C43.0486 61.6162 43.3325 62.7656 43.6947 63.8442C43.8662 64.355 44.0385 64.8016 44.1675 65.1196C44.2318 65.278 44.2847 65.4028 44.3206 65.4858C44.331 65.5101 44.34 65.5307 44.3474 65.5475C44.3526 65.5595 44.357 65.5695 44.3606 65.5775L44.3696 65.5977L44.3706 65.6C44.3706 65.6 44.3704 65.5996 42.5488 66.4252C40.7272 67.2509 40.7269 67.2504 40.7269 67.2504L40.7244 67.2447L40.7194 67.2336L40.7033 67.1974C40.6899 67.1671 40.6712 67.1247 40.6481 67.0711C40.6019 66.9641 40.5376 66.8122 40.4612 66.6241C40.309 66.2491 40.1063 65.7236 39.9027 65.1174C39.5148 63.9621 39.0486 62.2986 39.0486 60.7995C39.0486 59.3004 39.5148 57.6369 39.9027 56.4815C40.1063 55.8754 40.309 55.3499 40.4612 54.9749C40.5376 54.7868 40.6019 54.6349 40.6481 54.5278C40.6712 54.4743 40.6899 54.4318 40.7033 54.4015L40.7194 54.3653L40.7244 54.3543L40.726 54.3506L40.727 54.3485C40.727 54.3485 40.7272 54.3481 42.5488 55.1737C44.3704 55.9994 44.3706 55.9989 44.3706 55.9989L44.3732 55.9932L44.3782 55.9821L44.3943 55.9459C44.4077 55.9156 44.4264 55.8732 44.4495 55.8196C44.4957 55.7126 44.56 55.5607 44.6364 55.3726C44.7886 54.9976 44.9913 54.4721 45.1949 53.8659C45.5828 52.7106 46.049 51.0471 46.049 49.548C46.049 48.0489 45.5828 46.3854 45.1949 45.2301C44.9913 44.6239 44.7886 44.0984 44.6364 43.7234C44.56 43.5353 44.4957 43.3834 44.4495 43.2763C44.4264 43.2228 44.4077 43.1803 44.3943 43.15L44.3782 43.1138L44.3732 43.1028L44.3715 43.0991L44.3709 43.0977C44.3709 43.0977 44.3704 43.0966 42.5488 43.9222Z" fill="#243946"/>
<path d="M63.9999 78.4V84.8C63.9999 85.6837 63.2836 86.4 62.3999 86.4H38.3999C37.5162 86.4 36.7999 85.6837 36.7999 84.8V78.4H63.9999Z" fill="#243946"/>
</svg>
