<svg width="96" height="96" viewBox="0 0 96 96" fill="none" xmlns="http://www.w3.org/2000/svg">
<path d="M65.6352 79.7517C69.6159 65.4231 79.4641 29.3586 79.1857 24.2526C78.837 17.8579 75.1744 9.59999 71.1997 9.59998C67.3627 9.59996 63.0241 13.5608 63.5036 17.4688C63.6167 17.8145 63.772 18.2273 63.9478 18.6943C64.7115 20.7231 65.8603 23.7752 65.5996 26.8C65.1295 32.2536 60.7365 38.788 60.7365 38.788C60.7365 38.788 56.4412 45.454 54.7359 50.1868C52.7291 55.7563 51.8571 64.0496 51.9863 65.0945C44.4214 62.4561 36.2028 60.2797 32.7632 60.2797C26.1184 60.2797 21.2222 62.3985 20.173 66.2831C19.1238 70.1677 22.9708 82.8809 28.2167 84.6466C31.5691 85.775 47.5026 85.6791 57.6126 85.6182L57.9078 85.6164C61.5097 85.5947 64.6711 83.2222 65.6352 79.7517Z" fill="#243946"/>
<path d="M31.4169 17.2816C30.9249 16.9617 30.3573 16.8 29.7897 16.8C29.2496 16.8 28.706 16.9479 28.2278 17.2403L23.6421 20.0475C22.0287 21.0348 21.0345 22.7789 21.0069 24.6675C20.9794 26.4564 21.8223 28.1489 23.2706 29.2051L28.2003 32.7965H19.8304C18.8018 32.7965 17.842 33.3194 17.2813 34.1829C16.6551 35.1496 16.6379 36.3915 17.24 37.3753L20.0472 41.961C21.0345 43.5744 22.7786 44.5686 24.6673 44.5961H24.7498C26.5077 44.5961 28.1659 43.7533 29.2049 42.3291L32.7964 37.3994V45.7692C32.7964 46.7978 33.3193 47.7576 34.1828 48.3184C34.6747 48.6383 35.2664 48.8 35.8099 48.8C36.3535 48.8 36.8936 48.6521 37.3752 48.3596L41.9575 45.5525C43.5709 44.5652 44.5652 42.8245 44.5927 40.9324C44.6202 39.1436 43.7774 37.451 42.3291 36.3949L37.3993 32.8034H45.7692C46.7978 32.8034 47.7576 32.2805 48.3184 31.417C48.9445 30.4504 48.9617 29.2085 48.3596 28.2246L45.5525 23.6389C44.5652 22.0255 42.821 21.0313 40.9323 21.0038H40.8498C39.0919 21.0038 37.4337 21.8466 36.3948 23.2708L32.8032 28.2005V19.8307C32.8032 18.8021 32.2803 17.8423 31.4169 17.2816Z" fill="#243946"/>
</svg>
