<svg width="96" height="96" viewBox="0 0 96 96" fill="none" xmlns="http://www.w3.org/2000/svg">
<path d="M43.1996 6.40454H38.3996V40.6467C36.9649 41.4766 35.9996 43.0279 35.9996 44.8045C35.9996 47.4555 38.1486 49.6045 40.7996 49.6045C43.4506 49.6045 45.5996 47.4555 45.5996 44.8045C45.5996 43.0279 44.6343 41.4766 43.1996 40.6467V33.6045H47.9996V28.8045H43.1996V24.0045H47.9996V19.2045H43.1996V14.4045H47.9996V9.60454H43.1996V6.40454Z" fill="#243946"/>
<path d="M52.7996 19.2045H65.5996V24.0045H71.9996V57.6045C71.9996 62.0228 68.4179 65.6045 63.9996 65.6045H17.5996C13.1813 65.6045 9.59961 62.0228 9.59961 57.6045V24.0045H15.1996V19.2045H27.9996V24.0045H33.5996V30.4045H15.9996V57.6045C15.9996 58.4882 16.716 59.2045 17.5996 59.2045H63.9996C64.8833 59.2045 65.5996 58.4882 65.5996 57.6045V30.4045H52.7996V19.2045Z" fill="#243946"/>
<path d="M57.5996 42.4045V38.4045H52.7996V42.4045H48.7996V47.2045H52.7996V51.2045H57.5996V47.2045H61.5996V42.4045H57.5996Z" fill="#243946"/>
<path d="M19.9996 42.4045H32.7996V47.2045H19.9996V42.4045Z" fill="#243946"/>
<path d="M75.9995 37.6049V59.2049C75.9995 64.9486 71.3433 69.6049 65.5995 69.6049H22.3995V74.4049H65.5995C73.9942 74.4049 80.7995 67.5996 80.7995 59.2049V37.6049H75.9995Z" fill="#243946"/>
<path d="M84.7997 46.4046V60.0046C84.7997 70.1666 76.5617 78.4046 66.3997 78.4046H31.1997V83.2046H66.3997C79.2127 83.2046 89.5997 72.8176 89.5997 60.0046V46.4046H84.7997Z" fill="#243946"/>
</svg>
