<svg width="96" height="96" viewBox="0 0 96 96" fill="none" xmlns="http://www.w3.org/2000/svg">
<path d="M51.2519 27.2178C51.4313 27.2057 51.6137 27.1995 51.799 27.1995C52.6739 27.1995 53.4835 27.3363 54.2143 27.5921L57.8127 23.9937C56.1194 22.9802 54.086 22.3995 51.799 22.3995C50.7019 22.3995 49.663 22.5332 48.6921 22.7842L51.2519 27.2178Z" fill="#243946"/>
<path d="M40.3996 47.1995L40.3996 53.5994H45.1996L45.2 47.1995H40.3996Z" fill="#243946"/>
<path fill-rule="evenodd" clip-rule="evenodd" d="M44.412 24.9708C43.814 25.4722 43.2748 26.0364 42.7998 26.6538C42.3249 26.0364 41.7856 25.4722 41.1876 24.9708L38.7195 29.2457C39.7244 30.3626 40.3215 31.8768 40.3933 33.6371C26.6477 34.0686 16.9352 38.1113 12.1058 40.6732C9.95983 41.8163 9.11782 44.3728 9.8716 46.7214L17.3823 70.2079C18.2176 72.8198 20.7234 74.3994 23.3379 74.3994C23.9763 74.3994 24.6146 74.3093 25.2394 74.1084C29.538 72.7713 35.8127 71.3233 42.8005 71.3233C49.7884 71.3233 56.0632 72.7713 60.3619 74.1084C60.9866 74.3024 61.6318 74.3994 62.2633 74.3994C64.8778 74.3994 67.3837 72.8198 68.219 70.2079L75.7296 46.7214C76.4833 44.3728 75.6414 41.8163 73.4955 40.6732C68.6657 38.1112 58.9583 34.0681 45.2064 33.6371C45.2782 31.8768 45.8753 30.3626 46.8802 29.2457L44.412 24.9708ZM40.3993 39.3348C28.3722 39.741 19.7928 43.122 15.3179 45.3982L22.6928 68.4412C22.7132 68.5174 22.9712 68.7045 23.3379 68.7045C23.4398 68.7045 23.5281 68.6906 23.6164 68.6629C27.6078 67.4214 33.5944 65.9686 40.3991 65.6797L40.3995 58.3994H45.1995L45.2005 65.6797C52.0059 65.9684 57.9931 67.4213 61.9848 68.6629C62.0731 68.6906 62.1683 68.7045 62.2633 68.7045C62.6233 68.7045 62.8813 68.5174 62.9084 68.4412L70.2834 45.3982C65.8084 43.1219 57.2282 39.7407 45.2003 39.3348L45.2001 42.3995H40.4001L40.3993 39.3348Z" fill="#243946"/>
<path d="M61.2731 27.3215L57.7542 30.8404C58.1733 31.7658 58.399 32.8327 58.399 33.9995H63.199C63.199 31.5109 62.5122 29.2082 61.2731 27.3215Z" fill="#243946"/>
<path d="M33.8006 27.1995C33.9859 27.1995 34.1684 27.2057 34.3477 27.2178L36.9075 22.7842C35.9366 22.5332 34.8978 22.3995 33.8006 22.3995C31.5136 22.3995 29.4802 22.9802 27.7869 23.9937L31.3853 27.5921C32.1161 27.3363 32.9257 27.1995 33.8006 27.1995Z" fill="#243946"/>
<path d="M27.8454 30.8404L24.3265 27.3215C23.0874 29.2082 22.4006 31.5109 22.4006 33.9995H27.2006C27.2006 32.8327 27.4263 31.7658 27.8454 30.8404Z" fill="#243946"/>
<path d="M82.4531 59.8737H87.1465L87.7865 37.5709V34.3995H81.8131V37.5709L82.4531 59.8737Z" fill="#243946"/>
<path d="M81.5998 71.1994H87.9998V64.8565H81.5998V71.1994Z" fill="#243946"/>
</svg>
