<svg width="96" height="96" viewBox="0 0 96 96" fill="none" xmlns="http://www.w3.org/2000/svg">
<path d="M48.001 30.4005C70.9793 30.4004 84.7796 39.2046 88.8486 42.2374C90.9293 43.7882 91.2151 46.5511 89.9727 48.5108L70.1777 79.7286C68.8925 81.7553 66.3451 82.4987 64.1924 81.5821C62.6806 80.9382 59.9377 79.8346 56.8691 78.8965C53.7457 77.9418 50.5327 77.2375 48.001 77.2374C45.4691 77.2374 42.2555 77.9417 39.1318 78.8965C36.0635 79.8345 33.3213 80.9383 31.8096 81.5821C29.6567 82.4987 27.1085 81.7555 25.8232 79.7286L6.02832 48.5108C4.7861 46.5512 5.07202 43.7882 7.15234 42.2374L7.5625 41.9366C12.0928 38.6632 25.7404 30.4007 48.001 30.4005ZM48.001 36.7999C28.9504 36.8001 16.9396 43.3281 12.2939 46.4405L22.7188 62.8809L26.2832 59.3174C26.3582 59.2425 26.4604 59.2003 26.5664 59.2003H30.9414C31.0989 59.2004 31.2416 59.2906 31.3115 59.4317C31.7339 60.285 33.3146 63.1999 35.2002 63.2003C37.0859 63.2003 38.6673 60.2851 39.0898 59.4317C39.1599 59.2906 39.3024 59.2003 39.46 59.2003H43.7412C43.8987 59.2003 44.0413 59.2906 44.1113 59.4317C44.5338 60.285 46.1153 63.2002 48.001 63.2003C49.8865 63.1998 51.4672 60.285 51.8896 59.4317C51.9597 59.2906 52.1023 59.2003 52.2598 59.2003H56.541C56.6985 59.2003 56.8411 59.2906 56.9111 59.4317C57.3336 60.285 58.9151 63.2002 60.8008 63.2003C62.6864 63.2 64.267 60.2851 64.6895 59.4317C64.7594 59.2906 64.9021 59.2004 65.0596 59.2003H69.4346C69.5407 59.2003 69.6428 59.2424 69.7178 59.3174L73.2812 62.8809L83.707 46.4405C79.0611 43.3279 67.051 36.7998 48.001 36.7999ZM50.4004 56.0001H45.6006V51.2003H50.4004V56.0001ZM50.4004 46.4005H45.6006V41.5997H50.4004V46.4005ZM25.2119 21.0137C25.0366 21.3687 24.8748 21.732 24.7256 22.1006C23.9744 23.9566 23.5871 25.8468 23.3916 27.296C23.2947 28.0141 23.2472 28.6091 23.2236 29.0167C23.2119 29.2197 23.2058 29.3755 23.2031 29.4756C23.2018 29.5254 23.2005 29.562 23.2002 29.5831V29.6016C23.1894 29.6009 23.0341 29.5997 20.8008 29.5997C18.4015 29.5997 18.4004 29.5977 18.4004 29.5977V29.5723C18.4005 29.5591 18.4011 29.5416 18.4014 29.5206C18.4019 29.4781 18.4023 29.4195 18.4043 29.3467C18.4082 29.2009 18.4159 28.9958 18.4307 28.7403C18.4602 28.2293 18.5192 27.5108 18.6348 26.6544C18.8642 24.9537 19.3268 22.6425 20.2754 20.2989C20.5014 19.7405 20.7584 19.1742 21.0488 18.6094L25.2119 21.0137ZM74.8018 18.3262C75.1544 18.9846 75.4617 19.647 75.7256 20.2989C76.6742 22.6426 77.1367 24.9537 77.3662 26.6544C77.4817 27.5108 77.5408 28.2293 77.5703 28.7403C77.5851 28.9958 77.5927 29.2009 77.5967 29.3467C77.5986 29.4195 77.5991 29.4781 77.5996 29.5206C77.5999 29.5416 77.6005 29.5591 77.6006 29.5723V29.5977C77.5933 29.5988 77.4643 29.5997 75.2002 29.5997C72.9237 29.5997 72.8068 29.6008 72.8008 29.6016V29.5831C72.8005 29.562 72.7992 29.5254 72.7979 29.4756C72.7951 29.3755 72.7901 29.2197 72.7783 29.0167C72.7547 28.6091 72.7072 28.0141 72.6104 27.296C72.4148 25.8467 72.0266 23.9567 71.2754 22.1006C71.2518 22.0424 71.2264 21.9848 71.2021 21.9268L74.8018 18.3262ZM52.001 22.7999L50.8008 27.2003H45.2002L44.001 22.7999L48.001 20.7999L52.001 22.7999ZM36.001 10.4708C39.1886 10.7581 41.7623 11.9033 43.7891 13.5723C44.7128 14.3331 45.5009 15.1874 46.1768 16.086L41.7422 18.2422C41.4307 17.8971 41.0966 17.5733 40.7373 17.2774C39.5588 16.307 38.0343 15.5578 36.001 15.2989V10.4708ZM60.001 15.2989C57.9676 15.5578 56.4422 16.3069 55.2637 17.2774C54.9044 17.5733 54.5703 17.8971 54.2588 18.2422L49.8232 16.086C50.4992 15.1873 51.288 14.3332 52.2119 13.5723C54.2387 11.9032 56.8132 10.7581 60.001 10.4708V15.2989ZM64.8008 10.6954C67.2627 11.1703 69.3132 12.1921 70.9893 13.5723C71.3176 13.8427 71.6274 14.1275 71.9229 14.419L68.5293 17.8116C68.3397 17.6257 68.1429 17.4466 67.9375 17.2774C67.0908 16.5802 66.0649 15.9972 64.8008 15.628V10.6954ZM31.2002 15.628C29.9933 15.9806 29.0046 16.529 28.1807 17.1846L23.8262 14.67C24.1947 14.288 24.5902 13.9203 25.0127 13.5723C26.6886 12.1923 28.7386 11.1703 31.2002 10.6954V15.628Z" fill="#243946"/>
</svg>
