<svg width="96" height="96" viewBox="0 0 96 96" fill="none" xmlns="http://www.w3.org/2000/svg">
<path d="M36.5274 62.9273L30.8684 57.2683C33.0844 55.1511 35.675 53.4619 38.5096 52.2878C41.5184 51.0415 44.7433 50.4 48.0001 50.4C51.2569 50.4 54.4818 51.0415 57.4907 52.2878C60.3252 53.4619 62.9157 55.1512 65.1318 57.2683L59.4727 62.9273C58.0012 61.5517 56.2931 60.4509 54.4292 59.6788C52.3909 58.8346 50.2063 58.4 48.0001 58.4C45.7939 58.4 43.6093 58.8345 41.571 59.6788C39.7071 60.4509 37.999 61.5517 36.5274 62.9273Z" fill="#243946"/>
<path d="M48.0001 74.4L41.057 67.4569C42.8981 65.8049 45.3317 64.8 48.0001 64.8C50.6684 64.8 53.1021 65.8049 54.9432 67.4569L48.0001 74.4Z" fill="#243946"/>
<path d="M26.342 52.7419L20.6844 47.0843C24.2388 43.631 28.4172 40.8817 32.9989 38.9839C37.7549 37.0139 42.8523 36 48.0001 36C53.1479 36 58.2453 37.014 63.0013 38.9839C67.583 40.8817 71.7613 43.631 75.3158 47.0843L69.6582 52.7419C66.8472 50.031 63.5509 47.8707 59.9398 46.375C56.1545 44.807 52.0974 44 48.0001 44C43.9029 44 39.8457 44.807 36.0604 46.375C32.4493 47.8707 29.153 50.031 26.342 52.7419Z" fill="#243946"/>
<path d="M48 21.6C40.9612 21.6 33.9913 22.9864 27.4882 25.68C21.1594 28.3015 15.3934 32.1112 10.5012 36.9012L16.1584 42.5584C20.3075 38.511 25.1915 35.2905 30.5497 33.0711C36.0821 30.7795 42.0118 29.6 48 29.6C53.9883 29.6 59.9179 30.7795 65.4504 33.0711C70.8086 35.2905 75.6925 38.5111 79.8416 42.5584L85.4988 36.9012C80.6066 32.1112 74.8406 28.3016 68.5119 25.6801C62.0088 22.9864 55.0389 21.6 48 21.6Z" fill="#8FA1AD"/>
</svg>
