<svg width="96" height="96" viewBox="0 0 96 96" fill="none" xmlns="http://www.w3.org/2000/svg">
<path d="M48 74.4L54.9431 67.4569C53.102 65.8049 50.6683 64.8 48 64.8C45.3317 64.8 42.898 65.8049 41.0569 67.4569L48 74.4Z" fill="#243946"/>
<path d="M48 21.6C40.9612 21.6 33.9913 22.9864 27.4882 25.68C21.1594 28.3015 15.3934 32.1111 10.5012 36.9012L16.1584 42.5584C20.3075 38.511 25.1915 35.2905 30.5497 33.0711C36.0821 30.7794 42.0118 29.6 48 29.6C53.9883 29.6 59.9179 30.7795 65.4504 33.0711C70.8086 35.2905 75.6925 38.511 79.8416 42.5584L85.4988 36.9012C80.6066 32.1112 74.8406 28.3015 68.5119 25.6801C62.0088 22.9864 55.0389 21.6 48 21.6Z" fill="#8FA1AD"/>
<path d="M26.3419 52.7419L20.6843 47.0843C24.2388 43.6309 28.4171 40.8817 32.9988 38.9839C37.7548 37.0139 42.8522 36 48 36C53.1478 36 58.2453 37.0139 63.0012 38.9839C67.5829 40.8817 71.7612 43.631 75.3157 47.0843L69.6581 52.7419C66.8471 50.031 63.5508 47.8707 59.9397 46.3749C56.1544 44.807 52.0973 44 48 44C43.9028 44 39.8456 44.807 36.0603 46.3749C32.4492 47.8707 29.1529 50.031 26.3419 52.7419Z" fill="#8FA1AD"/>
<path d="M36.5273 62.9273L30.8683 57.2683C33.0843 55.1511 35.6749 53.4619 38.5095 52.2878C41.5183 51.0414 44.7432 50.4 48 50.4C51.2568 50.4 54.4817 51.0415 57.4906 52.2878C60.3251 53.4619 62.9156 55.1511 65.1317 57.2683L59.4726 62.9273C58.0011 61.5517 56.293 60.4509 54.4291 59.6788C52.3908 58.8345 50.2062 58.4 48 58.4C45.7938 58.4 43.6092 58.8345 41.5709 59.6788C39.707 60.4508 37.9989 61.5517 36.5273 62.9273Z" fill="#8FA1AD"/>
</svg>
