<svg width="96" height="96" viewBox="0 0 96 96" fill="none" xmlns="http://www.w3.org/2000/svg">
<path d="M48 74.4L54.9431 67.4569C53.102 65.8049 50.6684 64.8 48 64.8C45.3317 64.8 42.8981 65.8049 41.057 67.4569L48 74.4Z" fill="#243946"/>
<path d="M36.5274 62.9273C37.9989 61.5517 39.7071 60.4508 41.571 59.6788C43.6093 58.8345 45.7939 58.4 48.0001 58.4C50.2063 58.4 52.3909 58.8345 54.4291 59.6788C56.293 60.4509 58.0012 61.5517 59.4727 62.9273L65.1317 57.2683C62.9157 55.1511 60.3252 53.4619 57.4906 52.2878C54.4817 51.0415 51.2569 50.4 48.0001 50.4C44.7433 50.4 41.5184 51.0414 38.5095 52.2878C35.675 53.4619 33.0844 55.1511 30.8684 57.2683L36.5274 62.9273Z" fill="#243946"/>
<path d="M48 21.6C40.9612 21.6 33.9913 22.9864 27.4882 25.68C21.1594 28.3015 15.3934 32.1111 10.5012 36.9012L16.1584 42.5584C20.3075 38.511 25.1915 35.2905 30.5497 33.0711C36.0821 30.7794 42.0118 29.6 48 29.6C53.9883 29.6 59.9179 30.7795 65.4504 33.0711C70.8086 35.2905 75.6925 38.511 79.8416 42.5584L85.4988 36.9012C80.6066 32.1112 74.8406 28.3015 68.5119 25.6801C62.0088 22.9864 55.0389 21.6 48 21.6Z" fill="#8FA1AD"/>
<path d="M26.3419 52.7419L20.6843 47.0843C24.2388 43.6309 28.4171 40.8817 32.9988 38.9839C37.7548 37.0139 42.8522 36 48 36C53.1478 36 58.2453 37.0139 63.0012 38.9839C67.5829 40.8817 71.7612 43.631 75.3157 47.0843L69.6581 52.7419C66.8471 50.031 63.5508 47.8707 59.9397 46.3749C56.1544 44.807 52.0973 44 48 44C43.9028 44 39.8456 44.807 36.0603 46.3749C32.4492 47.8707 29.1529 50.031 26.3419 52.7419Z" fill="#8FA1AD"/>
</svg>
