<svg width="96" height="96" viewBox="0 0 96 96" fill="none" xmlns="http://www.w3.org/2000/svg">
<path d="M48.0004 21.6C49.6056 21.6 51.2071 21.6721 52.8004 21.8153V29.8533C51.209 29.6849 49.6068 29.6 48.0004 29.6C42.0121 29.6 36.0825 30.7794 30.55 33.0711C25.1919 35.2905 20.3079 38.511 16.1588 42.5584L10.5016 36.9012C15.3938 32.1111 21.1598 28.3015 27.4886 25.68C33.9916 22.9864 40.9616 21.6 48.0004 21.6Z" fill="#243946"/>
<path d="M48.0004 36C49.6083 36 51.2112 36.0989 52.8004 36.295V44.3714C51.216 44.1247 49.6113 44 48.0004 44C43.9032 44 39.846 44.807 36.0607 46.3749C32.4496 47.8707 29.1533 50.031 26.3423 52.7419L20.6847 47.0843C24.2391 43.6309 28.4175 40.8817 32.9992 38.9839C37.7552 37.0139 42.8526 36 48.0004 36Z" fill="#243946"/>
<path d="M30.8687 57.2683L36.5277 62.9273C37.9993 61.5517 39.7074 60.4508 41.5713 59.6788C43.6096 58.8345 45.7942 58.4 48.0004 58.4C50.2066 58.4 52.3912 58.8345 54.4295 59.6788C56.2934 60.4509 58.0015 61.5517 59.473 62.9273L65.1321 57.2683C62.916 55.1511 60.3255 53.4619 57.491 52.2878C54.4821 51.0415 51.2572 50.4 48.0004 50.4C44.7436 50.4 41.5187 51.0414 38.5098 52.2878C35.6753 53.4619 33.0847 55.1511 30.8687 57.2683Z" fill="#243946"/>
<path d="M48.0004 74.4L41.0573 67.4569C42.8984 65.8049 45.332 64.8 48.0004 64.8C50.6687 64.8 53.1024 65.8049 54.9435 67.4569L48.0004 74.4Z" fill="#243946"/>
<path d="M77.7377 23.3368L70.396 30.6754L63.0623 23.3448L58.5377 27.8712L65.8696 35.2L58.5377 42.5288L63.0623 47.0552L70.396 39.7245L77.7377 47.0632L82.2623 42.5368L74.9224 35.2L82.2623 27.8632L77.7377 23.3368Z" fill="#243946"/>
</svg>
