<svg width="96" height="96" viewBox="0 0 96 96" fill="none" xmlns="http://www.w3.org/2000/svg">
<path d="M48.0004 21.6C40.9616 21.6 33.9916 22.9864 27.4886 25.68C21.1598 28.3015 15.3938 32.1112 10.5016 36.9012L16.1588 42.5584C20.3079 38.511 25.1919 35.2905 30.55 33.0711C36.0825 30.7795 42.0121 29.6 48.0004 29.6C53.9887 29.6 59.9183 30.7795 65.4508 33.0711C70.8089 35.2905 75.6929 38.511 79.842 42.5584L85.4992 36.9012C80.607 32.1112 74.841 28.3015 68.5123 25.6801C62.0092 22.9864 55.0393 21.6 48.0004 21.6Z" fill="#243946"/>
<path d="M26.3423 52.7419L20.6847 47.0843C24.2391 43.631 28.4175 40.8817 32.9992 38.9839C37.7552 37.0139 42.8526 36 48.0004 36C53.1482 36 58.2456 37.0139 63.0016 38.9839C67.5833 40.8817 71.7616 43.631 75.3161 47.0843L69.6585 52.7419C66.8475 50.031 63.5512 47.8707 59.9401 46.375C56.1548 44.807 52.0977 44 48.0004 44C43.9032 44 39.846 44.807 36.0607 46.3749C32.4496 47.8707 29.1533 50.031 26.3423 52.7419Z" fill="#243946"/>
<path d="M36.5277 62.9273L30.8687 57.2683C33.0847 55.1511 35.6753 53.4619 38.5098 52.2878C41.5187 51.0415 44.7436 50.4 48.0004 50.4C51.2572 50.4 54.4821 51.0415 57.491 52.2878C60.3255 53.4619 62.916 55.1511 65.1321 57.2683L59.473 62.9273C58.0015 61.5517 56.2934 60.4509 54.4295 59.6788C52.3912 58.8345 50.2066 58.4 48.0004 58.4C45.7942 58.4 43.6096 58.8345 41.5713 59.6788C39.7074 60.4509 37.9993 61.5517 36.5277 62.9273Z" fill="#243946"/>
<path d="M48.0004 74.4L41.0573 67.4569C42.8984 65.8049 45.332 64.8 48.0004 64.8C50.6687 64.8 53.1024 65.8049 54.9435 67.4569L48.0004 74.4Z" fill="#243946"/>
</svg>
