<svg width="96" height="96" viewBox="0 0 96 96" fill="none" xmlns="http://www.w3.org/2000/svg">
<path d="M48.7141 66.1055L49.6204 69.5176C50.8068 70.1126 51.7434 71.1934 52.1106 72.5771C52.7903 75.1391 51.2642 77.7671 48.7024 78.4473C46.1403 79.1272 43.5115 77.6019 42.8313 75.04C42.4694 73.6762 42.732 72.2928 43.4436 71.1953L42.1653 66.3779C44.0447 66.2026 45.9973 66.1016 48.0002 66.1016C48.2389 66.1016 48.4769 66.1026 48.7141 66.1055ZM48.0002 23.2002C65.3817 23.2002 77.5954 28.1634 83.5022 31.2441C85.9841 32.5441 86.9588 35.4521 86.0872 38.123L77.3997 64.833C76.4335 67.8034 73.5349 69.5996 70.511 69.5996C69.7806 69.5996 69.0343 69.4891 68.3118 69.2686C63.4867 67.7928 56.509 66.1984 48.7141 66.1055L38.9661 29.3701L32.7795 31.0127L42.1653 66.3779C36.4614 66.91 31.4283 68.1248 27.6887 69.2686C26.9663 69.497 26.2277 69.5996 25.4895 69.5996C22.4656 69.5996 19.567 67.8033 18.6008 64.833L9.91333 38.123C9.04172 35.4522 10.0155 32.5442 12.4973 31.2441C18.4039 28.1634 30.6261 23.2002 48.0002 23.2002Z" fill="#243946"/>
</svg>
