<svg width="96" height="96" viewBox="0 0 96 96" fill="none" xmlns="http://www.w3.org/2000/svg">
<path d="M69.6001 37.5996C70.4001 34.8784 71.2009 32.7996 74.4009 33.5996L82.6519 34.6875C86.0002 35.1995 86.4004 37.5997 86.0005 39.5996L82.0884 58.0596C79.1152 66.4501 71.8845 71.7494 63.105 70.2891L52.4849 68.0176L33.6021 86.9014C32.5082 87.9953 31.067 88.5478 29.6255 88.5479C28.184 88.5479 26.7521 87.9954 25.6479 86.9014C23.4503 84.7032 23.4504 81.1455 25.6479 78.9473L43.937 60.6562C46.3308 58.0509 48.8591 55.6656 55.481 57.0918C63.2276 58.7602 64.6207 53.7549 65.8013 49.5117C65.8681 49.2716 65.9339 49.0337 66.0005 48.7998C66.3368 47.6183 66.8984 45.9368 67.519 44.0791C68.2173 41.989 68.99 39.6751 69.6001 37.5996ZM31.2954 23.3916C32.5034 23.9356 33.104 24.208 33.104 24.208V24.2314C33.104 24.2314 33.0722 24.2716 33.0562 24.3115C33.0322 24.3835 32.9754 24.4878 32.9194 24.6318C32.8074 24.9118 32.6554 25.2962 32.5034 25.7441C32.1835 26.68 31.9517 27.6639 31.9517 28.3438C31.9517 29.0236 32.1915 29.9995 32.5034 30.9434C32.6554 31.3832 32.7995 31.7757 32.9194 32.0557C32.9754 32.1917 33.0162 32.296 33.0562 32.376C33.0721 32.4158 33.0882 32.4401 33.0962 32.4561V32.4717H33.104V32.4873L33.1196 32.5195C33.1196 32.5195 33.1515 32.5838 33.1675 32.6318C33.2075 32.7278 33.2636 32.8642 33.3276 33.0322C33.4636 33.3682 33.6398 33.8243 33.8237 34.3682C34.1677 35.3841 34.5835 36.8718 34.5835 38.2236C34.5835 39.5756 34.1677 41.0717 33.8237 42.0957C33.6477 42.6397 33.4636 43.0956 33.3276 43.4316C33.2556 43.5916 33.1995 43.728 33.1675 43.832C33.1437 43.8798 33.1355 43.9194 33.1196 43.9434L33.104 43.9756V43.9922C33.104 43.9922 32.5034 43.7198 31.2954 43.1758C30.0877 42.6319 29.4878 42.3594 29.4878 42.3594V42.3359C29.4878 42.3359 29.5198 42.2958 29.5278 42.2559C29.5518 42.1839 29.6076 42.0795 29.6636 41.9355C29.7755 41.6556 29.9278 41.272 30.0718 40.8242C30.3918 39.8882 30.6235 38.9036 30.6235 38.2236C30.6235 37.5437 30.3837 36.5679 30.0718 35.624C29.9198 35.184 29.7756 34.7917 29.6636 34.5117C29.6076 34.3758 29.5678 34.2714 29.5278 34.1914C29.5119 34.1595 29.4956 34.1273 29.4956 34.1113V34.0879H29.4878V34.0723L29.4722 34.0322C29.4722 34.0322 29.4403 33.9679 29.4243 33.9199C29.3843 33.8239 29.3283 33.6955 29.2563 33.5195C29.1204 33.1835 28.9442 32.7276 28.7603 32.1836C28.4163 31.1677 27.9996 29.68 27.9995 28.3281C27.9995 26.9761 28.4163 25.4877 28.7603 24.4717C28.9362 23.9278 29.1204 23.4717 29.2563 23.1357C29.3283 22.9758 29.3843 22.8393 29.4243 22.7354C29.4481 22.6876 29.4562 22.6479 29.4722 22.624L29.4878 22.5918V22.5762C29.4963 22.58 30.0963 22.8516 31.2954 23.3916ZM39.2163 23.4082C40.4113 23.9463 41.0113 24.2179 41.0239 24.2236V24.248C41.0226 24.2497 40.9917 24.289 40.9839 24.3281C40.9519 24.4001 40.9041 24.5045 40.8481 24.6484C40.7362 24.9284 40.584 25.312 40.4321 25.7598C40.1121 26.6958 39.8804 27.6804 39.8804 28.3604C39.8804 29.0403 40.1202 30.0161 40.4321 30.96C40.5841 31.4 40.7281 31.7923 40.8481 32.0723C40.904 32.2079 40.944 32.3117 40.9839 32.3916C40.9998 32.4234 41.0159 32.4556 41.0161 32.4717V32.4883H41.0239V32.5039L41.0396 32.5361C41.0396 32.5361 41.0644 32.6004 41.0884 32.6484C41.1283 32.7443 41.1837 32.8723 41.2476 33.0479C41.3835 33.3838 41.5597 33.8399 41.7437 34.3838C42.0877 35.3998 42.5044 36.8882 42.5044 38.2402C42.5043 39.5921 42.0876 41.0798 41.7437 42.0957C41.5677 42.6396 41.3836 43.0957 41.2476 43.4316C41.1756 43.5916 41.1204 43.728 41.0884 43.832C41.0644 43.88 41.0476 43.9203 41.0396 43.9443L41.0239 43.9756V43.9922C41.0239 43.9922 40.4242 43.7197 39.2163 43.1758C38.0083 42.6318 37.4077 42.3604 37.4077 42.3604V42.3359C37.4077 42.3359 37.4398 42.2959 37.4478 42.2559C37.4798 42.1839 37.5285 42.0795 37.5845 41.9355C37.6964 41.6557 37.8476 41.2718 37.9995 40.8242C38.3195 39.8882 38.5522 38.9036 38.5522 38.2236C38.5522 37.5436 38.3115 36.5678 37.9995 35.624C37.8475 35.1841 37.7045 34.7917 37.5845 34.5117C37.5285 34.3759 37.4877 34.2723 37.4478 34.1924C37.4318 34.1524 37.4235 34.1283 37.4155 34.1123V34.0957H37.4077V34.0801L37.3765 34.0156C37.3685 33.9918 37.3522 33.976 37.3442 33.9443C37.3042 33.8563 37.2481 33.7199 37.1841 33.5439C37.0481 33.2079 36.872 32.744 36.688 32.208C36.344 31.192 35.9282 29.7036 35.9282 28.3516C35.9283 26.9997 36.344 25.512 36.688 24.4961C36.864 23.9521 37.0481 23.4961 37.1841 23.1602C37.2561 23.0002 37.3122 22.8638 37.3442 22.7598C37.368 22.7121 37.3762 22.6724 37.3921 22.6484L37.4077 22.6162V22.5996L39.2163 23.4082ZM47.1294 23.4082L48.9302 24.2236V24.248C48.9302 24.248 48.8981 24.2881 48.8901 24.3281C48.8581 24.4001 48.8094 24.5044 48.7534 24.6484C48.6414 24.9284 48.4901 25.3043 48.3462 25.752C48.0262 26.6878 47.7935 27.6638 47.7935 28.3438C47.7935 29.0237 48.0342 29.9916 48.3462 30.9355C48.4902 31.3755 48.6414 31.768 48.7534 32.04C48.8094 32.176 48.8501 32.2804 48.8901 32.3604C48.906 32.3922 48.9134 32.4245 48.9214 32.4404V32.4561H48.9302V32.4717L48.9458 32.5039C48.9458 32.5039 48.9777 32.5682 48.9937 32.6162C49.0336 32.7042 49.0899 32.8399 49.1538 33.0078C49.2898 33.3438 49.4659 33.8 49.6499 34.3359C49.9859 35.3519 50.4097 36.824 50.4097 38.168C50.4017 39.5119 49.9861 40.992 49.6421 42C49.4661 42.536 49.282 43.0001 49.146 43.3281C49.074 43.4881 49.0178 43.6245 48.9858 43.7285C48.962 43.7762 48.9539 43.8159 48.938 43.8398L48.9214 43.8721V43.8877L47.1216 43.0801L45.3218 42.2637V42.2402C45.3218 42.2402 45.3538 42.2001 45.3618 42.1602C45.3938 42.0882 45.4416 41.9838 45.4976 41.8398C45.6095 41.5599 45.7618 41.1842 45.9058 40.7363C46.2258 39.8003 46.4575 38.8236 46.4575 38.1436C46.4574 37.4636 46.2177 36.4956 45.9058 35.5518C45.7538 35.1119 45.6095 34.7202 45.4976 34.4482C45.4416 34.3122 45.4018 34.2079 45.3618 34.1279C45.3459 34.096 45.3376 34.0638 45.3296 34.0479V34.0156L45.314 33.9844C45.314 33.9844 45.2901 33.9201 45.2661 33.8721C45.2261 33.7841 45.17 33.6477 45.106 33.4717C44.97 33.1437 44.7938 32.6794 44.6099 32.1436C44.2659 31.1277 43.8502 29.6562 43.8501 28.3125C43.8501 26.9687 44.2659 25.4885 44.6099 24.4805C44.7858 23.9446 44.97 23.4803 45.106 23.1523C45.178 22.9923 45.2341 22.8558 45.2661 22.7598C45.2899 22.7121 45.3059 22.6724 45.314 22.6484L45.3296 22.6162V22.5996C45.3296 22.5996 45.9296 22.8723 47.1294 23.4082ZM39.2007 9.91992C48.9845 9.91998 55.9127 12.6083 59.3286 14.3203C61.6564 15.4883 62.48 18.0882 61.728 20.3281L56.2241 36.5605L52.4399 35.2725L57.9448 19.0479C58.1285 18.5042 57.9043 18.0805 57.5444 17.8965C54.5604 16.4005 48.2484 13.9199 39.2085 13.9199C30.1686 13.9199 23.8566 16.4005 20.8726 17.8965C20.5047 18.0804 20.2884 18.5041 20.4722 19.0479L25.9761 35.2803L22.1919 36.5684L16.688 20.3359C15.9202 18.088 16.7449 15.4882 19.0728 14.3203C22.4889 12.6083 29.417 9.91992 39.2007 9.91992ZM78.894 12C84.1956 12.0002 88.4934 16.298 88.4937 21.5996C88.4937 26.9014 84.1958 31.2 78.894 31.2002C73.5921 31.2002 69.2935 26.9015 69.2935 21.5996C69.2937 16.2979 73.5922 12 78.894 12Z" fill="#243946"/>
</svg>
