<svg width="96" height="96" viewBox="0 0 96 96" fill="none" xmlns="http://www.w3.org/2000/svg">
<path fill-rule="evenodd" clip-rule="evenodd" d="M80.3598 16C83.6558 16 86.3277 18.672 86.3277 21.968V72.2641C86.3277 76.5041 82.8879 79.9359 78.6559 79.9359H17.2723C13.0323 79.9359 9.59961 76.4961 9.59961 72.2641V50.968C9.59961 47.488 10.8163 44.1204 13.0402 41.4484L21.2957 31.5281C29.4797 21.6881 41.616 16 54.416 16H80.3598ZM15.9996 53.6V73.6H79.9996V53.6H15.9996ZM54.416 22.3922C43.48 22.3922 33.2002 27.2164 26.2082 35.6164L18.1824 45.2156H30.4793L35.6402 38.9922C40.1362 33.5842 46.7997 30.4641 53.8316 30.4641H80.0793V22.3922H54.416Z" fill="#243946"/>
</svg>
