<svg width="96" height="96" viewBox="0 0 96 96" fill="none" xmlns="http://www.w3.org/2000/svg">
<path fill-rule="evenodd" clip-rule="evenodd" d="M54.3365 13.2C41.5365 13.2 29.4006 18.888 21.2166 28.728L12.9607 38.6481C10.7367 41.3201 9.52051 44.688 9.52051 48.168V69.4641C9.52051 73.6961 12.9528 77.1361 17.1928 77.1361H78.5768C82.8088 77.1361 86.2486 73.7041 86.2486 69.4641V19.168C86.2486 15.872 83.5767 13.2 80.2807 13.2H54.3365ZM80.0002 19.592V27.6641H53.7525C46.7205 27.6641 40.0567 30.784 35.5607 36.192L30.4002 42.4156H18.1033L26.1287 32.816C33.1207 24.416 43.4005 19.592 54.3365 19.592H80.0002ZM72.0002 38.0156H62.4002V56.8156H56.3316C55.6188 56.8156 55.2619 57.6773 55.7659 58.1813L67.2002 69.6156L78.6345 58.1813C79.1385 57.6773 78.7815 56.8156 78.0688 56.8156H72.0002V38.0156Z" fill="#243946"/>
</svg>
