<svg width="96" height="96" viewBox="0 0 96 96" fill="none" xmlns="http://www.w3.org/2000/svg">
<path fill-rule="evenodd" clip-rule="evenodd" d="M60.3619 66.1086C56.1656 64.8034 50.0862 63.3924 43.2986 63.326L44.1296 66.457C45.2752 66.9061 46.199 67.876 46.5388 69.1565C47.1054 71.2917 45.8339 73.482 43.6986 74.0486C41.5634 74.6153 39.3731 73.3437 38.8064 71.2085C38.475 69.9594 38.7725 68.6915 39.5041 67.7407L38.3815 63.5108C33.1922 63.9444 28.6088 65.0606 25.2394 66.1086C24.6146 66.3096 23.9763 66.3996 23.3379 66.3996C20.7234 66.3996 18.2176 64.82 17.3823 62.2081L9.8716 38.7216C9.11782 36.373 9.95983 33.8165 12.1058 32.6734C17.2125 29.9645 27.7791 25.5997 42.8005 25.5997C57.8288 25.5997 68.3887 29.9645 73.4955 32.6734C75.6414 33.8165 76.4833 36.373 75.7296 38.7216L68.219 62.2081C67.3837 64.82 64.8778 66.3996 62.2633 66.3996C61.6318 66.3996 60.9866 66.3026 60.3619 66.1086ZM42.8005 31.2947C56.0903 31.2947 65.5162 34.9735 70.2834 37.3984L62.9084 60.4414C62.8813 60.5176 62.6233 60.7047 62.2633 60.7047C62.1683 60.7047 62.0731 60.6908 61.9848 60.6631C57.53 59.2775 50.5897 57.6286 42.8005 57.6286C42.4617 57.6286 42.1245 57.6317 41.7891 57.6378L35.7304 34.808L31.091 36.0392L36.901 57.9319C31.556 58.4719 26.9078 59.6394 23.6164 60.6631C23.5281 60.6908 23.4398 60.7047 23.3379 60.7047C22.9712 60.7047 22.7132 60.5176 22.6928 60.4414L15.3179 37.3984C20.0851 34.9735 29.5108 31.2947 42.8005 31.2947Z" fill="#243946"/>
<path d="M82.4531 51.8739H87.1465L87.7865 29.5711V26.3997H81.8131V29.5711L82.4531 51.8739Z" fill="#243946"/>
<path d="M81.5998 63.1996H87.9998V56.8568H81.5998V63.1996Z" fill="#243946"/>
</svg>
