<svg width="96" height="96" viewBox="0 0 96 96" fill="none" xmlns="http://www.w3.org/2000/svg">
<path d="M80 86.4004H16V80.7998H80V86.4004ZM32 27.2002H27.5156C27.4185 27.3745 27.3074 27.5764 27.1855 27.8027C26.7141 28.6786 26.0872 29.9073 25.4688 31.3154C24.1753 34.2606 23.137 37.5054 23.2031 39.9121C23.2541 41.761 24.0534 44.3032 25.0137 46.6309C25.4717 47.7411 25.9275 48.7123 26.2686 49.4043C26.4383 49.7488 26.5783 50.0222 26.6738 50.2051C26.7215 50.2962 26.7587 50.3653 26.7822 50.4092C26.7873 50.4186 26.7911 50.4275 26.7949 50.4346L26.8066 50.4561C26.8167 50.4741 26.8314 50.4991 26.8486 50.5303C26.8832 50.5928 26.9318 50.682 26.9922 50.7939C27.1129 51.0177 27.2817 51.3368 27.4824 51.7324C27.8831 52.522 28.4184 53.6306 28.9551 54.9092C29.9791 57.3489 31.2041 60.8506 31.2041 64C31.2041 67.1494 29.9791 70.6511 28.9551 73.0908C28.4184 74.3694 27.8831 75.478 27.4824 76.2676C27.2817 76.6632 27.1129 76.9823 26.9922 77.2061C26.9318 77.318 26.8832 77.4072 26.8486 77.4697C26.8314 77.5009 26.8167 77.5259 26.8066 77.5439C26.8018 77.5526 26.798 77.5599 26.7949 77.5654C26.7935 77.568 26.7922 77.5704 26.791 77.5723L26.7891 77.5762C26.789 77.5762 26.7825 77.5742 24.0039 76C21.3711 74.5084 21.2277 74.4279 21.2197 74.4238C21.2205 74.4224 21.2226 74.4197 21.2246 74.416C21.2296 74.4071 21.2371 74.3906 21.249 74.3691C21.273 74.3258 21.3115 74.2575 21.3604 74.167C21.4583 73.9855 21.6016 73.7146 21.7754 73.3721C22.1247 72.6837 22.5895 71.7178 23.0527 70.6143C24.0287 68.289 24.8037 65.7903 24.8037 64C24.8037 62.2097 24.0287 59.711 23.0527 57.3857C22.5895 56.2822 22.1247 55.3163 21.7754 54.6279C21.6016 54.2854 21.4583 54.0145 21.3604 53.833C21.3115 53.7425 21.273 53.6742 21.249 53.6309C21.2371 53.6094 21.2296 53.5929 21.2246 53.584L21.2197 53.5771L21.209 53.5566L21.1973 53.5361L24.0039 52C21.3295 53.4633 21.2025 53.5323 21.1963 53.5352L21.1943 53.5312C21.1934 53.5296 21.1917 53.5277 21.1904 53.5254C21.1874 53.5199 21.1835 53.5118 21.1787 53.5029C21.1691 53.4852 21.1561 53.4604 21.1396 53.4297C21.1065 53.3678 21.06 53.28 21.002 53.1689C20.8857 52.9465 20.7226 52.6286 20.5283 52.2344C20.1407 51.448 19.6215 50.3444 19.0967 49.0723C18.0911 46.6347 16.8907 43.1766 16.8057 40.0879C16.698 36.1713 18.2585 31.8159 19.6084 28.7422C19.846 28.2011 20.0849 27.685 20.3164 27.2002H16L24 9.59961L32 27.2002ZM56 27.2002H51.5156C51.4185 27.3745 51.3074 27.5764 51.1855 27.8027C50.7141 28.6786 50.0872 29.9073 49.4688 31.3154C48.1753 34.2606 47.137 37.5054 47.2031 39.9121C47.2541 41.761 48.0534 44.3032 49.0137 46.6309C49.4717 47.7411 49.9275 48.7123 50.2686 49.4043C50.4383 49.7488 50.5783 50.0222 50.6738 50.2051C50.7215 50.2962 50.7587 50.3653 50.7822 50.4092C50.7873 50.4186 50.7911 50.4275 50.7949 50.4346L50.8066 50.4561C50.8167 50.4741 50.8314 50.4991 50.8486 50.5303C50.8832 50.5928 50.9318 50.682 50.9922 50.7939C51.1129 51.0177 51.2817 51.3368 51.4824 51.7324C51.8831 52.522 52.4184 53.6306 52.9551 54.9092C53.9791 57.3489 55.2041 60.8506 55.2041 64C55.2041 67.1494 53.9791 70.6511 52.9551 73.0908C52.4184 74.3694 51.8831 75.478 51.4824 76.2676C51.2817 76.6632 51.1129 76.9823 50.9922 77.2061C50.9318 77.318 50.8832 77.4072 50.8486 77.4697C50.8314 77.5009 50.8167 77.5259 50.8066 77.5439C50.8018 77.5526 50.798 77.5599 50.7949 77.5654C50.7935 77.568 50.7922 77.5704 50.791 77.5723L50.7891 77.5762C50.789 77.5762 50.7825 77.5742 48.0039 76C45.371 74.5083 45.2277 74.4279 45.2197 74.4238C45.2205 74.4224 45.2226 74.4197 45.2246 74.416C45.2296 74.4071 45.2371 74.3906 45.249 74.3691C45.273 74.3258 45.3115 74.2575 45.3604 74.167C45.4583 73.9855 45.6016 73.7146 45.7754 73.3721C46.1247 72.6837 46.5895 71.7178 47.0527 70.6143C48.0287 68.289 48.8037 65.7903 48.8037 64C48.8037 62.2097 48.0287 59.711 47.0527 57.3857C46.5895 56.2822 46.1247 55.3163 45.7754 54.6279C45.6016 54.2854 45.4583 54.0145 45.3604 53.833C45.3115 53.7425 45.273 53.6742 45.249 53.6309C45.2371 53.6094 45.2296 53.5929 45.2246 53.584L45.2197 53.5771L45.209 53.5566L45.1973 53.5361L48.0039 52C45.3295 53.4633 45.2025 53.5323 45.1963 53.5352L45.1943 53.5312C45.1934 53.5296 45.1917 53.5277 45.1904 53.5254C45.1874 53.5199 45.1835 53.5118 45.1787 53.5029C45.1691 53.4852 45.1561 53.4604 45.1396 53.4297C45.1065 53.3678 45.06 53.28 45.002 53.1689C44.8857 52.9465 44.7226 52.6286 44.5283 52.2344C44.1407 51.448 43.6215 50.3444 43.0967 49.0723C42.0911 46.6347 40.8907 43.1766 40.8057 40.0879C40.698 36.1713 42.2585 31.8159 43.6084 28.7422C43.846 28.2011 44.0849 27.685 44.3164 27.2002H40L48 9.59961L56 27.2002ZM80 27.2002H75.5117C75.4146 27.3745 75.3035 27.5764 75.1816 27.8027C74.7102 28.6786 74.0833 29.9073 73.4648 31.3154C72.1714 34.2606 71.1331 37.5054 71.1992 39.9121C71.2502 41.761 72.0495 44.3032 73.0098 46.6309C73.4678 47.7411 73.9236 48.7123 74.2646 49.4043C74.4344 49.7488 74.5744 50.0222 74.6699 50.2051C74.7175 50.2962 74.7548 50.3653 74.7783 50.4092C74.7834 50.4186 74.7872 50.4275 74.791 50.4346L74.8027 50.4561C74.8128 50.4741 74.8275 50.4991 74.8447 50.5303C74.8793 50.5928 74.9279 50.682 74.9883 50.7939C75.109 51.0177 75.2778 51.3368 75.4785 51.7324C75.8792 52.522 76.4145 53.6306 76.9512 54.9092C77.9752 57.3489 79.2002 60.8506 79.2002 64C79.2002 67.1494 77.9752 70.6511 76.9512 73.0908C76.4145 74.3694 75.8792 75.478 75.4785 76.2676C75.2778 76.6632 75.109 76.9823 74.9883 77.2061C74.9279 77.318 74.8793 77.4072 74.8447 77.4697C74.8275 77.5009 74.8128 77.5259 74.8027 77.5439C74.7979 77.5526 74.7941 77.5599 74.791 77.5654C74.7896 77.568 74.7883 77.5704 74.7871 77.5723L74.7852 77.5762C74.7851 77.5762 74.7786 77.5742 72 76C69.3671 74.5083 69.2238 74.4279 69.2158 74.4238C69.2166 74.4224 69.2187 74.4197 69.2207 74.416C69.2257 74.4071 69.2332 74.3906 69.2451 74.3691C69.2691 74.3258 69.3076 74.2575 69.3564 74.167C69.4544 73.9855 69.5977 73.7146 69.7715 73.3721C70.1208 72.6837 70.5856 71.7178 71.0488 70.6143C72.0248 68.289 72.7998 65.7903 72.7998 64C72.7998 62.2097 72.0248 59.711 71.0488 57.3857C70.5856 56.2822 70.1208 55.3163 69.7715 54.6279C69.5977 54.2854 69.4544 54.0145 69.3564 53.833C69.3076 53.7425 69.2691 53.6742 69.2451 53.6309C69.2332 53.6094 69.2257 53.5929 69.2207 53.584L69.2158 53.5771L69.2051 53.5566L69.1934 53.5361L72 52C69.3255 53.4634 69.1986 53.5323 69.1924 53.5352L69.1904 53.5312C69.1895 53.5296 69.1878 53.5277 69.1865 53.5254C69.1835 53.5199 69.1796 53.5118 69.1748 53.5029C69.1652 53.4852 69.1522 53.4604 69.1357 53.4297C69.1026 53.3678 69.0561 53.28 68.998 53.1689C68.8818 52.9465 68.7187 52.6286 68.5244 52.2344C68.1368 51.448 67.6176 50.3444 67.0928 49.0723C66.0872 46.6347 64.8868 43.1766 64.8018 40.0879C64.6941 36.1713 66.2546 31.8159 67.6045 28.7422C67.8421 28.2011 68.081 27.685 68.3125 27.2002H64L72 9.59961L80 27.2002Z" fill="#243946"/>
</svg>
