<svg width="96" height="96" viewBox="0 0 96 96" fill="none" xmlns="http://www.w3.org/2000/svg">
<path fill-rule="evenodd" clip-rule="evenodd" d="M71.8873 24.9798C67.5249 16.4528 59.952 9.20227 48.3953 9.20227C36.8386 9.20227 29.2656 16.4528 24.9033 24.9798C20.577 33.4361 19.0947 43.6372 19.7398 51.0487C19.8519 52.3365 20.7279 53.4305 21.9601 53.8214C28.7461 55.9742 39.0491 57.2023 48.3953 57.2023C57.7415 57.2023 68.0445 55.9742 74.8305 53.8214C76.0627 53.4305 76.9387 52.3365 77.0508 51.0487C77.6958 43.6372 76.2136 33.4361 71.8873 24.9798ZM26.0023 48.3224C25.8809 42.2218 27.2783 34.3892 30.6009 27.8947C34.297 20.6702 40.0554 15.6023 48.3953 15.6023C56.7352 15.6023 62.4936 20.6702 66.1897 27.8947C69.5122 34.3892 70.9097 42.2218 70.7883 48.3224C64.8299 49.8575 56.3628 50.8023 48.3953 50.8023C40.4278 50.8023 31.9607 49.8575 26.0023 48.3224Z" fill="#243946"/>
<path d="M76.7955 86.0515L72.3501 60.8404L65.8214 62.4023L70.4927 87.1628L76.7955 86.0515Z" fill="#243946"/>
<path d="M19.0215 86.0523L23.4669 60.8412L29.5956 62.0023L25.3243 87.1636L19.0215 86.0523Z" fill="#243946"/>
<path d="M35.9954 86.8778L37.9954 63.2021L44.3954 63.602L42.3711 87.4356L35.9954 86.8778Z" fill="#243946"/>
<path d="M57.1956 63.2021L59.1956 86.8778L52.8199 87.4356L50.7956 63.602L57.1956 63.2021Z" fill="#243946"/>
</svg>
